<svg width="20" height="21" viewBox="0 0 20 21" fill="none" xmlns="http://www.w3.org/2000/svg">
<path d="M6.25 1.75C6.41576 1.75 6.57473 1.81585 6.69194 1.93306C6.80915 2.05027 6.875 2.20924 6.875 2.375V3H9.375V2.375C9.375 2.20924 9.44085 2.05027 9.55806 1.93306C9.67527 1.81585 9.83424 1.75 10 1.75C10.1658 1.75 10.3247 1.81585 10.4419 1.93306C10.5592 2.05027 10.625 2.20924 10.625 2.375V3H13.125V2.375C13.125 2.20924 13.1908 2.05027 13.3081 1.93306C13.4253 1.81585 13.5842 1.75 13.75 1.75C13.9158 1.75 14.0747 1.81585 14.1919 1.93306C14.3092 2.05027 14.375 2.20924 14.375 2.375V3C14.8723 3 15.3492 3.19754 15.7008 3.54918C16.0525 3.90081 16.25 4.37772 16.25 4.875V8.045C15.6009 8.15757 15.0026 8.4685 14.5375 8.935L12.8612 10.6125C12.7553 10.5386 12.6291 10.4993 12.5 10.5H7.5C7.33424 10.5 7.17527 10.5658 7.05806 10.6831C6.94085 10.8003 6.875 10.9592 6.875 11.125C6.875 11.2908 6.94085 11.4497 7.05806 11.5669C7.17527 11.6842 7.33424 11.75 7.5 11.75H11.7237L9.1775 14.295C9.02167 14.4517 8.8775 14.6183 8.745 14.795C8.72555 14.6443 8.65189 14.5059 8.53778 14.4056C8.42367 14.3053 8.27693 14.25 8.125 14.25H7.5C7.33424 14.25 7.17527 14.3158 7.05806 14.4331C6.94085 14.5503 6.875 14.7092 6.875 14.875C6.875 15.0408 6.94085 15.1997 7.05806 15.3169C7.17527 15.4342 7.33424 15.5 7.5 15.5H8.125C8.19166 15.5001 8.25792 15.4896 8.32125 15.4688C8.15419 15.7928 8.02501 16.1351 7.93625 16.4888L7.5575 18.0025C7.45257 18.417 7.48323 18.8542 7.645 19.25H5.625C5.12772 19.25 4.65081 19.0525 4.29917 18.7008C3.94754 18.3492 3.75 17.8723 3.75 17.375V4.875C3.75 4.37772 3.94754 3.90081 4.29917 3.54918C4.65081 3.19754 5.12772 3 5.625 3V2.375C5.625 2.20924 5.69085 2.05027 5.80806 1.93306C5.92527 1.81585 6.08424 1.75 6.25 1.75ZM6.875 7.375C6.875 7.54076 6.94085 7.69973 7.05806 7.81694C7.17527 7.93415 7.33424 8 7.5 8H12.5C12.6658 8 12.8247 7.93415 12.9419 7.81694C13.0592 7.69973 13.125 7.54076 13.125 7.375C13.125 7.20924 13.0592 7.05027 12.9419 6.93306C12.8247 6.81585 12.6658 6.75 12.5 6.75H7.5C7.33424 6.75 7.17527 6.81585 7.05806 6.93306C6.94085 7.05027 6.875 7.20924 6.875 7.375ZM15.4225 9.81875C15.7883 9.45292 16.2845 9.24739 16.8019 9.24739C17.3192 9.2474 17.8154 9.45292 18.1812 9.81875C18.5471 10.1846 18.7526 10.6808 18.7526 11.1981C18.7526 11.7155 18.5471 12.2117 18.1812 12.5775L12.82 17.9375C12.3744 18.3815 11.8173 18.6971 11.2075 18.8513L9.69375 19.23C9.56595 19.262 9.43204 19.2604 9.30506 19.2253C9.17808 19.1901 9.06237 19.1227 8.9692 19.0295C8.87604 18.9364 8.80861 18.8207 8.77348 18.6937C8.73835 18.5667 8.73672 18.4328 8.76875 18.305L9.14875 16.7925C9.30125 16.1813 9.61625 15.6238 10.0612 15.18L15.4225 9.81875Z" fill="#5E189D"/>
</svg>
