<svg width="28" height="28" viewBox="0 0 30 30" fill="none" xmlns="http://www.w3.org/2000/svg">
<path d="M27.8171 0.600098H2.18507C1.76497 0.600098 1.36207 0.766983 1.06502 1.06404C0.76796 1.3611 0.601074 1.76399 0.601074 2.1841V27.8161C0.601074 28.2362 0.76796 28.6391 1.06502 28.9362C1.36207 29.2332 1.76497 29.4001 2.18507 29.4001H15.9803V18.2401H12.2363V13.9201H15.9803V10.6801C15.9027 9.91943 15.9925 9.151 16.2434 8.42871C16.4942 7.70642 16.9001 7.04776 17.4325 6.49893C17.9648 5.9501 18.6108 5.52438 19.3251 5.25164C20.0395 4.9789 20.8048 4.86574 21.5675 4.9201C22.6883 4.91236 23.8086 4.97006 24.9227 5.0929V8.9809H22.6331C20.8187 8.9809 20.4731 9.8449 20.4731 11.0977V13.8769H24.7931L24.2315 18.1969H20.4731V29.4001H27.8171C28.0251 29.4001 28.2311 29.3591 28.4232 29.2795C28.6154 29.1999 28.79 29.0832 28.9371 28.9362C29.0842 28.7891 29.2009 28.6144 29.2805 28.4223C29.3601 28.2301 29.4011 28.0241 29.4011 27.8161V2.1841C29.4011 1.97608 29.3601 1.77011 29.2805 1.57793C29.2009 1.38575 29.0842 1.21113 28.9371 1.06404C28.79 0.916953 28.6154 0.800276 28.4232 0.720673C28.2311 0.641069 28.0251 0.600098 27.8171 0.600098Z" fill="#5E189D"/>
</svg>
