<svg width="28" height="28" viewBox="0 0 30 30" fill="none" xmlns="http://www.w3.org/2000/svg">
<path d="M16.4809 0.600098C18.1008 0.604418 18.923 0.613057 19.6329 0.633217L19.9123 0.643297C20.2348 0.654816 20.5531 0.669216 20.9375 0.686495C22.4697 0.758494 23.5151 1.00041 24.4323 1.35608C25.3827 1.72183 26.1833 2.21718 26.984 3.01636C27.7165 3.73596 28.2831 4.60676 28.6442 5.56798C28.9999 6.48523 29.2418 7.53065 29.3138 9.06421C29.3311 9.44724 29.3455 9.76548 29.357 10.0895L29.3657 10.3688C29.3873 11.0773 29.3959 11.8995 29.3988 13.5195L29.4002 14.5937V16.48C29.4037 17.5303 29.3927 18.5807 29.3671 19.6307L29.3585 19.91C29.3469 20.234 29.3325 20.5523 29.3153 20.9353C29.2433 22.4688 28.9985 23.5128 28.6442 24.4315C28.2831 25.3927 27.7165 26.2635 26.984 26.9831C26.2644 27.7156 25.3936 28.2823 24.4323 28.6434C23.5151 28.9991 22.4697 29.241 20.9375 29.313L19.9123 29.3562L19.6329 29.3648C18.923 29.385 18.1008 29.3951 16.4809 29.398L15.4066 29.3994H13.5217C12.4709 29.4031 11.4201 29.3921 10.3696 29.3663L10.0903 29.3576C9.74845 29.3447 9.4067 29.3298 9.06503 29.313C7.53291 29.241 6.48749 28.9991 5.5688 28.6434C4.60809 28.2821 3.7378 27.7155 3.01862 26.9831C2.2856 26.2637 1.71849 25.3929 1.3569 24.4315C1.00123 23.5143 0.759313 22.4688 0.687315 20.9353L0.644116 19.91L0.636916 19.6307C0.610372 18.5807 0.598371 17.5304 0.600917 16.48V13.5195C0.596931 12.4692 0.607492 11.4188 0.632596 10.3688L0.642676 10.0895C0.654195 9.76548 0.668595 9.44724 0.685875 9.06421C0.757873 7.53065 0.999787 6.48667 1.35546 5.56798C1.71789 4.60637 2.286 3.73553 3.02006 3.01636C3.73882 2.28421 4.60861 1.71762 5.5688 1.35608C6.48749 1.00041 7.53147 0.758494 9.06503 0.686495C9.44806 0.669216 9.76774 0.654816 10.0903 0.643297L10.3696 0.634657C11.4197 0.609073 12.47 0.598032 13.5203 0.601538L16.4809 0.600098ZM15.0006 7.79992C13.0911 7.79992 11.2598 8.55847 9.90952 9.9087C8.55929 11.2589 7.80074 13.0902 7.80074 14.9997C7.80074 16.9093 8.55929 18.7406 9.90952 20.0908C11.2598 21.441 13.0911 22.1996 15.0006 22.1996C16.9101 22.1996 18.7414 21.441 20.0916 20.0908C21.4418 18.7406 22.2004 16.9093 22.2004 14.9997C22.2004 13.0902 21.4418 11.2589 20.0916 9.9087C18.7414 8.55847 16.9101 7.79992 15.0006 7.79992ZM15.0006 10.6799C15.5679 10.6798 16.1296 10.7914 16.6538 11.0084C17.1779 11.2254 17.6542 11.5435 18.0554 11.9446C18.4566 12.3457 18.7749 12.8219 18.9921 13.3459C19.2093 13.87 19.3211 14.4317 19.3212 14.999C19.3213 15.5663 19.2096 16.1281 18.9926 16.6522C18.7756 17.1764 18.4575 17.6527 18.0564 18.0539C17.6554 18.4551 17.1792 18.7734 16.6551 18.9905C16.131 19.2077 15.5693 19.3195 15.002 19.3196C13.8563 19.3196 12.7575 18.8645 11.9474 18.0544C11.1372 17.2442 10.6821 16.1455 10.6821 14.9997C10.6821 13.854 11.1372 12.7553 11.9474 11.9451C12.7575 11.135 13.8563 10.6799 15.002 10.6799M22.5618 5.63998C22.0844 5.63998 21.6266 5.82961 21.2891 6.16717C20.9515 6.50473 20.7619 6.96255 20.7619 7.43993C20.7619 7.91731 20.9515 8.37514 21.2891 8.71269C21.6266 9.05025 22.0844 9.23989 22.5618 9.23989C23.0392 9.23989 23.497 9.05025 23.8346 8.71269C24.1721 8.37514 24.3618 7.91731 24.3618 7.43993C24.3618 6.96255 24.1721 6.50473 23.8346 6.16717C23.497 5.82961 23.0392 5.63998 22.5618 5.63998Z" fill="#5E189D"/>
</svg>
