<svg width="195" height="81" viewBox="0 0 195 81" fill="none" xmlns="http://www.w3.org/2000/svg">
<path d="M60.0144 39.259C59.0434 39.259 58.2666 39.0041 57.684 38.4944C57.1257 37.9603 56.8466 37.2928 56.8466 36.4917C56.8466 35.3994 57.2714 34.4649 58.121 33.6881C58.9706 32.9113 60.0022 32.5229 61.2159 32.5229C62.1869 32.5229 62.9515 32.7899 63.5098 33.324C64.0681 33.8337 64.3473 34.5013 64.3473 35.3266C64.3473 36.3947 63.9225 37.3171 63.0729 38.0938C62.2233 38.8706 61.2038 39.259 60.0144 39.259ZM62.7088 41.3708L59.1405 61.6882H52.9142L56.4825 41.3708H62.7088ZM74.6852 36.1276L77.6345 55.4255L87.3563 36.1276H93.9831L80.4017 61.6882H72.6098L68.0584 36.1276H74.6852ZM100.991 39.259C100.02 39.259 99.2433 39.0041 98.6608 38.4944C98.1025 37.9603 97.8233 37.2928 97.8233 36.4917C97.8233 35.3994 98.2481 34.4649 99.0977 33.6881C99.9473 32.9113 100.979 32.5229 102.193 32.5229C103.164 32.5229 103.928 32.7899 104.487 33.324C105.045 33.8337 105.324 34.5013 105.324 35.3266C105.324 36.3947 104.899 37.3171 104.05 38.0938C103.2 38.8706 102.181 39.259 100.991 39.259ZM103.686 41.3708L100.117 61.6882H93.8909L97.4592 41.3708H103.686ZM122.434 41.1524C124.473 41.1524 126.075 41.7228 127.241 42.8637C128.406 44.0046 128.988 45.5945 128.988 47.6335C128.988 48.3132 128.916 49.0414 128.77 49.8182L126.658 61.6882H120.468L122.434 50.6557C122.507 50.243 122.544 49.8789 122.544 49.5633C122.544 48.5438 122.252 47.7549 121.67 47.1966C121.111 46.6383 120.323 46.3592 119.303 46.3592C118.089 46.3592 117.07 46.7354 116.244 47.4879C115.419 48.2404 114.885 49.2963 114.642 50.6557V50.4736L112.676 61.6882H106.45L110.018 41.3708H116.244L115.771 44.1017C116.572 43.2035 117.543 42.4874 118.684 41.9534C119.849 41.4194 121.099 41.1524 122.434 41.1524Z" fill="#5E189D"/>
<path d="M33.0666 16.4452C8.24084 18.9278 6.65475 32.9287 1 40.7212C28.3083 25.2051 155.127 20.6537 189.469 29.7565C186.779 22.3088 183.124 19.4814 179.332 18.7918C184.504 15.2748 186.159 14.4473 189.469 9.06837L145.817 16.4452C84.7869 -12.7252 55.065 6.58385 33.0666 16.4452Z" fill="#5E189D" stroke="#5E189D" stroke-width="0.413763" stroke-linecap="round"/>
<path d="M36.7905 20.3758C48.9965 11.2041 87.3109 -2.25696 125.543 12.3075C119.129 17.8933 63.4368 24.8444 36.7905 20.3758Z" fill="#F1D8FE"/>
<path d="M141.886 14.1695L134.645 11.2732C126.535 19.8795 107.337 24.5846 101.751 27.6878C126.37 29.5498 137.335 16.5831 141.886 14.1695Z" fill="#F1D8FE" stroke="#F1D8FE" stroke-width="0.413763"/>
<path d="M13.2058 44.0311C18.1265 39.5319 31.5528 33.0719 45.8931 43.2253C32.1855 38.0681 18.3901 41.6137 13.2058 44.0311Z" fill="#5E189D" stroke="#5E189D" stroke-width="0.413763"/>
<path d="M137.335 36.5839C142.256 32.0847 155.682 25.6246 170.022 35.7781C156.315 30.6208 142.519 34.1664 137.335 36.5839Z" fill="#5E189D" stroke="#5E189D" stroke-width="0.413763"/>
<path d="M28.772 48.1174C24.5585 79.9908 135.423 99.392 154.822 42.5742" stroke="#5E189D" stroke-width="2.7716"/>
</svg>
