<svg width="281" height="117" viewBox="0 0 281 117" fill="none" xmlns="http://www.w3.org/2000/svg">
<path d="M89.3198 51.9599L93.5812 79.843L107.628 51.9599H117.203L97.5796 88.8919H86.3211L79.7449 51.9599H89.3198ZM127.329 56.4844C125.926 56.4844 124.803 56.1161 123.962 55.3796C123.155 54.608 122.752 53.6434 122.752 52.486C122.752 50.9077 123.365 49.5574 124.593 48.4351C125.821 47.3128 127.311 46.7516 129.065 46.7516C130.468 46.7516 131.572 47.1374 132.379 47.909C133.186 48.6455 133.589 49.61 133.589 50.8025C133.589 52.3457 132.975 53.6785 131.748 54.8009C130.52 55.9232 129.047 56.4844 127.329 56.4844ZM131.222 59.5357L126.066 88.8919H117.07L122.226 59.5357H131.222ZM158.312 59.2201C161.258 59.2201 163.573 60.0443 165.256 61.6927C166.94 63.3412 167.781 65.6384 167.781 68.5846C167.781 69.5666 167.676 70.6188 167.466 71.7412L164.414 88.8919H155.471L158.312 72.9512C158.417 72.3549 158.469 71.8288 158.469 71.3729C158.469 69.8998 158.049 68.7599 157.207 67.9533C156.4 67.1466 155.26 66.7432 153.787 66.7432C152.034 66.7432 150.56 67.2869 149.368 68.3741C148.175 69.4614 147.404 70.9871 147.053 72.9512V72.6881L144.212 88.8919H135.216L140.372 59.5357H149.368L148.684 63.4815C149.841 62.1837 151.244 61.1491 152.893 60.3775C154.576 59.6059 156.383 59.2201 158.312 59.2201ZM197.392 70.5837L206.388 88.8919H195.918L190.394 77.5808L181.766 88.8919H171.56L186.712 70.1103L177.821 51.9599H188.29L193.761 63.1132L202.232 51.9599H212.438L197.392 70.5837Z" fill="#5E189D"/>
<path d="M47.3323 23.3164C11.4621 26.9035 9.17043 47.1331 1 58.3923C40.4572 35.9734 223.694 29.3972 273.315 42.5496C269.429 31.7886 264.148 27.7033 258.668 26.707C266.141 21.6254 268.532 20.4297 273.315 12.6578L210.243 23.3164C122.062 -18.8313 79.1173 9.06799 47.3323 23.3164Z" fill="#5E189D" stroke="#5E189D" stroke-width="0.597837" stroke-linecap="round"/>
<path d="M52.7132 28.9956C70.3493 15.7436 125.709 -3.70599 180.949 17.3379C171.683 25.4087 91.2138 35.4523 52.7132 28.9956Z" fill="#F1D8FE"/>
<path d="M204.563 20.0282L194.101 15.8433C182.384 28.2783 154.644 35.0767 146.573 39.5605C182.144 42.2508 197.987 23.5156 204.563 20.0282Z" fill="#F1D8FE" stroke="#F1D8FE" stroke-width="0.597837"/>
<path d="M18.6361 63.175C25.7458 56.6742 45.1453 47.3402 65.8652 62.0107C46.0594 54.5591 26.1267 59.6821 18.6361 63.175Z" fill="#5E189D" stroke="#5E189D" stroke-width="0.597837"/>
<path d="M197.987 52.4139C205.097 45.9131 224.496 36.5791 245.216 51.2496C225.41 43.798 205.478 48.921 197.987 52.4139Z" fill="#5E189D" stroke="#5E189D" stroke-width="0.597837"/>
<path d="M41.1274 69.0786C35.0393 115.132 195.225 143.164 223.255 61.0694" stroke="#5E189D" stroke-width="4.00463"/>
</svg>
