<svg width="138" height="133" xmlns="http://www.w3.org/2000/svg" xmlns:xlink="http://www.w3.org/1999/xlink"><defs><linearGradient x1="50%" y1="-95.344%" x2="50%" y2="114.15%" id="i"><stop stop-color="#C12839" offset="0%"/><stop stop-color="#F03E5F" offset="100%"/><stop stop-color="#F13F60" offset="100%"/></linearGradient><linearGradient x1="50%" y1="-160.988%" x2="50%" y2="114.15%" id="j"><stop stop-color="#C12839" offset="0%"/><stop stop-color="#F03E5F" offset="100%"/><stop stop-color="#F13F60" offset="100%"/></linearGradient><linearGradient x1="50%" y1="-160.988%" x2="50%" y2="114.15%" id="k"><stop stop-color="#C12839" offset="0%"/><stop stop-color="#F03E5F" offset="100%"/><stop stop-color="#F13F60" offset="100%"/></linearGradient><linearGradient x1="50%" y1="-560.971%" x2="50%" y2="114.15%" id="l"><stop stop-color="#C12839" offset="0%"/><stop stop-color="#F03E5F" offset="100%"/><stop stop-color="#F13F60" offset="100%"/></linearGradient><linearGradient x1="50%" y1="0%" x2="50%" y2="70.898%" id="m"><stop stop-color="#FFF" offset="0%"/><stop stop-color="#FFF" stop-opacity="0" offset="100%"/></linearGradient><filter x="-15.2%" y="-10.1%" width="130.4%" height="130.4%" filterUnits="objectBoundingBox" id="a"><feOffset dy="6" in="SourceAlpha" result="shadowOffsetOuter1"/><feGaussianBlur stdDeviation="5" in="shadowOffsetOuter1" result="shadowBlurOuter1"/><feColorMatrix values="0 0 0 0 0 0 0 0 0 0 0 0 0 0 0 0 0 0 0.03 0" in="shadowBlurOuter1"/></filter><filter x="-17.8%" y="-11.8%" width="135.5%" height="135.5%" filterUnits="objectBoundingBox" id="c"><feOffset dy="6" in="SourceAlpha" result="shadowOffsetOuter1"/><feGaussianBlur stdDeviation="5" in="shadowOffsetOuter1" result="shadowBlurOuter1"/><feColorMatrix values="0 0 0 0 0 0 0 0 0 0 0 0 0 0 0 0 0 0 0.04 0" in="shadowBlurOuter1"/></filter><circle id="b" cx="59.289" cy="59.289" r="59.289"/><circle id="d" cx="59.289" cy="59.289" r="50.665"/><path d="M50.767.281C22.73.281 0 23.011 0 51.05s22.73 50.768 50.767 50.768c28.04 0 50.768-22.73 50.768-50.768" id="e"/><path d="M50.767.402C22.73.402 0 23.132 0 51.17s22.73 50.768 50.767 50.768c28.04 0 50.768-22.73 50.768-50.768S78.806.402 50.767.402z" id="g"/></defs><g fill="none" fill-rule="evenodd"><g transform="translate(10 4)"><use fill="#000" filter="url(#a)" xlink:href="#b"/><use fill="#E0F6FF" xlink:href="#b"/></g><g transform="translate(10 4)"><use fill="#000" filter="url(#c)" xlink:href="#d"/><use fill="#C5EEFF" xlink:href="#d"/></g><g transform="translate(18.537 12.289)"><g transform="translate(0 .121)"><mask id="f" fill="#fff"><use xlink:href="#e"/></mask><path d="M101.535 51.049c0 28.038-22.73 50.767-50.767 50.767C22.729 101.816 0 79.087 0 51.05 0 23.011 22.73.282 50.768.282s50.767 22.729 50.767 50.767" fill="#C5EEFF" mask="url(#f)"/></g><mask id="h" fill="#fff"><use xlink:href="#g"/></mask><path fill="#FFF" mask="url(#h)" d="M34.217 68.146h74.272V17.688H34.217z"/><g mask="url(#h)"><path fill="url(#i)" d="M0 50.348h74.272v-3.955H0z" transform="translate(34.217 17.688)"/><path fill="url(#j)" d="M0 42.615h74.272v-3.954H0z" transform="translate(34.217 17.688)"/><path fill="url(#k)" d="M0 34.883h74.272V30.93H0z" transform="translate(34.217 17.688)"/><path fill="url(#l)" d="M0 27.15h74.272v-3.954H0zM0 19.419h74.272v-3.955H0zM0 11.687h74.272V7.732H0zM0 3.954h74.272V0H0z" transform="translate(34.217 17.688)"/></g><path fill="#2487D2" mask="url(#h)" d="M34.218 44.84h34.86V17.687h-34.86z"/><path fill="#FFF" mask="url(#h)" d="M37.881 20.864l.362-.745.371.74.82.114-.588.582.145.815-.736-.38-.73.39.134-.818-.596-.574zM43.21 20.864l.362-.745.37.74.82.114-.588.582.145.815-.736-.38-.73.39.135-.818-.597-.574zM48.538 20.864l.362-.745.371.74.82.114-.589.582.145.815-.735-.38-.731.39.135-.818-.597-.574zM53.866 20.864l.363-.745.37.74.82.114-.589.582.145.815-.735-.38-.731.39.135-.818-.597-.574zM59.194 20.864l.363-.745.371.74.82.114-.59.582.146.815-.736-.38-.73.39.134-.818-.596-.574zM40.581 24.123l.362-.745.371.74.82.114-.589.582.145.815-.735-.381-.73.39.134-.817-.597-.574zM45.91 24.123l.361-.745.371.74.82.114-.588.582.145.815-.736-.381-.73.39.134-.817-.596-.574zM51.238 24.123l.362-.745.371.74.82.114-.589.582.145.815-.735-.381-.732.39.136-.817-.597-.574zM56.566 24.123l.362-.745.371.74.82.114-.589.582.145.815-.735-.381-.73.39.134-.817-.596-.574zM61.895 24.123l.362-.745.37.74.82.114-.589.582.145.815-.735-.381-.73.39.134-.817-.596-.574zM64.523 20.864l.362-.745.372.74.819.114-.589.582.145.815-.736-.38-.73.39.135-.818-.597-.574zM37.881 27.575l.362-.746.371.74.82.115-.588.581.145.816-.736-.381-.73.39.134-.817-.596-.574zM43.21 27.575l.362-.746.37.74.82.115-.588.581.145.816-.736-.381-.73.39.135-.817-.597-.574zM48.538 27.575l.362-.746.371.74.82.115-.589.581.145.816-.735-.381-.731.39.135-.817-.597-.574zM53.866 27.575l.363-.746.37.74.82.115-.589.581.145.816-.735-.381-.731.39.135-.817-.597-.574zM59.194 27.575l.363-.746.371.74.82.115-.59.581.146.816-.736-.381-.73.39.134-.817-.596-.574zM40.581 30.833l.362-.745.371.74.82.115-.589.581.145.816-.735-.381-.73.39.134-.817-.597-.575zM45.91 30.833l.361-.745.371.74.82.115-.588.581.145.816-.736-.381-.73.39.134-.817-.596-.575zM51.238 30.833l.362-.745.371.74.82.115-.589.581.145.816-.735-.381-.732.39.136-.817-.597-.575zM56.566 30.833l.362-.745.371.74.82.115-.589.581.145.816-.735-.381-.73.39.134-.817-.596-.575zM61.895 30.833l.362-.745.37.74.82.115-.589.581.145.816-.735-.381-.73.39.134-.817-.596-.575zM64.523 27.575l.362-.746.372.74.819.115-.589.581.145.816-.736-.381-.73.39.135-.817-.597-.574zM37.881 34.285l.362-.745.371.74.82.114-.588.582.145.816-.736-.381-.73.39.134-.817-.596-.575zM43.21 34.285l.362-.745.37.74.82.114-.588.582.145.816-.736-.381-.73.39.135-.817-.597-.575zM48.538 34.285l.362-.745.371.74.82.114-.589.582.145.816-.735-.381-.731.39.135-.817-.597-.575zM53.866 34.285l.363-.745.37.74.82.114-.589.582.145.816-.735-.381-.731.39.135-.817-.597-.575zM59.194 34.285l.363-.745.371.74.82.114-.59.582.146.816-.736-.381-.73.39.134-.817-.596-.575zM40.581 37.544l.362-.745.371.74.82.114-.589.582.145.816-.735-.382-.73.39.134-.817-.597-.574zM45.91 37.544l.361-.745.371.74.82.114-.588.582.145.816-.736-.382-.73.39.134-.817-.596-.574zM51.238 37.544l.362-.745.371.74.82.114-.589.582.145.816-.735-.382-.732.39.136-.817-.597-.574zM56.566 37.544l.362-.745.371.74.82.114-.589.582.145.816-.735-.382-.73.39.134-.817-.596-.574zM61.895 37.544l.362-.745.37.74.82.114-.589.582.145.816-.735-.382-.73.39.134-.817-.596-.574zM64.523 34.285l.362-.745.372.74.819.114-.589.582.145.816-.736-.381-.73.39.135-.817-.597-.575zM37.881 40.996l.362-.745.371.74.82.114-.588.582.145.816-.736-.382-.73.39.134-.817-.596-.574zM43.21 40.996l.362-.745.37.74.82.114-.588.582.145.816-.736-.382-.73.39.135-.817-.597-.574zM48.538 40.996l.362-.745.371.74.82.114-.589.582.145.816-.735-.382-.731.39.135-.817-.597-.574zM53.866 40.996l.363-.745.37.74.82.114-.589.582.145.816-.735-.382-.731.39.135-.817-.597-.574zM59.194 40.996l.363-.745.371.74.82.114-.59.582.146.816-.736-.382-.73.39.134-.817-.596-.574zM64.523 40.996l.362-.745.372.74.819.114-.589.582.145.816-.736-.382-.73.39.135-.817-.597-.574z"/><path fill="#202327" mask="url(#h)" d="M33.144 101.938h3.103V14.79h-3.103z"/></g><path d="M55.587 27.073a2.314 2.314 0 10-4.627 0 2.314 2.314 0 004.627 0" fill="#626262"/><path d="M96.26 25.781c8.188 8.876 13.218 20.915 13.218 34.172 0 27.297-21.327 49.426-47.636 49.426-12.776 0-24.378-5.22-32.933-13.715z" fill="url(#m)" opacity=".446" transform="rotate(4 16.921 212.761)"/></g></svg>