<svg width="32" height="32" viewBox="0 0 32 32" fill="none" xmlns="http://www.w3.org/2000/svg">
<path d="M24.0003 17.3307H17.3337V23.9973C17.3337 24.351 17.1932 24.6901 16.9431 24.9401C16.6931 25.1902 16.3539 25.3307 16.0003 25.3307C15.6467 25.3307 15.3076 25.1902 15.0575 24.9401C14.8075 24.6901 14.667 24.351 14.667 23.9973V17.3307H8.00033C7.6467 17.3307 7.30757 17.1902 7.05752 16.9401C6.80747 16.6901 6.66699 16.351 6.66699 15.9973C6.66699 15.6437 6.80747 15.3046 7.05752 15.0545C7.30757 14.8045 7.6467 14.664 8.00033 14.664H14.667V7.99733C14.667 7.64371 14.8075 7.30457 15.0575 7.05453C15.3076 6.80448 15.6467 6.664 16.0003 6.664C16.3539 6.664 16.6931 6.80448 16.9431 7.05453C17.1932 7.30457 17.3337 7.64371 17.3337 7.99733V14.664H24.0003C24.3539 14.664 24.6931 14.8045 24.9431 15.0545C25.1932 15.3046 25.3337 15.6437 25.3337 15.9973C25.3337 16.351 25.1932 16.6901 24.9431 16.9401C24.6931 17.1902 24.3539 17.3307 24.0003 17.3307Z" fill="#5E189D"/>
</svg>
