<svg width="484" height="431" viewBox="0 0 484 431" fill="none" xmlns="http://www.w3.org/2000/svg">
<path d="M216.508 19.594C140.508 71.194 68.0083 65.0941 28.0084 96.094C-28.9917 167.594 20.5084 190.094 9.50829 261.094C-0.36963 324.851 40.5084 326.094 79.5084 395.594C118.508 465.094 358.508 424.594 452.008 326.094C526.808 247.294 447.508 188.094 431.008 116.094C399.008 24.5942 292.508 -32.006 216.508 19.594Z" fill="#5E189D" fill-opacity="0.05"/>
<path d="M404.73 334.311L359.596 52.1147C358.988 48.3121 356.734 44.2774 353.62 40.8004C346.307 42.0644 338.984 43.273 331.652 44.4199C283.647 51.9293 235.313 57.0405 186.974 61.8318C186.13 62.0534 185.288 62.2851 184.448 62.5303C183.106 62.9223 182.018 62.4442 181.33 61.6163L177.895 62.2868C167.723 63.9136 160.796 73.4782 162.423 83.6504L202.291 367.068C203.918 377.24 218.749 382.945 228.921 381.319L389.257 355.675C399.429 354.048 406.356 344.482 404.73 334.311Z" fill="#5E189D"/>
<path opacity="0.5" d="M404.671 334.335L359.536 52.1391C358.928 48.3335 356.672 44.2957 353.554 40.817C346.273 42.0749 338.983 43.2778 331.682 44.4194C283.678 51.9289 235.343 57.0401 187.004 61.8314C186.16 62.053 185.318 62.2846 184.479 62.5298C183.14 62.921 182.053 62.4455 181.365 61.6216L177.836 62.3108C167.664 63.9381 160.737 73.5023 162.364 83.6749L202.232 367.093C203.859 377.264 218.69 382.97 228.862 381.343L389.198 355.699C399.37 354.072 406.297 344.507 404.671 334.335Z" fill="#283044"/>
<path d="M343.266 35.2368L182.93 60.8807C172.758 62.5075 165.831 72.0726 167.458 82.2447L212.592 364.44C214.219 374.612 223.784 381.54 233.956 379.913L394.292 354.269C404.464 352.642 411.391 343.077 409.764 332.905L364.63 50.7095C363.003 40.5369 353.438 33.61 343.266 35.2368Z" fill="#5E189D"/>
<path d="M347.111 52.2773L184.592 78.2704C182.048 78.6773 180.316 81.069 180.722 83.6128L221.213 336.775C221.619 339.319 224.012 341.051 226.555 340.644L389.074 314.651C391.618 314.244 393.35 311.852 392.944 309.308L352.453 56.1463C352.047 53.6029 349.655 51.8703 347.111 52.2773Z" fill="#283044"/>
<path d="M352.458 56.1472L392.949 309.31C393.356 311.853 391.617 314.237 389.073 314.644L226.55 340.638C224.007 341.045 221.625 339.319 221.218 336.776L180.727 83.6133C180.32 81.0703 182.044 78.6743 184.587 78.2678L347.11 52.2742C349.653 51.8677 352.051 53.6043 352.458 56.1472Z" fill="#F1D8FE"/>
<path d="M287.723 53.8708L241.514 61.2614C239.376 61.6032 237.92 63.6137 238.261 65.7515L239.488 73.4235C239.831 75.5622 241.841 77.0181 243.979 76.6763L290.188 69.2857C292.326 68.9439 293.782 66.9329 293.441 64.7947L292.214 57.1227C291.872 54.9849 289.861 53.529 287.723 53.8708Z" fill="#5E189D"/>
<path d="M248.911 68.0239C249.297 69.4331 248.467 70.8872 247.058 71.2727C245.649 71.6582 244.194 70.8282 243.809 69.4191C243.423 68.0104 244.253 66.5558 245.662 66.1703C247.072 65.7852 248.526 66.6152 248.911 68.0239Z" fill="#283044"/>
<path d="M285.949 64.4018C285.894 64.4167 285.839 64.4285 285.783 64.4372L257.474 68.888C256.649 69.0178 255.876 68.4544 255.746 67.6297C255.617 66.804 256.178 66.0238 257.005 65.9019L285.314 61.4511C286.138 61.3213 286.911 61.8847 287.042 62.7094C287.162 63.4778 286.682 64.2012 285.949 64.4018Z" fill="#283044"/>
<path d="M311.267 108.322L236.128 120.34C226.279 121.915 219.572 131.176 221.147 141.025L232.303 210.772C233.878 220.621 243.138 227.328 252.987 225.752L328.127 213.734C337.976 212.159 344.683 202.899 343.107 193.05L331.952 123.303C330.377 113.454 321.116 106.747 311.267 108.322Z" fill="white"/>
<path opacity="0.5" d="M329.509 188.938C329.854 191.09 310.939 195.905 287.264 199.692C263.588 203.478 244.116 204.803 243.773 202.651C243.428 200.498 262.342 195.684 286.018 191.897C309.693 188.111 329.165 186.786 329.509 188.938Z" fill="#283044"/>
<path d="M317.059 175.511L313.621 176.061C311.968 176.326 310.843 177.88 311.107 179.533L312.68 189.366C312.944 191.019 314.498 192.144 316.151 191.88L319.589 191.33C321.242 191.066 322.368 189.511 322.103 187.858L320.531 178.026C320.266 176.373 318.712 175.247 317.059 175.511Z" fill="#283044"/>
<path d="M256.976 185.781C256.404 185.46 255.721 185.321 255.018 185.434L251.58 185.984C250.83 186.104 250.191 186.488 249.739 187.027C249.191 187.679 248.921 188.553 249.065 189.456L250.637 199.287C250.782 200.192 251.312 200.939 252.035 201.385C252.633 201.756 253.36 201.922 254.11 201.802L257.548 201.252C258.251 201.14 258.857 200.798 259.3 200.311C259.907 199.653 260.216 198.732 260.063 197.78L258.491 187.949C258.339 186.997 257.759 186.22 256.976 185.781Z" fill="#283044"/>
<path d="M320.095 170.073C320.166 170.677 320.219 171.224 320.253 171.7C320.532 175.549 321.565 180.031 315.754 182.305C313.483 183.189 308.355 184.263 302.954 185.238C294.83 186.708 286.083 187.956 285.488 188.043C284.892 188.146 276.196 189.688 268.018 190.826C262.58 191.585 257.372 192.164 254.938 192.032C248.711 191.684 248.291 187.103 247.356 183.359C247.244 182.904 247.125 182.376 247.007 181.797C246.145 177.583 245.222 170.544 245.675 168.23C245.711 168.045 245.757 167.873 245.814 167.713C246.417 165.981 248.049 165.655 248.672 163.858C248.691 163.798 248.713 163.737 248.731 163.674C248.755 163.594 248.776 163.51 248.797 163.422C248.86 163.144 248.901 162.833 248.917 162.482C249.057 159.154 251.341 141.705 252.485 138.369C253.692 134.732 258.478 134.169 261.944 133.615C265.251 133.086 275.409 131.279 276.346 131.112L276.345 131.109C276.345 131.109 276.359 131.107 276.382 131.106C276.404 131.1 276.415 131.098 276.415 131.098L276.415 131.101C277.357 130.968 287.574 129.516 290.879 128.987C294.348 128.433 299.07 127.475 301.349 130.554C303.476 133.366 311.092 149.232 312.263 152.351C312.389 152.69 312.532 152.98 312.683 153.232C312.764 153.361 312.846 153.483 312.932 153.594C314.191 155.233 316.035 154.849 317.133 156.801C318.283 158.853 319.6 165.8 320.095 170.073Z" fill="#C8A0EB"/>
<path d="M299.258 165.564C299.258 165.564 299.294 166.399 299.331 167.304C299.33 167.319 299.33 167.333 299.332 167.347C299.357 168.058 299.386 168.805 299.391 169.211C299.396 169.441 299.127 169.84 298.697 170.322C298.251 170.826 297.627 171.416 296.958 171.985C295.633 173.119 294.131 174.168 293.493 174.271L283.573 175.857C283.573 175.857 283.545 175.862 283.503 175.868L273.586 177.454C272.947 177.556 271.194 177.028 269.578 176.363C268.767 176.032 267.991 175.666 267.407 175.326C266.848 175.003 266.468 174.707 266.401 174.487C266.279 174.1 266.074 173.383 265.879 172.7L265.878 172.697L265.866 172.656C265.618 171.784 265.393 170.98 265.393 170.98C265.393 170.98 265.717 170.687 266.145 170.319C266.167 170.298 266.19 170.28 266.212 170.26C266.245 170.232 266.279 170.201 266.315 170.175C266.372 170.123 266.43 170.074 266.491 170.027C267.054 169.558 267.691 169.069 268.019 168.951C268.676 168.715 281.331 166.814 282.074 166.703C282.811 166.577 295.428 164.437 296.126 164.456C296.478 164.465 297.233 164.732 297.916 165.001C297.989 165.027 298.059 165.056 298.129 165.087C298.171 165.1 298.214 165.119 298.254 165.136C298.279 165.149 298.308 165.158 298.333 165.171C298.859 165.386 299.258 165.564 299.258 165.564Z" fill="#283044"/>
<path d="M311.303 156.861C311.303 156.861 308.549 159.652 305.857 161.558C303.165 163.465 301.845 163.877 301.747 164.664C301.649 165.452 304.234 166.476 305.113 166.38C305.992 166.284 313.163 164.837 314.313 163.356C315.463 161.875 315.494 157.942 314.99 157.307C314.485 156.672 311.732 156.426 311.303 156.861Z" fill="white"/>
<path d="M260.078 173.582C259.213 173.766 251.948 174.626 250.394 173.579C250.161 173.422 249.938 173.207 249.721 172.951C248.498 171.486 247.626 168.689 247.865 168.042C248.057 167.518 249.321 166.838 250.268 166.558C250.696 166.426 251.059 166.38 251.227 166.467C251.227 166.467 254.715 168.262 257.867 169.233C261.019 170.204 262.403 170.185 262.742 170.902C263.08 171.621 260.943 173.399 260.078 173.582Z" fill="white"/>
<path d="M253.407 183.322L263.119 185.003C263.868 185.133 264.292 185.937 263.976 186.629L263.497 187.677C263.32 188.064 262.946 188.323 262.523 188.353L253.631 188.976C253.308 188.999 252.991 188.886 252.756 188.665L251.444 187.433C251.081 187.092 250.976 186.557 251.183 186.104L252.154 183.982C252.374 183.503 252.888 183.232 253.407 183.322Z" fill="#283044"/>
<path d="M256.473 186.046C256.618 186.951 256.001 187.802 255.097 187.947C254.192 188.091 253.341 187.475 253.196 186.57C253.051 185.666 253.668 184.815 254.572 184.67C255.478 184.525 256.328 185.142 256.473 186.046Z" fill="white"/>
<path d="M270.816 182.97L269.601 181.248C269.327 180.859 268.861 180.656 268.386 180.719C266.718 180.939 262.724 181.466 261.658 181.583C260.374 181.726 248.741 182.28 247.042 182.005L246.99 181.717C248.674 181.989 260.347 181.446 261.627 181.304C262.69 181.186 266.682 180.661 268.349 180.44C268.927 180.363 269.496 180.611 269.831 181.087L271.046 182.808L270.816 182.97Z" fill="#283044"/>
<path d="M265.614 170.88L265.596 171.159C265.521 171.154 263.793 171.037 263.245 170.957C262.989 170.921 262.527 170.773 261.887 170.568C261.115 170.318 260.058 169.977 258.822 169.659C256.678 169.111 253.224 167.815 251.156 166.59C249.69 165.723 248.962 164.48 248.672 163.858C248.718 163.722 248.761 163.579 248.796 163.422C248.891 163.683 249.554 165.314 251.3 166.348C253.345 167.559 256.766 168.843 258.892 169.386C260.137 169.705 261.2 170.048 261.975 170.297C262.599 170.499 263.053 170.646 263.286 170.68C263.823 170.759 265.596 170.877 265.614 170.88Z" fill="#283044"/>
<path d="M247.918 162.957C248.054 163.875 241.727 163.813 241.256 163.666C241.075 163.609 240.753 163.276 240.467 162.831C240.323 162.604 240.189 162.352 240.085 162.089C239.86 161.516 239.789 160.905 240.123 160.492C240.906 159.516 245.532 157.681 246.42 157.918C247.306 158.157 247.918 162.957 247.918 162.957Z" fill="#C8A0EB"/>
<path d="M247.285 160.956L249.756 160.467L249.351 163.107L246.822 163.512L247.285 160.956Z" fill="#C8A0EB"/>
<path d="M243.466 162.62L241.022 162.742C240.879 162.516 240.744 162.264 240.641 162.001L243.186 161.873C243.244 161.869 243.3 161.897 243.33 161.949L243.591 162.377C243.656 162.479 243.586 162.614 243.466 162.62Z" fill="white"/>
<path d="M297.877 177.918C297.525 177.393 295.28 176.5 294.495 176.625C293.746 176.745 284.794 178.177 283.965 178.309C283.965 178.309 283.937 178.314 283.897 178.32C283.068 178.453 274.116 179.884 273.367 180.004C272.582 180.13 270.727 181.679 270.556 182.287C270.386 182.896 272.557 185.009 273.628 185.553C274.664 186.08 284.251 184.402 284.886 184.29C285.526 184.198 295.157 182.801 295.977 181.978C296.825 181.127 298.23 178.443 297.877 177.918Z" fill="#283044"/>
<path d="M314.494 173.552L305.791 178.178C305.119 178.535 304.967 179.431 305.483 179.99L306.266 180.837C306.554 181.149 306.99 181.278 307.402 181.175L316.044 178.994C316.357 178.914 316.623 178.708 316.779 178.424L317.641 176.845C317.88 176.407 317.813 175.867 317.474 175.501L315.89 173.788C315.532 173.402 314.959 173.305 314.494 173.552Z" fill="#283044"/>
<path d="M315.903 176.541C316.048 177.446 315.432 178.297 314.527 178.442C313.622 178.586 312.771 177.97 312.627 177.065C312.482 176.16 313.098 175.309 314.003 175.165C314.908 175.02 315.759 175.636 315.903 176.541Z" fill="white"/>
<path d="M297.83 178.65L297.561 178.567L298.178 176.553C298.349 175.996 298.812 175.583 299.385 175.476C301.039 175.165 304.998 174.419 306.045 174.199C307.306 173.934 318.574 170.811 320.09 170.026L320.121 170.324C318.592 171.115 307.369 174.208 306.103 174.474C305.054 174.695 301.092 175.441 299.437 175.752C298.966 175.84 298.587 176.178 298.447 176.635L297.83 178.65Z" fill="#283044"/>
<path d="M312.931 153.594C312.841 154.281 312.527 155.678 311.412 156.953C309.829 158.761 306.955 161.069 305.089 162.259C304.011 162.947 303.113 163.6 302.458 164.078C301.914 164.473 301.524 164.757 301.289 164.872C300.793 165.119 299.186 165.758 299.119 165.785L299.015 165.523C299.031 165.518 300.678 164.864 301.166 164.621C301.377 164.516 301.76 164.236 302.293 163.848C302.951 163.37 303.855 162.713 304.937 162.021C306.788 160.842 309.635 158.556 311.203 156.767C312.494 155.293 312.662 153.6 312.683 153.232C312.763 153.362 312.845 153.483 312.931 153.594Z" fill="#283044"/>
<path d="M309.19 150.205C309.281 150.774 307.505 151.241 304.573 151.695C300.496 152.333 294.192 152.948 287.558 153.799C286.745 153.9 285.928 154.008 285.109 154.119C283.876 154.288 282.64 154.465 281.412 154.653C281 154.716 280.589 154.779 280.178 154.845C279.936 154.883 279.698 154.922 279.456 154.963C276.268 155.487 273.036 156.101 269.953 156.716C259.868 158.728 251.364 160.729 251.165 159.485C250.9 157.827 253.382 138.675 253.968 138.134C254.117 137.996 255.653 137.665 257.87 137.242C259.893 136.856 262.485 136.396 265.096 135.947C265.87 135.814 266.646 135.682 267.409 135.551C268.069 135.44 268.72 135.33 269.353 135.223C270.678 135 271.921 134.793 273.004 134.614C273.947 134.457 274.766 134.324 275.404 134.218C276.14 134.098 276.636 134.015 276.808 133.988C276.808 133.988 276.822 133.986 276.842 133.983C276.861 133.98 276.875 133.977 276.875 133.977C277.692 133.85 285.787 132.575 292.149 131.674C296.228 131.093 299.595 130.668 299.869 130.792C300.59 131.125 308.925 148.547 309.19 150.205Z" fill="#283044"/>
<path d="M313.357 152.491C313.514 153.405 319.506 151.373 319.909 151.086C320.063 150.976 320.265 150.559 320.398 150.047C320.464 149.787 320.512 149.506 320.529 149.224C320.565 148.609 320.441 148.006 319.995 147.718C318.947 147.034 313.979 146.734 313.209 147.236C312.441 147.739 313.357 152.491 313.357 152.491Z" fill="#C8A0EB"/>
<path d="M313.334 150.392L310.834 150.698L312.042 153.08L314.572 152.676L313.334 150.392Z" fill="#C8A0EB"/>
<path d="M317.481 150.782L319.841 150.136C319.907 149.876 319.956 149.594 319.973 149.312L317.514 149.985C317.458 149.999 317.414 150.044 317.402 150.102L317.286 150.59C317.257 150.708 317.366 150.814 317.481 150.782Z" fill="white"/>
<path d="M317.542 237.514L269.83 245.145C268.148 245.414 266.54 244.11 266.24 242.232C265.94 240.353 267.06 238.613 268.743 238.344L316.455 230.713C318.137 230.444 319.745 231.748 320.045 233.626C320.345 235.504 319.225 237.245 317.542 237.514Z" fill="#5E189D"/>
<path d="M356.185 247.143L236.749 266.246C235.739 266.407 234.774 265.624 234.594 264.498C234.414 263.371 235.086 262.327 236.096 262.165L355.532 243.063C356.542 242.901 357.507 243.684 357.687 244.81C357.867 245.937 357.195 246.982 356.185 247.143Z" fill="#5E189D"/>
<path d="M358.433 261.197L238.997 280.3C237.987 280.462 237.022 279.678 236.842 278.552C236.662 277.426 237.334 276.381 238.344 276.219L357.78 257.117C358.79 256.955 359.755 257.738 359.935 258.865C360.115 259.991 359.443 261.036 358.433 261.197Z" fill="#5E189D"/>
<path d="M337.106 279.024L264.82 290.585C263.811 290.747 262.846 289.963 262.666 288.837C262.486 287.711 263.158 286.666 264.168 286.504L336.453 274.943C337.463 274.781 338.427 275.565 338.607 276.691C338.787 277.818 338.115 278.862 337.106 279.024Z" fill="#5E189D"/>
<path d="M284.248 299.798L246.615 305.817C241.357 306.658 237.776 311.603 238.617 316.861C239.458 322.119 244.403 325.7 249.661 324.859L287.294 318.84C292.552 317.999 296.133 313.055 295.292 307.797C294.451 302.538 289.506 298.958 284.248 299.798Z" fill="#C8A0EB"/>
<path d="M359.153 287.818L321.52 293.837C316.262 294.678 312.681 299.622 313.522 304.881C314.363 310.139 319.307 313.72 324.565 312.879L362.198 306.86C367.457 306.019 371.038 301.074 370.197 295.816C369.356 290.558 364.411 286.977 359.153 287.818Z" fill="#5E189D"/>
<g opacity="0.2">
<path d="M388.189 279.55L392.949 309.31C393.356 311.853 391.617 314.238 389.073 314.645L315.911 326.346L204.506 232.29L184.569 107.634L388.189 279.55Z" fill="white"/>
<path d="M374.464 193.739L382.339 242.976L186.818 77.9111L229.227 71.1285L374.464 193.739Z" fill="white"/>
</g>
<path d="M85.6928 190.022L196.06 191.212C202.126 191.443 206.857 196.549 206.625 202.616L200.619 376.182C200.388 382.249 195.282 386.979 189.216 386.748L75.0416 380.821C68.975 380.59 64.2444 375.484 64.4757 369.417L74.2885 200.588C74.5202 194.52 79.6257 189.79 85.6928 190.022Z" fill="#C8A0EB"/>
<path opacity="0.4" d="M85.6928 190.022L196.06 191.212C202.126 191.443 206.857 196.549 206.625 202.616L200.619 376.182C200.388 382.249 195.282 386.979 189.216 386.748L75.0416 380.821C68.975 380.59 64.2444 375.484 64.4757 369.417L74.2885 200.588C74.5202 194.52 79.6257 189.79 85.6928 190.022Z" fill="#283044"/>
<path d="M202.957 201.87L196.956 375.441C196.719 381.51 191.619 386.239 185.549 386.003L170.517 385.226L155.576 384.449H155.53L148.436 384.077L138.81 383.582L119.083 382.557L97.7225 381.454L71.3745 380.08C67.2423 379.923 63.7295 377.513 61.9838 374.067C61.1726 372.446 60.7338 370.611 60.8129 368.674L70.6201 199.844C70.8566 193.775 75.9573 189.046 82.0261 189.282L192.395 190.465C198.464 190.701 203.193 195.801 202.957 201.87Z" fill="#C8A0EB"/>
<path d="M80.5025 196.324C80.5025 196.324 72.2159 361.647 56.9999 366.2C56.9999 366.2 90.9277 368.538 123.888 369.622C150.896 370.51 177.253 371.897 183.764 359.149C194.228 330.968 194.506 196.906 194.506 196.906L80.5025 196.324Z" fill="white"/>
<path d="M153.269 241.98C153.268 241.98 153.266 241.98 153.265 241.98L88.9753 240.95C88.5028 240.943 88.1256 240.553 88.1326 240.081C88.1396 239.61 88.5273 239.233 88.9976 239.238C88.9989 239.238 89.0011 239.238 89.002 239.238L153.292 240.268C153.764 240.275 154.141 240.665 154.134 241.138C154.127 241.608 153.74 241.985 153.269 241.98Z" fill="#283044"/>
<path d="M152.422 251.793C152.42 251.793 152.418 251.793 152.417 251.793L88.1032 250.763C87.6307 250.756 87.2535 250.366 87.2605 249.894C87.2675 249.423 87.6547 249.046 88.1255 249.051C88.1263 249.051 88.1289 249.051 88.1298 249.051L152.444 250.081C152.916 250.088 153.294 250.478 153.287 250.95C153.279 251.421 152.892 251.798 152.422 251.793Z" fill="#283044"/>
<path d="M129.767 261.257C129.765 261.257 129.763 261.257 129.762 261.257L87.612 260.581C87.1395 260.574 86.7623 260.184 86.7693 259.712C86.7763 259.241 87.164 258.864 87.6343 258.869C87.6356 258.869 87.6378 258.869 87.6387 258.869L129.789 259.545C130.261 259.552 130.639 259.942 130.632 260.414C130.625 260.884 130.237 261.262 129.767 261.257Z" fill="#283044"/>
<path d="M179.287 261.991L157.736 261.768C157.503 261.765 157.28 261.667 157.12 261.498C156.96 261.327 156.878 261.099 156.891 260.865L157.952 241.037C157.976 240.58 158.357 240.222 158.816 240.227C158.817 240.227 158.819 240.227 158.82 240.227L180.373 240.56C180.606 240.565 180.827 240.662 180.986 240.832C181.145 241.002 181.228 241.229 181.215 241.463L180.151 261.182C180.126 261.638 179.745 261.996 179.287 261.991ZM158.648 260.064L178.486 260.27L179.457 242.259L159.617 241.953L158.648 260.064Z" fill="#283044"/>
<path d="M151.161 276.469C151.16 276.469 151.158 276.469 151.157 276.469L86.8675 275.439C86.395 275.432 86.0178 275.042 86.0248 274.569C86.0318 274.099 86.4195 273.722 86.8898 273.727C86.8911 273.727 86.8933 273.727 86.8942 273.727L151.184 274.757C151.656 274.764 152.033 275.154 152.026 275.626C152.019 276.096 151.632 276.474 151.161 276.469Z" fill="#283044"/>
<path d="M150.314 286.282C150.313 286.282 150.31 286.282 150.309 286.282L85.9954 285.252C85.5229 285.245 85.1457 284.855 85.1527 284.382C85.1597 283.912 85.5474 283.535 86.0177 283.539C86.019 283.539 86.0212 283.539 86.022 283.539L150.336 284.57C150.809 284.577 151.186 284.967 151.179 285.439C151.172 285.909 150.784 286.287 150.314 286.282Z" fill="#283044"/>
<path d="M127.659 295.745C127.658 295.745 127.655 295.745 127.654 295.745L85.504 295.07C85.0315 295.063 84.6543 294.673 84.6613 294.2C84.6683 293.73 85.056 293.353 85.5263 293.358C85.5271 293.358 85.5298 293.358 85.5306 293.358L127.681 294.033C128.153 294.04 128.531 294.43 128.524 294.903C128.517 295.373 128.129 295.75 127.659 295.745Z" fill="#283044"/>
<path d="M177.18 296.48L155.628 296.256C155.396 296.254 155.173 296.156 155.013 295.987C154.853 295.816 154.77 295.588 154.783 295.354L155.844 275.526C155.868 275.069 156.25 274.712 156.708 274.717C156.709 274.717 156.711 274.717 156.712 274.717L178.265 275.049C178.498 275.054 178.719 275.152 178.878 275.321C179.036 275.492 179.119 275.718 179.106 275.952L178.042 295.671C178.018 296.127 177.638 296.484 177.18 296.48ZM156.54 294.553L176.378 294.759L177.35 276.748L157.509 276.442L156.54 294.553Z" fill="#283044"/>
<path d="M149.054 310.958C149.053 310.958 149.05 310.958 149.05 310.958L84.76 309.927C84.2875 309.92 83.9103 309.53 83.9173 309.058C83.9243 308.588 84.312 308.21 84.7823 308.215C84.7836 308.215 84.7857 308.215 84.7866 308.215L149.076 309.245C149.549 309.252 149.926 309.642 149.919 310.115C149.912 310.586 149.524 310.963 149.054 310.958Z" fill="#283044"/>
<path d="M148.206 320.77C148.205 320.77 148.203 320.77 148.202 320.77L83.8878 319.74C83.4153 319.733 83.0381 319.343 83.0451 318.871C83.0521 318.401 83.4398 318.023 83.9101 318.028C83.9114 318.028 83.9136 318.028 83.9145 318.028L148.229 319.058C148.701 319.065 149.078 319.455 149.071 319.928C149.064 320.398 148.677 320.775 148.206 320.77Z" fill="#283044"/>
<path d="M125.552 330.234C125.55 330.234 125.548 330.234 125.547 330.234L83.3972 329.558C82.9247 329.551 82.5475 329.161 82.5545 328.689C82.5615 328.219 82.9492 327.841 83.4195 327.846C83.4208 327.846 83.423 327.846 83.4238 327.846L125.574 328.522C126.047 328.529 126.424 328.919 126.417 329.391C126.409 329.862 126.022 330.239 125.552 330.234Z" fill="#283044"/>
<path d="M175.072 330.968L153.521 330.745C153.288 330.742 153.065 330.644 152.905 330.475C152.745 330.304 152.663 330.076 152.675 329.842L153.737 310.014C153.76 309.557 154.142 309.2 154.6 309.204C154.601 309.204 154.604 309.204 154.605 309.204L176.158 309.537C176.391 309.542 176.612 309.64 176.77 309.809C176.929 309.98 177.012 310.206 176.999 310.44L175.935 330.159C175.911 330.616 175.53 330.973 175.072 330.968ZM154.432 329.042L174.27 329.248L175.242 311.236L155.401 310.93L154.432 329.042Z" fill="#283044"/>
<path d="M166.009 258.823C165.998 258.823 165.988 258.823 165.977 258.822C165.619 258.807 165.288 258.625 165.084 258.331L160.752 252.092C160.392 251.576 160.52 250.864 161.038 250.504C161.555 250.15 162.268 250.271 162.627 250.792L166.095 255.784L175.281 244.524C175.68 244.036 176.398 243.965 176.887 244.36C177.376 244.758 177.448 245.479 177.05 245.965L166.906 258.402C166.686 258.671 166.356 258.827 166.009 258.823Z" fill="#5E189D"/>
<path d="M163.902 293.311C163.891 293.311 163.88 293.311 163.869 293.311C163.512 293.296 163.18 293.114 162.976 292.82L158.644 286.581C158.285 286.064 158.413 285.352 158.93 284.992C159.448 284.639 160.16 284.76 160.519 285.281L163.987 290.273L173.173 279.013C173.572 278.524 174.291 278.454 174.779 278.849C175.268 279.246 175.341 279.968 174.942 280.454L164.798 292.89C164.579 293.16 164.248 293.315 163.902 293.311Z" fill="#5E189D"/>
<path d="M161.794 327.39C161.783 327.39 161.773 327.39 161.762 327.39C161.404 327.375 161.072 327.193 160.868 326.899L156.536 320.66C156.177 320.144 156.305 319.432 156.823 319.071C157.34 318.718 158.053 318.839 158.412 319.36L161.879 324.352L171.066 313.092C171.464 312.603 172.183 312.533 172.672 312.928C173.16 313.326 173.233 314.047 172.835 314.533L162.691 326.969C162.472 327.239 162.141 327.394 161.794 327.39Z" fill="#5E189D"/>
<path d="M153.678 181.481C151.181 180.772 148.923 180.63 148.923 178.357V177.251C148.923 175.823 147.83 174.664 146.482 174.664H136.083H125.684C124.337 174.664 123.244 175.823 123.244 177.251V178.357C123.244 180.629 120.985 180.771 118.489 181.481C115.992 182.192 116.824 187.02 116.824 187.02L136.083 187.872L155.342 187.02C155.342 187.02 156.174 182.192 153.678 181.481Z" fill="#283044"/>
<path opacity="0.4" d="M153.678 181.481C151.181 180.772 148.923 180.63 148.923 178.357V177.251C148.923 175.823 147.83 174.664 146.482 174.664H136.083H125.684C124.337 174.664 123.244 175.823 123.244 177.251V178.357C123.244 180.629 120.985 180.771 118.489 181.481C115.992 182.192 116.824 187.02 116.824 187.02L136.083 187.872L155.342 187.02C155.342 187.02 156.174 182.192 153.678 181.481Z" fill="#283044"/>
<path d="M108.014 200.114L107.613 188.549C107.555 186.859 108.909 185.457 110.601 185.457H160.506C162.282 185.457 163.666 186.995 163.479 188.76L162.263 200.289L108.014 200.114Z" fill="#283044"/>
<path d="M306.586 263.264C321.124 270.295 327.232 287.843 320.201 302.381C313.17 316.919 295.622 323.027 281.084 315.996C266.545 308.965 260.437 291.417 267.468 276.879C274.499 262.341 292.048 256.233 306.586 263.264ZM308.836 258.611C291.705 250.326 271.101 257.498 262.816 274.629C254.531 291.761 261.702 312.365 278.834 320.649C295.965 328.934 316.569 321.763 324.855 304.632C333.139 287.5 325.968 266.896 308.836 258.611Z" fill="white"/>
<path d="M206.452 369.062C205.414 369.195 204.513 369.854 204.057 370.801L202.511 374.016C202.276 374.501 201.92 374.918 201.477 375.225L194.581 380C194.074 380.354 193.468 380.545 192.845 380.553L191.984 380.565C190.545 380.587 189.308 381.587 188.989 382.991L188.909 383.339C188.734 384.106 188.271 384.783 187.622 385.228L176.479 392.778C175.181 393.651 173.437 393.435 172.397 392.259L171.001 390.682C169.964 389.511 169.962 387.754 170.986 386.571L179.833 376.429C180.354 375.838 181.082 375.461 181.865 375.38L182.22 375.343C183.652 375.197 184.795 374.09 184.992 372.665L185.108 371.811C185.191 371.194 185.455 370.615 185.868 370.155L191.444 363.891C191.803 363.487 192.261 363.185 192.77 363.01L196.149 361.866C197.144 361.529 197.908 360.714 198.166 359.7L198.634 357.889C198.789 357.294 199.114 356.765 199.569 356.353L223.68 334.788C224.93 333.665 226.852 333.741 228.014 334.955L231.438 338.542L231.494 338.605L234.638 342.44C235.703 343.74 235.545 345.657 234.278 346.761L209.944 368.075C209.481 368.477 208.915 368.735 208.306 368.817L206.452 369.062Z" fill="white"/>
<path opacity="0.2" d="M221.86 348.142L172.23 392.07L171.172 390.875L220.802 346.948C221.131 346.656 221.633 346.687 221.924 347.016C222.215 347.345 222.189 347.851 221.86 348.142Z" fill="#283044"/>
<path d="M278.473 333.648C284.17 326.535 284.549 317.382 279.565 311.751L263.932 294.088C258.947 288.457 249.816 287.722 242.064 292.513C234.797 297.003 226.34 304.488 221 311.156C215.303 318.269 214.924 327.423 219.908 333.054L235.542 350.716C240.526 356.347 249.658 357.082 257.41 352.291C264.677 347.801 273.133 340.316 278.473 333.648ZM271.051 317.182L257.507 301.88C256.325 300.545 256.547 298.416 257.998 297.132C259.449 295.847 261.584 295.89 262.766 297.225L276.309 312.527C277.491 313.862 277.275 315.987 275.823 317.271C274.372 318.556 272.233 318.517 271.051 317.182Z" fill="#283044"/>
<path opacity="0.4" d="M266.644 331.049C270.311 326.47 270.555 320.579 267.346 316.954L257.284 305.585C254.075 301.959 248.198 301.487 243.207 304.571C238.528 307.462 234.333 311.175 230.895 315.468C227.228 320.048 226.984 325.938 230.193 329.564L240.255 340.932C243.464 344.558 249.341 345.031 254.332 341.947C259.01 339.056 263.206 335.342 266.644 331.049Z" fill="white"/>
<path d="M237.092 309.08L236.124 309.936L260.453 337.422L261.421 336.565L237.092 309.08Z" fill="#283044"/>
<path d="M335.769 318.896C331.566 310.809 323.356 306.754 316.183 309.034L293.709 316.175C286.537 318.454 282.173 326.505 283.409 335.535C284.573 343.997 295.037 376.926 298.972 384.508C303.175 392.595 311.385 396.65 318.558 394.371L341.032 387.229C348.205 384.95 352.568 376.9 351.332 367.87C350.168 359.407 339.704 326.478 335.769 318.896ZM317.782 319.27L298.313 325.457C296.613 325.997 294.759 324.939 294.172 323.092C293.585 321.245 294.487 319.304 296.186 318.764L315.655 312.577C317.354 312.038 319.211 313.101 319.798 314.949C320.385 316.796 319.481 318.73 317.782 319.27Z" fill="#283044"/>
<path d="M331 383.638C331.555 385.384 330.589 387.25 328.843 387.805C327.097 388.36 325.231 387.394 324.677 385.648C324.122 383.902 325.088 382.036 326.834 381.482C328.58 380.926 330.445 381.892 331 383.638Z" fill="white"/>
<path opacity="0.4" d="M328.796 329.277C326.093 324.07 320.806 321.461 316.192 322.928L301.722 327.526C297.108 328.992 294.297 334.174 295.095 339.986C295.845 345.435 303.411 369.246 305.945 374.127C308.648 379.335 313.935 381.943 318.549 380.476L333.018 375.878C337.632 374.412 340.444 369.23 339.645 363.418C338.896 357.97 331.329 334.159 328.796 329.277Z" fill="white"/>
<path d="M331.477 335.451L296.496 346.569L296.888 347.8L331.868 336.682L331.477 335.451Z" fill="#283044"/>
<path d="M337.865 355.549L302.884 366.667L303.276 367.899L338.257 356.78L337.865 355.549Z" fill="#283044"/>
<path d="M318.14 305.964C315.5 309.895 312.012 313.024 308.045 315.22C309.944 316.101 311.864 316.932 313.808 317.71C317.645 314.987 320.958 311.435 323.475 307.175C321.695 306.78 319.92 306.362 318.14 305.964Z" fill="white"/>
<path d="M264.648 291.775C262.916 290.954 261.186 290.126 259.38 289.507C259.371 293.262 259.975 296.976 261.146 300.5C263.594 301.514 265.894 302.872 268.305 303.946C266.218 300.214 264.971 296.052 264.648 291.775Z" fill="white"/>
<path d="M113.562 227.524C113.069 227.516 112.717 227.438 112.506 227.288C112.308 227.139 112.184 226.943 112.134 226.703C112.085 226.462 112.061 226.215 112.065 225.961L112.226 215.043C112.23 214.776 112.26 214.53 112.317 214.304C112.374 214.078 112.51 213.893 112.725 213.75C112.941 213.606 113.295 213.538 113.788 213.546C114.282 213.553 114.627 213.631 114.825 213.781C115.036 213.931 115.16 214.119 115.197 214.346C115.247 214.574 115.27 214.827 115.265 215.107L115.105 226.026C115.101 226.28 115.071 226.526 115.014 226.765C114.97 226.991 114.841 227.176 114.625 227.319C114.41 227.463 114.056 227.531 113.562 227.524ZM105.083 227.399C104.59 227.392 104.238 227.313 104.027 227.163C103.815 227.013 103.685 226.818 103.635 226.577C103.599 226.337 103.582 226.09 103.586 225.837L103.747 214.918C103.751 214.651 103.781 214.405 103.838 214.179C103.895 213.953 104.024 213.768 104.226 213.625C104.442 213.481 104.803 213.413 105.309 213.421C105.803 213.428 106.148 213.506 106.346 213.656C106.557 213.806 106.681 213.994 106.718 214.221C106.768 214.449 106.791 214.703 106.786 214.983L106.626 225.901C106.622 226.155 106.591 226.401 106.535 226.64C106.491 226.866 106.362 227.051 106.146 227.194C105.931 227.338 105.577 227.406 105.083 227.399ZM106.207 221.695L106.246 219.055L112.486 219.147L112.447 221.787L106.207 221.695ZM118.364 227.594C117.871 227.587 117.518 227.515 117.307 227.379C117.109 227.229 116.985 227.041 116.935 226.813C116.899 226.573 116.883 226.326 116.886 226.073L116.989 219.093C116.993 218.827 117.017 218.58 117.06 218.354C117.117 218.128 117.253 217.95 117.468 217.82C117.683 217.677 118.038 217.609 118.531 217.616C119.011 217.623 119.35 217.701 119.548 217.851C119.759 218.001 119.883 218.189 119.919 218.416C119.969 218.644 119.992 218.897 119.988 219.177L119.886 226.137C119.882 226.39 119.852 226.636 119.795 226.875C119.751 227.101 119.622 227.28 119.407 227.41C119.205 227.54 118.857 227.602 118.364 227.594ZM118.533 216.156C118.026 216.148 117.667 216.07 117.456 215.92C117.245 215.77 117.114 215.575 117.065 215.334C117.028 215.093 117.012 214.84 117.016 214.573C117.02 214.293 117.05 214.04 117.107 213.814C117.164 213.575 117.3 213.391 117.515 213.26C117.731 213.117 118.092 213.049 118.598 213.056C119.092 213.064 119.444 213.142 119.655 213.292C119.866 213.442 119.99 213.637 120.026 213.877C120.076 214.118 120.099 214.372 120.095 214.639C120.091 214.905 120.061 215.158 120.004 215.397C119.96 215.637 119.831 215.828 119.615 215.972C119.4 216.102 119.039 216.163 118.533 216.156ZM125.205 227.855C124.845 227.85 124.452 227.804 124.027 227.718C123.614 227.632 123.21 227.512 122.812 227.36C122.414 227.194 122.083 227.009 121.82 226.805C121.556 226.588 121.407 226.346 121.37 226.079C121.346 225.945 121.348 225.805 121.377 225.659C121.419 225.499 121.488 225.34 121.584 225.182C121.68 225.01 121.796 224.831 121.932 224.647C122.04 224.502 122.162 224.41 122.296 224.372C122.43 224.334 122.583 224.343 122.755 224.399C122.968 224.442 123.18 224.518 123.392 224.628C123.617 224.725 123.836 224.835 124.047 224.958C124.272 225.068 124.504 225.171 124.743 225.268C124.982 225.352 125.228 225.395 125.481 225.399C125.854 225.405 126.142 225.355 126.343 225.252C126.558 225.135 126.667 224.976 126.67 224.776C126.672 224.63 126.627 224.509 126.536 224.414C126.457 224.32 126.338 224.238 126.179 224.169C126.034 224.087 125.861 224.018 125.662 223.962C125.463 223.905 125.244 223.849 125.005 223.792C124.779 223.722 124.547 223.652 124.308 223.582C123.976 223.483 123.657 223.359 123.353 223.207C123.048 223.056 122.771 222.866 122.521 222.635C122.272 222.391 122.076 222.102 121.934 221.766C121.792 221.418 121.725 220.997 121.733 220.503C121.742 219.85 121.904 219.306 122.217 218.87C122.53 218.435 122.981 218.108 123.571 217.89C124.161 217.659 124.876 217.549 125.716 217.562C125.956 217.565 126.196 217.582 126.436 217.612C126.675 217.642 126.908 217.693 127.134 217.763C127.373 217.833 127.605 217.916 127.83 218.013C128.055 218.11 128.28 218.226 128.505 218.363C128.902 218.555 129.105 218.812 129.114 219.132C129.122 219.452 129.004 219.777 128.759 220.107C128.609 220.331 128.453 220.496 128.292 220.6C128.131 220.691 127.963 220.715 127.791 220.673C127.578 220.616 127.346 220.526 127.095 220.402C126.856 220.279 126.598 220.162 126.32 220.051C126.055 219.94 125.789 219.883 125.522 219.879C125.296 219.876 125.102 219.906 124.941 219.97C124.78 220.021 124.659 220.1 124.577 220.205C124.496 220.297 124.454 220.41 124.452 220.543C124.45 220.717 124.494 220.857 124.586 220.965C124.691 221.06 124.83 221.142 125.003 221.212C125.175 221.281 125.374 221.344 125.6 221.4C125.826 221.457 126.072 221.514 126.337 221.571C126.696 221.643 127.062 221.742 127.433 221.867C127.818 221.98 128.162 222.145 128.466 222.363C128.783 222.581 129.032 222.871 129.213 223.234C129.408 223.597 129.501 224.071 129.492 224.658C129.477 225.711 129.098 226.512 128.357 227.062C127.615 227.611 126.565 227.875 125.205 227.855ZM135.594 227.848C134.914 227.838 134.328 227.756 133.837 227.602C133.359 227.449 132.963 227.216 132.647 226.905C132.332 226.593 132.097 226.203 131.944 225.734C131.805 225.252 131.74 224.685 131.749 224.031L131.869 215.912C131.873 215.645 131.896 215.406 131.94 215.193C131.996 214.981 132.132 214.809 132.347 214.679C132.563 214.536 132.91 214.467 133.39 214.474C133.87 214.481 134.216 214.56 134.427 214.71C134.638 214.859 134.762 215.048 134.799 215.275C134.849 215.503 134.872 215.75 134.868 216.016L134.751 223.955C134.748 224.169 134.758 224.349 134.783 224.496C134.821 224.63 134.873 224.731 134.938 224.798C135.004 224.866 135.097 224.914 135.216 224.942C135.336 224.971 135.482 224.986 135.656 224.989C135.949 224.993 136.209 225.024 136.434 225.08C136.66 225.137 136.832 225.26 136.949 225.448C137.08 225.637 137.142 225.951 137.135 226.391C137.128 226.871 137.05 227.216 136.9 227.427C136.75 227.639 136.555 227.762 136.314 227.799C136.087 227.836 135.847 227.852 135.594 227.848ZM131.219 217.943L133.419 217.975L136.18 217.936C136.433 217.94 136.673 217.97 136.898 218.026C137.124 218.07 137.309 218.199 137.453 218.415C137.596 218.63 137.664 218.984 137.657 219.478C137.65 219.931 137.572 220.263 137.422 220.474C137.286 220.686 137.104 220.823 136.876 220.886C136.649 220.936 136.402 220.959 136.135 220.956L133.516 220.857L131.097 220.821C130.71 220.802 130.439 220.685 130.282 220.469C130.138 220.24 130.071 219.866 130.078 219.346C130.085 218.866 130.184 218.514 130.374 218.29C130.564 218.053 130.846 217.937 131.219 217.943ZM143.473 228.124C142.846 228.115 142.222 227.986 141.599 227.737C140.989 227.474 140.434 227.113 139.934 226.652C139.434 226.191 139.042 225.646 138.758 225.015C138.474 224.37 138.338 223.662 138.35 222.888C138.36 222.168 138.503 221.504 138.779 220.894C139.055 220.272 139.436 219.724 139.923 219.251C140.41 218.778 140.962 218.413 141.58 218.155C142.21 217.885 142.879 217.755 143.586 217.765C144.546 217.779 145.409 218.025 146.175 218.503C146.955 218.968 147.572 219.597 148.027 220.391C148.482 221.184 148.703 222.061 148.689 223.021C148.677 223.834 148.513 224.558 148.197 225.194C147.894 225.816 147.486 226.35 146.973 226.796C146.473 227.242 145.915 227.58 145.298 227.811C144.695 228.029 144.086 228.133 143.473 228.124ZM143.478 225.104C143.797 225.109 144.125 225.034 144.461 224.879C144.797 224.724 145.08 224.488 145.311 224.171C145.543 223.854 145.662 223.449 145.669 222.956C145.676 222.53 145.588 222.155 145.406 221.832C145.224 221.509 144.968 221.259 144.637 221.081C144.32 220.889 143.948 220.791 143.521 220.784C143.121 220.778 142.76 220.866 142.437 221.048C142.128 221.23 141.871 221.487 141.666 221.817C141.474 222.134 141.376 222.5 141.37 222.913C141.362 223.393 141.463 223.801 141.672 224.137C141.893 224.461 142.17 224.705 142.501 224.87C142.832 225.021 143.158 225.099 143.478 225.104ZM151.346 228.08C150.853 228.073 150.501 228.001 150.289 227.865C150.092 227.715 149.968 227.52 149.918 227.279C149.882 227.039 149.865 226.792 149.869 226.538L149.972 219.559C149.976 219.293 150.006 219.046 150.063 218.82C150.119 218.595 150.249 218.416 150.451 218.286C150.666 218.143 151.02 218.074 151.514 218.082C151.98 218.089 152.313 218.16 152.511 218.296C152.722 218.42 152.853 218.568 152.904 218.742C152.955 218.903 152.98 219.043 152.978 219.163L152.736 219.28C152.764 219.227 152.832 219.135 152.94 219.003C153.062 218.858 153.225 218.714 153.427 218.57C153.629 218.413 153.871 218.283 154.153 218.181C154.447 218.078 154.781 218.03 155.155 218.035C155.301 218.038 155.461 218.053 155.634 218.082C155.821 218.099 156.007 218.141 156.192 218.211C156.392 218.267 156.57 218.35 156.729 218.459C156.887 218.554 157.012 218.676 157.103 218.824C157.208 218.972 157.259 219.153 157.255 219.366C157.247 219.913 157.114 220.378 156.855 220.761C156.596 221.13 156.273 221.312 155.887 221.307C155.66 221.303 155.5 221.281 155.408 221.239C155.315 221.198 155.235 221.157 155.169 221.116C155.117 221.075 155.05 221.041 154.971 221.013C154.891 220.972 154.745 220.95 154.532 220.947C154.332 220.944 154.138 220.967 153.951 221.018C153.777 221.069 153.609 221.153 153.447 221.271C153.299 221.375 153.177 221.513 153.081 221.685C152.998 221.844 152.956 222.023 152.953 222.223L152.888 226.623C152.884 226.876 152.854 227.122 152.797 227.362C152.754 227.588 152.624 227.766 152.409 227.896C152.194 228.026 151.84 228.088 151.346 228.08ZM160.888 232.261C160.344 232.013 160.028 231.742 159.939 231.447C159.864 231.153 159.943 230.761 160.177 230.271L165.362 219.126C165.596 218.609 165.847 218.306 166.115 218.217C166.397 218.114 166.809 218.174 167.353 218.395C167.882 218.656 168.185 218.927 168.261 219.209C168.35 219.49 168.284 219.862 168.064 220.326L162.858 231.55C162.624 232.067 162.373 232.377 162.104 232.479C161.836 232.582 161.431 232.509 160.888 232.261ZM162.696 227.628L158.102 220.399C157.815 219.955 157.701 219.586 157.758 219.294C157.829 219.002 158.1 218.706 158.571 218.406C159.096 218.093 159.498 217.979 159.777 218.063C160.069 218.134 160.358 218.399 160.645 218.856L164.027 224.207L162.696 227.628Z" fill="#1C1C1C"/>
<path d="M226.634 109.2C226.112 109.278 225.724 109.262 225.47 109.152C225.214 109.027 225.038 108.838 224.941 108.585C224.858 108.331 224.796 108.066 224.755 107.79L222.981 95.8876C222.886 95.2493 222.944 94.7957 223.156 94.5269C223.368 94.258 223.793 94.076 224.432 93.9808L232.657 92.7546C232.947 92.7113 233.219 92.7003 233.475 92.7216C233.728 92.7284 233.944 92.837 234.124 93.0475C234.318 93.2558 234.456 93.6355 234.538 94.1868C234.616 94.709 234.593 95.0981 234.468 95.354C234.343 95.6099 234.154 95.7863 233.902 95.8832C233.661 95.9635 233.396 96.0253 233.106 96.0685L226.535 97.0482L226.953 99.8552L231.414 99.1902C231.704 99.1469 231.961 99.1308 232.185 99.1419C232.424 99.1508 232.624 99.2471 232.784 99.4307C232.945 99.6144 233.061 99.9455 233.133 100.424C233.202 100.888 233.186 101.232 233.086 101.454C232.984 101.662 232.82 101.805 232.594 101.884C232.383 101.96 232.125 102.02 231.82 102.066L227.382 102.727L228.066 107.319C228.107 107.594 228.118 107.867 228.099 108.137C228.078 108.392 227.963 108.617 227.755 108.811C227.559 108.988 227.185 109.118 226.634 109.2ZM245.382 106.628C244.338 106.783 243.322 106.735 242.336 106.481C241.361 106.212 240.474 105.78 239.674 105.188C238.886 104.579 238.22 103.84 237.675 102.972C237.145 102.102 236.8 101.131 236.64 100.057C236.478 98.9691 236.515 97.9255 236.752 96.9264C237.001 95.9106 237.405 94.9903 237.964 94.1655C238.537 93.3385 239.244 92.6549 240.083 92.1146C240.921 91.5744 241.856 91.2275 242.886 91.0739C243.93 90.9182 244.94 90.9753 245.914 91.2452C246.901 91.4985 247.788 91.9297 248.576 92.5389C249.364 93.1481 250.024 93.8949 250.556 94.7794C251.103 95.6618 251.458 96.6542 251.623 97.7567C251.781 98.8156 251.734 99.8458 251.483 100.847C251.244 101.832 250.838 102.738 250.264 103.564C249.688 104.377 248.981 105.053 248.142 105.594C247.318 106.132 246.398 106.476 245.382 106.628ZM244.781 103.337C245.361 103.25 245.888 103.053 246.361 102.745C246.834 102.437 247.23 102.059 247.549 101.612C247.88 101.147 248.107 100.631 248.23 100.064C248.365 99.4805 248.385 98.8695 248.29 98.2312C248.199 97.622 248.005 97.0652 247.708 96.5609C247.408 96.0421 247.032 95.6088 246.58 95.261C246.14 94.8966 245.649 94.6361 245.106 94.4797C244.578 94.3212 244.024 94.2851 243.444 94.3716C242.878 94.456 242.359 94.652 241.886 94.9598C241.427 95.2655 241.033 95.6578 240.704 96.1369C240.388 96.5993 240.155 97.1234 240.005 97.7093C239.867 98.2784 239.845 98.8749 239.938 99.4987C240.029 100.108 240.224 100.672 240.524 101.191C240.836 101.693 241.211 102.119 241.648 102.469C242.101 102.817 242.591 103.07 243.119 103.228C243.646 103.387 244.2 103.423 244.781 103.337ZM255.83 104.848C255.307 104.926 254.918 104.902 254.662 104.777C254.407 104.652 254.23 104.464 254.133 104.211C254.051 103.956 253.989 103.691 253.948 103.416L252.173 91.5132C252.132 91.2376 252.115 90.9732 252.122 90.7201C252.143 90.4649 252.258 90.2402 252.466 90.046C252.675 89.8518 253.047 89.7147 253.584 89.6347L258.11 88.96C258.705 88.8713 259.33 88.8893 259.986 89.0139C260.643 89.1385 261.265 89.3867 261.855 89.7585C262.444 90.1304 262.948 90.6261 263.366 91.2459C263.785 91.8656 264.062 92.6324 264.199 93.5463C264.289 94.1555 264.283 94.7571 264.179 95.351C264.089 95.9427 263.898 96.5049 263.607 97.0377C263.316 97.5705 262.928 98.0509 262.443 98.4791C261.956 98.8928 261.375 99.224 260.7 99.4729L256.827 100.05L257.259 102.944C257.3 103.22 257.311 103.493 257.292 103.762C257.27 104.018 257.156 104.242 256.947 104.437C256.739 104.631 256.366 104.768 255.83 104.848ZM264.947 103.044C264.469 103.515 264.064 103.732 263.732 103.692C263.399 103.653 263.024 103.419 262.604 102.993L257.957 98.0802L261.606 97.0468L265.014 100.654C265.312 100.965 265.509 101.24 265.604 101.478C265.713 101.714 265.711 101.951 265.599 102.19C265.5 102.427 265.283 102.712 264.947 103.044ZM256.341 96.7864L259.365 96.3355C259.568 96.3052 259.773 96.2376 259.98 96.1326C260.185 96.0131 260.362 95.8606 260.512 95.6751C260.663 95.4896 260.776 95.2576 260.853 94.9792C260.931 94.7008 260.942 94.3803 260.888 94.0176C260.825 93.5969 260.684 93.2472 260.465 92.9686C260.26 92.6877 259.993 92.4902 259.665 92.3761C259.334 92.2474 258.966 92.2133 258.559 92.2739L255.731 92.6956L256.341 96.7864ZM277.612 101.823C276.843 101.938 276.154 101.944 275.546 101.842C274.952 101.738 274.432 101.585 273.987 101.385C273.555 101.167 273.203 100.945 272.932 100.719C272.661 100.492 272.472 100.32 272.365 100.203C272.071 99.9205 271.878 99.6676 271.785 99.4441C271.69 99.2061 271.683 98.9552 271.762 98.6913C271.856 98.4252 272.033 98.1244 272.295 97.7889C272.56 97.4823 272.823 97.3024 273.082 97.2489C273.353 97.1788 273.631 97.2041 273.916 97.3247C274.201 97.4454 274.488 97.6324 274.778 97.8857C275.189 98.2545 275.574 98.5011 275.934 98.6254C276.306 98.7331 276.68 98.7588 277.057 98.7026C277.536 98.6312 277.934 98.5126 278.25 98.3468C278.566 98.181 278.793 97.9619 278.93 97.6893C279.066 97.4022 279.104 97.0629 279.046 96.6712C278.998 96.3521 278.837 96.1166 278.562 95.9648C278.3 95.7963 277.955 95.6698 277.527 95.5853C277.114 95.4986 276.651 95.4268 276.138 95.3697C275.638 95.296 275.134 95.2006 274.627 95.0834C274.276 95.0171 273.935 94.9196 273.605 94.7909C273.274 94.6622 272.955 94.5097 272.647 94.3332C272.339 94.1567 272.061 93.9312 271.812 93.6569C271.578 93.3803 271.374 93.0549 271.199 92.6805C271.039 92.304 270.922 91.8619 270.846 91.3542C270.718 90.4983 270.815 89.7053 271.136 88.9753C271.458 88.2453 271.96 87.6366 272.644 87.1491C273.339 86.645 274.173 86.3205 275.145 86.1756C275.798 86.0783 276.373 86.0519 276.869 86.0966C277.379 86.1391 277.813 86.2153 278.17 86.3252C278.528 86.435 278.813 86.5556 279.025 86.6871C279.25 86.8019 279.405 86.8974 279.491 86.9736C279.953 87.2902 280.226 87.5831 280.311 87.8522C280.393 88.1068 280.296 88.4995 280.02 89.0301C279.733 89.5919 279.412 89.9288 279.058 90.0409C278.719 90.1508 278.301 90.087 277.806 89.8494C277.608 89.7158 277.413 89.5967 277.219 89.4921C277.026 89.3875 276.8 89.3173 276.543 89.2815C276.298 89.2291 275.979 89.232 275.587 89.2904C275.355 89.325 275.143 89.3937 274.951 89.4966C274.756 89.5849 274.595 89.6978 274.468 89.8355C274.34 89.9732 274.245 90.1356 274.184 90.3226C274.121 90.4952 274.105 90.683 274.135 90.8861C274.185 91.2197 274.333 91.4719 274.581 91.6425C274.844 91.811 275.166 91.9335 275.548 92.01C275.943 92.0698 276.373 92.1242 276.84 92.1732C277.32 92.2056 277.809 92.2586 278.31 92.3323C278.767 92.4125 279.214 92.5311 279.653 92.6881C280.089 92.8307 280.491 93.0377 280.858 93.3093C281.224 93.5808 281.538 93.9419 281.798 94.3925C282.072 94.8409 282.261 95.4133 282.365 96.1096C282.495 96.98 282.439 97.7519 282.199 98.4254C281.958 99.099 281.591 99.6726 281.098 100.146C280.606 100.62 280.053 100.992 279.441 101.261C278.831 101.545 278.221 101.732 277.612 101.823ZM297.316 96.3051C297.544 96.6418 297.685 96.9397 297.739 97.1986C297.79 97.4431 297.744 97.6798 297.6 97.9089C297.468 98.1212 297.228 98.3498 296.879 98.5946C296.34 98.9568 295.902 99.1036 295.566 99.0351C295.231 98.9811 294.883 98.6846 294.521 98.1454L288.926 89.8598L286.013 99.4138C285.807 100.023 285.552 100.402 285.248 100.551C284.961 100.712 284.507 100.699 283.885 100.51C283.482 100.392 283.18 100.251 282.977 100.089C282.788 99.9095 282.68 99.6882 282.656 99.4249C282.629 99.1472 282.683 98.8129 282.818 98.4221L286.766 85.6665C286.868 85.3547 287.044 85.0913 287.293 84.8761C287.558 84.6588 287.842 84.5274 288.147 84.482C288.364 84.4495 288.574 84.4628 288.775 84.5217C288.975 84.5661 289.158 84.6501 289.325 84.7735C289.506 84.8948 289.662 85.0494 289.794 85.2373L297.316 96.3051ZM286.208 96.6933L287.139 93.6852L291.773 92.9942L293.541 95.6001L286.208 96.6933ZM300.967 98.1186C300.445 98.1965 300.057 98.1802 299.803 98.0697C299.547 97.9447 299.371 97.756 299.274 97.5036C299.177 97.2511 299.108 96.9871 299.067 96.7114L297.292 84.809C297.249 84.5188 297.231 84.2472 297.238 83.9941C297.259 83.7389 297.374 83.5142 297.582 83.32C297.79 83.1258 298.163 82.9887 298.7 82.9087C299.251 82.8265 299.647 82.849 299.889 82.9761C300.145 83.1011 300.313 83.2836 300.393 83.5238C300.488 83.7617 300.557 84.0258 300.6 84.3159L302.193 94.9998L308.155 94.111C308.401 94.0742 308.637 94.0614 308.861 94.0724C309.085 94.0835 309.277 94.1809 309.438 94.3645C309.614 94.546 309.736 94.8688 309.805 95.333C309.872 95.7827 309.849 96.1271 309.737 96.3664C309.622 96.5911 309.459 96.7414 309.248 96.8174C309.051 96.8912 308.83 96.9465 308.583 96.9832L300.967 98.1186ZM313.162 96.3006C312.64 96.3785 312.252 96.3621 311.998 96.2517C311.742 96.1267 311.566 95.938 311.469 95.6855C311.386 95.4309 311.324 95.1658 311.283 94.8902L309.509 82.9877C309.414 82.3494 309.472 81.8959 309.684 81.627C309.896 81.3581 310.321 81.1761 310.96 81.081L319.185 79.8547C319.475 79.8115 319.748 79.8005 320.003 79.8217C320.256 79.8285 320.48 79.936 320.674 80.1443C320.868 80.3527 321.006 80.7324 321.088 81.2837C321.166 81.8059 321.143 82.195 321.018 82.4509C320.893 82.7067 320.704 82.8832 320.451 82.9801C320.211 83.0604 319.946 83.1222 319.656 83.1654L313.063 84.1484L313.481 86.9553L317.964 86.2871C318.254 86.2438 318.511 86.2277 318.735 86.2388C318.974 86.2477 319.173 86.344 319.334 86.5276C319.495 86.7112 319.611 87.0424 319.683 87.5211C319.75 87.9708 319.733 88.3069 319.633 88.5295C319.532 88.7521 319.37 88.9024 319.144 88.9805C318.918 89.0586 318.653 89.1204 318.349 89.1658L313.91 89.8276L314.344 92.7434L320.959 91.7572C321.249 91.7139 321.522 91.7029 321.777 91.7242C322.033 91.7455 322.257 91.8603 322.451 92.0686C322.643 92.2624 322.781 92.6349 322.863 93.1861C322.941 93.7084 322.917 94.0974 322.792 94.3533C322.667 94.6092 322.477 94.7784 322.223 94.8608C321.985 94.9556 321.721 95.0246 321.431 95.0679L313.162 96.3006Z" fill="#5E189D"/>
</svg>
