<svg width="552" height="403" viewBox="0 0 552 403" fill="none" xmlns="http://www.w3.org/2000/svg">
<path d="M217.369 125.071C120.569 166.671 60.3687 156.872 26.3687 194.071C-41.6313 268.471 39.0353 357.071 76.3686 391.571C159.369 441.571 215.169 302.571 352.369 356.571C489.569 410.571 530.377 327.051 544.369 292.071C565.369 239.571 539.069 166.371 469.869 107.571C383.369 34.0715 338.369 73.0715 217.369 125.071Z" fill="#5E189D" fill-opacity="0.05"/>
<path d="M514.69 20.2328C519.084 22.7172 516.413 248.633 514.69 252.108C512.966 255.584 340.015 254.967 336.866 252.108C333.718 249.249 335.316 26.2313 336.178 21.3588C337.039 16.4862 511.243 18.2838 514.69 20.2328Z" fill="#F3E5FF"/>
<path d="M358.46 238.919H494.803C497 238.919 498.781 237.138 498.781 234.941C496.05 167.365 495.907 101.337 498.781 37.1146C498.781 34.9174 497 33.1363 494.803 33.1363H358.46C356.262 33.1363 354.481 34.9174 354.481 37.1146C352.554 99.787 352.718 166.007 354.481 234.941C354.481 237.138 356.262 238.919 358.46 238.919Z" fill="white"/>
<path d="M380.853 34.0575L383.589 22.7294C384.207 20.1714 386.496 18.3687 389.128 18.3687H413.146V13.4849C413.146 6.03743 419.183 0 426.63 0C434.078 0 440.115 6.03743 440.115 13.4849V18.3687H464.134C466.765 18.3687 469.055 20.1714 469.673 22.7294L472.408 34.0575C473.274 37.6428 470.557 41.0935 466.869 41.0935H386.392C382.704 41.093 379.988 37.6423 380.853 34.0575Z" fill="#C8A0EB"/>
<path d="M430.374 14.0938C432.445 12.0231 432.445 8.66574 430.374 6.59502C428.303 4.5243 424.946 4.52434 422.875 6.59506C420.805 8.66578 420.805 12.0231 422.875 14.0938C424.946 16.1645 428.303 16.1645 430.374 14.0938Z" fill="#C8A0EB"/>
<path d="M488.968 98.8345H409.392" stroke="#E4E4E4" stroke-width="0.954238" stroke-miterlimit="10" stroke-linecap="round" stroke-linejoin="round"/>
<path d="M488.968 87.8713H409.392" stroke="#E4E4E4" stroke-width="0.954238" stroke-miterlimit="10" stroke-linecap="round" stroke-linejoin="round"/>
<path d="M488.968 76.9076H409.392" stroke="#E4E4E4" stroke-width="0.954238" stroke-miterlimit="10" stroke-linecap="round" stroke-linejoin="round"/>
<path d="M488.968 65.9439H431.503" stroke="#E4E4E4" stroke-width="0.954238" stroke-miterlimit="10" stroke-linecap="round" stroke-linejoin="round"/>
<path d="M369.099 98.8345H395.412C397.833 98.8345 399.797 96.8712 399.797 94.4492V68.1366C399.797 65.7146 397.833 63.7513 395.412 63.7513H369.099C366.677 63.7513 364.714 65.7146 364.714 68.1366V94.4492C364.714 96.8712 366.677 98.8345 369.099 98.8345Z" fill="#E4E4E4"/>
<path d="M488.968 154.17H409.392" stroke="#E4E4E4" stroke-width="0.954238" stroke-miterlimit="10" stroke-linecap="round" stroke-linejoin="round"/>
<path d="M488.968 143.207H409.392" stroke="#E4E4E4" stroke-width="0.954238" stroke-miterlimit="10" stroke-linecap="round" stroke-linejoin="round"/>
<path d="M488.968 132.243H409.392" stroke="#E4E4E4" stroke-width="0.954238" stroke-miterlimit="10" stroke-linecap="round" stroke-linejoin="round"/>
<path d="M488.968 121.28H431.503" stroke="#E4E4E4" stroke-width="0.954238" stroke-miterlimit="10" stroke-linecap="round" stroke-linejoin="round"/>
<path d="M369.099 154.17H395.412C397.833 154.17 399.797 152.207 399.797 149.785V123.473C399.797 121.051 397.833 119.087 395.412 119.087H369.099C366.677 119.087 364.714 121.051 364.714 123.473V149.785C364.714 152.207 366.677 154.17 369.099 154.17Z" fill="#E4E4E4"/>
<path d="M488.968 209.506H409.392" stroke="#E4E4E4" stroke-width="0.954238" stroke-miterlimit="10" stroke-linecap="round" stroke-linejoin="round"/>
<path d="M488.968 198.543H409.392" stroke="#E4E4E4" stroke-width="0.954238" stroke-miterlimit="10" stroke-linecap="round" stroke-linejoin="round"/>
<path d="M488.968 187.579H409.392" stroke="#E4E4E4" stroke-width="0.954238" stroke-miterlimit="10" stroke-linecap="round" stroke-linejoin="round"/>
<path d="M488.968 176.615H431.503" stroke="#E4E4E4" stroke-width="0.954238" stroke-miterlimit="10" stroke-linecap="round" stroke-linejoin="round"/>
<path d="M369.099 209.506H395.412C397.833 209.506 399.797 207.543 399.797 205.121V178.808C399.797 176.386 397.833 174.423 395.412 174.423H369.099C366.677 174.423 364.714 176.386 364.714 178.808V205.121C364.714 207.543 366.677 209.506 369.099 209.506Z" fill="#E4E4E4"/>
<path d="M336.078 359.245H323.861C314.909 359.245 306.578 354.451 302.286 346.595C298.523 339.71 295.771 329.508 295.771 314.459H321.421L336.078 359.245Z" fill="#323232"/>
<path d="M337.164 359.244C350.58 359.244 361.456 344.54 361.456 326.401C361.456 308.263 350.58 293.558 337.164 293.558C323.747 293.558 312.871 308.263 312.871 326.401C312.871 344.54 323.747 359.244 337.164 359.244Z" fill="#323232"/>
<path d="M108.348 359.245H95.9518C87.1108 359.245 78.9203 354.492 74.6432 346.753C70.8361 339.866 68.0419 329.623 68.0419 314.459H93.6918L108.348 359.245Z" fill="#323232"/>
<path d="M109.434 359.244C122.851 359.244 133.727 344.54 133.727 326.401C133.727 308.263 122.851 293.558 109.434 293.558C96.0178 293.558 85.1416 308.263 85.1416 326.401C85.1416 344.54 96.0178 359.244 109.434 359.244Z" fill="#323232"/>
<path d="M447.687 363.585H432.402C425.973 363.585 419.8 360.853 415.642 355.95C409.749 348.999 404.717 336.851 404.717 315.84H432.062L447.687 363.585Z" fill="#323232"/>
<path d="M248.604 363.585H233.458C226.941 363.585 220.662 360.832 216.47 355.843C210.615 348.874 205.634 336.743 205.634 315.84H232.979L248.604 363.585Z" fill="#323232"/>
<path d="M43.1618 315.672H44.8914C44.9945 304.027 45.7966 288.712 45.7966 288.712L51.0051 282.092C51.0051 282.092 49.7993 261.583 52.0908 259.413C52.7222 258.096 61.4838 255.087 61.4838 255.087C61.4838 255.087 64.3896 250.924 66.7284 248.979C69.0671 247.034 142.481 231.852 142.481 231.852C142.481 231.852 183.498 171.303 187.405 170.434C190.379 169.773 308.94 169.334 365.323 169.163C384.178 169.105 402.428 175.769 416.812 187.961C444.02 211.026 486.548 247.073 487.171 247.58C490.643 250.401 490.802 326.185 486.462 328.572C486.462 328.572 83.3988 329.037 48.2449 328.63H43.1618C42.5205 328.63 42 328.11 42 327.468V316.834C42.0007 316.192 42.5205 315.672 43.1618 315.672Z" fill="url(#paint0_linear_4_110)"/>
<path d="M145.491 231.329L183.609 178.319C183.903 177.911 184.375 177.669 184.878 177.669H285.672C286.687 177.669 287.433 178.622 287.189 179.607L274.074 232.617C273.901 233.314 273.275 233.805 272.556 233.805H146.761C145.486 233.805 144.747 232.363 145.491 231.329Z" fill="white"/>
<path d="M301.829 178.913C302.009 178.182 302.666 177.669 303.419 177.669H360.427C360.987 177.669 361.508 177.955 361.808 178.427L395.47 231.286C396.165 232.377 395.382 233.805 394.089 233.805H290.341C289.277 233.805 288.495 232.806 288.75 231.773L301.829 178.913Z" fill="white"/>
<path d="M377.936 177.669C390.088 177.669 401.845 181.986 411.108 189.851L459.478 230.918C460.641 231.905 459.943 233.805 458.418 233.805H408.067C407.479 233.805 406.936 233.49 406.644 232.978L376.512 180.118C375.89 179.026 376.679 177.669 377.936 177.669Z" fill="white"/>
<path d="M486.795 252.316C487.336 263.124 487.299 275.689 487.258 280.595C487.248 281.766 486.295 282.708 485.124 282.708H478.492C477.313 282.708 476.358 281.752 476.358 280.574V252.433C476.358 251.254 477.314 250.299 478.492 250.299H484.664C485.797 250.299 486.738 251.184 486.795 252.316Z" fill="white"/>
<path d="M202.318 282.274H174.516C170.128 282.274 166.57 278.716 166.57 274.328C166.57 270.537 169.249 267.274 172.967 266.535L200.77 261.011C205.683 260.035 210.264 263.794 210.264 268.804V274.328C210.264 278.716 206.707 282.274 202.318 282.274Z" fill="white"/>
<path d="M66.7278 273.93C66.7278 278.537 62.9929 282.272 58.3857 282.272H55.4844C53.6104 282.272 52.0908 280.753 52.0908 278.879V267.833C52.0908 265.542 54.314 263.909 56.4998 264.595L60.8826 265.97C64.3615 267.062 66.7278 270.285 66.7278 273.93Z" fill="white"/>
<path d="M185.104 300.217H167.398V317.719H189.992C192.236 317.719 194.063 315.9 194.063 313.656V311.514C194.063 310.707 193.816 309.908 193.358 309.236L188.47 302.003C187.714 300.88 186.447 300.217 185.104 300.217Z" fill="white"/>
<path d="M162.485 300.217H61.8704V317.719H162.485V300.217Z" fill="white"/>
<path d="M47.2079 309.755V313.657C47.2079 315.901 49.0268 317.72 51.271 317.72H56.9488V300.218H53.489C51.8316 300.218 50.3442 301.221 49.7232 302.751L47.5046 308.234C47.3096 308.718 47.2079 309.236 47.2079 309.755Z" fill="white"/>
<path d="M70.754 267.552H161.361C162.859 267.552 164.074 268.766 164.074 270.265V279.561C164.074 281.059 162.859 282.274 161.361 282.274H70.754C69.2555 282.274 68.0411 281.059 68.0411 279.561V270.265C68.0418 268.766 69.2561 267.552 70.754 267.552Z" fill="#323232"/>
<path d="M479.13 329.295H488.401C488.825 329.295 489.201 329.039 489.358 328.646C491.499 323.295 491.509 309.416 491.468 305.561C491.462 304.999 491.005 304.554 490.444 304.554H479.13C478.564 304.554 478.106 305.012 478.106 305.578V328.271C478.106 328.836 478.564 329.295 479.13 329.295Z" fill="#323232"/>
<path d="M447.687 363.585C461.99 363.585 473.585 347.909 473.585 328.572C473.585 309.235 461.99 293.559 447.687 293.559C433.384 293.559 421.789 309.235 421.789 328.572C421.789 347.909 433.384 363.585 447.687 363.585Z" fill="#323232"/>
<path d="M447.687 346.223C454.897 346.223 460.743 338.32 460.743 328.572C460.743 318.823 454.897 310.921 447.687 310.921C440.477 310.921 434.631 318.823 434.631 328.572C434.631 338.32 440.477 346.223 447.687 346.223Z" fill="white"/>
<path d="M447.687 343.33C453.716 343.33 458.603 336.722 458.603 328.572C458.603 320.421 453.716 313.814 447.687 313.814C441.658 313.814 436.771 320.421 436.771 328.572C436.771 336.722 441.658 343.33 447.687 343.33Z" stroke="#323232" stroke-width="1.28489" stroke-miterlimit="10" stroke-linecap="round" stroke-linejoin="round"/>
<path d="M447.687 334.554C450.131 334.554 452.112 331.876 452.112 328.572C452.112 325.268 450.131 322.589 447.687 322.589C445.243 322.589 443.262 325.268 443.262 328.572C443.262 331.876 445.243 334.554 447.687 334.554Z" fill="#323232"/>
<path d="M288.702 236.264V303.407C288.702 307.557 292.066 310.921 296.215 310.921H391.074C394.773 310.921 397.772 307.922 397.772 304.223V236.264" stroke="#323232" stroke-width="1.28489" stroke-miterlimit="10" stroke-linecap="round" stroke-linejoin="round"/>
<path d="M373.595 252.469H385.633C386.984 252.469 388.078 251.375 388.078 250.024C388.078 248.674 386.984 247.58 385.633 247.58H373.595C372.245 247.58 371.151 248.674 371.151 250.024C371.15 251.375 372.245 252.469 373.595 252.469Z" fill="#323232"/>
<path d="M370.282 178.681L401.533 233.805" stroke="#323232" stroke-width="1.28489" stroke-miterlimit="10" stroke-linecap="round" stroke-linejoin="round"/>
<path d="M460.649 236.264V275.92C460.649 278.447 458.663 280.52 456.139 280.656C417.957 282.721 415.133 310.92 415.133 310.92" stroke="#323232" stroke-width="1.28489" stroke-miterlimit="10" stroke-linecap="round" stroke-linejoin="round"/>
<path d="M154.19 314.176H66.7277" stroke="#323232" stroke-width="1.28489" stroke-miterlimit="10" stroke-linecap="round" stroke-linejoin="round"/>
<path d="M154.19 308.967H66.7277" stroke="#323232" stroke-width="1.28489" stroke-miterlimit="10" stroke-linecap="round" stroke-linejoin="round"/>
<path d="M154.19 303.759H66.7277" stroke="#323232" stroke-width="1.28489" stroke-miterlimit="10" stroke-linecap="round" stroke-linejoin="round"/>
<path d="M153.676 271.543H78.4398" stroke="white" stroke-width="1.28489" stroke-miterlimit="10" stroke-linecap="round"/>
<path d="M153.676 274.913H78.4398" stroke="white" stroke-width="1.28489" stroke-miterlimit="10" stroke-linecap="round"/>
<path d="M153.676 278.283H78.4398" stroke="white" stroke-width="1.28489" stroke-miterlimit="10" stroke-linecap="round"/>
<path d="M484.424 277.752H479.283" stroke="#323232" stroke-width="1.28489" stroke-miterlimit="10" stroke-linecap="round" stroke-linejoin="round"/>
<path d="M484.424 274.786H479.283" stroke="#323232" stroke-width="1.28489" stroke-miterlimit="10" stroke-linecap="round" stroke-linejoin="round"/>
<path d="M209.311 282.274L213.565 289.055C214.047 289.823 214.303 290.712 214.303 291.619V312.614C214.303 313.632 215.129 314.458 216.148 314.458C217.166 314.458 217.992 315.284 217.992 316.302V327.413" stroke="#323232" stroke-width="1.28489" stroke-miterlimit="10" stroke-linecap="round" stroke-linejoin="round"/>
<path d="M208.106 258.777C208.106 258.777 211.011 254.614 213.351 252.669C215.689 250.724 277.086 238.051 277.086 238.051" stroke="#323232" stroke-width="1.28489" stroke-miterlimit="10" stroke-linecap="round" stroke-linejoin="round"/>
<path d="M262.496 270.438H266.688C268.506 270.438 269.981 271.912 269.981 273.731C269.981 275.549 268.507 277.022 266.688 277.022H262.496C260.677 277.022 259.203 275.549 259.203 273.731C259.203 271.912 260.677 270.438 262.496 270.438Z" fill="white"/>
<path d="M249.762 363.585C264.065 363.585 275.66 347.909 275.66 328.572C275.66 309.235 264.065 293.559 249.762 293.559C235.459 293.559 223.864 309.235 223.864 328.572C223.864 347.909 235.459 363.585 249.762 363.585Z" fill="#323232"/>
<path d="M249.762 346.223C256.973 346.223 262.819 338.32 262.819 328.572C262.819 318.823 256.973 310.921 249.762 310.921C242.551 310.921 236.706 318.823 236.706 328.572C236.706 338.32 242.551 346.223 249.762 346.223Z" fill="white"/>
<path d="M249.762 343.33C255.791 343.33 260.678 336.722 260.678 328.572C260.678 320.421 255.791 313.814 249.762 313.814C243.734 313.814 238.846 320.421 238.846 328.572C238.846 336.722 243.734 343.33 249.762 343.33Z" stroke="#323232" stroke-width="1.28489" stroke-miterlimit="10" stroke-linecap="round" stroke-linejoin="round"/>
<path d="M249.762 334.554C252.206 334.554 254.187 331.876 254.187 328.572C254.187 325.268 252.206 322.589 249.762 322.589C247.319 322.589 245.337 325.268 245.337 328.572C245.337 331.876 247.319 334.554 249.762 334.554Z" fill="#323232"/>
<path d="M148.481 51.8551C148.481 40.3556 157.837 31 169.337 31C180.837 31 190.193 40.3556 190.193 51.8551C190.193 63.3547 180.837 72.7108 169.337 72.7108C157.837 72.7108 148.481 63.3547 148.481 51.8551ZM152.627 51.8551C152.627 61.0694 160.123 68.5656 169.337 68.5656C178.551 68.5656 186.047 61.0694 186.047 51.8551C186.047 42.6413 178.551 35.1452 169.337 35.1452C160.123 35.1452 152.627 42.6408 152.627 51.8551Z" fill="#C8A0EB"/>
<path d="M211.282 118.967L206.129 110.507L204.475 110.15L200.977 104.405L208.56 99.7856L216.144 95.1669L219.644 100.912L219.202 102.545L224.354 111.005L223.824 113.623L225.808 116.88L228.255 117.126L231.065 121.74L231.258 124.227L234.014 128.751L236.3 130.335L241.59 139.021L237.407 147.15L228.266 147.136L222.976 138.451L222.617 135.692L219.862 131.168L217.741 129.855L214.931 125.241L215.835 122.954L213.851 119.696L211.282 118.967Z" fill="#1E224F"/>
<path d="M197.744 110.932L223.428 95.2902C229.041 91.8713 230.467 84.3496 226.494 79.1136C220.906 72.2813 215.655 65.4306 210.894 58.5523C207.456 54.0206 201.147 52.8245 196.289 55.7833C189.825 60.2039 182.654 64.4858 175.095 68.6915C170.237 71.6503 168.404 77.8049 170.853 82.939C174.978 89.8429 178.645 97.6815 181.964 106.234C184.793 112.166 192.131 114.351 197.744 110.932ZM176.84 77.2255C175.866 75.6256 176.373 73.5389 177.973 72.5649L198.41 60.118C200.009 59.1434 202.096 59.6507 203.07 61.2501C204.044 62.85 203.538 64.9367 201.938 65.9107L181.501 78.3577C179.901 79.3322 177.815 78.825 176.84 77.2255Z" fill="#1E224F"/>
<path d="M211.615 104.801L235.726 144.388" stroke="white" stroke-width="0.590948" stroke-miterlimit="10" stroke-linecap="round" stroke-linejoin="round"/>
<path d="M189.923 97.4409L187.308 90.647C186.774 89.2594 187.309 87.6882 188.579 86.9148L206.293 76.1261C207.563 75.3528 209.204 75.5985 210.192 76.7096L215.029 82.1503C216.304 83.5844 215.969 85.8231 214.33 86.8211L194.395 98.963C192.756 99.9616 190.613 99.2318 189.923 97.4409Z" fill="white"/>
<path d="M127.433 80.3471L108.563 138.801C106.597 144.891 109.941 151.422 116.031 153.388L144.9 162.707C150.99 164.673 157.521 161.329 159.487 155.239L178.356 96.7848C180.322 90.6946 176.979 84.1638 170.889 82.1979L167.232 81.0176L166.904 77.7169C166.69 75.5601 165.219 73.7354 163.156 73.0696L153.533 69.9633C151.429 69.2841 149.124 69.9434 147.698 71.6319L145.652 74.0523L142.02 72.8797C135.929 70.9133 129.399 74.2565 127.433 80.3471ZM151.639 72.2138L162.936 75.8605C164.638 76.4102 163.787 79.0563 162.081 78.5061L150.785 74.8594C149.083 74.3097 149.934 71.6636 151.639 72.2138Z" fill="#1E224F"/>
<path d="M130.139 99.3206L124.941 115.42L159.872 126.696L165.069 110.597L130.139 99.3206Z" fill="white"/>
<path d="M159.314 128.425L156.007 138.669C154.659 142.846 150.179 145.139 146.001 143.791L126.198 137.399C122.021 136.05 119.727 131.57 121.075 127.393L124.382 117.15L159.314 128.425Z" fill="white"/>
<path d="M130.712 97.5376L134.018 87.2946C135.367 83.1171 139.847 80.8236 144.024 82.1718L163.827 88.5644C168.005 89.913 170.299 94.393 168.95 98.5705L165.644 108.814L130.712 97.5376Z" fill="white"/>
<path d="M146.679 92.7439L145.321 96.9511C145.11 97.6037 145.468 98.3038 146.121 98.5147L152.572 100.597C153.225 100.808 153.925 100.45 154.136 99.7968L155.494 95.5897C155.705 94.9371 155.346 94.2369 154.693 94.0261L154.183 93.8612L154.597 92.5791C155.08 91.0826 154.255 89.4714 152.759 88.9882C151.262 88.505 149.651 89.3296 149.168 90.8261L148.754 92.1083L148.243 91.9435C147.59 91.7331 146.89 92.0914 146.679 92.7439ZM153.241 93.5572L149.695 92.4128L150.109 91.1307C150.424 90.1531 151.476 89.6147 152.455 89.9305C153.432 90.2457 153.971 91.298 153.655 92.2756L153.241 93.5572Z" fill="#1E224F"/>
<path d="M142.355 110.181L142.757 110.31L142.866 110.345L143.808 110.649L143.945 110.693L147.354 111.794L147.768 110.512C148.083 109.534 147.545 108.482 146.567 108.167C145.589 107.851 144.537 108.39 144.221 109.367L144.07 109.835L143.129 109.531L143.28 109.063C143.763 107.566 145.374 106.741 146.871 107.225C148.367 107.708 149.192 109.319 148.709 110.816L148.295 112.098L148.806 112.263C149.458 112.474 149.817 113.173 149.606 113.826L148.248 118.033C148.038 118.687 147.338 119.045 146.685 118.834L140.234 116.751C139.581 116.541 139.223 115.841 139.433 115.188L140.791 110.981C141.003 110.329 141.703 109.97 142.355 110.181Z" fill="#1E224F"/>
<path d="M144.305 133.414C144.451 133.461 144.614 133.453 144.761 133.377C145.054 133.227 145.17 132.868 145.02 132.574C143.984 130.548 142.219 129.047 140.053 128.348C137.886 127.648 135.578 127.834 133.551 128.872C133.258 129.022 133.142 129.382 133.292 129.675C133.443 129.968 133.802 130.084 134.095 129.934C135.837 129.042 137.823 128.883 139.686 129.484C141.549 130.085 143.066 131.376 143.957 133.118C144.033 133.265 144.16 133.367 144.305 133.414Z" fill="#1E224F"/>
<path d="M134.586 131.969C134.732 132.016 134.895 132.007 135.042 131.932C136.275 131.3 137.68 131.187 138.999 131.613C140.317 132.038 141.391 132.951 142.023 134.185C142.173 134.479 142.532 134.595 142.826 134.445C143.119 134.295 143.235 133.935 143.085 133.642C142.308 132.124 140.987 131 139.366 130.477C137.744 129.954 136.014 130.092 134.498 130.87C134.204 131.02 134.088 131.38 134.238 131.673C134.314 131.819 134.441 131.922 134.586 131.969Z" fill="#1E224F"/>
<path d="M135.688 134.118C135.833 134.165 135.996 134.156 136.143 134.081C137.504 133.386 139.178 133.926 139.872 135.285C140.023 135.578 140.382 135.694 140.676 135.544C140.969 135.394 141.085 135.035 140.935 134.741C139.936 132.794 137.543 132.023 135.599 133.019C135.306 133.17 135.19 133.529 135.34 133.822C135.415 133.968 135.542 134.071 135.688 134.118Z" fill="#1E224F"/>
<path d="M136.603 135.438C136.416 136.019 136.735 136.642 137.315 136.83C137.896 137.017 138.518 136.698 138.706 136.118C138.893 135.537 138.575 134.914 137.994 134.727C137.413 134.539 136.79 134.858 136.603 135.438Z" fill="#1E224F"/>
<path d="M180.822 61.0116L189.031 66.0786C190.241 66.8254 189.13 68.7416 187.913 67.9903C185.177 66.3012 182.441 64.6122 179.705 62.9232C178.495 62.1765 179.606 60.2608 180.822 61.0116Z" fill="white"/>
<path d="M158.691 75.1808C159.773 71.8673 160.854 68.5538 161.935 65.2398C162.375 63.8911 164.514 64.4684 164.07 65.8283C162.988 69.1419 161.907 72.4554 160.825 75.7694C160.386 77.1181 158.247 76.5407 158.691 75.1808Z" fill="white"/>
<defs>
<linearGradient id="paint0_linear_4_110" x1="265.875" y1="169.163" x2="265.875" y2="328.797" gradientUnits="userSpaceOnUse">
<stop stop-color="#C8A0EB"/>
<stop offset="1" stop-color="#5E189D"/>
</linearGradient>
</defs>
</svg>
