<svg width="20" height="19" viewBox="0 0 20 19" fill="none" xmlns="http://www.w3.org/2000/svg">
<mask id="mask0_16_998" style="mask-type:luminance" maskUnits="userSpaceOnUse" x="0" y="0" width="20" height="19">
<path d="M10 17.6667C11.0946 17.668 12.1786 17.4531 13.1898 17.0342C14.201 16.6153 15.1195 16.0008 15.8925 15.2258C16.6674 14.4528 17.282 13.5344 17.7009 12.5231C18.1198 11.5119 18.3347 10.4279 18.3333 9.33333C18.3347 8.23879 18.1198 7.15476 17.7009 6.14354C17.282 5.13232 16.6674 4.21383 15.8925 3.44084C15.1195 2.66591 14.201 2.05135 13.1898 1.63247C12.1786 1.21359 11.0946 0.998657 10 1.00001C8.90548 0.998657 7.82145 1.21359 6.81023 1.63247C5.799 2.05135 4.88051 2.66591 4.10752 3.44084C3.33259 4.21383 2.71803 5.13232 2.29916 6.14354C1.88028 7.15476 1.66534 8.23879 1.66669 9.33333C1.66534 10.4279 1.88028 11.5119 2.29916 12.5231C2.71803 13.5344 3.33259 14.4528 4.10752 15.2258C4.88051 16.0008 5.799 16.6153 6.81023 17.0342C7.82145 17.4531 8.90548 17.668 10 17.6667Z" fill="white" stroke="white" stroke-width="1.66667" stroke-linejoin="round"/>
<path d="M6.66669 9.33333L9.16669 11.8333L14.1667 6.83333" stroke="black" stroke-width="1.66667" stroke-linecap="round" stroke-linejoin="round"/>
</mask>
<g mask="url(#mask0_16_998)">
<path d="M0 -0.666672H20V19.3333H0V-0.666672Z" fill="#5E189D"/>
</g>
</svg>
