<svg width="16" height="20" viewBox="0 0 16 20" fill="none" xmlns="http://www.w3.org/2000/svg">
<path d="M10.7001 1.45001V2.80001C10.7001 4.07261 10.7001 4.70891 11.0961 5.10401C11.4903 5.50001 12.1266 5.50001 13.4001 5.50001H14.7501" stroke="#5E189D" stroke-linecap="round" stroke-linejoin="round"/>
<path d="M4.40005 9.1H11.6M4.40005 11.8H11.6M4.40005 14.5H8.15305M0.800049 13.6V6.4C0.800049 3.8548 0.800049 2.5813 1.59115 1.7911C2.38135 1 3.65485 1 6.20005 1H9.95485C10.322 1 10.5065 1 10.6721 1.0684C10.8368 1.1368 10.9673 1.2664 11.2274 1.5274L14.6726 4.9726C14.9336 5.2336 15.0632 5.3632 15.1316 5.5288C15.2 5.6935 15.2 5.878 15.2 6.2452V13.6C15.2 16.1452 15.2 17.4187 14.4089 18.2089C13.6187 19 12.3452 19 9.80005 19H6.20005C3.65485 19 2.38135 19 1.59115 18.2089C0.800049 17.4187 0.800049 16.1452 0.800049 13.6Z" stroke="#5E189D" stroke-linecap="round" stroke-linejoin="round"/>
</svg>
