<svg width="22" height="18" viewBox="0 0 22 18" fill="none" xmlns="http://www.w3.org/2000/svg">
<path d="M10.6923 16.9969C10.8233 16.9969 10.9575 16.9675 11.0952 16.9087C11.2328 16.8499 11.344 16.7781 11.4289 16.6932L19.2414 8.87975C19.4932 8.62788 19.6876 8.37067 19.8246 8.10812C19.9609 7.84423 20.029 7.55495 20.029 7.24028C20.029 6.92161 19.9609 6.61229 19.8246 6.31233C19.6876 6.01169 19.4932 5.73778 19.2414 5.49059L15.4834 1.73266C15.2356 1.48079 14.9807 1.29607 14.7188 1.17849C14.4576 1.06091 14.1676 1.00212 13.849 1.00212C13.5343 1.00212 13.242 1.06091 12.9721 1.17849C12.7022 1.29607 12.448 1.48046 12.2095 1.73166L11.3357 2.6055L13.1896 4.46442C13.3887 4.66017 13.5373 4.88264 13.6355 5.13183C13.7331 5.38103 13.7818 5.63389 13.7818 5.89044C13.7818 6.4122 13.6111 6.84378 13.2698 7.18517C12.9284 7.52656 12.4971 7.69692 11.976 7.69625C11.7188 7.69625 11.4679 7.65716 11.2234 7.579C10.9789 7.50083 10.7588 7.36388 10.563 7.16813L8.64599 5.2581L4.31886 9.58423C4.21798 9.68578 4.14215 9.80102 4.09138 9.92996C4.0406 10.0589 4.01522 10.1892 4.01522 10.3208C4.01522 10.5573 4.09104 10.752 4.2427 10.905C4.39368 11.0587 4.58742 11.1355 4.82392 11.1355C4.95487 11.1355 5.08915 11.1061 5.22677 11.0473C5.3644 10.9879 5.47563 10.9157 5.56048 10.8309L8.73618 7.65516L9.44568 8.36466L6.27499 11.5414C6.17344 11.6422 6.09728 11.7572 6.0465 11.8861C5.9964 12.0157 5.97135 12.146 5.97135 12.2769C5.97135 12.5007 6.05018 12.6915 6.20784 12.8491C6.36551 13.0068 6.55625 13.086 6.78005 13.0866C6.911 13.0866 7.04528 13.0569 7.1829 12.9974C7.32053 12.938 7.43176 12.8662 7.51661 12.782L10.9238 9.3808L11.6333 10.0893L8.23112 13.4965C8.14226 13.5813 8.06944 13.6926 8.01265 13.8302C7.9552 13.9678 7.92647 14.1021 7.92647 14.233C7.92647 14.4562 8.00564 14.6466 8.16397 14.8043C8.32164 14.9633 8.51238 15.0428 8.73618 15.0428C8.86713 15.0428 8.9974 15.0174 9.12701 14.9666C9.25661 14.9158 9.37152 14.8397 9.47173 14.7381L12.8789 11.3359L13.5884 12.0454L10.1812 15.4526C10.0804 15.5542 10.0045 15.6761 9.95375 15.8184C9.90298 15.9607 9.87759 16.0906 9.87759 16.2082C9.87759 16.4447 9.96077 16.6355 10.1271 16.7804C10.2935 16.9254 10.4819 16.9979 10.6923 16.9979M10.6863 18C10.1712 18 9.73028 17.8116 9.36351 17.4348C8.99673 17.0573 8.83573 16.5917 8.88049 16.0379C8.31262 16.0445 7.83996 15.8752 7.46249 15.5298C7.08503 15.1837 6.90565 14.7014 6.92436 14.0827C6.30572 14.0894 5.81802 13.9124 5.46127 13.5516C5.10452 13.1908 4.94217 12.7158 4.97424 12.1266C4.41706 12.1333 3.95075 11.9763 3.57529 11.6556C3.2005 11.3363 3.0131 10.8913 3.0131 10.3208C3.0131 10.0636 3.06287 9.80637 3.16242 9.54916C3.26196 9.29128 3.40894 9.0648 3.60335 8.86972L8.64599 3.83309L11.2335 6.42055C11.3183 6.50941 11.4232 6.58256 11.5481 6.64002C11.673 6.69747 11.8137 6.72587 11.97 6.7252C12.1845 6.7252 12.3739 6.65037 12.5382 6.50072C12.7026 6.35107 12.7851 6.156 12.7857 5.91549C12.7857 5.75916 12.757 5.61886 12.6995 5.4946C12.6421 5.36967 12.5693 5.26478 12.4811 5.17993L9.03381 1.73266C8.78528 1.48079 8.52707 1.29607 8.25918 1.17849C7.99128 1.06091 7.69799 1.00212 7.37932 1.00212C7.06465 1.00212 6.77872 1.06091 6.52151 1.17849C6.26497 1.29607 6.01076 1.48079 5.7589 1.73266L2.70846 4.78911C2.49334 5.00289 2.31964 5.25843 2.18736 5.55573C2.05508 5.85235 1.98493 6.15867 1.97691 6.47467C1.97023 6.70115 1.98961 6.91861 2.03504 7.12705C2.08046 7.33549 2.15395 7.5319 2.2555 7.71629L1.4959 8.47589C1.32754 8.20733 1.19593 7.89801 1.10106 7.54793C1.0062 7.19786 0.962438 6.84044 0.969787 6.47567C0.977804 6.02004 1.069 5.58412 1.24336 5.16791C1.41773 4.7517 1.66759 4.38058 1.99295 4.05456L5.02435 1.02316C5.37375 0.677096 5.74353 0.419887 6.13369 0.251531C6.52384 0.0838438 6.94574 0 7.39936 0C7.85298 0 8.2712 0.0841778 8.65401 0.252533C9.03749 0.420221 9.40225 0.677096 9.74832 1.02316L10.6202 1.896L11.494 1.02316C11.8434 0.677096 12.2098 0.419887 12.5933 0.251531C12.9768 0.0838438 13.3954 0 13.849 0C14.3026 0 14.7245 0.0841778 15.1146 0.252533C15.5041 0.420221 15.8716 0.677096 16.217 1.02316L19.9509 4.75604C20.2963 5.10144 20.5628 5.48925 20.7505 5.9195C20.9383 6.34974 21.0318 6.79167 21.0311 7.2453C21.0311 7.69959 20.9376 8.11814 20.7505 8.50095C20.5635 8.88375 20.2969 9.24852 19.9509 9.59526L12.1374 17.4017C11.9296 17.6102 11.7031 17.7618 11.4579 17.8567C11.2134 17.9516 10.9562 17.999 10.6863 17.999" fill="#5E189D"/>
</svg>
