<svg width="336" height="327" viewBox="0 0 336 327" fill="none" xmlns="http://www.w3.org/2000/svg">
<path d="M278.062 249.937L271.514 288.621H173.179L164.885 256.189C162.543 256.189 160.256 288.383 158.048 287.931C142.589 284.768 130.961 271.09 130.961 254.696V82.5073H311.986V254.697C311.986 268.748 303.443 280.805 291.267 285.955C287.209 287.672 282.746 249.937 278.062 249.937Z" fill="#B76C4D"/>
<path d="M130.961 82.5073V211.774C126.699 229.768 126.362 250.29 132.93 267.733C133.016 267.962 133.382 267.814 133.329 267.59C133.238 267.197 133.149 266.807 133.058 266.415C134.344 269.898 136.177 273.116 138.465 275.956C138.489 273.711 138.5 271.465 138.526 269.22C139.247 206.974 140.824 144.743 142.147 82.5073H130.961ZM128.75 239.425C128.418 230.354 129.171 221.292 130.961 212.401V254.697C130.961 255.617 131.008 256.526 131.08 257.428C129.886 251.508 128.975 245.567 128.75 239.425Z" fill="#CB8A60"/>
<path d="M299.749 82.5073C299.961 98.6266 298.347 114.743 297.707 130.898C296.918 150.77 299.672 170.415 300.235 190.252C300.827 211.082 300.301 231.975 300.347 252.813C300.367 261.91 300.419 271.008 300.506 280.107C307.538 273.891 311.986 264.82 311.986 254.697V82.5073H299.749Z" fill="#CB8A60"/>
<path d="M182.416 295.205C182.852 293.461 181.313 290.256 179.288 286.564L183.211 278.59C183.211 250.566 180.877 224.671 207.516 218.415C211.593 217.441 216.336 216.928 221.875 216.954C227.336 217.107 231.925 217.748 235.822 218.8C255.77 224.209 257.103 240.875 257.103 263.181C257.103 266.643 257.077 270.232 257.077 273.924L262.795 284.975C260.897 288.744 259.385 291.615 259.692 292.487C264.307 305.691 265.154 309.281 268.256 318.716L175.236 318.844C175.237 318.844 180.801 301.461 182.416 295.205Z" fill="white"/>
<path d="M221.744 240.773C212.699 240.773 206.377 233.86 207.834 223.594L210.737 198.691H232.903L235.622 223.448C237.609 232.334 230.849 240.773 221.744 240.773Z" fill="#FFD1C5"/>
<path d="M233.97 208.414L232.902 198.691H210.737L207.834 223.594C207.514 225.846 207.589 227.924 207.964 229.816C217.366 223.435 226.674 216.922 233.97 208.414Z" fill="#FFAD94"/>
<path d="M304.869 127.908C304.638 134.702 303.715 141.394 302.126 147.855C298.075 164.418 289.665 179.468 277.281 190.878C270.718 196.903 263.026 201.929 254.308 205.646C224.644 218.261 190.159 212.21 166.75 191.442C163.776 188.801 161.007 185.955 158.417 182.853C150.572 173.469 145.828 161.316 143.803 147.933C138.342 111.986 152.392 67.0147 178.647 41.9651C207.824 14.1465 251.462 16.4028 280.101 45.3751C297.434 62.9122 301.536 82.8084 303.946 106.858C304.485 112.191 305.074 122.421 304.869 127.908Z" fill="#FFD1C5"/>
<path d="M151.529 122.645C156.302 118.507 162.259 113.826 166.54 109.194C177.014 97.8605 195.875 70.5772 196.671 72.1694C223.441 125.71 292.315 130.329 303.249 132.335C303.728 128.919 304.751 131.395 304.869 127.908C305.074 122.421 304.485 112.191 303.946 106.858C301.536 82.8085 297.434 62.9122 280.101 45.3751C251.462 16.4028 207.824 14.1465 178.647 41.9651C156.881 62.7318 143.545 97.1802 142.718 128.837C145.977 127.281 148.957 124.875 151.529 122.645Z" fill="#FFAD94"/>
<path d="M181.885 121.099C187.971 118.258 194.026 119.485 199.691 122.727C200.609 123.252 201.523 121.904 200.928 121.144C196.554 115.557 185.571 113.624 181.258 120.262C180.989 120.675 181.356 121.346 181.885 121.099Z" fill="#400705"/>
<path d="M261.912 121.128C257.609 114.496 246.627 116.387 242.25 121.979C241.475 122.968 242.725 124.009 243.692 123.457C249.276 120.263 255.3 119.166 261.269 121.951C261.783 122.191 262.186 121.55 261.912 121.128Z" fill="#400705"/>
<path d="M259.693 292.487C264.308 305.691 265.154 309.281 268.256 318.716L175.237 318.844C175.237 318.844 180.8 301.46 182.416 295.204C182.852 293.461 183.644 289.411 181.619 285.718C178.824 280.539 176.183 277.343 175.753 273.148C174.915 264.978 181.734 253.732 182.247 250.732C182.478 249.348 174.16 230.183 174.493 230.004C183.288 224.952 194.774 221.44 207.312 216.902C207.337 216.876 208.03 216.748 208.055 216.774C208.081 216.774 208.004 217.825 208.004 217.928C208.004 218.005 207.773 218.184 207.517 218.415C207.235 218.62 206.927 218.876 206.927 218.953C207.414 220.286 209.03 277.282 223.234 305.665C225.746 303.152 237.9 228.311 237.9 219.696C237.9 219.62 236.669 219.132 235.823 218.799C235.387 218.62 235.053 218.491 235.028 218.466C235.002 218.363 234.977 217.902 235.002 217.799C235.105 217.799 237.694 218.363 238.028 218.466C250.283 222.799 267.103 229.824 267.898 231.798C268.308 232.798 261.693 247.823 261.898 248.028C262.898 249.028 269.795 259.309 269.513 266.437C269.282 272.154 265.59 279.513 262.795 284.974C260.898 288.743 259.385 291.615 259.693 292.487Z" fill="#414042"/>
<path d="M211.584 231.296C213.788 235.596 216.702 238.725 221.15 240.804C216.941 240.507 212.529 245.907 210.334 249.512C210.399 249.416 209.458 244.591 209.351 244.406C208.48 242.908 207.623 241.401 206.798 239.877C203.669 234.096 203.944 227.174 206.189 221.144C206.446 220.454 207.152 217.778 208.195 217.8C208.56 217.808 208.483 220.566 208.511 220.832C208.883 224.396 209.908 228.026 211.584 231.296Z" fill="#E5E6E7"/>
<path d="M227.5 241.293C231.071 242.579 233.584 246.348 233.396 250.139C236.855 245.609 238.872 239.996 239.09 234.3C239.308 228.605 239.025 223.052 235.177 218.584C235.425 221.439 236.002 224.085 235.609 227.118C235.217 230.15 233.957 233.107 231.828 235.302C228.911 238.306 226.548 239.422 222.764 240.804C224.887 240.825 225.462 240.559 227.5 241.293Z" fill="#E5E6E7"/>
<path d="M222.307 305.836L200.137 259.378C199.443 257.923 199.822 256.182 201.058 255.147L208.499 248.917L198.693 243.552C197.302 242.791 196.635 241.159 197.095 239.642L203.761 217.248L208.844 215.117C208.743 215.948 208.587 217.034 208.526 217.873C208.514 218.042 207.921 218.295 207.927 218.367C209.921 244.121 215.034 271.786 223.089 305.541C223.206 306.032 222.524 306.291 222.307 305.836Z" fill="#58595B"/>
<path d="M223.352 305.667L245.521 259.208C246.216 257.753 245.837 256.012 244.601 254.977L237.16 248.747L246.965 243.382C248.356 242.621 249.023 240.99 248.564 239.472L241.936 217.577L234.749 215.719C234.851 216.78 234.892 217.31 235.034 218.453C235.045 218.541 236.062 219.353 236.059 219.441C235.1 244.639 230.595 271.74 222.57 305.371C222.453 305.862 223.134 306.122 223.352 305.667Z" fill="#58595B"/>
<path d="M208.356 217.52C207.63 219.834 208.009 222.598 208.494 224.929C209.008 227.397 209.957 229.781 211.257 231.942C212.468 233.955 213.986 235.786 215.737 237.352C217.367 238.809 219.436 240.497 221.561 241.122C221.969 241.242 222.188 240.691 221.854 240.461C220.981 239.861 219.979 239.438 219.087 238.856C218.075 238.194 217.116 237.452 216.221 236.638C214.538 235.104 213.079 233.327 211.925 231.363C210.714 229.301 209.85 227.046 209.313 224.718C208.761 222.323 208.883 219.937 208.599 217.524C208.584 217.393 208.39 217.412 208.356 217.52Z" fill="#D0D2D3"/>
<path d="M221.999 240.889C225.043 240.654 227.994 239.4 230.37 237.484C233.055 235.317 234.398 232.323 235.491 229.13C235.564 228.915 235.223 228.757 235.122 228.966C233.744 231.819 232.389 234.644 229.835 236.637C227.524 238.44 224.744 239.61 221.946 240.433C221.708 240.503 221.728 240.909 221.999 240.889Z" fill="#D0D2D3"/>
<path d="M222.001 240.654C221.537 244.766 221.738 248.994 221.712 253.127C221.687 257.14 221.748 261.153 221.717 265.165C221.655 273.142 221.597 281.122 221.692 289.099C221.748 293.727 221.656 298.416 222.04 303.03C222.075 303.453 222.7 303.484 222.713 303.042C222.832 298.971 222.604 294.874 222.559 290.8C222.516 286.829 222.482 282.857 222.467 278.885C222.437 270.873 222.561 262.865 222.591 254.853C222.609 250.158 222.902 245.334 222.379 240.661C222.352 240.421 222.028 240.407 222.001 240.654Z" fill="#E5E6E7"/>
<path d="M163.351 300.65L162.569 295.699L162.336 292.161L163.827 282.913L174.312 275.188L188.951 251.78L177.429 228.316L172.82 230.621L144.823 259.042C142.451 261.359 140.959 264.429 140.601 267.725L137.489 296.466L133.901 300.39L135.464 307.687L163.351 300.65Z" fill="#414042"/>
<path d="M239.933 310.146L213.111 301.893C211.965 297.976 213.812 295.101 218.408 293.184L225.331 292.283L256.938 277.749L257.601 226.285C260.759 227.296 266.695 229.948 270.105 231.969C276.982 235.94 279.705 246.495 280.609 257.895L281.004 285.668C280.92 290.658 277.806 296.541 273.059 298.081L250.708 307.854L239.933 310.146Z" fill="#414042"/>
<path d="M217.182 301.825C216.306 303.557 215.48 305.314 214.706 307.094C214.146 308.38 213.028 309.847 213.099 311.341C213.196 313.4 216.135 313.959 217.409 312.546C218.517 311.318 220.424 308.521 221.706 307.476C221.928 307.295 222.183 307.123 222.47 307.117C223.957 307.088 223.813 309.682 223.714 310.566C223.614 311.472 223.465 312.397 223.673 313.284C224.335 316.102 227.366 314.729 228.192 312.798C228.745 311.502 229.123 309.968 230.336 309.251C230.543 309.129 230.782 309.035 231.019 309.072C231.333 309.121 231.565 309.382 231.758 309.634C232.727 310.906 230.766 313.49 233.046 314.198C235.439 314.94 236.717 311.544 237.28 309.863C238.14 307.292 238.991 304.112 237.32 301.672C236.106 299.9 233.904 299.134 231.832 298.57C228.092 297.552 223.523 296.138 219.611 296.613C217.195 296.906 214.969 298.46 213.861 300.626C212.754 302.793 211.708 305.485 215.433 308.185" fill="#FFD1C5"/>
<path d="M158.037 301.825C158.912 303.557 159.738 305.314 160.513 307.094C161.072 308.38 162.191 309.847 162.12 311.341C162.023 313.4 159.084 313.959 157.81 312.546C156.702 311.318 154.794 308.521 153.513 307.476C153.291 307.295 153.036 307.123 152.749 307.117C151.262 307.088 151.406 309.682 151.504 310.566C151.605 311.472 151.754 312.397 151.546 313.284C150.884 316.102 147.853 314.729 147.027 312.798C146.474 311.502 146.096 309.968 144.883 309.251C144.676 309.129 144.437 309.035 144.199 309.072C143.886 309.121 143.654 309.382 143.461 309.634C142.492 310.906 144.453 313.49 142.173 314.198C139.78 314.94 138.502 311.544 137.939 309.863C137.079 307.292 136.228 304.112 137.899 301.672C139.113 299.9 141.315 299.134 143.387 298.57C147.127 297.552 151.697 296.138 155.608 296.613C158.023 296.906 160.25 298.46 161.357 300.626C162.465 302.793 163.51 305.485 159.786 308.185" fill="#FFD1C5"/>
<path d="M94.5367 112.962C94.5367 123.808 90.8534 133.794 84.6694 141.737C82.964 143.927 91.3661 152.629 89.3051 154.484C86.6342 156.888 73.3879 152.322 70.2154 154.067C63.5231 157.748 55.8346 159.841 47.6575 159.841C21.7667 159.841 0.77832 138.853 0.77832 112.962C0.77832 87.0716 21.7669 66.083 47.6575 66.083C73.548 66.083 94.5367 87.0716 94.5367 112.962Z" fill="white"/>
<path d="M33.4999 116.987C35.7232 114.764 35.7232 111.159 33.4999 108.936C31.2766 106.713 27.672 106.713 25.4487 108.936C23.2254 111.159 23.2254 114.764 25.4487 116.987C27.672 119.21 31.2766 119.21 33.4999 116.987Z" fill="#5E189D"/>
<path d="M53.1865 114.247C53.8981 111.184 51.9922 108.125 48.9298 107.413C45.8673 106.702 42.8079 108.608 42.0963 111.67C41.3848 114.732 43.2906 117.792 46.3531 118.503C49.4155 119.215 52.475 117.309 53.1865 114.247Z" fill="#5E189D"/>
<path d="M68.0422 118.202C70.9405 116.983 72.3022 113.646 71.0835 110.747C69.8648 107.849 66.5272 106.487 63.6289 107.706C60.7306 108.925 59.3689 112.262 60.5876 115.161C61.8063 118.059 65.1439 119.421 68.0422 118.202Z" fill="#5E189D"/>
<g opacity="0.59">
<path d="M258.377 246.326C258.377 246.326 261.647 241.237 261.853 240.817C261.894 240.735 261.921 240.652 261.938 240.569C261.993 240.505 262.042 240.431 262.082 240.35C262.288 239.93 264.306 234.227 264.306 234.227C264.306 234.227 261.036 239.317 260.83 239.737C260.791 239.818 260.763 239.902 260.746 239.985C260.691 240.049 260.642 240.122 260.602 240.203C260.396 240.624 258.377 246.326 258.377 246.326Z" fill="#3F3B3C"/>
</g>
<g opacity="0.59">
<path d="M182.025 251.22C182.025 251.22 181.841 249.112 181.485 246.928C181.15 244.742 180.626 242.492 180.514 242.179C180.472 242.058 180.416 241.946 180.35 241.847C180.339 241.728 180.312 241.606 180.268 241.485C180.157 241.172 179.143 239.096 178.023 237.189C176.921 235.27 175.734 233.52 175.734 233.52C175.734 233.52 176.489 235.497 177.131 237.582C177.794 239.661 178.327 241.845 178.435 242.148C178.477 242.265 178.534 242.372 178.601 242.468C178.61 242.585 178.634 242.704 178.675 242.822C178.782 243.125 179.747 245.155 180.545 247.186C181.363 249.209 182.025 251.22 182.025 251.22Z" fill="#3F3B3C"/>
</g>
<g opacity="0.59">
<path d="M175.545 270.607C175.545 270.607 176.116 269.15 176.794 267.686C177.461 266.215 178.242 264.746 178.332 264.525C178.366 264.439 178.388 264.352 178.398 264.266C178.451 264.197 178.497 264.119 178.532 264.034C178.622 263.813 179.088 262.216 179.639 260.698C180.175 259.176 180.785 257.734 180.785 257.734C180.785 257.734 179.862 258.998 178.991 260.382C178.108 261.758 177.292 263.257 177.2 263.484C177.163 263.572 177.139 263.661 177.127 263.748C177.075 263.819 177.03 263.899 176.994 263.988C176.902 264.215 176.439 265.858 176.11 267.459C175.766 269.059 175.545 270.607 175.545 270.607Z" fill="#3F3B3C"/>
</g>
<g opacity="0.59">
<path d="M239.969 309.308C239.969 309.308 240.492 308.932 241.098 308.012C241.711 307.112 242.239 305.543 242.076 303.639C241.949 301.725 240.981 299.601 239.084 297.976C237.217 296.331 234.607 295.193 231.744 294.476C228.869 293.747 226.029 293.466 223.447 293.506C220.869 293.585 218.459 293.715 216.969 294.82C215.441 295.918 214.678 297.437 214.142 298.39C213.654 299.358 213.357 299.947 213.357 299.947C213.357 299.947 213.517 299.346 213.888 298.279C214.293 297.246 214.811 295.597 216.419 294.124C218.11 292.604 220.735 292.262 223.377 292.01C226.086 291.797 229.12 291.98 232.179 292.755C235.232 293.519 238.095 294.874 240.109 296.884C242.159 298.856 243.079 301.517 242.962 303.613C242.908 305.738 242.094 307.34 241.319 308.178C240.546 309.038 239.969 309.308 239.969 309.308Z" fill="#3F3B3C"/>
</g>
<g opacity="0.59">
<path d="M280.596 283.873C280.447 283.838 281.278 286.576 279.705 290.767C278.908 292.839 277.173 294.992 274.829 296.731C272.475 298.465 269.592 299.821 266.586 301.054C260.597 303.58 254.936 305.365 250.806 306.417C246.672 307.487 244.069 307.93 244.069 307.93C244.069 307.93 253.994 304.398 265.867 299.315C268.855 298.092 271.645 296.896 273.923 295.428C276.182 293.954 277.906 292.188 278.855 290.364C280.75 286.672 280.469 283.816 280.596 283.873Z" fill="#3F3B3C"/>
</g>
<g opacity="0.59">
<path d="M162.878 283.713C162.878 283.713 163.207 281.087 162.54 278.025C161.928 274.952 160.576 272.676 160.576 272.676C160.576 272.676 161.04 273.142 161.628 274.033C162.216 274.92 162.884 276.271 163.222 277.883C163.556 279.495 163.484 281.001 163.299 282.048C163.116 283.1 162.878 283.713 162.878 283.713Z" fill="#3F3B3C"/>
</g>
<g opacity="0.59">
<path d="M138.044 296.403C138.044 296.403 137.753 293.162 137.814 287.905C137.904 282.662 138.286 275.347 140.394 267.465C140.661 266.482 140.952 265.516 141.273 264.571C141.397 264.134 141.646 263.557 141.899 263.011C142.165 262.522 142.437 262.063 142.721 261.632C143.866 259.947 145.099 258.566 146.312 257.285C148.734 254.729 151.093 252.669 153.104 250.973C157.141 247.603 159.858 245.806 159.858 245.806C159.858 245.806 157.543 248.481 154.32 252.205C152.635 254.186 150.608 256.53 148.523 259.193C147.482 260.518 146.408 261.938 145.518 263.408C145.305 263.771 145.112 264.14 144.933 264.492C144.809 264.821 144.662 265.122 144.531 265.623C144.251 266.52 143.988 267.439 143.733 268.377C141.721 275.884 140.481 282.952 139.537 288.07C138.668 292.92 138.044 296.403 138.044 296.403Z" fill="#3F3B3C"/>
</g>
<g opacity="0.59">
<path d="M154.246 292.161C154.246 292.161 150.256 292.371 145.612 293.552C140.955 294.682 137.33 296.363 137.33 296.363C137.33 296.363 138.104 295.732 139.501 294.911C140.891 294.089 142.943 293.125 145.356 292.522C147.77 291.925 150.035 291.818 151.648 291.892C153.267 291.965 154.246 292.161 154.246 292.161Z" fill="#3F3B3C"/>
</g>
<g opacity="0.59">
<path d="M178.476 311.277C178.476 311.277 178.998 308.784 179.947 304.81C180.45 302.695 181.015 300.322 181.601 297.862C182.17 295.245 182.945 292.429 182.625 289.691C182.357 286.914 180.964 284.504 179.686 282.063C178.432 279.654 177.419 277.355 176.843 275.329C176.246 273.306 176.099 271.582 176.161 270.417C176.193 269.832 176.244 269.387 176.31 269.088C176.362 268.794 176.392 268.633 176.392 268.633C176.392 268.633 176.404 268.797 176.426 269.094C176.434 269.394 176.49 269.834 176.583 270.39C176.774 271.502 177.239 273.059 178.11 274.85C178.963 276.649 180.211 278.67 181.667 280.923C183.069 283.099 184.969 285.892 185.319 289.4C185.687 292.918 184.597 295.929 183.801 298.483C182.935 301.071 182.028 303.339 181.234 305.232C179.636 309.011 178.476 311.277 178.476 311.277Z" fill="#3F3B3C"/>
</g>
<g opacity="0.59">
<path d="M205.294 298.679C205.294 298.679 201.949 298.172 197.978 297.014C194.008 295.856 190.914 294.486 190.914 294.486C190.914 294.486 194.259 294.993 198.23 296.151C202.201 297.308 205.294 298.679 205.294 298.679Z" fill="#3F3B3C"/>
</g>
<g opacity="0.59">
<path d="M251.819 278.133C251.819 278.133 250.106 278.638 247.519 279.82C244.921 280.986 241.536 282.953 237.829 285.238C234.111 287.517 230.795 289.631 228.298 291.046C226.076 292.301 224.245 293.334 224.245 293.334C224.245 293.334 225.912 292.066 227.935 290.527C230.254 288.849 233.438 286.442 237.17 284.156C240.899 281.856 244.532 280.115 247.288 279.23C250.041 278.325 251.819 278.133 251.819 278.133Z" fill="#3F3B3C"/>
</g>
<g opacity="0.59">
<path d="M253.525 276.639C253.525 276.639 253.325 275.083 253.274 272.548C253.221 270.017 253.368 266.497 254.057 262.682C254.751 258.869 255.85 255.522 256.788 253.17C257.726 250.815 258.46 249.428 258.46 249.428C258.46 249.428 257.03 255.518 255.698 262.98C254.325 270.435 253.525 276.639 253.525 276.639Z" fill="#3F3B3C"/>
</g>
<g opacity="0.59">
<path d="M270.591 284.178C270.591 284.178 266.899 282.17 262.204 280.247C257.524 278.288 253.493 277.098 253.493 277.098C253.493 277.098 254.545 277.134 256.228 277.403C257.909 277.67 260.22 278.215 262.633 279.212C265.043 280.213 267.064 281.46 268.441 282.459C269.822 283.459 270.591 284.178 270.591 284.178Z" fill="#3F3B3C"/>
</g>
<g opacity="0.59">
<path d="M261.598 276.681C261.598 276.681 260.129 276.668 258.355 276.778C256.58 276.875 255.122 277.058 255.122 277.058C255.122 277.058 256.504 276.489 258.332 276.387C260.16 276.276 261.598 276.681 261.598 276.681Z" fill="#3F3B3C"/>
</g>
<g opacity="0.59">
<path d="M266.217 292.316C266.217 292.316 265.942 291.206 265.257 289.55C264.577 287.891 263.384 285.736 261.668 283.667C259.944 281.605 258.041 280.041 256.532 279.072C255.027 278.098 253.986 277.627 253.986 277.627C253.986 277.627 255.113 277.804 256.818 278.541C258.516 279.266 260.751 280.689 262.595 282.895C264.43 285.107 265.425 287.563 265.831 289.365C266.246 291.175 266.217 292.316 266.217 292.316Z" fill="#3F3B3C"/>
</g>
<path d="M157.282 302.538C157.539 303.138 157.961 303.709 158.309 304.261C158.666 304.828 159.014 305.401 159.356 305.978C159.696 306.553 160.02 307.139 160.318 307.738C160.615 308.336 160.88 308.947 161.243 309.508C161.412 309.77 161.792 309.612 161.74 309.309C161.512 307.989 160.696 306.74 160.002 305.615C159.649 305.042 159.271 304.488 158.885 303.937C158.498 303.386 158.101 302.759 157.617 302.289C157.437 302.114 157.19 302.324 157.282 302.538Z" fill="#FFAD94"/>
<path d="M159.391 298.638C160.34 299.887 161.449 301.036 161.876 302.593C162.332 304.256 161.469 305.67 160.636 307.046C160.504 307.264 160.798 307.501 160.983 307.324C162.267 306.095 163.052 304.334 162.597 302.554C162.175 300.907 161.007 299.323 159.6 298.377C159.428 298.262 159.284 298.497 159.391 298.638Z" fill="#FFAD94"/>
<path d="M151.894 307.9C152.336 306.993 153.467 307.539 153.933 308.088C154.467 308.718 154.878 309.461 155.376 310.12C156.32 311.369 157.361 312.926 158.907 313.47C160.019 313.861 161.42 313.614 162.002 312.498C162.545 311.458 162.242 309.916 161.539 309.028C161.428 308.888 161.245 309.039 161.266 309.18C161.435 310.259 162.141 311.652 161.18 312.58C159.88 313.837 158.069 312.407 157.189 311.389C156.635 310.748 156.124 310.069 155.613 309.393C155.153 308.785 154.732 308.084 154.181 307.553C153.784 307.171 153.29 306.914 152.729 306.981C152.257 307.036 151.861 307.377 151.786 307.852C151.776 307.912 151.862 307.967 151.894 307.9Z" fill="#FFAD94"/>
<path d="M217.323 302.052C216.639 302.78 216.167 303.788 215.67 304.649C215.162 305.531 214.672 306.423 214.181 307.316C213.422 308.697 212.61 310.297 213.266 311.88C213.845 313.277 215.283 313.8 216.632 313.12C218.206 312.328 219.222 310.667 220.047 309.184C220.098 309.093 219.969 309.016 219.91 309.1C219.45 309.75 218.908 310.356 218.345 310.918C217.814 311.447 217.289 312.014 216.646 312.411C215.997 312.812 215.184 313.017 214.521 312.53C213.997 312.146 213.717 311.479 213.671 310.843C213.559 309.294 214.645 307.793 215.351 306.496C215.735 305.793 216.107 305.084 216.477 304.373C216.841 303.674 217.291 302.918 217.486 302.15C217.508 302.06 217.393 301.977 217.323 302.052Z" fill="#FFAD94"/>
<path d="M217.493 297.351C216.559 297.753 215.708 298.449 214.993 299.164C214.282 299.877 213.679 300.69 213.286 301.62C212.568 303.318 212.534 305.508 213.963 306.846C214.065 306.941 214.238 306.825 214.164 306.696C213.285 305.163 213.224 303.216 213.994 301.626C214.388 300.81 214.94 300.079 215.56 299.423C216.205 298.742 216.961 298.178 217.597 297.491C217.667 297.415 217.583 297.312 217.493 297.351Z" fill="#FFAD94"/>
<path d="M140.173 299.59C138.312 300.181 137.005 301.855 136.663 303.756C136.259 305.994 136.994 308.213 138.156 310.119C138.184 310.164 138.266 310.138 138.247 310.083C137.898 309.11 137.545 308.192 137.349 307.171C137.161 306.19 137.03 305.197 137.15 304.199C137.385 302.25 138.548 300.693 140.225 299.719C140.291 299.68 140.251 299.565 140.173 299.59Z" fill="#FFAD94"/>
<path d="M236.049 300.676C237.423 301.94 238.079 303.77 238.033 305.616C237.977 307.843 237.077 309.905 236.279 311.945C236.248 312.022 236.372 312.076 236.412 312.004C237.553 309.965 238.713 307.696 238.648 305.297C238.598 303.439 237.857 301.467 236.144 300.557C236.071 300.518 235.981 300.614 236.049 300.676Z" fill="#FFAD94"/>
<path d="M123.157 260.461C121.385 257.116 120.315 253.422 119.842 249.675C118.637 240.147 121.341 230.575 123.444 221.369C127.798 202.307 130.711 182.826 131.285 163.268C131.294 162.96 130.86 162.954 130.833 163.248C128.837 184.657 125.559 205.668 120.703 226.615C118.625 235.575 116.8 245.016 118.915 254.149C120.388 260.514 124.007 268.224 130.558 270.662C131.173 270.891 131.515 270.036 131.096 269.646C128.055 266.815 125.133 264.192 123.157 260.461Z" fill="#CB8A60"/>
<path d="M317.688 226.111C316.07 205.645 314.845 185.012 312.119 164.66C312.032 164.004 311.166 164.294 311.179 164.866C311.616 183.783 313.468 202.7 314.833 221.569C316.056 238.472 320.928 260.293 307.645 273.858C307.062 274.454 307.722 275.4 308.428 274.848C322.897 263.515 318.946 242.018 317.688 226.111Z" fill="#CB8A60"/>
<path d="M291.803 180.894C291.768 180.351 290.908 180.466 290.9 180.973C290.628 197.732 290.886 214.496 290.57 231.256C290.255 248.024 289.712 264.788 289.308 281.554C289.303 281.759 289.59 281.764 289.609 281.567C291.288 264.659 292.118 247.688 292.428 230.702C292.731 214.115 292.872 197.456 291.803 180.894Z" fill="#A0543A"/>
<path d="M288.19 194.971C288.189 194.945 288.152 194.956 288.152 194.979C288.903 212.536 288.238 230.12 287.482 247.665C287.467 248 287.938 248.004 287.971 247.687C289.778 230.143 289.41 212.542 288.19 194.971Z" fill="#A0543A"/>
<path d="M158.999 201.846C158.956 201.202 158.067 201.404 157.983 201.935C156.981 208.303 157.159 214.948 157.084 221.381C157.01 227.687 157.148 233.976 157.576 240.269C157.624 240.969 158.735 240.823 158.743 240.167C158.817 233.681 158.81 227.197 158.847 220.711C158.884 214.448 159.418 208.097 158.999 201.846Z" fill="#A0543A"/>
<path d="M154.246 207.331C154.243 207.264 154.133 207.278 154.133 207.341C154.136 215.964 154.11 224.597 154.549 233.211C154.565 233.528 155.075 233.462 155.076 233.165C155.096 224.548 154.66 215.936 154.246 207.331Z" fill="#A0543A"/>
<path d="M264.041 221.018C264.045 219.128 263.935 217.235 263.867 215.346C263.732 211.598 263.795 207.706 262.992 204.027C262.893 203.575 262.31 203.674 262.239 204.093C261.621 207.781 261.831 211.627 261.859 215.353C261.873 217.229 261.842 219.113 261.914 220.988C261.982 222.747 261.844 224.82 262.428 226.494C262.643 227.111 263.6 226.956 263.764 226.38C264.241 224.699 264.037 222.754 264.041 221.018Z" fill="#A0543A"/>
<path d="M187.286 209.911C187.175 209.255 186.352 209.317 186.121 209.857C185.699 210.842 185.574 211.84 185.428 212.897C185.278 213.985 185.17 215.067 185.107 216.163C184.982 218.31 184.994 220.427 185.268 222.564C185.385 223.476 186.696 223.267 186.773 222.432C186.968 220.333 187.054 218.238 187.161 216.134C187.214 215.083 187.261 214.033 187.31 212.982C187.358 211.936 187.462 210.948 187.286 209.911Z" fill="#A0543A"/>
<path d="M181.038 210.046C181.04 209.537 180.322 209.519 180.285 210.013C180.027 213.434 179.963 216.986 180.808 220.335C180.953 220.911 181.705 220.692 181.673 220.145C181.469 216.776 181.023 213.429 181.038 210.046Z" fill="#A0543A"/>
<path d="M271.064 215.447C270.915 211.863 271.083 208.09 270.338 204.572C270.247 204.146 269.682 204.233 269.623 204.635C269.106 208.145 269.468 211.822 269.526 215.361C269.586 219.011 269.582 222.652 270.078 226.274C270.165 226.906 271.087 226.773 271.132 226.182C271.406 222.6 271.213 219.031 271.064 215.447Z" fill="#A0543A"/>
<path d="M253.226 150.548C258.452 150.548 262.689 145.39 262.689 139.029C262.689 132.667 258.452 127.51 253.226 127.51C247.999 127.51 243.762 132.667 243.762 139.029C243.762 145.39 247.999 150.548 253.226 150.548Z" fill="#400705"/>
<path d="M258.741 139.132C259.958 139.132 260.944 137.926 260.944 136.438C260.944 134.951 259.958 133.745 258.741 133.745C257.523 133.745 256.537 134.951 256.537 136.438C256.537 137.926 257.523 139.132 258.741 139.132Z" fill="white"/>
<path d="M191.16 150.548C196.386 150.548 200.623 145.39 200.623 139.029C200.623 132.667 196.386 127.51 191.16 127.51C185.933 127.51 181.696 132.667 181.696 139.029C181.696 145.39 185.933 150.548 191.16 150.548Z" fill="#400705"/>
<path d="M186.075 138.227C187.292 138.227 188.279 137.021 188.279 135.534C188.279 134.046 187.292 132.841 186.075 132.841C184.858 132.841 183.871 134.046 183.871 135.534C183.871 137.021 184.858 138.227 186.075 138.227Z" fill="white"/>
<path d="M246.054 156.071C243.478 166.06 235.161 173.797 222.214 173.615C206.437 173.252 200.951 165.273 198.613 156.071H246.054Z" fill="white"/>
<path d="M220.847 152.08C218.149 152.081 215.71 150.166 214.947 147.303C214.446 145.421 214.805 143.418 215.932 141.809C216.982 140.309 218.597 139.359 220.361 139.201C221.095 139.132 221.691 139.661 221.752 140.364C221.815 141.069 221.294 141.692 220.589 141.755C219.565 141.846 218.658 142.387 218.033 143.28C217.35 144.252 217.124 145.509 217.426 146.642C217.944 148.589 219.608 149.779 221.396 149.468C222.1 149.345 222.758 149.814 222.879 150.511C223 151.209 222.534 151.873 221.836 151.995C221.504 152.052 221.174 152.08 220.847 152.08Z" fill="#FFAD94"/>
<path d="M226.013 8.06494H214.615C166.491 8.06494 126.053 46.7492 126.053 94.8724V124.247L142.413 123.963C161.186 104.799 179.872 81.3911 195.309 57.5596C194.171 59.3169 199.175 67.5299 200.171 69.2011C207.264 81.1006 216.842 92.3425 227.886 100.754C235.481 106.539 244.609 110.164 253.518 113.369C263.395 116.923 273.609 120.356 284.109 121.383C289.521 122.991 295.074 124.384 300.768 125.554L314.136 125.123L315.451 92.6803C311.944 40.0697 274.137 8.06494 226.013 8.06494ZM255.56 111.113C246.446 107.958 237.388 104.21 229.646 98.5125C222.22 93.0476 215.74 86.3575 210.062 79.1148C207.15 75.4006 204.445 71.5255 201.931 67.5315C201.119 66.2396 195.089 57.9321 196.027 56.4738C196.059 56.4237 196.094 56.3737 196.126 56.3237C211.985 81.4468 235.497 101.457 262.642 113.473C260.292 112.711 257.924 111.932 255.56 111.113Z" fill="#CB8A60"/>
<path d="M127.945 85.6235C132.246 74.8467 137.897 65.2298 145.359 56.3366C159.492 39.4926 177.971 26.1362 199.9 22.2105C219.9 18.6302 241.283 20.8735 260.072 28.6284C269.31 32.4409 278.001 37.5478 285.166 44.5776C293.996 53.2396 300.65 63.6029 306.37 74.4969C309.647 80.7369 312.655 87.1499 315.411 93.6774L315.451 92.6798C311.944 40.0693 274.137 8.06445 226.013 8.06445H214.615C168.036 8.06445 128.661 44.306 126.181 90.2687C126.751 88.6992 127.337 87.1444 127.945 85.6235Z" fill="#B76C4D"/>
<path d="M196.066 55.2557C188.123 68.4012 180.892 81.9864 172.224 94.6893C168.045 100.814 163.552 106.96 158.004 111.924C152.304 117.025 145.884 120.314 138.619 122.541C137.753 122.806 137.813 124.22 138.818 124.029C152.866 121.356 164.564 109.606 172.509 98.4043C181.922 85.1331 190.549 70.6652 196.883 55.6659C197.1 55.1527 196.354 54.7788 196.066 55.2557Z" fill="#CB8A60"/>
<path d="M198.291 38.0074C232.787 44.0976 263.793 62.5453 285.454 90.0959C291.426 97.6917 296.577 105.793 301.29 114.22C301.471 114.544 301.969 114.279 301.816 113.954C287.171 82.9444 260.431 57.1993 228.202 45.1235C218.54 41.5031 208.538 39.1579 198.305 37.8901C198.233 37.8816 198.218 37.9945 198.291 38.0074Z" fill="#B76C4D"/>
<path d="M195.815 47.0858C208.519 64.6712 223.726 80.181 240.964 93.3511C249.605 99.9529 258.665 105.999 268.131 111.353C277.389 116.59 287.316 121.672 297.587 124.559C298.144 124.716 298.446 123.921 297.926 123.665C288.067 118.802 277.955 114.62 268.299 109.318C259.068 104.251 250.167 98.5594 241.742 92.2398C224.537 79.3346 209.117 63.9645 195.996 46.9294C195.906 46.8124 195.732 46.9715 195.815 47.0858Z" fill="#B76C4D"/>
<path d="M279.238 108.779C284.707 112.3 290.043 116.027 295.433 119.667C295.771 119.896 296.148 119.355 295.823 119.11C290.627 115.171 285.118 111.703 279.491 108.418C279.266 108.286 279.014 108.634 279.238 108.779Z" fill="#B76C4D"/>
<path d="M206.031 22.0842C198.33 31.4174 193.439 44.2884 193.897 56.4651C193.918 57.0499 194.778 56.8868 194.837 56.3831C195.545 50.3636 196.496 44.4079 198.512 38.6683C200.521 32.9501 203.311 27.5685 206.635 22.507C206.919 22.0754 206.353 21.6942 206.031 22.0842Z" fill="#B76C4D"/>
<path d="M141.406 93.5698C145.184 89.1568 148.523 84.4312 152.461 80.1335C156.488 75.7402 160.673 71.5194 165.176 67.6115C169.695 63.6902 174.471 60.0153 179.488 56.7541C184.274 53.6439 189.381 51.167 194.345 48.3769C194.875 48.0787 194.763 47.0382 194.042 47.246C182.892 50.4553 172.552 58.5535 164.061 66.2007C159.585 70.231 155.302 74.5418 151.428 79.1576C147.728 83.5659 143.814 88.3172 141.177 93.4552C141.099 93.6061 141.314 93.6772 141.406 93.5698Z" fill="#B76C4D"/>
<path d="M145.878 63.6334C152.459 56.6101 160.47 50.8995 169.248 46.9481C178.271 42.8866 187.45 41.4742 197.147 40.1372C197.774 40.0506 197.802 39.0334 197.139 38.9798C187.534 38.2053 177.228 41.3922 168.672 45.5614C159.817 49.8765 152.074 55.966 145.772 63.5328C145.716 63.6 145.816 63.6998 145.878 63.6334Z" fill="#B76C4D"/>
<path d="M171.767 33.2752C176.912 32.4466 182.188 32.1894 187.348 33.0506C191.185 33.6909 195.248 35.2001 197.697 38.3799C198.152 38.9711 198.987 38.1791 198.602 37.5991C196.29 34.1151 192.21 32.6322 188.245 31.9577C182.782 31.0282 177.085 31.6958 171.711 32.8557C171.455 32.9109 171.489 33.3203 171.767 33.2752Z" fill="#B76C4D"/>
<path d="M199.977 36.4171C215.435 29.203 233.219 27.212 249.945 30.4597C266.608 33.695 281.362 42.0257 293.719 53.5109C294.122 53.8853 294.774 53.1403 294.411 52.7459C282.763 40.0938 266.823 31.5908 249.93 28.5534C232.74 25.4624 215.425 28.3681 199.891 36.2083C199.76 36.2738 199.836 36.4829 199.977 36.4171Z" fill="#B76C4D"/>
<path d="M318.38 151.034C313.424 151.034 309.406 147.017 309.406 142.06V98.7854C309.406 76.4612 300.034 54.9243 283.693 39.6974C263.805 21.1652 236.511 17.6186 217.172 17.9692C170.066 18.7367 133.166 54.2348 133.166 98.7857V142.061C133.166 147.017 129.148 151.035 124.192 151.035C119.236 151.035 115.218 147.017 115.218 142.061V98.7854C115.218 45.2408 160.823 0.93663 216.879 0.0240805C249.423 -0.535638 276.723 8.67239 295.928 26.5673C315.898 45.1757 327.353 71.4986 327.353 98.7854V142.061C327.354 147.017 323.336 151.034 318.38 151.034Z" fill="#231F20"/>
<path d="M138.96 158.825H130.128C119.093 158.825 110.148 149.879 110.148 138.845V118.856C110.148 107.822 119.093 98.8762 130.128 98.8762H138.96V158.825Z" fill="#231F20"/>
<path d="M135.94 164.866C131.705 164.866 128.272 161.433 128.272 157.198V100.503C128.272 96.2681 131.705 92.8352 135.94 92.8352C140.174 92.8352 143.607 96.2681 143.607 100.503V157.198C143.607 161.433 140.174 164.866 135.94 164.866Z" fill="#58595B"/>
<path d="M307.188 158.825H316.02C327.055 158.825 336 149.879 336 138.845V118.856C336 107.822 327.055 98.8762 316.02 98.8762H307.188V158.825Z" fill="#231F20"/>
<path d="M310.208 164.866C314.443 164.866 317.876 161.433 317.876 157.198V100.503C317.876 96.2681 314.443 92.8352 310.208 92.8352C305.973 92.8352 302.54 96.2681 302.54 100.503V157.198C302.54 161.433 305.973 164.866 310.208 164.866Z" fill="#58595B"/>
<path d="M120.761 142.243C121.034 157.293 125.442 172.319 135.798 183.567C147.671 196.462 165.498 202.095 182.649 202.49C193.213 202.734 203.778 201.055 213.902 198.104C217.064 197.182 215.719 192.232 212.539 193.159C191.901 199.175 167.927 199.85 149.124 188.016C133.316 178.068 126.218 160.372 125.889 142.244C125.829 138.948 120.701 138.937 120.761 142.243Z" fill="#6D6E71"/>
<path d="M226.097 199.167L217.376 201.532C213.317 202.633 209.134 200.235 208.033 196.175C206.932 192.116 209.331 187.933 213.39 186.832L222.111 184.467C226.17 183.366 230.353 185.765 231.454 189.824C232.555 193.883 230.156 198.066 226.097 199.167Z" fill="#231F20"/>
<path d="M243.543 325.75H180.378C176.829 325.75 173.951 322.872 173.951 319.322C173.951 315.773 176.828 312.895 180.378 312.895H247.225C248.741 312.895 249.971 314.124 249.971 315.64V319.322C249.971 322.872 247.093 325.75 243.543 325.75Z" fill="#E5E5E5"/>
<path d="M173.999 318.964C173.995 318.964 173.991 318.963 173.987 318.963C173.98 319.085 173.951 319.199 173.951 319.322C173.951 322.872 176.829 325.75 180.379 325.75H243.544C247.093 325.75 249.971 322.872 249.971 319.322V318.964H173.999Z" fill="white"/>
<path d="M209.92 326.898C209.484 326.974 209.022 327 208.535 327H77.4926C72.6213 327 67.7754 323.231 66.7243 318.59L50.7764 248.159C50.52 247.005 50.52 245.903 50.725 244.903C51.3659 241.878 54.0325 239.724 57.7248 239.724H188.767C193.664 239.724 198.484 243.518 199.536 248.159L215.483 318.59C216.432 322.77 213.996 326.257 209.92 326.898Z" fill="#FAFAFA" fill-opacity="0.980392"/>
<path d="M209.919 326.897C209.484 326.974 209.022 327 208.535 327H77.4924C72.6211 327 67.7752 323.231 66.7241 318.59L50.7763 248.159C50.5199 247.005 50.5199 245.903 50.7249 244.903C51.1608 244.826 51.6224 244.8 52.0837 244.8H183.126C188.023 244.8 192.844 248.569 193.895 253.236L209.868 323.641C210.125 324.795 210.125 325.898 209.919 326.897Z" fill="#E5E5E5"/>
<path d="M143.89 282.57C144.828 276.678 138.364 270.753 129.453 269.335C120.542 267.918 112.558 271.545 111.621 277.437C110.684 283.328 117.148 289.253 126.059 290.671C134.97 292.088 142.953 288.461 143.89 282.57Z" fill="#FAFAFA" fill-opacity="0.980392"/>
<path d="M61.2836 294.563C61.5886 294.22 61.9004 293.883 62.2048 293.54C76.869 276.993 91.0757 260.145 106.988 244.801H52.0837C51.6221 244.801 51.1608 244.826 50.7249 244.903C50.5199 245.903 50.5199 247.006 50.7763 248.16L61.2836 294.563Z" fill="white"/>
<path d="M67.8767 321.343C68.7168 320.313 69.5542 319.281 70.3875 318.243C74.8215 312.724 79.3944 307.314 84.0607 301.99C101.072 282.582 119.297 264.219 137.267 245.705C137.561 245.403 137.858 245.103 138.151 244.801H118.191C117.013 245.885 115.829 246.963 114.66 248.056C105.937 256.211 97.714 264.83 89.7658 273.739C80.9044 283.671 72.2867 293.85 63.3599 303.733L66.7242 318.591C66.9436 319.56 67.3604 320.476 67.8767 321.343Z" fill="white"/>
</svg>
