<svg width="18" height="18" viewBox="0 0 18 18" fill="none" xmlns="http://www.w3.org/2000/svg">
<g clip-path="url(#clip0_29_308)">
<path d="M13.275 6.885C13.5495 6.54862 13.4933 6.05925 13.1513 5.79037C12.8093 5.5215 12.3086 5.57662 12.0353 5.91187L8.31151 10.4794L6.32026 8.94937C6.1576 8.81699 5.94966 8.75337 5.74077 8.77207C5.53188 8.79077 5.33856 8.89032 5.20201 9.0495C5.13529 9.12756 5.0849 9.21821 5.05382 9.31608C5.02273 9.41395 5.01158 9.51706 5.02101 9.61931C5.03045 9.72157 5.06029 9.82089 5.10877 9.91142C5.15725 10.0019 5.22338 10.0818 5.30326 10.1464L7.91326 12.1826C8.07807 12.3167 8.28923 12.3801 8.50064 12.359C8.71205 12.3379 8.90653 12.2341 9.04163 12.0701L13.2716 6.87262L13.275 6.885Z" fill="#5E189D"/>
<path fill-rule="evenodd" clip-rule="evenodd" d="M7.32376 0.803262C7.92451 0.362262 8.22489 0.141762 8.55001 0.0562623C8.84053 -0.017452 9.14487 -0.017452 9.43539 0.0562623C9.76389 0.141762 10.0654 0.362262 10.6616 0.803262L11.4233 1.36239C11.6314 1.51539 11.736 1.59189 11.8485 1.65151C11.949 1.70401 12.0536 1.74751 12.1624 1.78201C12.285 1.81914 12.4121 1.83826 12.6675 1.87764L13.6013 2.02051C14.3381 2.13301 14.706 2.19039 14.9963 2.36251C15.255 2.51439 15.471 2.73039 15.6229 2.98914C15.795 3.28164 15.8513 3.65064 15.9649 4.38414L16.1078 5.31789C16.1471 5.57326 16.1663 5.70151 16.2034 5.82414C16.2371 5.93289 16.2806 6.03714 16.3339 6.13689C16.3946 6.24939 16.47 6.35401 16.623 6.56214L17.1821 7.32376C17.6231 7.92451 17.8436 8.22489 17.9291 8.55001C18.0029 8.84053 18.0029 9.14487 17.9291 9.43539C17.8448 9.76389 17.6231 10.0654 17.1821 10.6616L16.623 11.4233C16.516 11.5575 16.4193 11.6996 16.3339 11.8485C16.2805 11.9491 16.2368 12.0546 16.2034 12.1635C16.1663 12.285 16.1471 12.4121 16.1078 12.6675L15.9649 13.6013C15.8524 14.3381 15.795 14.706 15.6229 14.9963C15.471 15.255 15.255 15.471 14.9963 15.6229C14.7038 15.795 14.3348 15.8513 13.6013 15.9649L12.6675 16.1078C12.4969 16.1271 12.3281 16.1595 12.1624 16.2045C12.0536 16.2375 11.949 16.281 11.8485 16.335C11.736 16.3946 11.6314 16.47 11.4233 16.6241L10.6616 17.1833C10.0609 17.6243 9.76051 17.8448 9.43539 17.9303C9.14487 18.004 8.84053 18.004 8.55001 17.9303C8.22151 17.8448 7.92001 17.6243 7.32376 17.1833L6.56214 16.6241C6.42795 16.5171 6.28578 16.4204 6.13689 16.335C6.03661 16.2817 5.93152 16.238 5.82301 16.2045C5.65734 16.1595 5.48848 16.1271 5.31789 16.1078L4.38414 15.9649C3.64726 15.8524 3.27826 15.7961 2.98914 15.6229C2.73131 15.4695 2.5159 15.2541 2.36251 14.9963C2.19039 14.7038 2.13414 14.3348 2.02051 13.6013L1.87764 12.6675C1.83826 12.4121 1.81914 12.285 1.78201 12.1624C1.74919 12.0536 1.70547 11.9485 1.65151 11.8485C1.56609 11.6996 1.46944 11.5575 1.36239 11.4233L0.803262 10.6616C0.362262 10.0609 0.141762 9.76164 0.0562623 9.43539C-0.017452 9.14487 -0.017452 8.84053 0.0562623 8.55001C0.140637 8.22151 0.362262 7.92001 0.803262 7.32376L1.36239 6.56214C1.51539 6.35401 1.59189 6.24939 1.65151 6.13689C1.70401 6.03714 1.74751 5.93251 1.78201 5.82301C1.81914 5.70039 1.83826 5.57326 1.87764 5.31789L2.02051 4.38414C2.13301 3.64726 2.19039 3.27826 2.36251 2.98914C2.51439 2.73039 2.73039 2.51664 2.98914 2.36251C3.28164 2.19039 3.65064 2.13414 4.38414 2.02051L5.31789 1.87764C5.57326 1.83939 5.70151 1.81914 5.82301 1.78201C5.93176 1.74826 6.03639 1.70476 6.13689 1.65151C6.24939 1.59189 6.35401 1.51539 6.56214 1.36239L7.32376 0.803262ZM10.0013 1.71001L10.8011 2.29726C10.971 2.42214 11.1386 2.54589 11.3254 2.64489C11.4904 2.73264 11.6614 2.80351 11.8384 2.85751C12.0407 2.91347 12.2467 2.95519 12.4549 2.98239L13.4359 3.13314C14.2695 3.26139 14.373 3.29626 14.4338 3.33226C14.529 3.38926 14.6048 3.46501 14.661 3.55951C14.697 3.62026 14.733 3.72376 14.8601 4.55739L15.0109 5.53839C15.0381 5.74655 15.0798 5.95255 15.1358 6.15489C15.1905 6.33339 15.2614 6.50439 15.3484 6.66789C15.4474 6.85464 15.5711 7.02226 15.696 7.19214L16.2833 7.99201C16.7828 8.67151 16.83 8.76939 16.848 8.83914C16.8739 8.94482 16.8739 9.0552 16.848 9.16089C16.83 9.22951 16.7828 9.32739 16.2833 10.008L15.696 10.8079C15.5711 10.9778 15.4474 11.1454 15.3484 11.3321C15.2614 11.496 15.1902 11.6678 15.1358 11.8451C15.0798 12.0475 15.0381 12.2535 15.0109 12.4616L14.8601 13.4426C14.7319 14.2763 14.697 14.3798 14.661 14.4405C14.6047 14.5335 14.5267 14.6114 14.4338 14.6678C14.373 14.7038 14.2695 14.7398 13.4359 14.8669L12.4549 15.0176C12.2467 15.0448 12.0407 15.0866 11.8384 15.1425C11.661 15.197 11.4893 15.2682 11.3254 15.3551C11.1386 15.4541 10.971 15.5779 10.8011 15.7028L10.0013 16.29C9.32176 16.7895 9.22389 16.8368 9.15414 16.8548C9.04846 16.8807 8.93807 16.8807 8.83239 16.8548C8.76376 16.8368 8.66589 16.7895 7.98526 16.29L7.18539 15.7028C7.01896 15.5748 6.84378 15.4586 6.66114 15.3551C6.49727 15.2682 6.32549 15.197 6.14814 15.1425C5.9458 15.0866 5.7398 15.0448 5.53164 15.0176L4.55064 14.8669C3.71701 14.7386 3.61351 14.7038 3.55276 14.6678C3.45982 14.6114 3.38186 14.5335 3.32551 14.4405C3.28951 14.3798 3.25351 14.2763 3.12639 13.4426L2.97564 12.4616C2.94844 12.2535 2.90672 12.0475 2.85076 11.8451C2.79632 11.6678 2.72512 11.496 2.63814 11.3321C2.53914 11.1454 2.41539 10.9778 2.29051 10.8079L1.70326 10.008C1.20376 9.32851 1.15651 9.23064 1.13851 9.16089C1.11258 9.0552 1.11258 8.94482 1.13851 8.83914C1.15651 8.77051 1.20376 8.67264 1.70326 7.99201L2.29051 7.19214C2.41539 7.02226 2.53914 6.85464 2.63814 6.66789C2.72514 6.50289 2.79601 6.33189 2.85076 6.15489C2.90672 5.95255 2.94844 5.74655 2.97564 5.53839L3.12639 4.55739C3.25464 3.72376 3.28951 3.62026 3.32551 3.55951C3.38186 3.46657 3.45982 3.38861 3.55276 3.33226C3.61351 3.29626 3.71701 3.26026 4.55064 3.13314L5.53164 2.98239C5.7398 2.95519 5.9458 2.91347 6.14814 2.85751C6.32664 2.80276 6.49764 2.73189 6.66114 2.64489C6.84789 2.54589 7.01551 2.42214 7.18539 2.29726L7.98526 1.71001C8.66476 1.21051 8.76264 1.16326 8.83239 1.14526C8.93807 1.11933 9.04846 1.11933 9.15414 1.14526C9.22276 1.16326 9.32064 1.21051 10.0013 1.71001Z" fill="#5E189D"/>
</g>
<defs>
<clipPath id="clip0_29_308">
<rect width="18" height="18" fill="white"/>
</clipPath>
</defs>
</svg>
