<svg width="18" height="18" viewBox="0 0 18 18" fill="none" xmlns="http://www.w3.org/2000/svg">
<g clip-path="url(#clip0_22_1266)">
<path d="M5.0625 5.06246L7.875 7.87496M5.0625 5.06246L6.375 3.74996V3.56246L5.295 3.11246C4.51876 2.78897 3.79169 2.35828 3.135 1.83296L2.25 1.12496H2.0625L1.125 2.06246V2.24996L1.833 3.13496C2.35832 3.79164 2.78901 4.51872 3.1125 5.29496L3.5625 6.37496H3.75L5.0625 5.06246ZM10.3005 12.75C11.4771 14.0851 12.6068 15.461 13.6875 16.875H13.875L16.875 13.875V13.6875C16.875 13.6875 15.0225 12.2985 12.75 10.3005M13.125 8.62496C13.7478 8.62514 14.3607 8.47022 14.9086 8.17419C15.4565 7.87816 15.9221 7.45035 16.2633 6.92937C16.6044 6.40838 16.8105 5.81063 16.8628 5.19008C16.9151 4.56953 16.8121 3.94572 16.563 3.37496H16.125L13.875 5.62496H12.375V4.12496L14.625 1.87496V1.43696C13.9528 1.14306 13.2091 1.05281 12.4861 1.17737C11.7631 1.30194 11.0925 1.63585 10.5574 2.13776C10.0223 2.63967 9.64612 3.28752 9.47555 4.00108C9.30498 4.71464 9.34747 5.46256 9.59775 6.15221L8.25 7.49996C4.875 10.875 1.125 13.6875 1.125 13.6875V13.875L4.125 16.875H4.3125C4.3125 16.875 7.125 13.125 10.5 9.74996L11.8478 8.40221C12.2573 8.55005 12.6895 8.62543 13.125 8.62496Z" stroke="white" stroke-width="0.75"/>
</g>
<defs>
<clipPath id="clip0_22_1266">
<rect width="18" height="18" fill="white"/>
</clipPath>
</defs>
</svg>
