<svg width="597" height="460" viewBox="0 0 597 460" fill="none" xmlns="http://www.w3.org/2000/svg">
<path d="M19.2305 237.802C39.9331 128.701 170.93 161.757 228.3 123.938C270.41 96.1797 337.594 9.01458 432.558 43.6693C564.533 91.8304 574.321 308.697 447.659 387.126C382.36 427.56 229.457 452.509 118.46 402.914C65.6446 379.316 2.65174 325.172 19.2305 237.802Z" fill="#5E189D" fill-opacity="0.05"/>
<path d="M314.62 460C470.574 460 597 443.362 597 422.838C597 402.313 470.574 385.675 314.62 385.675C158.666 385.675 32.2402 402.313 32.2402 422.838C32.2402 443.362 158.666 460 314.62 460Z" fill="#2A2A2A" fill-opacity="0.1"/>
<path d="M460.052 204.769L459.443 203.965C459.46 203.951 461.619 202.14 460.501 195.963C459.46 190.213 455.675 186.612 452.014 183.129C448.291 179.588 444.442 175.926 443.771 170.106C442.442 158.575 452.561 155.83 452.663 155.804L452.916 156.781C452.533 156.881 443.546 159.347 444.774 169.991C445.402 175.447 448.952 178.824 452.709 182.399C456.487 185.993 460.394 189.709 461.494 195.784C462.737 202.649 460.162 204.686 460.052 204.769Z" fill="#5E189D"/>
<path d="M586.79 245.708L501.01 193.523C498.997 192.299 496.628 191.796 494.292 192.097L461.483 196.326C454.889 197.176 450.785 203.922 453.062 210.169L464.39 241.248C465.197 243.462 466.733 245.335 468.746 246.559L554.526 298.744C559.421 301.722 565.803 300.168 568.782 295.273L590.262 259.964C593.239 255.069 591.685 248.686 586.79 245.708ZM463.383 212.218C461.266 210.93 460.594 208.17 461.882 206.053C463.17 203.936 465.93 203.263 468.047 204.551C470.164 205.84 470.837 208.6 469.548 210.716C468.261 212.833 465.5 213.505 463.383 212.218Z" fill="#5E189D"/>
<path d="M507.701 200.627C507.834 200.408 507.765 200.122 507.545 199.989L506.221 199.183C506.001 199.05 505.715 199.119 505.582 199.339C505.449 199.558 505.518 199.844 505.738 199.978L507.062 200.783C507.281 200.917 507.567 200.847 507.701 200.627ZM479.947 249.797L478.623 248.991C478.404 248.858 478.118 248.928 477.984 249.147C477.851 249.366 477.921 249.652 478.14 249.785L479.464 250.591C479.683 250.724 479.969 250.655 480.103 250.436C480.237 250.216 480.167 249.93 479.947 249.797ZM467.991 241.478C467.724 241.066 467.488 240.63 467.292 240.181C467.189 239.946 466.915 239.839 466.68 239.942C466.444 240.045 466.338 240.319 466.44 240.554C466.657 241.049 466.917 241.53 467.211 241.984C467.251 242.045 467.302 242.093 467.36 242.128C467.507 242.218 467.7 242.222 467.854 242.121C468.07 241.981 468.131 241.693 467.991 241.478ZM476.769 247.864L475.444 247.058C475.225 246.925 474.939 246.994 474.805 247.214C474.672 247.433 474.742 247.719 474.961 247.852L476.286 248.658C476.505 248.791 476.791 248.722 476.924 248.502C477.058 248.283 476.988 247.997 476.769 247.864ZM510.879 202.561C511.013 202.342 510.943 202.056 510.724 201.923L509.4 201.117C509.18 200.984 508.894 201.053 508.761 201.273C508.627 201.492 508.697 201.778 508.917 201.912L510.241 202.717C510.46 202.85 510.746 202.781 510.879 202.561ZM504.522 198.694C504.656 198.474 504.586 198.189 504.366 198.055L503.042 197.249C502.823 197.116 502.537 197.186 502.403 197.405C502.269 197.625 502.339 197.91 502.559 198.044L503.883 198.849C504.103 198.983 504.389 198.914 504.522 198.694ZM514.058 204.495C514.192 204.275 514.122 203.99 513.902 203.856L512.578 203.051C512.359 202.917 512.072 202.987 511.939 203.206C511.805 203.426 511.875 203.712 512.095 203.845L513.419 204.651C513.638 204.784 513.924 204.714 514.058 204.495ZM470.443 243.997C470.039 243.719 469.656 243.406 469.302 243.065C469.117 242.887 468.823 242.893 468.645 243.078C468.467 243.263 468.473 243.557 468.658 243.735C469.047 244.11 469.47 244.456 469.915 244.763C469.922 244.768 469.93 244.773 469.938 244.777C470.147 244.904 470.421 244.848 470.562 244.644C470.708 244.433 470.654 244.143 470.443 243.997ZM498.034 195.083C498.098 194.835 497.947 194.582 497.697 194.519C497.173 194.387 496.634 194.297 496.095 194.252C495.84 194.231 495.615 194.421 495.593 194.676C495.578 194.858 495.669 195.024 495.815 195.113C495.875 195.149 495.943 195.172 496.017 195.179C496.506 195.22 496.994 195.301 497.47 195.421C497.719 195.483 497.972 195.332 498.034 195.083ZM501.344 196.76C501.478 196.541 501.408 196.255 501.188 196.122L500.446 195.67C500.243 195.547 500.033 195.429 499.822 195.321C499.594 195.203 499.314 195.293 499.197 195.522C499.084 195.74 499.162 196.006 499.368 196.131C499.377 196.137 499.387 196.143 499.397 196.148C499.589 196.246 499.779 196.353 499.963 196.465L500.705 196.916C500.924 197.049 501.21 196.98 501.344 196.76ZM473.591 245.93L472.266 245.124C472.047 244.991 471.761 245.06 471.628 245.279C471.494 245.499 471.564 245.785 471.783 245.918L473.108 246.724C473.327 246.857 473.613 246.788 473.747 246.569C473.88 246.349 473.81 246.063 473.591 245.93ZM483.126 251.731L481.802 250.925C481.583 250.792 481.296 250.861 481.163 251.08C481.029 251.3 481.099 251.586 481.318 251.719L482.643 252.524C482.862 252.658 483.148 252.588 483.282 252.369C483.415 252.15 483.345 251.864 483.126 251.731ZM486.305 253.664L484.98 252.859C484.761 252.726 484.475 252.795 484.341 253.014C484.208 253.234 484.278 253.52 484.497 253.653L485.822 254.459C486.041 254.592 486.327 254.523 486.46 254.303C486.594 254.084 486.524 253.798 486.305 253.664ZM526.772 212.23C526.906 212.01 526.836 211.724 526.617 211.591L525.292 210.785C525.073 210.652 524.787 210.721 524.653 210.94C524.52 211.16 524.589 211.446 524.809 211.58L526.134 212.385C526.352 212.519 526.639 212.449 526.772 212.23ZM502.197 263.333L500.873 262.527C500.654 262.394 500.368 262.463 500.235 262.683C500.101 262.902 500.171 263.188 500.39 263.322L501.714 264.127C501.934 264.26 502.22 264.191 502.353 263.971C502.486 263.752 502.416 263.466 502.197 263.333ZM529.951 214.163C530.084 213.944 530.014 213.658 529.795 213.524L528.47 212.719C528.251 212.585 527.965 212.655 527.832 212.874C527.698 213.094 527.768 213.379 527.987 213.513L529.311 214.318C529.531 214.452 529.817 214.382 529.951 214.163ZM495.84 259.465L494.516 258.66C494.297 258.527 494.01 258.596 493.877 258.816C493.744 259.035 493.813 259.321 494.033 259.454L495.358 260.26C495.577 260.393 495.863 260.324 495.996 260.104C496.129 259.885 496.06 259.599 495.84 259.465ZM499.019 261.399L497.694 260.593C497.475 260.46 497.189 260.529 497.055 260.749C496.922 260.969 496.991 261.254 497.211 261.388L498.535 262.193C498.755 262.327 499.041 262.257 499.174 262.037C499.308 261.818 499.238 261.533 499.019 261.399ZM517.236 206.429C517.37 206.209 517.3 205.923 517.081 205.79L515.756 204.984C515.537 204.851 515.251 204.92 515.117 205.14C514.984 205.359 515.054 205.645 515.273 205.779L516.598 206.584C516.817 206.717 517.103 206.648 517.236 206.429ZM489.483 255.598L488.159 254.792C487.939 254.659 487.653 254.729 487.52 254.948C487.386 255.167 487.456 255.453 487.675 255.586L489 256.392C489.219 256.525 489.505 256.456 489.639 256.236C489.772 256.017 489.702 255.731 489.483 255.598ZM520.415 208.362C520.549 208.143 520.479 207.857 520.26 207.724L518.935 206.918C518.716 206.785 518.43 206.854 518.296 207.074C518.163 207.293 518.233 207.579 518.452 207.713L519.777 208.518C519.996 208.651 520.281 208.581 520.415 208.362ZM492.662 257.532L491.337 256.726C491.118 256.593 490.832 256.662 490.699 256.882C490.565 257.102 490.635 257.387 490.854 257.521L492.179 258.326C492.398 258.459 492.684 258.39 492.818 258.17C492.951 257.951 492.881 257.665 492.662 257.532ZM523.594 210.296C523.727 210.076 523.657 209.79 523.438 209.657L522.113 208.851C521.894 208.718 521.608 208.787 521.475 209.007C521.341 209.227 521.411 209.512 521.63 209.646L522.955 210.451C523.174 210.585 523.46 210.515 523.594 210.296ZM466.283 198.705C466.37 198.758 466.475 198.783 466.584 198.769L468.121 198.57C468.376 198.537 468.556 198.305 468.523 198.05C468.491 197.796 468.258 197.616 468.003 197.648L466.465 197.847C466.21 197.879 466.031 198.112 466.063 198.367C466.082 198.513 466.166 198.634 466.283 198.705ZM473.663 197.754C473.75 197.807 473.855 197.832 473.964 197.818L475.501 197.619C475.756 197.587 475.936 197.353 475.903 197.099C475.87 196.844 475.638 196.665 475.382 196.697L473.845 196.895C473.59 196.928 473.411 197.161 473.443 197.416C473.462 197.562 473.547 197.683 473.663 197.754ZM481.043 196.802C481.13 196.855 481.235 196.88 481.344 196.866L482.881 196.668C483.136 196.635 483.316 196.402 483.283 196.147C483.25 195.893 483.018 195.714 482.762 195.745L481.225 195.944C480.97 195.977 480.791 196.21 480.824 196.464C480.842 196.61 480.926 196.732 481.043 196.802ZM477.353 197.278C477.44 197.331 477.545 197.356 477.654 197.342L479.191 197.143C479.446 197.11 479.626 196.878 479.593 196.623C479.561 196.369 479.328 196.188 479.073 196.221L477.535 196.42C477.28 196.453 477.101 196.685 477.133 196.94C477.152 197.086 477.236 197.207 477.353 197.278ZM469.973 198.23C470.06 198.283 470.165 198.307 470.274 198.293L471.811 198.095C472.066 198.062 472.246 197.829 472.213 197.575C472.18 197.32 471.947 197.141 471.693 197.173L470.155 197.371C469.9 197.404 469.72 197.637 469.753 197.892C469.772 198.037 469.857 198.159 469.973 198.23ZM459.136 200.717C459.173 200.766 459.217 200.806 459.267 200.836C459.424 200.932 459.63 200.928 459.787 200.811C460.18 200.517 460.6 200.254 461.034 200.03C461.262 199.912 461.352 199.632 461.234 199.403C461.116 199.176 460.836 199.086 460.607 199.204C460.128 199.451 459.664 199.742 459.231 200.066C459.025 200.22 458.982 200.511 459.136 200.717ZM466.542 238.176L466.011 236.72C465.923 236.478 465.656 236.354 465.415 236.442C465.174 236.53 465.05 236.797 465.137 237.038L465.668 238.495C465.706 238.598 465.776 238.679 465.863 238.733C465.98 238.803 466.126 238.822 466.264 238.772C466.505 238.684 466.63 238.417 466.542 238.176ZM587.587 256.294C587.558 256.485 587.65 256.667 587.805 256.762C587.856 256.792 587.914 256.814 587.976 256.823C588.23 256.862 588.468 256.688 588.506 256.434C588.588 255.901 588.626 255.356 588.62 254.814C588.617 254.558 588.407 254.352 588.15 254.354C587.893 254.357 587.688 254.568 587.691 254.824C587.697 255.315 587.662 255.809 587.587 256.294ZM587.044 258.28C586.862 258.732 586.641 259.175 586.386 259.597C586.253 259.816 586.323 260.102 586.542 260.235L586.543 260.236C586.763 260.369 587.048 260.298 587.182 260.078C587.463 259.614 587.706 259.125 587.907 258.626C588.003 258.388 587.886 258.117 587.649 258.022C587.41 257.926 587.14 258.041 587.044 258.28ZM488.423 195.851C488.509 195.904 488.615 195.929 488.723 195.915L490.261 195.716C490.516 195.684 490.696 195.451 490.663 195.196C490.63 194.942 490.398 194.762 490.143 194.794L488.605 194.993C488.35 195.026 488.171 195.258 488.203 195.513C488.222 195.659 488.306 195.78 488.423 195.851ZM492.113 195.375C492.2 195.428 492.305 195.453 492.414 195.439L493.952 195.241C494.206 195.208 494.386 194.975 494.353 194.72C494.32 194.466 494.088 194.286 493.832 194.318L492.295 194.517C492.04 194.55 491.861 194.783 491.894 195.037C491.912 195.183 491.996 195.304 492.113 195.375ZM484.733 196.327C484.82 196.38 484.925 196.405 485.034 196.391L486.571 196.192C486.826 196.16 487.006 195.926 486.973 195.672C486.94 195.418 486.708 195.238 486.452 195.27L484.915 195.468C484.66 195.501 484.481 195.734 484.514 195.989C484.532 196.135 484.616 196.256 484.733 196.327ZM533.129 216.097C533.262 215.877 533.193 215.591 532.973 215.458L531.649 214.652C531.43 214.519 531.144 214.588 531.01 214.808C530.877 215.027 530.946 215.313 531.166 215.447L532.49 216.252C532.71 216.386 532.995 216.316 533.129 216.097ZM462.72 227.689L462.189 226.233C462.101 225.992 461.834 225.868 461.593 225.955C461.352 226.043 461.227 226.31 461.315 226.551L461.846 228.007C461.884 228.111 461.954 228.192 462.041 228.245C462.158 228.316 462.304 228.335 462.442 228.285C462.683 228.198 462.807 227.931 462.72 227.689ZM456.797 203.585C457.018 203.715 457.303 203.642 457.433 203.421L457.466 203.367C457.711 202.965 457.988 202.581 458.288 202.224C458.454 202.028 458.429 201.734 458.233 201.569C458.038 201.405 457.743 201.428 457.578 201.625C457.246 202.018 456.941 202.441 456.672 202.883L456.633 202.948C456.503 203.167 456.575 203.45 456.791 203.582L456.797 203.585ZM465.268 234.681L464.737 233.224C464.649 232.982 464.382 232.859 464.141 232.946C463.9 233.034 463.776 233.301 463.863 233.543L464.394 234.999C464.432 235.102 464.502 235.184 464.589 235.237C464.706 235.308 464.852 235.327 464.991 235.277C465.231 235.189 465.356 234.922 465.268 234.681ZM463.993 231.185L463.462 229.729C463.375 229.487 463.108 229.363 462.866 229.451C462.626 229.539 462.501 229.806 462.589 230.047L463.12 231.504C463.158 231.607 463.228 231.689 463.315 231.742C463.432 231.813 463.578 231.831 463.716 231.781C463.957 231.693 464.082 231.426 463.993 231.185ZM460.171 220.698L459.64 219.242C459.552 219 459.286 218.876 459.045 218.964C458.803 219.052 458.679 219.319 458.767 219.56L459.298 221.017C459.336 221.12 459.406 221.202 459.493 221.255C459.61 221.326 459.756 221.345 459.894 221.294C460.135 221.207 460.259 220.94 460.171 220.698ZM461.445 224.194L460.914 222.737C460.826 222.496 460.56 222.372 460.319 222.46C460.077 222.548 459.953 222.815 460.041 223.056L460.572 224.512C460.61 224.616 460.68 224.697 460.767 224.75C460.883 224.821 461.03 224.84 461.168 224.79C461.409 224.702 461.534 224.435 461.445 224.194ZM458.897 217.203L458.367 215.746C458.278 215.505 458.012 215.381 457.771 215.469C457.529 215.557 457.405 215.823 457.493 216.064L458.024 217.521C458.061 217.624 458.132 217.706 458.219 217.759C458.335 217.83 458.482 217.849 458.62 217.798C458.861 217.711 458.985 217.444 458.897 217.203ZM456.581 205.299C456.66 205.055 456.526 204.794 456.281 204.714C456.037 204.635 455.775 204.769 455.696 205.014C455.529 205.529 455.404 206.061 455.324 206.595C455.295 206.786 455.386 206.967 455.542 207.061C455.593 207.092 455.651 207.114 455.714 207.123C455.968 207.161 456.205 206.987 456.243 206.733C456.316 206.249 456.43 205.767 456.581 205.299ZM456.174 208.789C456.153 208.534 455.928 208.343 455.672 208.364C455.416 208.385 455.225 208.609 455.246 208.865C455.29 209.402 455.38 209.941 455.511 210.468C455.542 210.591 455.62 210.691 455.72 210.752C455.823 210.814 455.949 210.837 456.075 210.806C456.324 210.744 456.475 210.491 456.413 210.242C456.294 209.764 456.213 209.275 456.174 208.789ZM464.833 198.526C464.8 198.271 464.567 198.092 464.312 198.124L463.918 198.175C463.517 198.227 463.118 198.302 462.732 198.4C462.483 198.463 462.332 198.716 462.395 198.965C462.426 199.088 462.503 199.187 462.604 199.248C462.707 199.311 462.833 199.334 462.959 199.302C463.31 199.214 463.672 199.145 464.036 199.098L464.431 199.047C464.686 199.013 464.866 198.78 464.833 198.526ZM457.623 213.707L457.092 212.251C457.004 212.009 456.737 211.885 456.497 211.973C456.255 212.061 456.131 212.328 456.219 212.569L456.75 214.026C456.788 214.129 456.858 214.211 456.945 214.264C457.061 214.335 457.208 214.354 457.346 214.303C457.587 214.215 457.712 213.949 457.623 213.707ZM556.254 295.91C555.788 295.764 555.329 295.577 554.891 295.356C554.662 295.24 554.382 295.332 554.267 295.561C554.156 295.779 554.234 296.042 554.439 296.167C554.45 296.174 554.46 296.18 554.472 296.185C554.955 296.43 555.461 296.636 555.976 296.797C556.221 296.874 556.482 296.738 556.558 296.493C556.635 296.248 556.498 295.987 556.254 295.91ZM585.897 261.295C585.678 261.161 585.392 261.231 585.259 261.45L584.453 262.774C584.319 262.994 584.389 263.28 584.608 263.413C584.827 263.547 585.114 263.477 585.247 263.258L586.053 261.933C586.186 261.714 586.116 261.428 585.897 261.295ZM584.015 247.053C584.149 246.834 584.079 246.548 583.859 246.415L582.506 245.591C582.287 245.458 582 245.527 581.867 245.747C581.733 245.966 581.803 246.252 582.023 246.386L583.376 247.209C583.595 247.342 583.881 247.273 584.015 247.053ZM559.749 296.288C559.26 296.331 558.765 296.335 558.276 296.298C558.02 296.279 557.797 296.471 557.778 296.727C557.764 296.907 557.855 297.071 558 297.159C558.06 297.196 558.131 297.22 558.207 297.226C558.745 297.266 559.292 297.262 559.831 297.214C560.086 297.192 560.275 296.966 560.253 296.71C560.23 296.454 560.004 296.266 559.749 296.288ZM553.054 294.271L551.729 293.466C551.51 293.333 551.224 293.402 551.091 293.622C550.957 293.841 551.027 294.127 551.246 294.26L552.571 295.066C552.79 295.199 553.076 295.13 553.21 294.91C553.343 294.691 553.273 294.405 553.054 294.271ZM588.338 252.561C588.21 252.036 588.039 251.517 587.828 251.02C587.728 250.784 587.455 250.673 587.219 250.773C586.982 250.873 586.871 251.146 586.972 251.382C587.163 251.834 587.319 252.304 587.434 252.78C587.465 252.905 587.543 253.006 587.644 253.068C587.746 253.129 587.871 253.152 587.996 253.122C588.245 253.062 588.398 252.81 588.338 252.561ZM586.608 249.693C586.815 249.542 586.861 249.251 586.71 249.044C586.392 248.606 586.035 248.193 585.65 247.813C585.465 247.631 585.172 247.635 584.992 247.819C584.812 248.002 584.814 248.296 584.997 248.476C585.346 248.82 585.67 249.195 585.958 249.591C585.996 249.642 586.041 249.684 586.092 249.715C586.248 249.809 586.451 249.807 586.608 249.693ZM546.697 290.404L545.372 289.598C545.153 289.465 544.867 289.535 544.734 289.754C544.6 289.974 544.67 290.26 544.89 290.393L546.214 291.198C546.433 291.332 546.719 291.262 546.852 291.043C546.986 290.823 546.916 290.537 546.697 290.404ZM574.45 241.234C574.584 241.015 574.514 240.729 574.294 240.596L572.97 239.79C572.751 239.657 572.465 239.726 572.331 239.946C572.198 240.165 572.267 240.451 572.487 240.585L573.812 241.39C574.03 241.523 574.317 241.454 574.45 241.234ZM549.875 292.338L548.551 291.532C548.332 291.399 548.045 291.468 547.912 291.688C547.779 291.907 547.848 292.193 548.068 292.326L549.392 293.132C549.612 293.266 549.898 293.196 550.031 292.977C550.164 292.757 550.095 292.471 549.875 292.338ZM577.628 243.168C577.762 242.948 577.692 242.663 577.473 242.529L576.148 241.724C575.929 241.591 575.643 241.66 575.51 241.879C575.376 242.099 575.446 242.385 575.665 242.518L576.989 243.324C577.209 243.457 577.495 243.388 577.628 243.168ZM580.807 245.102C580.941 244.882 580.871 244.597 580.652 244.463L579.327 243.658C579.108 243.524 578.822 243.594 578.689 243.813C578.555 244.033 578.625 244.319 578.844 244.452L580.168 245.258C580.388 245.391 580.674 245.321 580.807 245.102ZM580.096 270.83C579.877 270.697 579.591 270.766 579.457 270.986L578.652 272.31C578.518 272.53 578.588 272.815 578.807 272.949C579.026 273.082 579.312 273.012 579.446 272.793L580.251 271.469C580.385 271.249 580.315 270.963 580.096 270.83ZM578.163 274.008C577.944 273.875 577.657 273.944 577.524 274.164L576.718 275.489C576.584 275.708 576.654 275.994 576.874 276.128C577.093 276.261 577.379 276.191 577.512 275.972L578.318 274.647C578.452 274.428 578.382 274.142 578.163 274.008ZM543.518 288.47L542.194 287.665C541.975 287.532 541.688 287.601 541.555 287.821C541.422 288.04 541.491 288.326 541.711 288.459L543.035 289.265C543.254 289.398 543.54 289.329 543.674 289.109C543.807 288.89 543.738 288.604 543.518 288.47ZM576.229 277.187C576.01 277.054 575.723 277.123 575.59 277.343L574.785 278.667C574.651 278.886 574.721 279.172 574.94 279.305C575.16 279.439 575.446 279.369 575.579 279.15L576.385 277.826C576.518 277.606 576.448 277.321 576.229 277.187ZM583.963 264.473C583.744 264.339 583.458 264.409 583.325 264.629L582.519 265.953C582.385 266.172 582.455 266.458 582.675 266.591C582.894 266.725 583.18 266.655 583.313 266.436L584.119 265.112C584.253 264.892 584.183 264.606 583.963 264.473ZM582.03 267.651C581.811 267.518 581.524 267.588 581.391 267.807L580.586 269.131C580.452 269.351 580.522 269.637 580.741 269.77C580.96 269.903 581.246 269.834 581.38 269.615L582.185 268.29C582.319 268.071 582.249 267.785 582.03 267.651ZM572.361 283.544C572.142 283.411 571.856 283.48 571.723 283.7L570.917 285.025C570.783 285.244 570.853 285.53 571.073 285.663C571.292 285.796 571.578 285.727 571.712 285.507L572.517 284.183C572.65 283.963 572.581 283.677 572.361 283.544ZM568.494 289.901C568.275 289.768 567.989 289.837 567.856 290.057L567.05 291.381C566.916 291.601 566.986 291.887 567.206 292.02C567.425 292.153 567.711 292.084 567.844 291.865L568.65 290.54C568.783 290.32 568.713 290.034 568.494 289.901ZM566.526 293.058C566.327 292.891 566.036 292.917 565.871 293.114C565.555 293.489 565.206 293.841 564.834 294.158C564.639 294.325 564.616 294.619 564.782 294.814C564.815 294.852 564.853 294.884 564.894 294.909C565.061 295.01 565.281 294.999 565.437 294.865C565.848 294.515 566.233 294.127 566.582 293.713C566.747 293.516 566.722 293.223 566.526 293.058ZM563.752 295.507C563.634 295.279 563.353 295.19 563.125 295.308C562.691 295.533 562.234 295.724 561.767 295.876C561.523 295.956 561.39 296.218 561.469 296.462C561.505 296.572 561.578 296.66 561.669 296.715C561.781 296.783 561.921 296.804 562.055 296.76C562.57 296.592 563.074 296.382 563.552 296.134C563.781 296.015 563.87 295.735 563.752 295.507ZM570.428 286.722C570.209 286.589 569.922 286.659 569.789 286.878L568.984 288.202C568.85 288.422 568.92 288.708 569.139 288.841C569.359 288.974 569.645 288.905 569.778 288.685L570.584 287.361C570.717 287.142 570.647 286.856 570.428 286.722ZM574.295 280.366C574.076 280.232 573.79 280.302 573.656 280.521L572.851 281.845C572.717 282.065 572.787 282.351 573.006 282.485C573.225 282.618 573.511 282.548 573.645 282.329L574.451 281.004C574.584 280.785 574.514 280.499 574.295 280.366ZM514.911 271.067L513.587 270.262C513.368 270.128 513.082 270.198 512.948 270.417C512.815 270.637 512.884 270.922 513.104 271.056L514.429 271.862C514.648 271.995 514.934 271.925 515.068 271.706C515.2 271.487 515.131 271.201 514.911 271.067ZM545.843 223.832C545.977 223.612 545.907 223.326 545.688 223.193L544.363 222.387C544.144 222.254 543.858 222.324 543.725 222.543C543.591 222.763 543.661 223.049 543.88 223.182L545.205 223.987C545.423 224.12 545.71 224.051 545.843 223.832ZM505.376 265.266L504.051 264.461C503.832 264.327 503.546 264.397 503.413 264.616C503.279 264.836 503.349 265.121 503.568 265.255L504.893 266.061C505.112 266.194 505.398 266.125 505.532 265.905C505.665 265.686 505.595 265.4 505.376 265.266ZM571.272 239.301C571.405 239.081 571.335 238.796 571.116 238.662L569.791 237.856C569.572 237.723 569.286 237.793 569.153 238.012C569.019 238.231 569.089 238.517 569.308 238.65L570.633 239.456C570.852 239.59 571.138 239.521 571.272 239.301ZM521.269 274.935L519.944 274.129C519.725 273.996 519.439 274.065 519.306 274.284C519.172 274.504 519.242 274.79 519.461 274.923L520.786 275.729C521.005 275.862 521.291 275.793 521.424 275.573C521.557 275.354 521.488 275.068 521.269 274.935ZM549.022 225.765C549.155 225.546 549.086 225.26 548.866 225.127L547.542 224.321C547.322 224.188 547.036 224.257 546.903 224.477C546.77 224.696 546.839 224.982 547.059 225.115L548.383 225.921C548.602 226.054 548.888 225.985 549.022 225.765ZM518.09 273.001L516.766 272.196C516.546 272.062 516.26 272.132 516.127 272.351C515.993 272.571 516.063 272.857 516.283 272.99L517.607 273.796C517.826 273.929 518.113 273.859 518.246 273.64C518.379 273.42 518.309 273.134 518.09 273.001ZM508.555 267.2L507.23 266.395C507.011 266.261 506.725 266.331 506.591 266.55C506.458 266.77 506.528 267.056 506.747 267.189L508.071 267.995C508.29 268.128 508.577 268.059 508.71 267.839C508.844 267.619 508.774 267.333 508.555 267.2ZM536.308 218.031C536.441 217.811 536.372 217.525 536.152 217.392L534.828 216.587C534.609 216.453 534.322 216.523 534.189 216.742C534.056 216.962 534.125 217.248 534.345 217.381L535.669 218.186C535.888 218.32 536.174 218.25 536.308 218.031ZM539.486 219.964C539.62 219.745 539.55 219.459 539.331 219.325L538.006 218.52C537.787 218.386 537.501 218.456 537.367 218.675C537.234 218.895 537.304 219.18 537.523 219.314L538.848 220.12C539.067 220.253 539.353 220.184 539.486 219.964ZM542.665 221.898C542.798 221.678 542.728 221.392 542.509 221.259L541.185 220.453C540.966 220.32 540.679 220.39 540.546 220.609C540.412 220.829 540.482 221.115 540.701 221.248L542.026 222.054C542.245 222.187 542.531 222.117 542.665 221.898ZM511.733 269.134L510.409 268.328C510.189 268.195 509.903 268.264 509.77 268.484C509.636 268.703 509.706 268.989 509.925 269.122L511.25 269.928C511.469 270.061 511.755 269.992 511.888 269.773C512.022 269.553 511.952 269.267 511.733 269.134ZM552.2 227.699C552.334 227.479 552.264 227.194 552.044 227.06L550.72 226.254C550.501 226.121 550.214 226.191 550.081 226.41C549.948 226.63 550.017 226.916 550.237 227.049L551.562 227.854C551.781 227.988 552.067 227.918 552.2 227.699ZM524.447 276.868L523.123 276.063C522.904 275.929 522.617 275.999 522.484 276.218C522.351 276.438 522.42 276.724 522.64 276.857L523.964 277.663C524.183 277.796 524.469 277.726 524.603 277.507C524.736 277.288 524.666 277.002 524.447 276.868ZM537.162 284.603L535.837 283.797C535.618 283.664 535.332 283.734 535.198 283.953C535.065 284.173 535.134 284.459 535.354 284.592L536.679 285.397C536.898 285.531 537.184 285.461 537.317 285.242C537.451 285.023 537.381 284.736 537.162 284.603ZM568.093 237.367C568.226 237.148 568.157 236.862 567.937 236.729L566.613 235.923C566.394 235.79 566.108 235.859 565.974 236.079C565.841 236.298 565.911 236.584 566.13 236.717L567.455 237.523C567.673 237.656 567.96 237.587 568.093 237.367ZM540.34 286.537L539.015 285.731C538.796 285.598 538.51 285.667 538.377 285.887C538.243 286.106 538.313 286.392 538.532 286.526L539.857 287.331C540.076 287.465 540.362 287.395 540.496 287.176C540.629 286.956 540.559 286.67 540.34 286.537ZM533.982 282.669L532.658 281.864C532.439 281.73 532.153 281.8 532.02 282.019C531.886 282.239 531.956 282.525 532.175 282.658L533.499 283.463C533.718 283.597 534.005 283.527 534.138 283.308C534.271 283.089 534.202 282.803 533.982 282.669ZM564.914 235.434C565.048 235.214 564.978 234.928 564.759 234.795L563.434 233.989C563.215 233.856 562.929 233.926 562.795 234.145C562.662 234.365 562.732 234.65 562.951 234.784L564.276 235.589C564.495 235.723 564.781 235.653 564.914 235.434ZM527.626 278.802L526.301 277.997C526.082 277.863 525.796 277.933 525.663 278.152C525.529 278.371 525.599 278.657 525.818 278.791L527.143 279.596C527.362 279.73 527.648 279.66 527.781 279.441C527.915 279.222 527.845 278.935 527.626 278.802ZM555.379 229.633C555.512 229.413 555.443 229.127 555.223 228.994L553.899 228.188C553.68 228.055 553.393 228.125 553.26 228.344C553.127 228.564 553.196 228.849 553.416 228.983L554.74 229.788C554.959 229.922 555.245 229.852 555.379 229.633ZM561.736 233.5C561.87 233.28 561.8 232.995 561.58 232.861L560.256 232.056C560.037 231.923 559.75 231.992 559.617 232.211C559.483 232.431 559.553 232.716 559.773 232.85L561.097 233.656C561.316 233.789 561.602 233.719 561.736 233.5ZM530.804 280.736L529.48 279.93C529.26 279.797 528.974 279.866 528.841 280.086C528.708 280.305 528.777 280.591 528.997 280.724L530.321 281.53C530.541 281.663 530.827 281.594 530.96 281.374C531.093 281.155 531.023 280.869 530.804 280.736ZM558.557 231.566C558.691 231.347 558.621 231.061 558.402 230.927L557.077 230.121C556.858 229.988 556.572 230.058 556.438 230.277C556.305 230.497 556.375 230.783 556.594 230.916L557.919 231.721C558.138 231.855 558.424 231.786 558.557 231.566Z" fill="white"/>
<path d="M375.459 102.507V372.173C375.459 380.342 368.84 386.962 360.67 386.962H162.041C153.872 386.962 147.251 380.343 147.251 372.173V102.507C147.251 94.3387 153.871 87.7183 162.041 87.7183H243.106H255.734H256.346H256.971L257.533 93.7387H238.247C233.875 93.7387 230.328 97.2863 230.328 101.67V105.955H165.201V364.753H337.262L357.51 348.103V105.955H292.395V101.67C292.395 97.2863 288.848 93.7387 284.464 93.7387H268.288L269.6 87.7183H360.671C368.84 87.7183 375.459 94.3387 375.459 102.507Z" fill="#D6AEFB"/>
<path d="M357.51 105.955V348.103H341.522L337.262 364.753H165.201V105.955H230.328V110.252C230.328 114.624 233.875 118.171 238.247 118.171H284.463C288.847 118.171 292.395 114.624 292.395 110.252V105.955H357.51ZM337.262 137.782C337.262 137.095 336.7 136.533 336.014 136.533H225.319C224.632 136.533 224.07 137.095 224.07 137.782C224.07 138.469 224.632 139.031 225.319 139.031H336.013C336.7 139.031 337.262 138.469 337.262 137.782ZM337.262 146.538C337.262 145.851 336.7 145.289 336.014 145.289H225.319C224.632 145.289 224.07 145.851 224.07 146.538C224.07 147.225 224.632 147.787 225.319 147.787H336.013C336.7 147.787 337.262 147.225 337.262 146.538ZM337.262 155.294C337.262 154.607 336.7 154.045 336.014 154.045H225.319C224.632 154.045 224.07 154.607 224.07 155.294C224.07 155.981 224.632 156.543 225.319 156.543H336.013C336.7 156.543 337.262 155.981 337.262 155.294ZM337.262 182.699C337.262 182.012 336.7 181.45 336.014 181.45H225.319C224.632 181.45 224.07 182.012 224.07 182.699C224.07 183.386 224.632 183.948 225.319 183.948H336.013C336.7 183.948 337.262 183.386 337.262 182.699ZM337.262 191.455C337.262 190.768 336.7 190.206 336.014 190.206H225.319C224.632 190.206 224.07 190.768 224.07 191.455C224.07 192.142 224.632 192.704 225.319 192.704H336.013C336.7 192.704 337.262 192.142 337.262 191.455ZM337.262 200.211C337.262 199.524 336.7 198.962 336.014 198.962H225.319C224.632 198.962 224.07 199.524 224.07 200.211C224.07 200.898 224.632 201.46 225.319 201.46H336.013C336.7 201.46 337.262 200.898 337.262 200.211ZM337.262 227.616C337.262 226.929 336.7 226.367 336.014 226.367H225.319C224.632 226.367 224.07 226.929 224.07 227.616C224.07 228.303 224.632 228.865 225.319 228.865H336.013C336.7 228.865 337.262 228.303 337.262 227.616ZM337.262 236.372C337.262 235.673 336.7 235.123 336.014 235.123H225.319C224.632 235.123 224.07 235.673 224.07 236.372C224.07 237.059 224.632 237.621 225.319 237.621H336.013C336.7 237.621 337.262 237.059 337.262 236.372ZM337.262 245.128C337.262 244.429 336.7 243.879 336.014 243.879H225.319C224.632 243.879 224.07 244.429 224.07 245.128C224.07 245.815 224.632 246.377 225.319 246.377H336.013C336.7 246.378 337.262 245.816 337.262 245.128ZM337.262 272.534C337.262 271.834 336.7 271.285 336.014 271.285H225.319C224.632 271.285 224.07 271.834 224.07 272.534C224.07 273.22 224.632 273.782 225.319 273.782H336.013C336.7 273.782 337.262 273.22 337.262 272.534ZM337.262 281.289C337.262 280.59 336.7 280.04 336.014 280.04H225.319C224.632 280.04 224.07 280.59 224.07 281.289C224.07 281.976 224.632 282.538 225.319 282.538H336.013C336.7 282.539 337.262 281.976 337.262 281.289ZM337.262 290.046C337.262 289.346 336.7 288.797 336.014 288.797H225.319C224.632 288.797 224.07 289.346 224.07 290.046C224.07 290.732 224.632 291.294 225.319 291.294H336.013C336.7 291.294 337.262 290.732 337.262 290.046ZM337.262 317.45C337.262 316.751 336.7 316.201 336.014 316.201H225.319C224.632 316.201 224.07 316.751 224.07 317.45C224.07 318.137 224.632 318.699 225.319 318.699H336.013C336.7 318.699 337.262 318.137 337.262 317.45ZM337.262 326.207C337.262 325.507 336.7 324.958 336.014 324.958H225.319C224.632 324.958 224.07 325.507 224.07 326.207C224.07 326.894 224.632 327.456 225.319 327.456H336.013C336.7 327.456 337.262 326.894 337.262 326.207ZM337.262 334.963C337.262 334.264 336.7 333.714 336.014 333.714H225.319C224.632 333.714 224.07 334.264 224.07 334.963C224.07 335.65 224.632 336.212 225.319 336.212H336.013C336.7 336.212 337.262 335.65 337.262 334.963ZM317.227 164.05C317.227 163.363 316.665 162.801 315.978 162.801H225.319C224.632 162.801 224.07 163.363 224.07 164.05C224.07 164.737 224.632 165.299 225.319 165.299H315.977C316.665 165.299 317.227 164.737 317.227 164.05ZM317.227 208.968C317.227 208.281 316.665 207.719 315.978 207.719H225.319C224.632 207.719 224.07 208.281 224.07 208.968C224.07 209.654 224.632 210.216 225.319 210.216H315.977C316.665 210.216 317.227 209.654 317.227 208.968ZM317.227 253.884C317.227 253.185 316.665 252.635 315.978 252.635H225.319C224.632 252.635 224.07 253.185 224.07 253.884C224.07 254.571 224.632 255.133 225.319 255.133H315.977C316.665 255.133 317.227 254.571 317.227 253.884ZM317.227 298.802C317.227 298.103 316.665 297.553 315.978 297.553H225.319C224.632 297.553 224.07 298.103 224.07 298.802C224.07 299.489 224.632 300.051 225.319 300.051H315.977C316.665 300.051 317.227 299.489 317.227 298.802ZM317.227 343.719C317.227 343.019 316.665 342.47 315.978 342.47H225.319C224.632 342.47 224.07 343.019 224.07 343.719C224.07 344.406 224.632 344.968 225.319 344.968H315.977C316.665 344.968 317.227 344.406 317.227 343.719ZM214.927 343.706V317.45H185.448V343.706H214.927ZM214.927 298.802V272.534H185.448V298.802H214.927ZM214.927 253.884V227.616H185.448V253.884H214.927ZM214.927 208.968V182.699H185.448V208.968H214.927ZM214.927 164.05V137.782H185.448V164.05H214.927Z" fill="#F8FDFF"/>
<path d="M357.51 348.103L337.262 364.753L341.522 348.103H357.51Z" fill="#D3D3D3"/>
<path d="M336.014 136.533C336.7 136.533 337.263 137.095 337.263 137.782C337.263 138.469 336.7 139.031 336.014 139.031H225.319C224.632 139.031 224.07 138.469 224.07 137.782C224.07 137.095 224.632 136.533 225.319 136.533H336.014Z" fill="#D3D3D3"/>
<path d="M336.014 145.289C336.7 145.289 337.263 145.851 337.263 146.538C337.263 147.225 336.7 147.787 336.014 147.787H225.319C224.632 147.787 224.07 147.225 224.07 146.538C224.07 145.851 224.632 145.289 225.319 145.289H336.014Z" fill="#D3D3D3"/>
<path d="M336.014 154.045C336.7 154.045 337.263 154.607 337.263 155.294C337.263 155.981 336.7 156.543 336.014 156.543H225.319C224.632 156.543 224.07 155.981 224.07 155.294C224.07 154.607 224.632 154.045 225.319 154.045H336.014Z" fill="#D3D3D3"/>
<path d="M336.014 181.45C336.7 181.45 337.263 182.012 337.263 182.699C337.263 183.386 336.7 183.948 336.014 183.948H225.319C224.632 183.948 224.07 183.386 224.07 182.699C224.07 182.012 224.632 181.45 225.319 181.45H336.014Z" fill="#D3D3D3"/>
<path d="M336.014 190.206C336.7 190.206 337.263 190.768 337.263 191.455C337.263 192.142 336.7 192.704 336.014 192.704H225.319C224.632 192.704 224.07 192.142 224.07 191.455C224.07 190.768 224.632 190.206 225.319 190.206H336.014Z" fill="#D3D3D3"/>
<path d="M336.014 198.962C336.7 198.962 337.263 199.524 337.263 200.211C337.263 200.898 336.7 201.46 336.014 201.46H225.319C224.632 201.46 224.07 200.898 224.07 200.211C224.07 199.524 224.632 198.962 225.319 198.962H336.014Z" fill="#D3D3D3"/>
<path d="M336.014 226.367C336.7 226.367 337.263 226.929 337.263 227.616C337.263 228.303 336.7 228.865 336.014 228.865H225.319C224.632 228.865 224.07 228.303 224.07 227.616C224.07 226.929 224.632 226.367 225.319 226.367H336.014Z" fill="#D3D3D3"/>
<path d="M336.014 235.124C336.7 235.124 337.263 235.673 337.263 236.372C337.263 237.059 336.7 237.621 336.014 237.621H225.319C224.632 237.621 224.07 237.059 224.07 236.372C224.07 235.673 224.632 235.124 225.319 235.124H336.014Z" fill="#D3D3D3"/>
<path d="M336.014 243.879C336.7 243.879 337.263 244.429 337.263 245.128C337.263 245.815 336.7 246.377 336.014 246.377H225.319C224.632 246.377 224.07 245.815 224.07 245.128C224.07 244.429 224.632 243.879 225.319 243.879H336.014Z" fill="#D3D3D3"/>
<path d="M336.014 271.284C336.7 271.284 337.263 271.833 337.263 272.533C337.263 273.22 336.7 273.782 336.014 273.782H225.319C224.632 273.782 224.07 273.22 224.07 272.533C224.07 271.833 224.632 271.284 225.319 271.284H336.014Z" fill="#D3D3D3"/>
<path d="M336.014 280.04C336.7 280.04 337.263 280.59 337.263 281.289C337.263 281.976 336.7 282.538 336.014 282.538H225.319C224.632 282.538 224.07 281.976 224.07 281.289C224.07 280.59 224.632 280.04 225.319 280.04H336.014Z" fill="#D3D3D3"/>
<path d="M336.014 288.797C336.7 288.797 337.263 289.346 337.263 290.046C337.263 290.732 336.7 291.295 336.014 291.295H225.319C224.632 291.295 224.07 290.732 224.07 290.046C224.07 289.346 224.632 288.797 225.319 288.797H336.014Z" fill="#D3D3D3"/>
<path d="M336.014 316.202C336.7 316.202 337.263 316.751 337.263 317.451C337.263 318.137 336.7 318.7 336.014 318.7H225.319C224.632 318.7 224.07 318.137 224.07 317.451C224.07 316.751 224.632 316.202 225.319 316.202H336.014Z" fill="#D3D3D3"/>
<path d="M336.014 324.958C336.7 324.958 337.263 325.507 337.263 326.206C337.263 326.893 336.7 327.455 336.014 327.455H225.319C224.632 327.455 224.07 326.893 224.07 326.206C224.07 325.507 224.632 324.958 225.319 324.958H336.014Z" fill="#D3D3D3"/>
<path d="M336.014 333.713C336.7 333.713 337.263 334.263 337.263 334.962C337.263 335.649 336.7 336.211 336.014 336.211H225.319C224.632 336.211 224.07 335.649 224.07 334.962C224.07 334.263 224.632 333.713 225.319 333.713H336.014Z" fill="#D3D3D3"/>
<path d="M315.978 162.801C316.665 162.801 317.227 163.363 317.227 164.05C317.227 164.737 316.665 165.299 315.978 165.299H225.319C224.632 165.299 224.07 164.737 224.07 164.05C224.07 163.363 224.632 162.801 225.319 162.801H315.978Z" fill="#D3D3D3"/>
<path d="M315.978 207.718C316.665 207.718 317.227 208.28 317.227 208.967C317.227 209.654 316.665 210.216 315.978 210.216H225.319C224.632 210.216 224.07 209.654 224.07 208.967C224.07 208.28 224.632 207.718 225.319 207.718H315.978Z" fill="#D3D3D3"/>
<path d="M315.978 252.635C316.665 252.635 317.227 253.185 317.227 253.884C317.227 254.571 316.665 255.133 315.978 255.133H225.319C224.632 255.133 224.07 254.571 224.07 253.884C224.07 253.185 224.632 252.635 225.319 252.635H315.978Z" fill="#D3D3D3"/>
<path d="M315.978 297.552C316.665 297.552 317.227 298.102 317.227 298.801C317.227 299.488 316.665 300.05 315.978 300.05H225.319C224.632 300.05 224.07 299.488 224.07 298.801C224.07 298.102 224.632 297.552 225.319 297.552H315.978Z" fill="#D3D3D3"/>
<path d="M315.978 342.47C316.665 342.47 317.227 343.019 317.227 343.719C317.227 344.406 316.665 344.968 315.978 344.968H225.319C224.632 344.968 224.07 344.406 224.07 343.719C224.07 343.019 224.632 342.47 225.319 342.47H315.978Z" fill="#D3D3D3"/>
<path d="M292.395 105.955V110.252H230.328V105.955V101.67C230.328 97.2863 233.875 93.7388 238.247 93.7388H257.533H268.288H284.463C288.847 93.7388 292.395 97.2863 292.395 101.67V105.955H292.395Z" fill="#99A5AA"/>
<path d="M230.328 110.252H292.395C292.395 114.624 288.848 118.171 284.464 118.171H238.248C233.875 118.171 230.328 114.624 230.328 110.252Z" fill="#B8C0C4"/>
<path d="M256.584 83.6217C253.798 82.2603 251.7 79.9245 250.638 77.0267C250.001 75.2529 249.751 73.2667 249.989 71.1806C250.089 70.3185 250.264 69.4696 250.514 68.6448C251.313 66.009 252.849 63.6484 254.848 61.7622H254.86C257.708 59.1016 261.493 57.4403 265.49 57.4403C273.196 57.4403 278.73 63.5981 277.868 71.1799C277.343 75.7888 274.57 79.8735 270.761 82.359C268.288 83.97 265.39 84.9197 262.367 84.9197C260.331 84.9197 258.445 84.4948 256.784 83.7203H256.771C256.721 83.6831 256.671 83.6576 256.622 83.6327C256.609 83.634 256.596 83.6217 256.584 83.6217ZM268.912 71.1806C269.212 68.4703 267.239 66.2717 264.49 66.2717C263.166 66.2717 261.905 66.7842 260.931 67.6083C259.856 68.4952 259.107 69.7689 258.944 71.1806C258.682 73.5536 260.168 75.5398 262.392 75.9895C262.704 76.0515 263.029 76.0894 263.366 76.0894C266.115 76.0894 268.6 73.8909 268.912 71.1806Z" fill="#B8C0C4"/>
<path d="M270.761 82.3597L269.599 87.7183L268.288 93.7388H257.533L256.971 87.7183L256.596 83.8211C256.659 83.7839 256.721 83.7584 256.771 83.7211H256.784C258.445 84.4956 260.331 84.9204 262.367 84.9204C265.39 84.9204 268.288 83.9714 270.761 82.3597Z" fill="#859499"/>
<path d="M262.555 72.7047C262.667 73.8412 262.605 74.9405 262.393 75.9894C260.169 75.5398 258.683 73.5536 258.945 71.1806C259.107 69.7689 259.857 68.4951 260.931 67.6083C261.817 69.1696 262.38 70.893 262.555 72.7047Z" fill="#7A888C"/>
<path d="M242.732 83.8212C238.335 81.6102 235.137 77.451 234.688 72.7042C234.013 65.6217 239.709 59.8887 247.416 59.8887C250.076 59.8887 252.612 60.5755 254.848 61.7624C252.849 63.6485 251.313 66.0092 250.514 68.645C249.802 68.3201 249.015 68.1326 248.19 68.1326C245.442 68.1326 243.406 70.1809 243.643 72.7042C243.881 75.2276 246.304 77.2758 249.052 77.2758C249.614 77.2758 250.152 77.1883 250.638 77.0262C251.7 79.9241 253.798 82.2598 256.584 83.6212L256.596 83.7708V83.7833L256.584 83.8205C254.648 84.9074 252.349 85.5191 249.826 85.5191C247.303 85.5204 244.88 84.8956 242.732 83.8212Z" fill="#7A888C"/>
<path d="M256.584 83.8212L255.734 87.7183H243.106L242.732 83.8212C244.88 84.8956 247.303 85.5198 249.827 85.5198C252.349 85.5204 254.648 84.908 256.584 83.8212Z" fill="#7A888C"/>
<path d="M214.927 317.45H185.448V343.706H214.927V317.45Z" fill="#D3D3D3"/>
<path d="M214.927 272.533H185.448V298.802H214.927V272.533Z" fill="#D3D3D3"/>
<path d="M214.927 227.616H185.448V253.885H214.927V227.616Z" fill="#D3D3D3"/>
<path d="M214.927 182.699H185.448V208.967H214.927V182.699Z" fill="#D3D3D3"/>
<path d="M214.927 137.782H185.448V164.05H214.927V137.782Z" fill="#D3D3D3"/>
<path d="M186.757 341.948C217.297 341.948 242.14 366.315 242.908 396.672C242.213 363.361 217.341 336.593 186.757 336.593C156.175 336.593 131.302 363.362 130.608 396.672C131.375 366.314 156.218 341.948 186.757 341.948ZM512.563 317.806C512.657 319.876 513.171 322.322 514.263 325.217C518.562 336.622 535.445 345.754 545.881 348.056C548.645 348.671 550.954 348.801 552.459 348.367C553.943 347.94 554.652 346.97 554.239 345.371C554.985 347.433 555.621 349.431 556.164 351.327H556.157C560.868 368.767 532.876 368.905 531.971 368.905H559.254C562.228 368.905 564.645 371.322 564.645 374.303V405.146C564.645 408.128 562.228 410.545 559.254 410.545H529.576C530.596 406.572 531.147 402.41 531.147 398.119C531.147 370.786 508.981 348.62 481.647 348.62C454.314 348.62 432.147 370.786 432.147 398.119C432.147 402.41 432.697 406.572 433.718 410.545H233.615C234.664 406.579 235.222 402.418 235.222 398.119C235.222 371.35 213.526 349.655 186.757 349.655C159.996 349.655 138.293 371.351 138.293 398.119C138.293 402.418 138.851 406.579 139.907 410.545H119.535C116.178 410.545 113.457 407.824 113.457 404.473V374.976C113.457 373.297 114.137 371.785 115.237 370.685C116.337 369.585 117.857 368.905 119.535 368.905H130.586C130.586 368.905 115.953 352.391 133.198 301.176C133.198 301.169 133.205 301.162 133.205 301.155C133.864 299.526 134.537 297.927 135.224 296.357H141.672C143.271 296.357 144.791 295.937 146.123 295.184C147.91 294.179 149.351 292.572 150.124 290.568L150.16 290.481L152.968 283.222L155.212 277.412L158.345 269.328L162.601 258.328L166.219 248.979L168.115 244.065L168.122 244.058L159.083 235.019C158.113 234.049 157.564 232.739 157.549 231.364C157.542 231.343 157.542 231.313 157.542 231.292H322.055C322.055 231.292 351.971 230.503 386.932 238.521C410.51 248.001 438.031 265.001 454.806 295.127H468.751H475.438C476.024 295.127 476.603 295.134 477.182 295.141C496.714 295.395 511.593 299.903 522.94 306.59C522.94 306.59 521.037 306.669 518.866 307.552C516.803 308.392 514.487 309.948 513.322 312.842C512.772 314.188 512.476 315.823 512.563 317.806ZM481.647 341.948C512.186 341.948 537.03 366.315 537.797 396.672C537.102 363.361 512.229 336.593 481.647 336.593C451.065 336.593 426.192 363.362 425.498 396.672C426.264 366.314 451.108 341.948 481.647 341.948ZM133.206 363.998C133.235 363.998 133.264 363.998 133.3 363.998C133.893 363.947 134.342 363.427 134.291 362.826C131.773 332.193 147.498 301.965 147.658 301.661L148.497 300.069H136.745C136.151 300.069 135.659 300.554 135.659 301.155C135.659 301.755 136.151 302.24 136.745 302.24H144.952C141.732 308.949 129.892 335.797 132.128 363.007C132.171 363.571 132.648 363.998 133.206 363.998ZM186.757 295.126H203.127H211.833H223.607H250.253H262.403H272.73H290.525H292.833H304.6H350.185H362.328H372.662H390.457H434.796C401.464 244.201 340.169 244.057 340.169 244.057H334.206H316.411H306.077H293.934H291.958H280.184H234.274H216.479H210.957H199.183H194.92C190.542 244.057 186.642 246.821 185.18 250.946L183.675 255.078L181.004 262.402L177.545 271.897L173.471 283.063L172.088 286.855C170.663 290.893 173.659 295.126 177.936 295.126H186.757ZM173.471 334.067C174.071 334.067 174.556 333.582 174.556 332.981V301.155C174.556 300.554 174.071 300.069 173.471 300.069C172.87 300.069 172.385 300.554 172.385 301.155V332.981C172.385 333.582 172.87 334.067 173.471 334.067ZM198.655 316.901H212.368C214.221 316.901 215.726 315.396 215.726 313.543C215.726 311.683 214.221 310.185 212.368 310.185H198.655C196.802 310.185 195.297 311.683 195.297 313.543C195.297 315.396 196.802 316.901 198.655 316.901ZM303.175 384.189C308.458 393.871 319.581 405.414 342.565 405.414C343.165 405.414 343.65 404.929 343.65 404.329C343.65 403.728 343.165 403.243 342.565 403.243C324.972 403.243 312.359 396.484 305.079 383.147C299.63 373.167 299.369 363.087 299.369 362.985V310.186C299.369 309.585 298.877 309.101 298.283 309.101C297.683 309.101 297.198 309.585 297.198 310.186V363.007C297.204 363.463 297.472 373.746 303.175 384.189ZM315.202 316.901H328.916C330.769 316.901 332.274 315.396 332.274 313.543C332.274 311.683 330.769 310.185 328.916 310.185H315.202C313.342 310.185 311.837 311.683 311.837 313.543C311.837 315.396 313.342 316.901 315.202 316.901ZM436.823 354.381C437.424 354.381 437.909 353.896 437.909 353.295V310.186C437.909 309.585 437.424 309.101 436.823 309.101C436.23 309.101 435.737 309.585 435.737 310.186V353.295C435.737 353.896 436.23 354.381 436.823 354.381Z" fill="#B66DF6"/>
<path d="M513.322 312.842C512.772 314.188 512.475 315.824 512.562 317.806L545.88 348.056C548.645 348.671 550.953 348.802 552.458 348.367L513.322 312.842Z" fill="#CED5D8"/>
<path d="M545.88 348.055L512.562 317.806C512.656 319.875 513.17 322.322 514.263 325.216C518.562 336.622 535.445 345.754 545.88 348.055Z" fill="#B8C0C4"/>
<path d="M552.458 348.367C553.942 347.94 554.651 346.97 554.239 345.371C554.231 345.356 554.231 345.342 554.224 345.327C554.116 345.038 554.014 344.748 553.899 344.451C553.891 344.43 553.884 344.415 553.877 344.393C552.857 341.672 551.633 338.843 550.186 335.984L518.866 307.551C516.804 308.391 514.488 309.946 513.323 312.841L552.458 348.367Z" fill="#B8C0C4"/>
<path d="M550.186 335.985C549.52 334.668 548.797 333.343 548.03 332.019C542.653 322.764 534.7 313.515 522.94 306.589C522.94 306.589 521.037 306.669 518.865 307.552L550.186 335.985Z" fill="#CED5D8"/>
<path d="M207.418 377.458C218.823 388.871 218.823 407.367 207.418 418.78C196.006 430.185 177.509 430.185 166.104 418.78C154.691 407.367 154.691 388.871 166.104 377.458C177.509 366.053 196.006 366.053 207.418 377.458ZM205.739 417.101C216.226 406.615 216.226 389.623 205.739 379.138C195.26 368.659 178.261 368.659 167.776 379.138C157.297 389.624 157.297 406.616 167.776 417.101C178.261 427.587 195.261 427.587 205.739 417.101Z" fill="#1D3260"/>
<path d="M186.757 373.247C186.757 373.247 179.398 373.247 180.707 376.597C182.024 379.955 184.492 387.25 186.757 387.25C189.023 387.25 191.498 379.955 192.807 376.597C194.124 373.247 186.757 373.247 186.757 373.247Z" fill="#65727A"/>
<path d="M169.172 380.527C169.172 380.527 163.962 385.737 167.262 387.185C170.569 388.625 177.473 392.04 179.072 390.434C180.679 388.835 177.263 381.923 175.823 378.624C174.375 375.324 169.172 380.527 169.172 380.527Z" fill="#65727A"/>
<path d="M165.242 392.07C161.884 390.753 161.884 398.12 161.884 398.12C161.884 398.12 161.884 405.487 165.242 404.17C168.593 402.86 175.895 400.385 175.895 398.12C175.895 395.855 168.593 393.38 165.242 392.07Z" fill="#65727A"/>
<path d="M167.262 409.054C163.962 410.501 169.172 415.712 169.172 415.712C169.172 415.712 174.375 420.915 175.823 417.615C177.263 414.316 180.679 407.404 179.072 405.805C177.473 404.199 170.569 407.614 167.262 409.054Z" fill="#65727A"/>
<path d="M180.707 419.641C179.398 422.992 186.757 422.992 186.757 422.992C186.757 422.992 194.124 422.992 192.807 419.641C191.498 416.283 189.023 408.989 186.757 408.989C184.492 408.989 182.024 416.283 180.707 419.641Z" fill="#65727A"/>
<path d="M194.443 405.805C192.843 407.404 196.252 414.316 197.699 417.615C199.139 420.915 204.35 415.712 204.35 415.712C204.35 415.712 209.553 410.501 206.253 409.054C202.953 407.614 196.05 404.199 194.443 405.805Z" fill="#65727A"/>
<path d="M208.28 392.07C204.922 393.38 197.627 395.855 197.627 398.12C197.627 400.385 204.922 402.86 208.28 404.17C211.638 405.487 211.638 398.12 211.638 398.12C211.638 398.12 211.638 390.752 208.28 392.07Z" fill="#65727A"/>
<path d="M197.699 378.624C196.252 381.923 192.843 388.835 194.443 390.434C196.049 392.04 202.953 388.625 206.253 387.185C209.553 385.737 204.35 380.527 204.35 380.527C204.35 380.527 199.14 375.324 197.699 378.624Z" fill="#65727A"/>
<path d="M192.807 419.641C191.498 416.283 189.023 408.989 186.757 408.989C184.492 408.989 182.024 416.283 180.707 419.641C179.398 422.992 186.757 422.992 186.757 422.992C186.757 422.992 194.124 422.992 192.807 419.641ZM180.707 376.598C182.024 379.956 184.492 387.25 186.757 387.25C189.023 387.25 191.498 379.956 192.807 376.598C194.124 373.247 186.757 373.247 186.757 373.247C186.757 373.247 179.398 373.247 180.707 376.598ZM206.253 409.054C202.953 407.614 196.049 404.199 194.443 405.805C192.843 407.404 196.252 414.316 197.699 417.615C199.139 420.915 204.35 415.712 204.35 415.712C204.35 415.712 209.553 410.501 206.253 409.054ZM208.28 392.07C204.922 393.38 197.627 395.855 197.627 398.12C197.627 400.385 204.922 402.86 208.28 404.17C211.638 405.487 211.638 398.12 211.638 398.12C211.638 398.12 211.638 390.752 208.28 392.07ZM194.443 390.434C196.049 392.041 202.953 388.625 206.253 387.185C209.553 385.737 204.35 380.527 204.35 380.527C204.35 380.527 199.139 375.324 197.699 378.624C196.252 381.923 192.843 388.835 194.443 390.434ZM165.242 404.169C168.593 402.859 175.895 400.384 175.895 398.119C175.895 395.854 168.593 393.379 165.242 392.069C161.884 390.752 161.884 398.119 161.884 398.119C161.884 398.119 161.884 405.487 165.242 404.169ZM205.739 379.137C216.226 389.624 216.226 406.615 205.739 417.101C195.26 427.587 178.261 427.587 167.776 417.101C157.296 406.615 157.296 389.623 167.776 379.137C178.261 368.659 195.261 368.659 205.739 379.137ZM179.072 390.434C180.679 388.835 177.263 381.923 175.823 378.624C174.375 375.324 169.172 380.527 169.172 380.527C169.172 380.527 163.962 385.737 167.262 387.185C170.569 388.625 177.473 392.041 179.072 390.434ZM175.823 417.615C177.263 414.316 180.679 407.404 179.072 405.805C177.473 404.199 170.569 407.614 167.262 409.054C163.962 410.501 169.172 415.712 169.172 415.712C169.172 415.712 174.375 420.915 175.823 417.615ZM186.757 406.196C191.222 406.196 194.833 402.578 194.833 398.12C194.833 393.662 191.222 390.044 186.757 390.044C182.299 390.044 178.681 393.662 178.681 398.12C178.681 402.577 182.299 406.196 186.757 406.196Z" fill="#ABB4B9"/>
<path d="M192.459 403.824C195.613 400.67 195.613 395.557 192.459 392.403C189.305 389.249 184.192 389.249 181.038 392.403C177.884 395.557 177.884 400.67 181.038 403.824C184.192 406.978 189.305 406.978 192.459 403.824Z" fill="#B8C0C4"/>
<path d="M141.723 282.823C140.746 284.676 139.784 286.587 138.821 288.555L146.123 295.184C147.911 294.178 149.351 292.572 150.125 290.567L150.161 290.481L141.723 282.823Z" fill="#0C193B"/>
<path d="M148.323 271.151C147.325 272.794 146.319 274.495 145.313 276.267L152.969 283.222L155.213 277.411L148.323 271.151Z" fill="#0C193B"/>
<path d="M152.723 264.225L158.346 269.328L162.601 258.328L159.084 255.144C157.145 257.749 154.995 260.788 152.723 264.225Z" fill="#0C193B"/>
<path d="M166.219 248.977L168.115 244.063C168 244.186 166.813 245.453 164.888 247.768L166.219 248.977Z" fill="#0C193B"/>
<path d="M135.225 296.356H141.673C143.272 296.356 144.791 295.937 146.123 295.184L138.821 288.555C137.606 291.066 136.397 293.664 135.225 296.356Z" fill="#192D59"/>
<path d="M141.723 282.824L150.161 290.48L152.969 283.222L145.312 276.267C144.119 278.359 142.917 280.544 141.723 282.824Z" fill="#192D59"/>
<path d="M152.723 264.226C151.29 266.375 149.821 268.691 148.323 271.151L155.212 277.411L158.346 269.328L152.723 264.226Z" fill="#192D59"/>
<path d="M162.601 258.328L166.219 248.978L164.888 247.77C163.362 249.593 161.371 252.068 159.084 255.144L162.601 258.328Z" fill="#192D59"/>
<path d="M410.647 242.371L415.894 247.133C421.315 249.173 426.699 251.468 431.953 254.058L428.732 251.142C423.283 248.066 417.269 245.106 410.647 242.371Z" fill="#264172"/>
<path d="M428.732 251.141L431.952 254.058C435.245 255.678 438.487 257.416 441.657 259.283C437.756 256.533 433.458 253.79 428.732 251.141Z" fill="#192D59"/>
<path d="M342.564 226.927C342.564 226.927 362.668 228.751 386.932 238.521C396.384 240.677 406.197 243.492 415.894 247.133L410.647 242.371C392.722 234.939 370.324 229.084 342.564 226.927Z" fill="#192D59"/>
<path d="M415.894 247.133L468.751 295.126H475.438C475.438 295.126 474.873 293.939 473.614 291.884L431.952 254.058C426.699 251.467 421.315 249.173 415.894 247.133Z" fill="#192D59"/>
<path d="M280.184 244.057L292.834 295.126H304.6L291.958 244.057H280.184Z" fill="#5E189D"/>
<path d="M207.201 276.434L210.19 288.505L211.833 295.126H223.607L215.878 263.915L212.354 249.687L210.957 244.057H199.183L207.201 276.434Z" fill="#5E189D"/>
<path d="M177.545 271.896L173.471 283.062L186.757 295.126H203.127L177.545 271.896Z" fill="#192D59"/>
<path d="M183.675 255.078L181.004 262.401L209.85 288.591L210.19 288.504L207.201 276.434L183.675 255.078Z" fill="#192D59"/>
<path d="M212.354 249.686L215.878 263.914L250.253 295.126H262.403L212.354 249.686Z" fill="#192D59"/>
<path d="M216.478 244.057L272.73 295.126H290.525L234.274 244.057H216.478Z" fill="#192D59"/>
<path d="M293.933 244.057L350.185 295.126H362.328L306.077 244.057H293.933Z" fill="#192D59"/>
<path d="M316.411 244.057L372.662 295.126H390.457L334.206 244.057H316.411Z" fill="#192D59"/>
<path d="M431.953 254.058L473.615 291.884C469.931 285.885 460.35 272.453 441.657 259.282C438.488 257.416 435.245 255.679 431.953 254.058Z" fill="#0C193B"/>
<path d="M415.894 247.132C406.197 243.492 396.384 240.677 386.933 238.52C410.51 248 438.031 265 454.806 295.126H468.752L415.894 247.132Z" fill="#0C193B"/>
<path d="M172.088 286.855C170.663 290.893 173.659 295.126 177.936 295.126H186.757L173.471 283.062L172.088 286.855Z" fill="#0C193B"/>
<path d="M181.004 262.401L177.545 271.896L203.127 295.126H211.833L210.19 288.504L209.85 288.591L181.004 262.401Z" fill="#0C193B"/>
<path d="M185.18 250.946L183.675 255.078L207.201 276.434L199.183 244.057H194.92C190.542 244.057 186.642 246.821 185.18 250.946Z" fill="#0C193B"/>
<path d="M215.878 263.914L223.607 295.126H250.253L215.878 263.914Z" fill="#0C193B"/>
<path d="M210.957 244.057L212.354 249.687L262.403 295.126H272.73L216.478 244.057H210.957Z" fill="#0C193B"/>
<path d="M234.274 244.057L290.525 295.126H292.834L280.184 244.057H234.274Z" fill="#0C193B"/>
<path d="M291.958 244.057L304.601 295.126H350.185L293.933 244.057H291.958Z" fill="#0C193B"/>
<path d="M306.077 244.057L362.328 295.126H372.662L316.411 244.057H306.077Z" fill="#0C193B"/>
<path d="M340.169 244.057C340.169 244.057 401.464 244.201 434.796 295.126H390.456L334.205 244.057H340.169ZM393.409 288.092C394.155 290.35 396.268 291.877 398.649 291.877H418.955C423.116 291.877 425.193 286.884 422.291 283.895C417.529 278.989 409.345 273.496 396.246 272.729C392.382 272.498 389.523 276.275 390.732 279.952L393.409 288.092Z" fill="#0C193B"/>
<path d="M481.647 390.043C477.189 390.043 473.571 393.662 473.571 398.119C473.571 402.577 477.189 406.195 481.647 406.195C486.105 406.195 489.723 402.577 489.723 398.119C489.724 393.662 486.105 390.043 481.647 390.043Z" fill="#B8C0C4"/>
<path d="M464.054 380.527C464.054 380.527 458.852 385.737 462.151 387.185C465.451 388.625 472.362 392.04 473.962 390.434C475.568 388.835 472.153 381.923 470.712 378.624C469.265 375.324 464.054 380.527 464.054 380.527Z" fill="#65727A"/>
<path d="M460.125 392.07C456.774 390.753 456.774 398.12 456.774 398.12C456.774 398.12 456.774 405.487 460.125 404.17C463.483 402.86 470.777 400.385 470.777 398.12C470.777 395.855 463.483 393.38 460.125 392.07Z" fill="#65727A"/>
<path d="M462.151 409.054C458.852 410.501 464.054 415.712 464.054 415.712C464.054 415.712 469.265 420.915 470.712 417.615C472.152 414.316 475.568 407.404 473.962 405.805C472.362 404.199 465.451 407.614 462.151 409.054Z" fill="#65727A"/>
<path d="M475.597 419.641C474.28 422.992 481.647 422.992 481.647 422.992C481.647 422.992 489.007 422.992 487.697 419.641C486.387 416.283 483.912 408.989 481.647 408.989C479.382 408.989 476.907 416.283 475.597 419.641Z" fill="#65727A"/>
<path d="M489.333 405.805C487.726 407.404 491.142 414.316 492.582 417.615C494.03 420.915 499.233 415.712 499.233 415.712C499.233 415.712 504.444 410.501 501.143 409.054C497.843 407.614 490.932 404.199 489.333 405.805Z" fill="#65727A"/>
<path d="M503.162 392.07C499.811 393.38 492.517 395.855 492.517 398.12C492.517 400.385 499.811 402.86 503.162 404.17C506.52 405.487 506.52 398.12 506.52 398.12C506.52 398.12 506.52 390.752 503.162 392.07Z" fill="#65727A"/>
<path d="M492.582 378.624C491.142 381.923 487.726 388.835 489.332 390.434C490.931 392.04 497.843 388.625 501.143 387.185C504.442 385.737 499.232 380.527 499.232 380.527C499.232 380.527 494.029 375.324 492.582 378.624Z" fill="#65727A"/>
<path d="M481.647 373.247C481.647 373.247 474.28 373.247 475.597 376.597C476.907 379.955 479.382 387.25 481.647 387.25C483.912 387.25 486.387 379.955 487.697 376.597C489.007 373.247 481.647 373.247 481.647 373.247Z" fill="#65727A"/>
<path d="M502.308 377.458C513.713 388.871 513.713 407.367 502.308 418.78C490.896 430.185 472.399 430.185 460.986 418.78C449.581 407.367 449.581 388.871 460.986 377.458C472.399 366.053 490.896 366.053 502.308 377.458ZM500.63 417.101C511.108 406.615 511.108 389.623 500.63 379.138C490.143 368.659 473.152 368.659 462.666 379.138C452.18 389.624 452.18 406.616 462.666 417.101C473.152 427.587 490.143 427.587 500.63 417.101Z" fill="#1D3260"/>
<path d="M460.125 404.169C463.483 402.859 470.777 400.384 470.777 398.119C470.777 395.854 463.483 393.379 460.125 392.069C456.774 390.752 456.774 398.119 456.774 398.119C456.774 398.119 456.775 405.487 460.125 404.169ZM489.333 390.434C490.932 392.04 497.843 388.625 501.143 387.184C504.443 385.737 499.233 380.527 499.233 380.527C499.233 380.527 494.03 375.324 492.582 378.623C491.142 381.923 487.726 388.835 489.333 390.434ZM503.162 392.07C499.811 393.379 492.517 395.854 492.517 398.12C492.517 400.385 499.811 402.86 503.162 404.17C506.52 405.486 506.52 398.12 506.52 398.12C506.52 398.12 506.52 390.752 503.162 392.07ZM487.697 419.641C486.387 416.283 483.912 408.989 481.647 408.989C479.382 408.989 476.907 416.283 475.597 419.641C474.28 422.992 481.647 422.992 481.647 422.992C481.647 422.992 489.006 422.992 487.697 419.641ZM475.597 376.597C476.907 379.955 479.382 387.25 481.647 387.25C483.912 387.25 486.387 379.955 487.697 376.597C489.006 373.247 481.647 373.247 481.647 373.247C481.647 373.247 474.28 373.247 475.597 376.597ZM501.143 409.054C497.843 407.614 490.932 404.198 489.333 405.805C487.726 407.404 491.142 414.315 492.582 417.615C494.03 420.915 499.233 415.712 499.233 415.712C499.233 415.712 504.443 410.501 501.143 409.054ZM462.665 379.137C473.151 368.658 490.143 368.658 500.629 379.137C511.107 389.623 511.107 406.615 500.629 417.101C490.142 427.587 473.151 427.587 462.665 417.101C452.179 406.615 452.179 389.623 462.665 379.137ZM473.962 390.434C475.568 388.835 472.153 381.923 470.712 378.623C469.265 375.324 464.054 380.527 464.054 380.527C464.054 380.527 458.852 385.737 462.151 387.184C465.451 388.625 472.362 392.04 473.962 390.434ZM470.712 417.615C472.152 414.315 475.568 407.404 473.962 405.805C472.362 404.198 465.451 407.614 462.151 409.054C458.852 410.501 464.054 415.712 464.054 415.712C464.054 415.712 469.265 420.915 470.712 417.615ZM481.647 406.196C486.105 406.196 489.723 402.578 489.723 398.12C489.723 393.662 486.105 390.044 481.647 390.044C477.189 390.044 473.571 393.662 473.571 398.12C473.571 402.577 477.189 406.196 481.647 406.196Z" fill="#ABB4B9"/>
<path d="M231.581 398.12C231.581 422.877 211.514 442.944 186.757 442.944C162.007 442.944 141.94 422.877 141.94 398.12C141.94 373.363 162.007 353.295 186.757 353.295C211.514 353.295 231.581 373.363 231.581 398.12ZM207.418 418.781C218.823 407.368 218.823 388.871 207.418 377.459C196.006 366.054 177.509 366.054 166.104 377.459C154.691 388.871 154.691 407.368 166.104 418.781C177.509 430.185 196.006 430.185 207.418 418.781Z" fill="#0C193B"/>
<path d="M481.647 442.944C456.89 442.944 436.823 422.877 436.823 398.12C436.823 373.363 456.89 353.295 481.647 353.295C506.404 353.295 526.472 373.363 526.472 398.12C526.472 422.877 506.404 442.944 481.647 442.944ZM502.308 418.781C513.713 407.368 513.713 388.871 502.308 377.459C490.895 366.054 472.399 366.054 460.986 377.459C449.581 388.871 449.581 407.368 460.986 418.781C472.399 430.185 490.896 430.185 502.308 418.781Z" fill="#0C193B"/>
<path d="M198.655 310.186C196.802 310.186 195.297 311.684 195.297 313.544C195.297 315.397 196.802 316.902 198.655 316.902H212.368C214.221 316.902 215.726 315.397 215.726 313.544C215.726 311.684 214.221 310.186 212.368 310.186H198.655Z" fill="#5E189D"/>
<path d="M315.202 310.186C313.342 310.186 311.837 311.684 311.837 313.544C311.837 315.397 313.342 316.902 315.202 316.902H328.916C330.769 316.902 332.274 315.397 332.274 313.544C332.274 311.684 330.769 310.186 328.916 310.186H315.202Z" fill="#5E189D"/>
<path d="M322.056 231.291C322.056 231.291 351.972 230.502 386.933 238.521C362.668 228.751 342.564 226.927 342.564 226.927C335.031 226.334 327.099 226.023 318.762 226.023H162.811C159.902 226.023 157.543 228.382 157.543 231.291H322.056Z" fill="#5E189D"/>
<path d="M133.199 301.176C125.47 320.209 119.536 343.193 119.536 368.905H130.586C130.586 368.905 115.953 352.391 133.199 301.176Z" fill="#5E189D"/>
<path d="M186.757 336.593C156.175 336.593 131.302 363.362 130.608 396.672C131.375 366.314 156.219 341.948 186.757 341.948C217.296 341.948 242.14 366.314 242.907 396.672C242.213 363.361 217.34 336.593 186.757 336.593Z" fill="#5E189D"/>
<path d="M481.647 336.593C451.065 336.593 426.192 363.362 425.498 396.672C426.265 366.314 451.108 341.948 481.647 341.948C512.186 341.948 537.03 366.314 537.797 396.672C537.102 363.361 512.229 336.593 481.647 336.593Z" fill="#5E189D"/>
<path d="M559.254 368.905C559.254 368.905 559.051 361.473 556.164 351.327H556.157C560.867 368.768 532.876 368.905 531.971 368.905H559.254Z" fill="#5E189D"/>
<path d="M435.737 310.186V353.295C435.737 353.896 436.229 354.381 436.823 354.381C437.423 354.381 437.908 353.896 437.908 353.295V310.186C437.908 309.586 437.423 309.101 436.823 309.101C436.229 309.101 435.737 309.586 435.737 310.186Z" fill="#5E189D"/>
<path d="M144.951 302.24C141.731 308.949 129.891 335.797 132.127 363.007C132.171 363.572 132.648 363.998 133.206 363.998C133.235 363.998 133.264 363.998 133.3 363.998C133.893 363.947 134.342 363.427 134.291 362.826C131.773 332.193 147.498 301.965 147.658 301.661L148.497 300.069H136.745C136.151 300.069 135.659 300.554 135.659 301.155C135.659 301.755 136.151 302.24 136.745 302.24H144.951Z" fill="#5E189D"/>
<path d="M396.246 272.729C392.382 272.498 389.523 276.275 390.732 279.951L393.409 288.093C394.155 290.351 396.268 291.877 398.649 291.877H418.955C423.116 291.877 425.193 286.884 422.291 283.895C417.53 278.989 409.345 273.495 396.246 272.729Z" fill="#5E189D"/>
<path d="M303.175 384.189C308.458 393.871 319.58 405.414 342.565 405.414C343.165 405.414 343.65 404.929 343.65 404.329C343.65 403.728 343.165 403.243 342.565 403.243C324.972 403.243 312.359 396.484 305.079 383.147C299.629 373.167 299.369 363.087 299.369 362.985V310.186C299.369 309.586 298.876 309.101 298.283 309.101C297.682 309.101 297.198 309.586 297.198 310.186V363.007C297.204 363.463 297.472 373.746 303.175 384.189Z" fill="#5E189D"/>
<path d="M172.385 301.155V332.981C172.385 333.582 172.87 334.067 173.471 334.067C174.071 334.067 174.556 333.582 174.556 332.981V301.155C174.556 300.554 174.071 300.069 173.471 300.069C172.87 300.069 172.385 300.554 172.385 301.155Z" fill="#5E189D"/>
<path d="M445.793 150.604C443.604 152.906 443.359 156.525 445.362 159.12C447.577 161.99 451.694 162.52 454.56 160.308C456.994 158.429 457.744 155.177 456.556 152.484C456.087 152.583 455.615 152.653 455.144 152.703C456.304 154.893 455.753 157.663 453.725 159.226C451.456 160.978 448.197 160.558 446.443 158.285C444.781 156.133 445.075 153.084 447.051 151.286C446.621 151.082 446.203 150.854 445.793 150.604Z" fill="#99A5AA"/>
<path d="M461.032 121.774C459.057 123.299 458.689 126.138 460.215 128.116C461.74 130.091 464.58 130.454 466.555 128.93C468.53 127.405 468.895 124.568 467.371 122.593C465.844 120.615 463.007 120.25 461.032 121.774Z" fill="#5E189D"/>
<path d="M444.887 100.856C442.911 102.38 442.543 105.219 444.067 107.194C445.592 109.169 448.434 109.535 450.409 108.011C452.384 106.487 452.748 103.647 451.223 101.672C449.699 99.6968 446.862 99.3315 444.887 100.856Z" fill="#5E189D"/>
<path d="M428.742 79.9372C426.766 81.462 426.398 84.301 427.922 86.276C429.447 88.2511 432.287 88.6145 434.262 87.0897C436.237 85.565 436.602 82.7286 435.078 80.7535C433.553 78.7785 430.717 78.4131 428.742 79.9372Z" fill="#5E189D"/>
<path d="M417.242 77.7295L429.52 68.2529C432.667 65.8237 437.185 66.406 439.613 69.5529L477.72 118.926C480.149 122.073 479.567 126.591 476.42 129.02L464.142 138.496C460.996 140.925 456.474 140.346 454.046 137.199L415.939 87.8256C413.51 84.6787 414.095 80.1587 417.242 77.7295ZM434.263 87.0897C436.238 85.565 436.603 82.7286 435.079 80.7535C433.554 78.7785 430.718 78.4131 428.743 79.9372C426.767 81.462 426.399 84.301 427.923 86.276C429.447 88.2517 432.287 88.6144 434.263 87.0897ZM450.41 108.011C452.385 106.487 452.748 103.647 451.224 101.672C449.699 99.6968 446.862 99.3314 444.887 100.856C442.912 102.38 442.544 105.219 444.068 107.194C445.592 109.17 448.434 109.536 450.41 108.011ZM466.555 128.93C468.53 127.405 468.895 124.568 467.371 122.593C465.844 120.615 463.007 120.25 461.032 121.774C459.057 123.299 458.688 126.138 460.215 128.116C461.74 130.092 464.58 130.454 466.555 128.93Z" fill="#C8A0EB"/>
<path d="M390.695 21.2324C392.133 25.0713 396.218 24.1851 398.079 27.1568C398.448 27.7424 398.634 28.3561 398.808 28.9482C399.242 30.405 399.676 31.8683 400.107 33.3277C400.722 35.3922 402.653 37.368 404.37 37.6758C405.437 37.8712 406.625 38.7162 407.499 39.8488C407.865 40.3233 408.178 40.8494 408.401 41.3984C409.533 44.1662 411.417 46.9811 413.675 49.179C415.96 51.4063 418.582 52.9473 420.924 53.5133L390.5 14.0942L389.796 14.6373C390.797 15.9346 390.873 17.8744 390.541 18.8057C390.317 19.4481 390.346 20.3069 390.695 21.2324Z" fill="#99A5AA"/>
<path d="M373.797 4.41772L420.605 65.065L426.392 60.5986L420.925 53.514C418.582 52.948 415.961 51.407 413.675 49.1796C411.418 46.9817 409.533 44.1669 408.402 41.3991C408.179 40.8501 407.866 40.324 407.5 39.8495C406.626 38.7169 405.438 37.8719 404.37 37.6765C402.654 37.368 400.723 35.3929 400.108 33.3283C399.676 31.8689 399.243 30.4063 398.808 28.9489C398.635 28.3568 398.449 27.7431 398.08 27.1575C396.218 24.1852 392.134 25.072 390.695 21.233C390.346 20.3076 390.317 19.4488 390.542 18.8064C390.874 17.8757 390.798 15.9354 389.797 14.638C389.623 14.4119 389.423 14.206 389.187 14.0276C388.01 13.1231 386.825 13.6303 385.652 12.0173C385.258 11.4722 385.02 10.8572 384.96 10.3265C384.846 9.23051 385.31 8.60442 385.852 8.07243L383.08 4.47979L373.797 4.41772Z" fill="#B8C0C4"/>
<path d="M389.187 14.027C389.423 14.2055 389.623 14.412 389.797 14.6374L390.501 14.0944L385.852 8.0719C385.31 8.60389 384.846 9.22998 384.96 10.326C385.02 10.8567 385.258 11.4716 385.652 12.0167C386.825 13.6297 388.01 13.1225 389.187 14.027Z" fill="#99A5AA"/>
<path d="M440.169 144.932L441.741 146.968C442.895 148.463 444.276 149.679 445.793 150.604C446.203 150.854 446.621 151.082 447.051 151.286C449.569 152.505 452.378 152.989 455.144 152.703C455.615 152.654 456.087 152.584 456.556 152.484C458.732 152.046 460.84 151.114 462.715 149.667L487.587 130.47C494.123 125.425 495.333 116.036 490.288 109.5L488.716 107.463C493.178 113.244 491.498 122.024 484.961 127.068L460.089 146.265C453.551 151.312 444.631 150.713 440.169 144.932Z" fill="#C8A0EB"/>
<path d="M409.34 80.5112L434.213 61.3143C440.749 56.2696 449.665 56.8656 454.13 62.6495L488.717 107.462C493.178 113.242 491.498 122.023 484.962 127.067L460.09 146.264C453.55 151.311 444.631 150.711 440.169 144.931L405.583 100.118C401.119 94.3352 402.802 85.5586 409.34 80.5112ZM464.142 138.496L476.42 129.02C479.567 126.591 480.149 122.073 477.72 118.926L439.613 69.553C437.185 66.4062 432.666 65.8245 429.52 68.2531L417.242 77.7296C414.095 80.1582 413.51 84.6789 415.939 87.8257L454.046 137.199C456.474 140.346 460.995 140.926 464.142 138.496Z" fill="#5E189D"/>
<path d="M403.371 97.253L405.583 100.119C401.119 94.3349 402.802 85.5584 409.341 80.511L434.213 61.3141C440.75 56.2693 449.666 56.8653 454.131 62.6493L451.918 59.7834C446.873 53.2472 437.484 52.0382 430.948 57.0823L426.393 60.5971L420.606 65.0636L417.033 67.8209L410.626 72.7656L406.075 76.2779C399.535 81.3266 398.326 90.7168 403.371 97.253Z" fill="#5E189D"/>
<path d="M404.592 64.95L410.626 72.7672L417.033 67.8224L370.225 7.17517L370.138 20.3083L372.313 23.1258C373.245 23.5193 374.179 23.9415 375.113 24.3846C375.647 24.6362 376.22 24.9309 376.654 25.461C377.27 26.2119 377.388 27.1458 377.89 27.9628C379.476 30.5188 382.9 29.5816 384.569 32.0991C385.181 33.018 385.247 33.997 385.362 34.9074C385.642 37.1792 387.056 40.3724 389.185 41.2221C389.743 41.4449 390.278 41.4645 390.844 41.7697C391.972 42.3775 392.793 43.8755 393.183 45.1349C393.57 46.3969 393.728 47.6498 394.386 48.9085C395.788 51.5861 398.694 53.0154 400.782 55.2872C403.379 58.1138 404.281 61.6979 404.592 64.95Z" fill="#B8C0C4"/>
<path d="M372.312 23.1265L404.592 64.95C404.281 61.6979 403.379 58.1139 400.781 55.2886C398.693 53.0168 395.787 51.5875 394.384 48.9099C393.727 47.6511 393.568 46.3976 393.182 45.1362C392.792 43.8768 391.97 42.3789 390.842 41.7711C390.277 41.4659 389.742 41.4463 389.183 41.2234C387.055 40.3738 385.64 37.1799 385.36 34.9088C385.245 33.9984 385.179 33.0194 384.568 32.1005C382.898 29.583 379.476 30.5201 377.889 27.9641C377.387 27.1465 377.268 26.2125 376.653 25.4623C376.218 24.9329 375.646 24.6381 375.111 24.3859C374.178 23.9421 373.244 23.5199 372.312 23.1265Z" fill="#99A5AA"/>
<path d="M373.787 4.38877L370.214 7.14648L417.023 67.7912L420.596 65.0335L373.787 4.38877Z" fill="#DCE2E5"/>
<path d="M429.404 101.49L449.422 86.0397C449.689 85.8332 449.739 85.4489 449.533 85.1816C449.326 84.9143 448.942 84.8646 448.674 85.0711L428.656 100.522C428.389 100.728 428.339 101.113 428.546 101.38C428.752 101.647 429.136 101.696 429.404 101.49Z" fill="#5E189D"/>
<path d="M446.311 123.396L466.329 107.945C466.596 107.739 466.646 107.354 466.44 107.087C466.233 106.82 465.849 106.77 465.581 106.977L445.563 122.427C445.296 122.634 445.246 123.018 445.453 123.286C445.659 123.553 446.043 123.602 446.311 123.396Z" fill="#5E189D"/>
<path d="M86.978 142.067L64.7228 176.022L69.7255 179.301L91.9807 145.346L86.978 142.067Z" fill="#9AAFB7"/>
<path d="M81.9786 138.792L59.7234 172.748L64.7224 176.024L86.9775 142.069L81.9786 138.792Z" fill="#7F9CA5"/>
<path d="M64.6839 176.014L23.9224 238.203L20.5083 235.966C15.7641 232.856 14.0217 227.123 16.619 223.16L48.8424 173.997C50.9606 170.765 55.8146 170.201 59.6856 172.738L64.6839 176.014Z" fill="#0C193B"/>
<path d="M90.6862 136.344L87.025 141.93L82.0267 138.654C78.1557 136.117 76.1878 132.278 77.6322 130.075L79.4432 127.311C82.8233 130.623 86.5767 133.651 90.6862 136.344Z" fill="#192D59"/>
<path d="M69.6868 179.293C73.5578 181.83 74.9767 186.506 72.8585 189.738L40.635 238.901C38.0378 242.863 32.0859 243.553 27.3371 240.441L23.923 238.204L64.6845 176.014L69.6868 179.293Z" fill="#0C193B"/>
<path d="M103.458 143.052L101.647 145.815C100.203 148.019 95.8977 147.746 92.0267 145.209L87.0244 141.93L90.6856 136.344C94.7952 139.037 99.072 141.267 103.458 143.052Z" fill="#284475"/>
<path d="M193.48 114.948C173.695 145.134 135.668 156.172 103.459 143.052C99.0719 141.267 94.7957 139.037 90.6862 136.343C86.5766 133.65 82.8232 130.622 79.4424 127.31C54.5603 103.01 49.5103 63.738 69.2947 33.5522L75.9171 37.8925C74.0329 40.7668 72.3984 43.7373 71.0109 46.7724C69.8404 49.3369 68.8457 51.9543 68.0255 54.6006C66.2079 60.4473 65.2387 66.447 65.0825 72.4348C65.0185 74.8275 65.0832 77.2142 65.2805 79.5971C65.591 83.4786 66.2504 87.3221 67.2333 91.0879C68.3692 95.4079 69.9358 99.6252 71.9252 103.665C73.018 105.868 74.2342 108.022 75.574 110.109C78.4026 114.522 81.7854 118.636 85.6943 122.344C87.855 124.39 90.1796 126.317 92.6618 128.097C93.4324 128.654 94.2238 129.195 95.0258 129.721C125.664 149.803 166.778 141.242 186.857 110.608L193.48 114.948Z" fill="#7F9CA5"/>
<path d="M193.48 114.949L186.857 110.608C187.383 109.806 187.893 108.994 188.378 108.176C189.943 105.553 191.306 102.859 192.471 100.121C194.577 95.1602 196.037 90.039 196.87 84.8635C197.269 82.4179 197.521 79.9553 197.644 77.4985C197.857 73.0008 197.615 68.5115 196.929 64.0941C196.331 60.2512 195.399 56.462 194.141 52.7772C193.367 50.5212 192.475 48.2965 191.459 46.1319C188.927 40.7035 185.644 35.5887 181.645 30.9531C179.836 28.8538 177.884 26.8533 175.784 24.9658C173.3 22.7366 170.62 20.6681 167.742 18.7813C137.108 -1.29781 95.997 7.25912 75.9179 37.8932L69.2954 33.5529C91.7711 -0.737762 137.794 -10.3202 172.085 12.1556C206.379 34.6333 215.955 80.6578 193.48 114.949Z" fill="#9AAFB7"/>
<path d="M188.378 108.176L92.6626 128.098C90.1798 126.318 87.8557 124.391 85.6951 122.345L192.471 100.121C191.306 102.859 189.944 105.553 188.378 108.176Z" fill="#CADEE5"/>
<path d="M196.869 84.8635L75.5742 110.109C74.2351 108.022 73.0182 105.868 71.9254 103.665L197.644 77.4985C197.521 79.9552 197.269 82.4179 196.869 84.8635Z" fill="#CADEE5"/>
<path d="M196.928 64.095L67.2335 91.0887C66.2505 87.3229 65.5917 83.4793 65.2806 79.5979L194.141 52.7773C195.398 56.4621 196.331 60.2521 196.928 64.095Z" fill="#CADEE5"/>
<path d="M181.644 30.9531C185.643 35.5894 188.926 40.7036 191.458 46.132L65.0825 72.4349C65.2387 66.447 66.2079 60.4474 68.0255 54.6007L181.644 30.9531Z" fill="#CADEE5"/>
<path d="M175.783 24.9658L71.011 46.7724C72.3985 43.7372 74.033 40.7675 75.9172 37.8925C95.9964 7.25844 137.107 -1.29858 167.742 18.7806C170.62 20.668 173.299 22.7365 175.783 24.9658Z" fill="#CADEE5"/>
<path d="M188.378 108.176C187.893 108.994 187.383 109.806 186.858 110.608C166.778 141.242 125.665 149.803 95.0266 129.721C94.2247 129.196 93.4333 128.654 92.6627 128.098L188.378 108.176Z" fill="#E8F5FB"/>
<path d="M196.869 84.8635C196.037 90.039 194.576 95.1603 192.471 100.121L85.6944 122.345C81.7855 118.636 78.402 114.523 75.5741 110.11L196.869 84.8635Z" fill="#E8F5FB"/>
<path d="M197.644 77.4993L71.9254 103.666C69.936 99.626 68.3694 95.4092 67.2335 91.0886L196.928 64.0948C197.614 68.5116 197.856 73.0008 197.644 77.4993Z" fill="#E8F5FB"/>
<path d="M194.141 52.7772L65.2806 79.5978C65.0826 77.2149 65.0178 74.8282 65.0826 72.4355L191.458 46.1326C192.475 48.2971 193.366 50.5218 194.141 52.7772Z" fill="#E8F5FB"/>
<path d="M181.644 30.9532L68.0255 54.6014C68.8464 51.9552 69.8411 49.3377 71.0109 46.7731L175.783 24.9667C177.883 26.8535 179.836 28.854 181.644 30.9532Z" fill="#E8F5FB"/>
<path d="M87.1572 54.0628C104.769 27.1925 140.829 19.6872 167.699 37.2992C176.511 43.0746 183.24 50.8349 187.684 59.6036C184.18 46.1175 175.848 33.8379 163.276 25.5979C136.406 7.98591 100.345 15.4913 82.7333 42.3616C70.8967 60.4199 70.4053 82.629 79.5119 100.599C75.5265 85.2609 77.7852 68.3612 87.1572 54.0628Z" fill="#F8FDFF"/>
<path d="M137.286 201.874C137.286 188.228 126.224 177.166 112.578 177.166C98.9319 177.166 87.8699 188.228 87.8699 201.874C87.8699 220.203 112.578 254.203 112.578 254.203C112.578 254.203 137.286 219.368 137.286 201.874Z" fill="#C8A0EB"/>
<path d="M112.578 213.373C118.929 213.373 124.077 208.225 124.077 201.874C124.077 195.524 118.929 190.376 112.578 190.376C106.228 190.376 101.08 195.524 101.08 201.874C101.08 208.225 106.228 213.373 112.578 213.373Z" fill="#5E189D"/>
<path d="M55.3115 210.018H9.16862C5.33357 210.018 2.22526 213.127 2.22526 216.961V242.139C2.22526 245.974 5.33422 249.083 9.16862 249.083H13.0762L2.22461 264.343L27.7531 249.083H55.3115C59.1466 249.083 62.2549 245.974 62.2549 242.139V216.961C62.2555 213.126 59.1466 210.018 55.3115 210.018Z" fill="#5E189D"/>
<path d="M53.465 208.116H7.32146C3.4864 208.116 0.378095 211.225 0.378095 215.06V240.238C0.378095 244.073 3.48705 247.181 7.32146 247.181H11.2291L0.377441 262.441L25.9059 247.181H53.4643C57.2994 247.181 60.4077 244.072 60.4077 240.238V215.06C60.4084 211.225 57.2994 208.116 53.465 208.116Z" fill="#C8A0EB"/>
<path d="M48.7843 218.62H12.099C11.2546 218.62 10.5703 219.304 10.5703 220.148C10.5703 220.993 11.2546 221.677 12.099 221.677H48.7836C49.628 221.677 50.3123 220.993 50.3123 220.148C50.3123 219.304 49.628 218.62 48.7843 218.62Z" fill="#5E189D"/>
<path d="M48.7843 226.835H12.099C11.2546 226.835 10.5703 227.52 10.5703 228.364C10.5703 229.208 11.2546 229.893 12.099 229.893H48.7836C49.628 229.893 50.3123 229.208 50.3123 228.364C50.3123 227.52 49.628 226.835 48.7843 226.835Z" fill="#5E189D"/>
<path d="M48.7843 235.051H12.099C11.2546 235.051 10.5703 235.735 10.5703 236.58C10.5703 237.424 11.2546 238.108 12.099 238.108H48.7836C49.628 238.108 50.3123 237.424 50.3123 236.58C50.3123 235.735 49.628 235.051 48.7843 235.051Z" fill="#5E189D"/>
<path d="M34.4088 256.124H80.5523C84.3874 256.124 87.4957 259.233 87.4957 263.067V288.245C87.4957 292.08 84.3867 295.189 80.5523 295.189H76.6447L87.4963 310.449L61.9678 295.189H34.4094C30.5744 295.189 27.4661 292.08 27.4661 288.245V263.067C27.4654 259.233 30.5737 256.124 34.4088 256.124Z" fill="#5E189D"/>
<path d="M36.2556 254.223H82.3991C86.2342 254.223 89.3425 257.332 89.3425 261.166V286.344C89.3425 290.179 86.2335 293.288 82.3991 293.288H78.4915L89.3431 308.547L63.8147 293.288H36.2562C32.4212 293.288 29.3129 290.179 29.3129 286.344V261.166C29.3116 257.332 32.4205 254.223 36.2556 254.223Z" fill="#C8A0EB"/>
<path d="M66.6627 275.337C66.17 274.501 65.5236 273.826 64.7223 273.311C63.9204 272.796 63.0336 272.383 62.0604 272.074C61.1846 271.796 60.3089 271.562 59.4331 271.367V266.672C59.9187 266.748 60.4108 266.853 60.9102 266.991C62.0317 267.3 63.1656 267.763 64.3106 268.382L66.4059 263.333C65.2151 262.646 63.8583 262.126 62.3362 261.771C61.3801 261.548 60.4128 261.395 59.4338 261.313V257.598H55.3125V261.376C53.9727 261.539 52.7917 261.847 51.7748 262.303C50.1945 263.013 49.0096 263.952 48.2201 265.119C47.4299 266.287 47.0352 267.593 47.0352 269.035C47.0352 270.317 47.2868 271.377 47.7907 272.212C48.2939 273.048 48.9468 273.724 49.7481 274.239C50.5494 274.754 51.4362 275.172 52.41 275.492C53.3773 275.811 54.3445 276.072 55.3125 276.278V280.869C54.4047 280.767 53.4943 280.573 52.5819 280.283C51.1735 279.837 49.9311 279.27 48.8553 278.583L46.6228 283.598C47.7672 284.376 49.2501 285.012 51.0702 285.505C52.442 285.875 53.8557 286.106 55.3125 286.198V289.884H59.4338V286.067C60.6592 285.897 61.7434 285.602 62.6793 285.178C64.2472 284.469 65.4269 283.524 66.217 282.345C67.0072 281.166 67.4019 279.877 67.4019 278.481C67.4013 277.221 67.1549 276.173 66.6627 275.337ZM55.3112 270.345C55.0066 270.224 54.7367 270.091 54.504 269.945C54.0112 269.636 53.7655 269.218 53.7655 268.691C53.7655 268.279 53.891 267.913 54.1433 267.592C54.3844 267.285 54.7746 267.036 55.3112 266.844V270.345ZM60.3089 280.008C60.1076 280.227 59.8148 280.412 59.4331 280.564V277.41C59.6174 277.498 59.7926 277.59 59.9481 277.689C60.4514 278.01 60.7036 278.445 60.7036 278.995C60.7036 279.385 60.5716 279.722 60.3089 280.008Z" fill="#5E189D"/>
<path d="M468.743 219.395L468.573 218.408C470.422 217.776 471.491 216.686 472.029 215.014C474.243 208.126 465.03 195.075 464.936 194.945C464.405 194.199 459.856 187.18 463.68 170.649C464.811 165.759 464.313 162.122 462.198 159.836C458.892 156.263 452.619 156.798 452.555 156.807L452.429 155.865C452.706 155.824 459.274 155.19 462.938 159.151C465.294 161.697 465.874 165.642 464.663 170.877C461.638 183.954 463.928 191.79 465.758 194.36C465.854 194.495 475.356 207.959 472.989 215.324C472.357 217.292 470.884 218.662 468.743 219.395Z" fill="#5E189D"/>
</svg>
