<svg width="698" height="373" viewBox="0 0 698 373" fill="none" xmlns="http://www.w3.org/2000/svg">
<path d="M326.5 289.395C506.821 289.395 653 287.86 653 285.966C653 284.071 506.821 282.536 326.5 282.536C146.179 282.536 0 284.071 0 285.966C0 287.86 146.179 289.395 326.5 289.395Z" fill="#58595B"/>
<path d="M113.256 285.966H93.1427C73.9325 285.966 58.3677 267.68 58.3677 245.124C58.3677 222.579 73.9325 204.293 93.1427 204.293H113.256C94.0459 204.293 78.4811 222.579 78.4811 245.124C78.4808 267.679 94.0459 285.966 113.256 285.966Z" fill="#231F20"/>
<mask id="mask0_53_166" style="mask-type:luminance" maskUnits="userSpaceOnUse" x="58" y="204" width="56" height="82">
<path d="M113.256 285.966H93.1427C73.9325 285.966 58.3677 267.68 58.3677 245.124C58.3677 222.579 73.9325 204.293 93.1427 204.293H113.256C94.0459 204.293 78.4811 222.579 78.4811 245.124C78.4808 267.679 94.0459 285.966 113.256 285.966Z" fill="white"/>
</mask>
<g mask="url(#mask0_53_166)">
<path d="M78.4808 245.124C78.4808 242.927 78.6372 240.775 78.9219 238.672H58.8084C58.524 240.774 58.3677 242.927 58.3677 245.124C58.3677 267.68 73.9328 285.965 93.1427 285.965H113.256C94.0459 285.965 78.4808 267.679 78.4808 245.124Z" fill="#231F20"/>
<path d="M66.6726 218.644C64.0966 222.191 62.0288 226.261 60.6009 230.7C59.7825 233.245 59.1827 235.914 58.8096 238.672H78.923C79.2962 235.914 79.896 233.245 80.7144 230.7C82.1423 226.261 84.2104 222.191 86.786 218.644H66.6726Z" fill="#231F20"/>
<path d="M73.3883 211.521C70.8942 213.546 68.6346 215.941 66.6718 218.644H86.7853C88.7481 215.941 91.0076 213.546 93.5018 211.521H73.3883Z" fill="#231F20"/>
<path d="M113.257 204.293H93.1433C85.804 204.293 78.9988 206.965 73.3887 211.521H93.5022C99.1123 206.965 105.917 204.293 113.257 204.293Z" fill="#231F20"/>
</g>
<path d="M112.476 204.293C132.117 204.293 148.032 222.579 148.032 245.124C148.032 267.68 132.117 285.966 112.476 285.966C92.834 285.966 76.9193 267.679 76.9193 245.124C76.9193 222.579 92.8337 204.293 112.476 204.293Z" fill="#939598"/>
<path d="M113.257 204.293C132.467 204.293 148.032 222.579 148.032 245.124C148.032 267.68 132.467 285.966 113.257 285.966C94.0466 285.966 78.4818 267.68 78.4818 245.124C78.4815 222.579 94.0466 204.293 113.257 204.293Z" fill="black"/>
<path d="M398.867 285.966H378.753C359.543 285.966 343.978 267.68 343.978 245.124C343.978 222.579 359.543 204.293 378.753 204.293H398.867C379.657 204.293 364.092 222.579 364.092 245.124C364.092 267.679 379.657 285.966 398.867 285.966Z" fill="#231F20"/>
<mask id="mask1_53_166" style="mask-type:luminance" maskUnits="userSpaceOnUse" x="343" y="204" width="56" height="82">
<path d="M398.867 285.966H378.753C359.543 285.966 343.978 267.68 343.978 245.124C343.978 222.579 359.543 204.293 378.753 204.293H398.867C379.657 204.293 364.092 222.579 364.092 245.124C364.092 267.679 379.657 285.966 398.867 285.966Z" fill="white"/>
</mask>
<g mask="url(#mask1_53_166)">
<path d="M364.092 245.124C364.092 242.928 364.248 240.775 364.533 238.672H344.419C344.135 240.775 343.979 242.928 343.979 245.124C343.979 267.68 359.544 285.966 378.754 285.966H398.867C379.657 285.966 364.092 267.679 364.092 245.124Z" fill="#231F20"/>
<path d="M352.282 218.644C349.706 222.191 347.638 226.261 346.21 230.7C345.392 233.245 344.792 235.914 344.419 238.672H364.533C364.906 235.914 365.505 233.245 366.324 230.7C367.752 226.261 369.82 222.191 372.396 218.644H352.282Z" fill="#231F20"/>
<path d="M358.999 211.521C356.505 213.546 354.245 215.941 352.282 218.644H372.396C374.359 215.941 376.618 213.546 379.112 211.521H358.999Z" fill="#231F20"/>
<path d="M398.866 204.293H378.753C371.414 204.293 364.608 206.965 358.998 211.521H379.112C384.722 206.965 391.527 204.293 398.866 204.293Z" fill="#231F20"/>
</g>
<path d="M398.085 204.293C417.727 204.293 433.642 222.579 433.642 245.124C433.642 267.68 417.727 285.966 398.085 285.966C378.443 285.966 362.529 267.68 362.529 245.124C362.529 222.579 378.443 204.293 398.085 204.293Z" fill="#939598"/>
<path d="M398.867 204.293C418.077 204.293 433.642 222.579 433.642 245.124C433.642 267.68 418.077 285.966 398.867 285.966C379.656 285.966 364.092 267.68 364.092 245.124C364.092 222.579 379.656 204.293 398.867 204.293Z" fill="black"/>
<path d="M643.711 222.343C643.711 233.987 636.764 244.467 626.149 248.836L606.941 256.741C602.334 258.446 597.469 259.317 592.567 259.317H21.6365C18.7246 259.317 16.364 256.917 16.364 253.956V213.869C16.364 194.5 31.8062 178.797 50.8552 178.797H643.711L643.711 222.343Z" fill="black"/>
<path d="M276.25 285.966H256.136C236.926 285.966 221.361 267.68 221.361 245.124C221.361 222.579 236.926 204.293 256.136 204.293H276.25C257.039 204.293 241.475 222.579 241.475 245.124C241.475 267.679 257.04 285.966 276.25 285.966Z" fill="black"/>
<mask id="mask2_53_166" style="mask-type:luminance" maskUnits="userSpaceOnUse" x="221" y="204" width="56" height="82">
<path d="M276.25 285.966H256.136C236.926 285.966 221.361 267.68 221.361 245.124C221.361 222.579 236.926 204.293 256.136 204.293H276.25C257.039 204.293 241.475 222.579 241.475 245.124C241.475 267.679 257.04 285.966 276.25 285.966Z" fill="white"/>
</mask>
<g mask="url(#mask2_53_166)">
<path d="M241.474 245.124C241.474 242.928 241.63 240.775 241.915 238.672H221.801C221.517 240.775 221.361 242.928 221.361 245.124C221.361 267.68 236.926 285.966 256.136 285.966H276.249C257.039 285.966 241.474 267.679 241.474 245.124Z" fill="black"/>
<path d="M229.664 218.644C227.088 222.191 225.02 226.261 223.592 230.7C222.774 233.245 222.174 235.914 221.801 238.672H241.915C242.288 235.914 242.888 233.245 243.706 230.7C245.134 226.261 247.202 222.191 249.778 218.644H229.664Z" fill="black"/>
<path d="M236.381 211.521C233.887 213.546 231.627 215.941 229.664 218.644H249.778C251.741 215.941 254 213.546 256.494 211.521H236.381Z" fill="black"/>
<path d="M276.249 204.293H256.135C248.796 204.293 241.991 206.965 236.38 211.521H256.494C262.104 206.965 268.909 204.293 276.249 204.293Z" fill="black"/>
</g>
<path d="M275.468 204.293C295.11 204.293 311.025 222.579 311.025 245.124C311.025 267.68 295.11 285.966 275.468 285.966C255.827 285.966 239.912 267.68 239.912 245.124C239.912 222.579 255.826 204.293 275.468 204.293Z" fill="#939598"/>
<path d="M276.249 204.293C295.459 204.293 311.024 222.579 311.024 245.124C311.024 267.68 295.459 285.966 276.249 285.966C257.039 285.966 241.474 267.68 241.474 245.124C241.474 222.579 257.039 204.293 276.249 204.293Z" fill="#414042"/>
<path d="M276.25 214.758C290.537 214.758 302.113 228.358 302.113 245.125C302.113 261.9 290.537 275.5 276.25 275.5C261.963 275.5 250.387 261.9 250.387 245.125C250.387 228.358 261.963 214.758 276.25 214.758Z" fill="#231F20"/>
<path d="M276.249 219.182C288.455 219.182 298.345 230.801 298.345 245.126C298.345 259.457 288.455 271.076 276.249 271.076C264.044 271.076 254.154 259.457 254.154 245.126C254.154 230.801 264.044 219.182 276.249 219.182Z" fill="black"/>
<path d="M276.248 216.172C262.617 216.172 251.572 229.149 251.572 245.147C251.572 261.153 262.617 274.129 276.248 274.129C289.88 274.129 300.925 261.153 300.925 245.147C300.925 229.149 289.88 216.172 276.248 216.172ZM280.04 248.052L297.935 253.701C296.895 257.341 295.208 260.622 293.038 263.378L280.04 248.052ZM293.344 227.32C295.468 230.125 297.114 233.437 298.094 237.105L280.275 242.73L293.344 227.32ZM281.237 218.932L276.484 239.829L271.703 218.807C273.173 218.459 274.692 218.272 276.248 218.272C277.964 218.272 279.63 218.511 281.237 218.932ZM259.153 262.981C257.031 260.176 255.384 256.865 254.406 253.196L272.221 247.572L259.153 262.981ZM254.563 236.6C255.603 232.961 257.29 229.68 259.46 226.924L272.457 242.25L254.563 236.6ZM271.26 271.371L276.013 250.473L280.794 271.496C279.324 271.844 277.805 272.03 276.247 272.03C274.533 272.03 272.868 271.79 271.26 271.371Z" fill="#E6E7E8"/>
<path d="M276.25 244.219C284.64 244.219 292.426 245.932 298.874 248.861C299.019 247.637 299.12 246.396 299.12 245.126C299.12 230.298 288.883 218.272 276.25 218.272C263.616 218.272 253.379 230.298 253.379 245.126C253.379 246.396 253.48 247.637 253.625 248.861C260.073 245.932 267.859 244.219 276.25 244.219Z" fill="#D1D3D4"/>
<path d="M276.275 216.172C262.658 216.172 251.624 229.142 251.624 245.132C251.624 261.129 262.658 274.098 276.275 274.098C289.892 274.098 300.927 261.129 300.927 245.132C300.927 229.142 289.893 216.172 276.275 216.172ZM276.275 272.061C263.615 272.061 253.359 260.004 253.359 245.132C253.359 230.266 263.616 218.21 276.275 218.21C288.935 218.21 299.193 230.266 299.193 245.132C299.193 260.004 288.935 272.061 276.275 272.061Z" fill="white"/>
<path d="M273.03 236.27C277.198 236.27 280.575 240.237 280.575 245.128C280.575 250.021 277.198 261.835 273.03 261.835C268.863 261.835 265.486 250.021 265.486 245.128C265.486 240.237 268.863 236.27 273.03 236.27Z" fill="#939598"/>
<path d="M273.03 236.27C277.198 236.27 280.575 240.237 280.575 245.128C280.575 250.021 277.198 253.989 273.03 253.989C268.863 253.989 265.486 250.021 265.486 245.128C265.486 240.237 268.863 236.27 273.03 236.27Z" fill="black"/>
<path d="M276.249 236.27C280.417 236.27 283.794 240.237 283.794 245.128C283.794 250.021 280.417 253.989 276.249 253.989C272.081 253.989 268.705 250.021 268.705 245.128C268.705 240.237 272.082 236.27 276.249 236.27Z" fill="white"/>
<path d="M561.86 285.966H541.746C522.536 285.966 506.971 267.68 506.971 245.124C506.971 222.579 522.536 204.293 541.746 204.293H561.86C542.649 204.293 527.085 222.579 527.085 245.124C527.085 267.679 542.649 285.966 561.86 285.966Z" fill="black"/>
<mask id="mask3_53_166" style="mask-type:luminance" maskUnits="userSpaceOnUse" x="506" y="204" width="56" height="82">
<path d="M561.86 285.966H541.746C522.536 285.966 506.971 267.68 506.971 245.124C506.971 222.579 522.536 204.293 541.746 204.293H561.86C542.649 204.293 527.085 222.579 527.085 245.124C527.085 267.679 542.649 285.966 561.86 285.966Z" fill="white"/>
</mask>
<g mask="url(#mask3_53_166)">
<path d="M527.084 245.124C527.084 242.927 527.241 240.775 527.525 238.672H507.412C507.127 240.774 506.971 242.927 506.971 245.124C506.971 267.68 522.536 285.965 541.746 285.965H561.859C542.65 285.965 527.084 267.679 527.084 245.124Z" fill="black"/>
<path d="M515.274 218.644C512.698 222.19 510.63 226.261 509.202 230.7C508.384 233.245 507.784 235.914 507.411 238.672H527.524C527.898 235.914 528.497 233.245 529.316 230.7C530.744 226.261 532.812 222.19 535.387 218.644H515.274Z" fill="black"/>
<path d="M521.991 211.521C519.497 213.546 517.237 215.941 515.275 218.644H535.388C537.351 215.941 539.61 213.546 542.105 211.521H521.991Z" fill="black"/>
<path d="M561.86 204.293H541.746C534.407 204.293 527.602 206.965 521.992 211.521H542.105C547.715 206.965 554.52 204.293 561.86 204.293Z" fill="black"/>
</g>
<path d="M561.078 204.293C580.719 204.293 596.634 222.579 596.634 245.124C596.634 267.68 580.719 285.966 561.078 285.966C541.436 285.966 525.522 267.68 525.522 245.124C525.522 222.579 541.436 204.293 561.078 204.293Z" fill="#939598"/>
<path d="M561.86 204.293C581.07 204.293 596.635 222.579 596.635 245.124C596.635 267.68 581.07 285.966 561.86 285.966C542.649 285.966 527.085 267.68 527.085 245.124C527.085 222.579 542.649 204.293 561.86 204.293Z" fill="#414042"/>
<path d="M561.86 214.758C576.147 214.758 587.723 228.358 587.723 245.125C587.723 261.9 576.147 275.5 561.86 275.5C547.573 275.5 535.997 261.9 535.997 245.125C535.997 228.358 547.573 214.758 561.86 214.758Z" fill="#231F20"/>
<path d="M561.86 219.182C574.066 219.182 583.956 230.801 583.956 245.126C583.956 259.457 574.066 271.076 561.86 271.076C549.655 271.076 539.765 259.457 539.765 245.126C539.765 230.801 549.655 219.182 561.86 219.182Z" fill="black"/>
<path d="M561.859 216.172C548.228 216.172 537.183 229.149 537.183 245.147C537.183 261.153 548.228 274.129 561.859 274.129C575.491 274.129 586.536 261.153 586.536 245.147C586.536 229.149 575.491 216.172 561.859 216.172ZM565.651 248.052L583.545 253.701C582.505 257.341 580.819 260.622 578.648 263.378L565.651 248.052ZM578.955 227.32C581.079 230.125 582.725 233.437 583.705 237.105L565.886 242.73L578.955 227.32ZM566.848 218.932L562.095 239.829L557.314 218.807C558.783 218.459 560.303 218.272 561.859 218.272C563.575 218.272 565.24 218.511 566.848 218.932ZM544.764 262.981C542.642 260.176 540.995 256.865 540.017 253.196L557.832 247.572L544.764 262.981ZM540.173 236.6C541.214 232.961 542.9 229.68 545.071 226.924L558.067 242.25L540.173 236.6ZM556.871 271.371L561.624 250.473L566.405 271.496C564.935 271.844 563.416 272.03 561.858 272.03C560.144 272.03 558.479 271.79 556.871 271.371Z" fill="#E6E7E8"/>
<path d="M561.86 244.219C570.25 244.219 578.037 245.932 584.484 248.861C584.63 247.637 584.731 246.396 584.731 245.126C584.731 230.298 574.494 218.272 561.86 218.272C549.226 218.272 538.989 230.298 538.989 245.126C538.989 246.396 539.09 247.637 539.236 248.861C545.683 245.932 553.47 244.219 561.86 244.219Z" fill="#D1D3D4"/>
<path d="M561.885 216.172C548.268 216.172 537.234 229.142 537.234 245.132C537.234 261.129 548.268 274.098 561.885 274.098C575.502 274.098 586.537 261.129 586.537 245.132C586.537 229.142 575.502 216.172 561.885 216.172ZM561.885 272.061C549.226 272.061 538.968 260.004 538.968 245.132C538.968 230.266 549.226 218.21 561.885 218.21C574.545 218.21 584.803 230.266 584.803 245.132C584.803 260.004 574.545 272.061 561.885 272.061Z" fill="white"/>
<path d="M558.641 236.27C562.808 236.27 566.185 240.237 566.185 245.128C566.185 250.021 562.808 261.835 558.641 261.835C554.473 261.835 551.096 250.021 551.096 245.128C551.096 240.237 554.473 236.27 558.641 236.27Z" fill="#939598"/>
<path d="M558.641 236.27C562.808 236.27 566.185 240.237 566.185 245.128C566.185 250.021 562.808 253.989 558.641 253.989C554.473 253.989 551.096 250.021 551.096 245.128C551.096 240.237 554.473 236.27 558.641 236.27Z" fill="black"/>
<path d="M561.86 236.27C566.028 236.27 569.404 240.237 569.404 245.128C569.404 250.021 566.028 253.989 561.86 253.989C557.692 253.989 554.315 250.021 554.315 245.128C554.315 240.237 557.692 236.27 561.86 236.27Z" fill="white"/>
<path d="M153.236 140.085H185.329L183.885 127.147C183.381 122.63 179.924 119.406 176.085 119.874L158.735 121.987C153.359 122.642 149.115 127.673 148.582 134.022C148.31 137.269 150.471 140.085 153.236 140.085Z" fill="#A155E6"/>
<path d="M157.213 140.085H190.093V135.217H161.656C159.202 135.217 157.213 137.24 157.213 139.735V140.085Z" fill="black"/>
<path d="M158.735 121.988L176.084 119.874C179.923 119.406 183.381 122.63 183.885 127.147L184.198 129.957H161.304C157.649 129.957 154.418 128.11 152.401 125.309C154.13 123.508 156.304 122.284 158.735 121.988Z" fill="#A155E6"/>
<path d="M652.995 169.193C652.995 166.756 652.799 164.49 652.489 162.423C650.669 150.342 641.139 140.612 629.152 139.716C628.458 139.664 627.761 139.638 627.061 139.638H622.314C612.618 139.638 603.129 136.82 594.939 131.543C569.771 115.326 512.686 80.3861 487.889 80.2986C487.837 80.2983 437.204 74.0688 397.094 74.0688C320.215 74.0688 282.131 80.2909 282.131 80.2909C282.087 80.2962 282.045 80.3023 282.002 80.31C239.481 87.8023 157.908 136.194 152.428 139.464C152.232 139.582 152.034 139.647 151.807 139.669C146.666 140.16 82.53 146.757 29.4141 175.183C16.3214 182.19 0.00524902 196.079 0.00524902 211.123L6.09381 243.907C7.31339 250.473 12.9552 255.228 19.527 255.228H229.751H231.735C232.666 255.228 233.446 254.52 233.571 253.582C238.213 218.645 251.057 191.428 282.259 191.428C306.603 191.428 319.977 218.473 318.676 253.251C318.636 254.326 319.467 255.228 320.524 255.228H319.206H444.997H514.364C515.295 255.228 516.076 254.52 516.201 253.582C520.842 218.644 533.688 191.428 564.889 191.428C589.621 191.428 603.032 219.338 601.234 254.912L607.497 252.825C631.52 244.82 648.615 223.191 651.283 197.629C652.883 182.303 652.995 169.193 652.995 169.193Z" fill="#A155E6"/>
<path d="M256.447 135.774C260.939 135.331 201.704 134.406 161.576 134.123C156.655 136.952 153.378 138.897 152.428 139.464C152.232 139.581 152.033 139.647 151.807 139.668C147.229 140.105 95.8525 145.402 47.144 166.636C161.363 146.156 220.094 139.358 256.447 135.774Z" fill="#A155E6"/>
<path d="M51.5031 184.948H138.273C138.273 184.948 214.268 153.142 257.717 148.405C230.003 143.537 138.532 180.968 138.532 180.968C138.532 180.968 51.2945 181.757 51.5031 184.948Z" fill="#BCBEC0"/>
<path d="M651.834 158.986C650.145 151.669 645.471 145.26 638.729 142.181C635.099 140.523 631.129 139.638 627.061 139.638H621.607C612.374 139.638 603.345 136.969 595.551 131.937C570.676 115.879 512.743 80.2983 487.796 80.2983H428.965C425.356 80.2983 421.753 80.6784 418.251 81.5676C375.329 92.4687 324.347 139.638 324.347 139.638C324.347 139.638 256.19 145.62 200.632 175.717C188.183 182.461 172.213 195.641 172.213 209.985C174.225 221.101 165.832 231.35 154.716 231.35H31.2987C22.0534 231.35 15.0861 239.898 16.802 249.136C17.4583 252.669 20.4942 255.228 24.0307 255.228H233.359C237.815 219.503 250.568 191.428 282.259 191.428C307.062 191.428 320.477 219.503 318.586 255.228H515.988C520.444 219.503 533.199 191.428 564.888 191.428C589.62 191.428 603.031 219.338 601.234 254.913L637.759 242.741C653.088 226.835 652.994 169.193 652.994 169.193C652.994 165.321 652.501 161.878 651.834 158.986Z" fill="#BC71FF"/>
<path d="M110.498 228.545H47.692C29.6388 228.545 28.7018 241.839 25.6857 259.317H146.533C143.517 241.839 128.552 228.545 110.498 228.545Z" fill="black"/>
<path d="M649.307 152.365C646.923 147.942 643.322 144.279 638.729 142.18C635.099 140.522 631.129 139.638 627.061 139.638H624.107C614.052 139.438 601.05 135.36 588.184 127.234C560.643 109.838 510.527 80.2983 487.796 80.2983H428.966C425.356 80.2983 421.754 80.6784 418.252 81.5673C375.33 92.4681 324.347 139.638 324.347 139.638C324.347 139.638 256.19 145.62 200.632 175.717C190.111 181.417 177.113 191.719 173.328 203.43C266.296 165.045 356.295 152.787 649.307 152.365Z" fill="#A155E6"/>
<path d="M647.14 212.542H616.858C608.087 212.542 600.089 207.841 595.298 200.371C588.147 189.222 577.762 182.547 564.591 182.547C551.237 182.547 540.811 186.803 532.707 194.176C517.977 207.578 499.122 215.366 479.515 217.902L350.824 234.543C336.874 236.347 323.623 227.899 319.096 214.362C312.639 195.061 299.892 182.547 281.962 182.547C255.178 182.547 240.164 199.655 232.053 224.716C229.419 232.855 222.275 238.625 213.881 239.378L163.136 243.931H219.584C223.583 243.931 226.696 247.52 226.13 251.546C225.959 252.765 225.797 253.992 225.644 255.228H233.359C237.815 219.503 250.568 191.428 282.259 191.428C307.062 191.428 320.477 219.503 318.586 255.228H323.687L323.688 255.227C324.025 248.355 329.473 242.913 336.226 242.913H497.742C504.151 242.913 509.104 248.637 508.289 255.102L508.273 255.228H515.988C520.444 219.503 533.199 191.428 564.888 191.428C589.62 191.428 603.031 219.338 601.233 254.913L606.462 253.171C606.923 243.434 606.342 234.243 604.796 225.904L647.14 212.542Z" fill="#A155E6"/>
<path d="M323.932 186.795C323.932 186.795 432.051 175.538 477.693 172.793C523.335 170.047 618.609 162.719 618.609 162.719C618.609 162.719 486.298 187.618 323.932 186.795Z" fill="#A155E6"/>
<path d="M6.36399 194.323C2.52592 199.515 0.00524902 205.226 0.00524902 211.123L0.159504 211.953H184.936C193.952 211.953 202.304 206.461 205.398 197.851C205.42 197.789 205.441 197.728 205.463 197.666L206.637 194.323H6.36399Z" fill="#231F20"/>
<path d="M204.277 182.547H172.066C158.407 182.547 144.856 185.84 132.94 192.713C121.709 199.192 115.263 206.69 116.509 213.378C116.511 213.39 116.514 213.401 116.516 213.413C116.89 215.373 118.71 216.689 120.649 216.689H178.219C193.038 216.689 206.258 207.095 211.241 192.722C212.96 187.763 209.391 182.547 204.277 182.547Z" fill="#231F20"/>
<path d="M458.665 167.763C463.153 167.763 466.792 165.174 466.792 161.98C466.792 158.786 463.153 156.197 458.665 156.197C454.176 156.197 450.537 158.786 450.537 161.98C450.537 165.174 454.176 167.763 458.665 167.763Z" fill="#939598"/>
<path d="M464.664 165.241H450.626C448.855 165.241 447.419 163.782 447.419 161.98C447.419 160.179 448.854 158.719 450.626 158.719H464.664C466.435 158.719 467.871 160.179 467.871 161.98C467.871 163.781 466.435 165.241 464.664 165.241Z" fill="#939598"/>
<path d="M466.673 165.241H452.634C450.863 165.241 449.427 163.782 449.427 161.98C449.427 160.179 450.863 158.719 452.634 158.719H466.673C468.444 158.719 469.88 160.179 469.88 161.98C469.879 163.781 468.444 165.241 466.673 165.241Z" fill="white"/>
<path d="M551.566 165.241C556.055 165.241 559.694 162.652 559.694 159.458C559.694 156.265 556.055 153.676 551.566 153.676C547.078 153.676 543.439 156.265 543.439 159.458C543.439 162.652 547.078 165.241 551.566 165.241Z" fill="#939598"/>
<path d="M557.565 162.72H543.527C541.756 162.72 540.32 161.26 540.32 159.458C540.32 157.658 541.756 156.198 543.527 156.198H557.565C559.336 156.198 560.773 157.658 560.773 159.458C560.772 161.259 559.336 162.72 557.565 162.72Z" fill="#939598"/>
<path d="M559.574 162.72H545.536C543.765 162.72 542.329 161.26 542.329 159.458C542.329 157.658 543.765 156.198 545.536 156.198H559.574C561.345 156.198 562.781 157.658 562.781 159.458C562.781 161.259 561.345 162.72 559.574 162.72Z" fill="white"/>
<path d="M19.2581 182.547H18.2202C8.6151 190.284 0.157715 200.841 0.157715 212.032L0.992704 216.689H33.8831C37.1256 216.689 40.1471 214.701 41.3558 211.533C41.7648 210.461 42.0803 209.342 42.2922 208.179C43.2365 203.001 42.0033 197.814 39.1663 193.311C34.8017 186.383 27.154 182.547 19.2581 182.547Z" fill="#231F20"/>
<path d="M202.654 182.547H171.037C157.631 182.547 144.33 185.738 132.634 192.4C121.61 198.679 115.283 205.946 116.506 212.428C116.509 212.439 116.511 212.45 116.513 212.462C116.88 214.361 118.666 215.637 120.57 215.637H177.077C191.623 215.637 204.598 206.338 209.489 192.409C211.177 187.603 207.673 182.547 202.654 182.547Z" fill="#E6E7E8"/>
<path d="M195.225 194.849H178.128C170.879 194.849 163.686 196.575 157.361 200.177C151.4 203.573 147.979 207.502 148.641 211.007C148.642 211.013 148.643 211.019 148.644 211.025C148.843 212.052 149.809 212.742 150.838 212.742H181.394C189.26 212.742 196.276 207.714 198.921 200.182C199.833 197.583 197.939 194.849 195.225 194.849Z" fill="#D1D3D4"/>
<path d="M172.957 186.815H157.603C151.093 186.815 144.635 188.364 138.955 191.599C133.602 194.648 130.529 198.177 131.123 201.325C131.124 201.33 131.126 201.336 131.126 201.341C131.305 202.264 132.172 202.883 133.097 202.883H160.536C167.599 202.883 173.9 198.368 176.275 191.603C177.095 189.27 175.394 186.815 172.957 186.815Z" fill="white"/>
<path d="M19.1741 182.547H18.1323C8.49277 190.046 0.00488281 200.277 0.00488281 211.123L0.842894 215.637H33.8516C37.1059 215.637 40.1382 213.71 41.3512 210.64C41.7617 209.6 42.0784 208.515 42.2912 207.389C43.2388 202.37 42.0011 197.343 39.1541 192.979C34.7739 186.264 27.0984 182.547 19.1741 182.547Z" fill="#E6E7E8"/>
<path d="M27.1672 198.669H26.6679C22.0483 202.263 17.9808 207.166 17.9808 212.363L18.3823 214.527H34.2009C35.7604 214.527 37.2137 213.603 37.7948 212.132C37.9916 211.634 38.1431 211.114 38.2452 210.574C38.6992 208.169 38.1063 205.76 36.7418 203.669C34.6429 200.451 30.9648 198.669 27.1672 198.669Z" fill="#D1D3D4"/>
<path d="M20.4587 184.948H19.7994C13.6976 189.695 8.32446 196.171 8.32446 203.037L8.85487 205.894H29.7496C31.8093 205.894 33.7289 204.674 34.4969 202.731C34.7568 202.073 34.9573 201.386 35.0919 200.673C35.6917 197.496 34.9084 194.314 33.1062 191.551C30.3334 187.301 25.4747 184.948 20.4587 184.948Z" fill="white"/>
<path d="M411.153 83.673H268.306C224.097 96.9506 157.521 136.424 152.446 139.454C152.378 139.494 152.301 139.495 152.232 139.524H324.471C326.786 137.399 371.003 97.1237 411.153 83.673Z" fill="black"/>
<path d="M484.564 85.889H442.08C425.305 85.889 408.735 89.9553 394.099 98.0683C367.184 112.988 341.993 136.202 334.332 143.537C401.789 137.829 475.342 134.687 552.342 134.687C555.499 134.687 558.628 134.711 561.76 134.733C564.142 134.749 566.284 133.295 567.128 131.09C568.075 128.619 567.165 125.835 564.937 124.378C538.64 107.172 502.489 85.889 484.564 85.889Z" fill="#85D5D0"/>
<path d="M259.094 86.6995C220.916 100.165 171.663 128.209 156.68 136.959H302.512C313.375 136.959 323.902 133.238 332.421 126.385C346.542 115.028 368.512 98.9239 390.742 88.8098C391.813 88.3227 391.462 86.6995 390.289 86.6995H259.094Z" fill="#85D5D0"/>
<path d="M564.936 124.378C538.639 107.172 502.49 85.889 484.564 85.889H442.079C425.306 85.889 408.735 89.9556 394.099 98.0686C392.475 98.9689 390.859 99.9015 389.252 100.857C388.707 105.483 386.606 115.901 378.642 133.702C367.251 133.798 355.88 133.975 344.523 134.197C340.005 138.187 336.468 141.492 334.332 143.537C401.789 137.829 475.342 134.688 552.342 134.688C555.498 134.688 558.628 134.711 561.76 134.733C564.143 134.749 566.283 133.295 567.128 131.091C568.075 128.619 567.165 125.835 564.936 124.378ZM408.3 125.047L406.059 133.584C405.832 133.583 405.608 133.58 405.38 133.58C397.241 133.58 389.106 133.613 380.979 133.675C389.121 115.529 391.307 104.925 391.87 100.067C396.028 102.859 400.18 105.936 404.229 109.162C408.595 112.639 410.062 118.336 408.3 125.047ZM544.148 125.047H464.504C451.806 125.047 439.368 121.385 428.634 114.486L407.819 101.107C405.117 99.3695 406.327 95.1196 409.524 95.1196H503.87C511.603 95.1196 519.179 97.35 525.717 101.553L546.953 115.202C551.396 118.059 549.406 125.047 544.148 125.047ZM381.092 93.5778C384.289 91.8877 387.511 90.2801 390.742 88.8098C391.814 88.3226 391.462 86.6994 390.288 86.6994H259.094C220.916 100.165 171.663 128.208 156.681 136.959H209.274C209.046 136.3 208.981 135.54 209.149 134.677L196.022 130.364C197.203 124.305 246.371 103.108 257.395 99.0411C284.784 88.9362 328.546 90.0379 328.546 90.0379C327.968 92.943 324.397 106.197 312.273 134.954C294.557 135.474 276.909 136.149 259.339 136.959H302.513C308.478 136.959 314.329 135.798 319.815 133.651C330.947 107.191 334.75 95.0064 335.808 90.0379C335.808 90.0379 373.442 89.5419 381.092 93.5778Z" fill="#231F20"/>
<path d="M546.82 125.047H541.261L541.187 112.391C541.181 111.263 540.946 110.215 540.608 109.217C536.347 106.706 532.057 104.261 527.804 101.957H521.136C514.339 101.957 507.824 106.389 505.793 112.391L501.511 125.047H495.952C489.994 125.047 484.447 129.363 483.562 134.687L483.421 135.54C506.031 134.98 529.025 134.687 552.341 134.687C553.569 134.687 554.782 134.699 556.002 134.704L556.005 134.687C556.89 129.363 552.778 125.047 546.82 125.047ZM463.867 125.047H458.308L458.235 112.391C458.201 106.389 453.157 101.957 446.36 101.957H438.183C431.386 101.957 424.871 106.389 422.839 112.391L418.558 125.047H412.999C407.041 125.047 401.494 129.363 400.609 134.687L399.905 138.921C423.666 137.572 448.025 136.538 472.863 135.826L473.052 134.687C473.937 129.363 469.825 125.047 463.867 125.047Z" fill="#414042"/>
<path d="M340.023 112.391C339.988 106.389 334.945 101.957 328.148 101.957H319.972C313.175 101.957 306.659 106.389 304.627 112.391L300.346 125.047H294.788C288.829 125.047 283.282 129.363 282.397 134.687L282.02 136.959H302.512C313.374 136.959 323.901 133.237 332.42 126.386C334.76 124.504 337.333 122.483 340.069 120.39L340.023 112.391ZM444.9 125.047H439.341L439.268 112.391C439.234 106.389 434.19 101.957 427.392 101.957H419.216C412.419 101.957 405.903 106.389 403.872 112.391L399.591 125.047H394.032C388.074 125.047 382.527 129.363 381.642 134.687L380.743 140.09C404.501 138.556 428.877 137.324 453.795 136.432L454.085 134.687C454.97 129.363 450.858 125.047 444.9 125.047ZM352.345 127.476C344 134.452 337.579 140.427 334.332 143.537C340.704 142.998 347.147 142.489 353.626 141.996L354.841 134.687C355.321 131.802 354.299 129.243 352.345 127.476Z" fill="#58595B"/>
<path d="M166.163 136.959H302.513C311.282 136.959 319.811 134.496 327.263 129.957H195.221C189.811 129.957 175.903 132.732 166.163 136.959Z" fill="#6D6E71"/>
<path opacity="0.5" d="M414.455 117.479C429.091 109.365 445.66 105.299 462.435 105.299H504.92C518.872 105.299 543.856 118.199 566.651 132.029C566.834 131.732 567 131.423 567.128 131.09C568.075 128.619 567.165 125.835 564.937 124.378C538.639 107.172 502.49 85.889 484.564 85.889H442.079C425.306 85.889 408.735 89.9556 394.099 98.0686C367.184 112.988 341.994 136.202 334.332 143.537C349.616 142.244 365.228 141.09 381.106 140.067C390.973 132.309 402.541 124.082 414.455 117.479Z" fill="white"/>
<path opacity="0.5" d="M226.658 128.414C251.183 116.558 277.993 110.377 305.147 110.377H353.788C365.033 102.569 377.838 94.6811 390.742 88.8098C391.813 88.3227 391.462 86.6995 390.288 86.6995H259.094C220.916 100.165 171.663 128.209 156.681 136.959H209.573C215.081 134.121 220.812 131.24 226.658 128.414Z" fill="white"/>
<path d="M499.378 248.811H367.621C362.775 248.811 358.833 244.802 358.833 239.874V162.066L350.072 139.596L351.084 139.187L359.922 161.96V239.874C359.922 244.191 363.375 247.703 367.621 247.703H499.378C505.51 247.703 510.822 243.734 512.597 237.827C517.588 221.219 529.579 192.538 553.808 187.064C561.704 185.518 567.543 179.026 568.353 170.907L570.138 153.022L560.583 131.661L561.574 131.203L571.251 152.836L569.437 171.02C568.578 179.629 562.386 186.512 554.029 188.148C530.354 193.497 518.561 221.772 513.639 238.152C511.723 244.527 505.992 248.811 499.378 248.811Z" fill="black"/>
<path d="M472.637 248.28L471.549 248.234L475.25 155.091L467.874 133.859L468.901 133.49L476.346 154.922L472.637 248.28Z" fill="black"/>
<path d="M565.526 123.446C551.63 114.355 535.362 104.384 520.375 96.8358C520.373 96.8337 520.368 96.8239 520.367 96.8217L520.357 96.8272C506.273 89.7352 493.319 84.7815 484.565 84.7815H442.08C424.881 84.7815 408.109 89.0403 393.578 97.0968C366.401 112.161 340.788 135.834 333.585 142.731C333.249 143.054 333.149 143.558 333.337 143.988C333.512 144.389 333.904 144.644 334.331 144.644C334.361 144.644 334.392 144.643 334.423 144.64C403.776 138.771 477.096 135.795 552.342 135.795C555.352 135.795 558.338 135.816 561.324 135.836L561.752 135.839C564.547 135.852 567.137 134.111 568.142 131.492C569.284 128.511 568.209 125.201 565.526 123.446ZM518.766 98.4646C519.956 100.8 524.845 111.539 527.205 133.701C508.616 133.868 490.175 134.233 471.885 134.767C468.378 107.602 463.814 92.0356 462.163 86.9962H484.565C492.877 86.9962 505.23 91.6814 518.766 98.4646ZM367.973 134.677L366.487 130.364C364.399 124.305 366.481 117.562 371.625 113.838C378.87 108.592 386.675 103.445 394.62 99.041C408.834 91.1607 425.245 86.9962 442.08 86.9962H455.317C456.308 89.9016 461.55 106.197 465.314 134.954C434.68 135.924 404.509 137.395 374.961 139.376C371.853 139.584 369.002 137.666 367.973 134.677ZM552.342 133.58C544.671 133.58 537.021 133.613 529.394 133.675C527.483 115.529 523.942 104.925 521.906 100.067C527.3 102.859 532.839 105.936 538.359 109.162C544.312 112.639 548.703 118.335 550.587 125.047L552.985 133.584C552.77 133.583 552.557 133.58 552.342 133.58Z" fill="black"/>
<path d="M630.437 166.2L632.336 171.293C635.704 180.328 643.2 186.898 652.147 189.149C653.004 177.741 652.994 169.193 652.994 169.193C652.994 165.523 652.545 162.255 651.929 159.459H635.014C631.59 159.458 629.223 162.943 630.437 166.2Z" fill="#5E189D"/>
<path d="M637.466 166.944L638.656 170.136C639.927 173.544 642.135 176.393 644.914 178.428C647.567 180.371 651.295 178.427 651.44 175.106C651.605 171.287 651.603 168.82 651.603 168.82C651.603 168.482 651.597 168.15 651.585 167.823C651.484 164.982 649.226 162.719 646.43 162.719H640.335C638.189 162.72 636.706 164.904 637.466 166.944Z" fill="#A155E6"/>
<path opacity="0.5" d="M632.694 162.783L633.752 164.486C634.881 166.305 636.844 167.825 639.315 168.912C641.674 169.949 644.989 168.911 645.117 167.139C645.265 165.1 645.262 163.784 645.262 163.784C645.262 163.603 645.257 163.426 645.246 163.251C645.157 161.735 643.149 160.527 640.663 160.527H635.244C633.336 160.528 632.017 161.693 632.694 162.783Z" fill="white"/>
<path d="M652.147 189.426C652.126 189.426 652.104 189.424 652.082 189.418C642.905 187.108 635.428 180.369 632.08 171.391L630.182 166.299C629.572 164.659 629.783 162.892 630.762 161.45C631.741 160.009 633.291 159.182 635.014 159.182H651.929C652.08 159.182 652.202 159.306 652.202 159.459C652.202 159.611 652.08 159.735 651.929 159.735H635.014C633.473 159.735 632.086 160.475 631.21 161.765C630.334 163.055 630.145 164.635 630.692 166.102L632.59 171.194C635.873 180.003 643.209 186.614 652.213 188.881C652.358 188.916 652.448 189.067 652.412 189.216C652.381 189.341 652.269 189.426 652.147 189.426Z" fill="black"/>
<path d="M391.57 152.754C391.56 152.72 391.549 152.69 391.538 152.656C391.301 151.875 391.05 151.121 390.772 150.417C390.687 150.199 390.59 150.01 390.501 149.801C390.281 149.287 390.064 148.766 389.823 148.306C389.477 147.642 389.111 147.036 388.722 146.502C388.715 146.493 388.711 146.481 388.704 146.472L377.784 131.561C376.878 130.324 375.916 129.825 375.008 129.986C373.494 130.255 372.132 132.362 371.432 135.952L371.194 137.174L369.43 146.215L358.015 134.642L357.161 141.21L389.108 174.714C390.907 176.635 392.807 174.338 393.2 169.768V169.767C393.706 163.867 393.042 157.649 391.57 152.754Z" fill="#939598"/>
<path d="M394.019 140.085H361.926L363.37 127.147C363.873 122.63 367.331 119.406 371.17 119.874L388.52 121.987C393.896 122.642 398.14 127.672 398.673 134.022C398.945 137.269 396.784 140.085 394.019 140.085Z" fill="#A155E6"/>
<path d="M390.041 140.085H357.161V135.217H385.598C388.052 135.217 390.041 137.24 390.041 139.735V140.085Z" fill="black"/>
<path d="M388.519 121.988L371.171 119.874C367.331 119.406 363.874 122.63 363.37 127.147L363.057 129.957H385.95C389.606 129.957 392.836 128.11 394.854 125.309C393.125 123.508 390.951 122.284 388.519 121.988Z" fill="#A155E6"/>
<path d="M324.126 20.2537C212.585 69.4036 108.923 44.1053 50.2175 73.6333C-33.4381 141.738 18.3375 144.12 2.19323 211.748C-12.304 272.478 47.6902 273.662 104.928 339.862C162.166 406.062 514.4 367.485 651.624 273.662C761.404 198.604 645.02 142.215 620.804 73.6333C576.041 20.2537 435.666 -28.8962 324.126 20.2537Z" fill="#5E189D" fill-opacity="0.05"/>
</svg>
