<svg width="582" height="582" viewBox="0 0 582 582" fill="none" xmlns="http://www.w3.org/2000/svg">
<path d="M582 0H0V582H582V0Z" fill="white"/>
<path d="M352.389 530.018C351.223 530.018 350.062 530.013 348.894 530C296.765 529.472 248.146 517.198 211.991 495.439C176.062 473.815 156.551 445.237 157.052 414.971C157.304 399.751 162.584 384.972 172.743 371.043C183.176 356.741 198.311 343.999 217.727 333.173C255.398 312.168 304.845 300.88 356.966 301.418C409.095 301.945 457.715 314.22 493.87 335.979C529.799 357.603 549.31 386.18 548.808 416.446C548.556 431.666 543.277 446.446 533.117 460.375C522.685 474.677 507.55 487.419 488.133 498.246C451.307 518.78 403.219 530.018 352.389 530.018ZM353.537 305.436C305.37 305.436 257.103 315.81 219.681 336.676C182.373 357.479 161.555 385.309 161.063 415.038C160.587 443.814 179.408 471.147 214.06 492.003C251.625 514.612 301.92 525.981 352.324 525.983C400.49 525.985 448.757 515.609 486.18 494.742C523.488 473.94 544.306 446.109 544.798 416.381C545.274 387.605 526.453 360.272 491.801 339.416C454.235 316.807 403.942 305.436 353.537 305.436Z" fill="#DFC3EE"/>
<path d="M108.251 435.437L257.295 349.138C263.752 345.41 262.935 338.837 255.479 334.533L249.055 330.824C241.599 326.519 230.215 326.047 223.758 329.775L74.713 416.073C68.256 419.801 69.0729 426.373 76.5289 430.678L82.9531 434.387C90.409 438.693 101.793 439.165 108.251 435.437Z" fill="#D2D6E2"/>
<path d="M105.21 408.212L262.961 316.34L262.953 318.656L105.204 410.528L105.21 408.212Z" fill="#B6B8CA"/>
<path d="M82.4082 372.006L240.159 280.135C241.606 294.09 251.413 309.674 262.96 316.341L105.21 408.213C93.662 401.545 83.8569 385.961 82.4082 372.006Z" fill="#DDDFEB"/>
<path d="M36.7349 148.663L194.485 56.7916C196.655 57.3588 198.908 58.3079 201.177 59.619L43.4268 151.49C41.157 150.179 38.9052 149.23 36.7349 148.663Z" fill="#DDDFEB"/>
<path d="M68.2485 191.098L225.999 99.2268L240.159 280.134L82.4081 372.006L68.2485 191.098Z" fill="#DDDFEB"/>
<path d="M43.4268 151.49L201.177 59.619C213.814 66.9152 224.485 83.9424 225.999 99.2278L68.2485 191.099C66.7353 175.814 56.0636 158.787 43.4268 151.49Z" fill="#E7E8F5"/>
<path d="M43.4268 151.49C56.0636 158.787 66.7343 175.814 68.2486 191.099L82.4092 372.006C83.8568 385.961 93.6629 401.545 105.211 408.212L105.205 410.528C92.6471 403.278 81.9869 386.336 80.4039 371.112L66.2433 190.2C64.8539 176.174 55.0414 160.519 43.4205 153.81C41.3327 152.605 39.2618 151.726 37.2661 151.21L36.7349 148.663C38.9052 149.23 41.157 150.179 43.4268 151.49Z" fill="#B6B8CA"/>
<path d="M87.0195 238.485L89.5094 268.67L115.08 253.482L112.59 223.298L87.0195 238.485ZM111.237 251.429L92.6702 262.457L90.8628 240.539L109.43 229.511L111.237 251.429Z" fill="#BDC0E6"/>
<path d="M209.331 171.353L123.111 222.59L122.675 217.307L208.897 166.071L209.331 171.353Z" fill="#C7C8D9"/>
<path d="M174.381 152.421L108.965 191.379L106.838 184.451L172.254 145.494L174.381 152.421Z" fill="#C7C8D9"/>
<path d="M190.933 127.321L105.015 178.512L102.888 171.585L188.806 120.394L190.933 127.321Z" fill="#C7C8D9"/>
<path d="M201.129 192.058L124.355 237.682L123.92 232.4L200.693 186.775L201.129 192.058Z" fill="#C7C8D9"/>
<path d="M90.8999 285.53L93.3898 315.716L118.961 300.528L116.471 270.342L90.8999 285.53ZM115.117 298.474L96.5506 309.501L94.7432 287.583L113.31 276.556L115.117 298.474Z" fill="#BDC0E6"/>
<path d="M213.212 218.398L126.991 269.634L126.555 264.352L212.777 213.116L213.212 218.398Z" fill="#C7C8D9"/>
<path d="M205.009 239.103L128.236 284.727L127.8 279.445L204.573 233.821L205.009 239.103Z" fill="#C7C8D9"/>
<path d="M94.7803 332.575L97.2702 362.761L122.84 347.573L120.35 317.387L94.7803 332.575ZM118.998 345.519L100.431 356.546L98.6236 334.628L117.19 323.6L118.998 345.519Z" fill="#BDC0E6"/>
<path d="M217.092 265.443L130.872 316.679L130.436 311.397L216.657 260.16L217.092 265.443Z" fill="#C7C8D9"/>
<path d="M208.889 286.147L132.116 331.772L131.68 326.49L208.453 280.866L208.889 286.147Z" fill="#C7C8D9"/>
<path d="M86.7637 251.474L90.6133 241.747L99.3042 243.623L112.493 210.312L119.014 211.459L101.478 255.159L86.7637 251.474Z" fill="#5E189D"/>
<path d="M90.6714 298.858L94.5211 289.13L103.213 291.007L116.401 257.695L122.922 258.842L105.385 302.544L90.6714 298.858Z" fill="#5E189D"/>
<path d="M94.5796 346.241L98.4303 336.513L107.121 338.391L120.31 305.079L126.831 306.226L109.295 349.927L94.5796 346.241Z" fill="#5E189D"/>
<path d="M475.398 347.42C540.29 386.476 538.063 448.71 470.427 486.425C402.79 524.14 295.354 523.053 230.462 483.998C165.57 444.942 167.795 382.708 235.433 344.994C303.071 307.278 410.507 308.365 475.398 347.42Z" fill="#DFC3EE"/>
<path d="M522.396 410.095C521.996 402.901 521.348 394.668 520.433 388.221C519.586 382.248 517.682 374.401 516.032 368.596C514.361 362.713 511.699 354.972 509.226 349.378C506.123 342.359 501.276 333.324 497.49 326.65C494.406 321.213 489.429 314.469 485.481 309.623C481.041 304.171 474.591 297.339 469.59 292.397C464.702 287.568 457.383 281.99 451.91 277.838C448.632 275.354 443.965 272.451 440.457 270.305H440.456C435.116 267.201 427.854 263.278 422.211 260.767C419.075 259.372 414.834 257.647 411.619 256.445C408.81 255.394 405.028 254.08 402.143 253.262C399.691 252.567 396.442 251.559 393.955 251.003C391.529 250.46 388.304 249.68 385.865 249.198C383.423 248.715 380.147 248.167 377.687 247.79C375.337 247.43 372.195 247.006 369.825 246.821C365.284 246.465 359.217 246.065 354.66 245.99C352.391 245.952 349.362 246.003 347.092 246.081C344.819 246.16 341.794 246.38 339.523 246.509C337.21 246.641 334.137 246.993 331.839 247.291C329.486 247.595 326.354 248.047 324.017 248.453C321.611 248.87 318.427 249.553 316.033 250.029C313.582 250.516 310.371 251.422 307.949 252.039C305.295 252.715 301.812 253.824 299.217 254.697C296.404 255.644 292.674 256.982 289.928 258.107C287.209 259.223 283.595 260.749 280.941 262.014C277.697 263.561 273.406 265.707 270.28 267.48C267.448 269.086 263.693 271.268 260.975 273.061C257.302 275.483 252.494 278.851 248.996 281.519C243.439 285.756 236.584 292.108 231.585 296.991C227.568 300.917 222.65 306.605 219.236 311.066C215.101 316.471 209.909 323.944 206.472 329.817C202.582 336.462 198.289 345.822 195.205 352.876C193.487 356.808 191.603 362.236 190.488 366.379C188.414 374.083 185.962 384.465 184.809 392.36C183.946 398.266 183.55 405.893 183.328 412.419C184.886 387.798 202.32 363.458 235.433 344.995C303.07 307.28 410.506 308.367 475.398 347.422C504.693 365.052 520.3 387.406 522.396 410.095Z" fill="#DFC3EE"/>
<path d="M183.329 412.418C183.249 413.679 183.209 414.942 183.214 416.204C183.246 415.003 183.285 413.731 183.329 412.418Z" fill="#F1D8FE"/>
<path d="M521.362 394.719C520.592 388.52 519.186 380.278 517.553 374.249C515.495 366.655 512.194 356.665 509.226 349.378C506.797 343.413 502.787 335.787 499.609 330.184C496.03 323.875 490.473 315.903 485.959 310.223C481.443 304.538 474.692 297.563 469.589 292.398C466.614 289.385 462.303 285.706 458.929 283.147C453.552 279.069 446.122 273.972 440.456 270.305C440.169 270.133 439.88 269.964 439.591 269.797C439.516 269.754 439.441 269.709 439.366 269.666C436.252 267.854 432.402 265.74 429.391 264.19C426.712 262.81 423.052 261.146 420.297 259.924C417.469 258.67 413.62 257.176 410.714 256.114C408.058 255.142 404.488 253.919 401.766 253.149C399.318 252.455 396.067 251.463 393.581 250.912C391.157 250.373 387.935 249.605 385.497 249.128C383.129 248.663 379.952 248.137 377.565 247.774C375.246 247.422 372.145 247.003 369.807 246.821C365.264 246.467 359.198 246.066 354.642 245.991C352.376 245.953 349.351 246.005 347.086 246.082C344.813 246.161 341.787 246.38 339.517 246.51C337.181 246.643 334.078 246.999 331.758 247.301C329.345 247.616 326.134 248.083 323.736 248.501C321.329 248.921 318.143 249.613 315.748 250.093C313.296 250.583 310.085 251.501 307.662 252.118C304.873 252.829 301.214 254.007 298.491 254.942C295.417 255.997 291.355 257.515 288.348 258.75C282.779 261.038 275.564 264.599 270.278 267.481C266.47 269.556 261.582 272.657 257.963 275.045C255.192 276.872 251.663 279.549 248.993 281.521C244.654 284.724 239.227 289.483 235.369 293.252C230.677 297.836 224.656 304.217 220.589 309.364C215.965 315.213 210.236 323.384 206.469 329.819C200.131 340.647 196.892 348.703 194.749 354.034C192.16 360.475 189.658 369.42 187.853 376.122C185.763 383.886 184.636 394.615 183.711 402.602C183.241 406.659 183.361 412.126 183.21 416.207C183.279 440.63 198.965 465.046 230.459 484.001C295.351 523.056 402.786 524.143 470.424 486.428C505.234 467.019 522.719 441.114 522.645 415.218C522.505 409.055 522.122 400.833 521.362 394.719Z" fill="#F1D8FE"/>
<path d="M454.124 291.687C466.276 309.135 458.571 324.829 436.914 326.74C415.256 328.651 387.848 316.056 375.695 298.607C363.543 281.159 371.247 265.465 392.905 263.554C414.563 261.643 441.972 274.238 454.124 291.687Z" fill="#DFC3EE"/>
<path d="M431.237 372.516C431.237 373.076 431.28 373.603 431.398 373.969C431.398 373.99 431.408 374.001 431.408 374.023C431.462 374.174 431.527 374.292 431.612 374.378C431.677 374.443 431.764 374.518 431.871 374.593C432.291 374.916 433.011 375.324 433.861 375.476C434.173 375.53 434.496 375.551 434.829 375.519H434.84C434.894 375.519 434.958 375.519 435.023 375.498H435.034C435.389 375.455 435.754 375.348 436.11 375.165C436.185 375.121 436.272 375.078 436.357 375.025H436.368C436.454 374.982 436.54 374.928 436.626 374.875C436.626 374.875 436.638 374.875 436.638 374.864C438.251 373.874 440.135 371.991 440.941 370.334C441.06 370.086 441.156 369.839 441.221 369.591C441.306 369.291 441.371 368.978 441.404 368.656C441.414 368.581 441.425 368.494 441.425 368.429C441.458 368.16 441.468 367.913 441.468 367.676C441.468 367.482 441.468 367.299 441.447 367.127C441.447 367.019 441.437 366.912 441.415 366.804C441.383 366.448 441.318 366.104 441.222 365.782C441.222 365.771 441.211 365.75 441.211 365.75C441.028 365.04 440.716 364.448 440.308 364.103C439.963 363.812 439.565 363.695 439.048 363.76C437.984 363.889 436.434 364.825 433.82 366.601C432.733 367.344 431.711 368.623 431.388 369.786C431.378 369.818 431.367 369.85 431.356 369.882C431.313 370.065 431.292 370.248 431.281 370.43C431.281 370.678 431.26 370.968 431.248 371.259V371.269C431.237 371.677 431.226 372.108 431.237 372.516Z" fill="#A155E6"/>
<path d="M433.367 371.515V371.87L433.378 371.881C433.367 371.902 433.367 371.924 433.378 371.956C433.388 372.741 433.517 373.474 433.765 374.044V374.055L433.776 374.065C433.98 374.56 434.281 374.925 434.69 375.109C435.121 375.302 435.669 375.302 436.347 375.011V375.001C436.433 374.969 436.53 374.925 436.626 374.871C436.626 374.871 436.638 374.871 436.638 374.861C438.51 373.893 440.167 372.117 440.942 370.331C441.06 370.083 441.156 369.836 441.221 369.588C441.318 369.298 441.371 369.007 441.404 368.717V368.653C441.415 368.577 441.425 368.491 441.425 368.426C441.458 368.157 441.469 367.91 441.469 367.673C441.469 367.479 441.469 367.296 441.447 367.123C441.447 367.027 441.447 366.919 441.426 366.834V366.823C441.395 366.403 441.318 366.059 441.222 365.78C441.222 365.769 441.211 365.748 441.211 365.748C441.05 365.296 440.824 365.038 440.587 364.994C440.458 364.973 440.286 364.984 440.071 365.016C439.167 365.166 437.639 365.823 436.585 366.716C435.294 367.814 433.411 369.073 433.367 371.515Z" fill="#A155E6"/>
<path d="M230.633 395.521L386.831 486.603C386.831 486.603 401.138 493.828 415.319 494.76C429.498 495.693 441.818 489.383 450.426 485.452C459.034 481.521 478.849 470.117 482.964 466.273C487.079 462.428 498.356 454.313 487.198 443.379C476.04 432.444 293.454 337.681 278.66 337.081C263.865 336.481 218.768 374.319 217.629 380.899C216.545 387.165 222.299 390.709 230.633 395.521Z" fill="#DFC3EE"/>
<path d="M370.079 463.384L382.346 455.7L411.439 474.016L417.608 410.408L244.855 348.56L242.741 382.523L247.991 390.286L261.191 381.186L317.632 419.595L370.079 463.384Z" fill="#292929"/>
<path d="M410.994 476.32L408.208 479.891L394.722 462.553L397.507 458.982L410.994 476.32Z" fill="#FFCC00"/>
<path d="M409.656 477.093L406.87 480.663L393.383 463.325L396.169 459.755L409.656 477.093Z" fill="#FFCC00"/>
<path d="M389.033 440.397L375.595 448.154L395.69 482.805L409.164 475.023L404.835 451.192L389.033 440.397Z" fill="#333333"/>
<path d="M399.698 473.77C399.698 482.775 393.336 486.402 385.489 481.872C377.642 477.341 371.281 466.368 371.281 457.363C371.281 448.358 377.643 444.732 385.489 449.263C393.337 453.793 399.698 464.766 399.698 473.77Z" fill="#A89560"/>
<path d="M291.208 395.686C291.208 404.691 284.847 408.317 277 403.787C269.153 399.256 262.792 388.284 262.792 379.279C262.792 370.274 269.154 366.647 277 371.177C284.847 375.71 291.208 386.682 291.208 395.686Z" fill="#333333"/>
<path d="M267.165 370.038L253.728 377.793L273.822 412.445L287.296 404.662L282.967 380.832L267.165 370.038Z" fill="#333333"/>
<path d="M487.093 446.784L486.444 447.646L487.135 447.649H487.734L487.222 449.441L484.605 449.758L484.458 449.676L473.882 443.89L473.331 443.617L471.739 442.698V434.962C471.739 424.429 464.297 411.594 455.118 406.292C445.935 400.993 438.492 405.236 438.492 415.769V423.501L350.231 372.546L349.871 372.309V364.602C349.871 354.069 342.43 341.231 333.25 335.931C324.07 330.632 316.626 334.875 316.626 345.409V350.548L316.405 350.403C316.405 350.403 315.68 349.939 314.481 349.166C309.313 345.824 295.377 336.704 293.346 334.261C290.842 331.247 288.974 324.14 288.974 324.14L289.037 323.66H289.04L290.036 316.006L292.464 314.666L293.601 306.18L292.464 303.956L295.407 301.257L295.62 296.774L297.631 296.236L311.702 300.553C311.702 300.553 324.618 304.106 339.558 308.03C354.5 311.958 366.946 319.41 373.354 322.936C379.765 326.465 388.979 331.435 400.545 340.9C412.111 350.364 423.083 361.987 428.583 368.558C434.079 375.124 440.149 382.328 440.149 382.328C440.149 382.328 450.235 390.066 460.554 397.197C470.867 404.328 476.136 411.782 481.029 416.435C485.921 421.085 489.204 426.004 489.204 426.004L489.232 426.454L489.941 441.508L489.374 443.752L487.093 446.784Z" fill="#A155E6"/>
<path d="M489.231 426.455L487.249 424.598L467.567 408.534C467.567 408.534 447.316 390.994 433.056 382.023C418.798 373.049 353.227 333.539 339.045 325.221C324.86 316.9 311.549 310.129 311.549 310.129L295.406 301.258L295.62 296.776L297.63 296.238L311.701 300.555C311.701 300.555 324.604 304.001 339.519 308.022C344.246 309.296 348.362 310.229 352.503 311.974C361.428 315.736 368.976 320.53 373.354 322.938C379.763 326.466 388.979 331.437 400.545 340.901C412.111 350.364 423.082 361.989 428.582 368.558C434.079 375.127 440.148 382.33 440.148 382.33C440.148 382.33 450.234 390.067 460.551 397.198C470.866 404.328 476.135 411.783 481.027 416.435C485.919 421.087 489.201 426.005 489.201 426.005L489.231 426.455Z" fill="#A155E6"/>
<path d="M431.833 416.752L359.403 373.352L344.323 338.252L340.705 326.526L341.405 322.277L342.366 322.435L341.704 326.459L345.236 337.916L360.174 372.677L431.095 415.173L431.81 410.661L431.815 406.891C431.826 406.802 433.02 397.895 432.797 391.442C432.594 385.599 432.571 382.676 432.569 382.119L430.255 376.587L431.154 376.21L433.544 381.922V382.02C433.544 382.048 433.547 384.922 433.771 391.407C433.99 397.743 432.866 406.381 432.786 406.988L432.78 410.775L431.833 416.752Z" fill="#A155E6"/>
<path d="M331.924 308.361C331.924 308.361 330.616 311.933 330.588 312.08C330.559 312.227 335.508 318.348 335.508 318.348L434.916 380.832L435.978 380.314C435.978 380.314 421.215 362.756 410.749 352.014C400.283 341.271 386.743 332.366 379.993 328.556C373.243 324.745 355.456 315.12 349.313 313.27C343.167 311.421 331.924 308.361 331.924 308.361Z" fill="#AE9C55"/>
<path d="M349.311 313.27L342.041 322.453L347.806 326.078L354.744 315.311L349.311 313.27Z" fill="#292929"/>
<path d="M467.566 408.533L465.102 409.199L471.699 417.013L478.944 422.674L480.726 422.615L485.618 426.528L487.248 424.597L477.009 415.247L467.566 408.533Z" fill="#F78459"/>
<path d="M489.277 427.158L487.495 430.113L487.249 436.567L489.942 441.51L489.277 427.158Z" fill="#A155E6"/>
<path d="M292.463 303.957L293.753 305.399L308.364 312.206L311.246 311.825L311.55 310.129L301.508 300.875L297.288 299.587L295.518 299.481L292.463 303.957Z" fill="#F78459"/>
<path d="M316.405 350.404C316.405 350.404 315.679 349.941 314.482 349.166C309.315 345.825 295.378 336.705 293.346 334.261C290.843 331.249 288.976 324.141 288.976 324.141L289.037 323.66L289.039 323.661L296.381 329.182L300.097 337.941L316.405 350.404Z" fill="#292929"/>
<path d="M290.037 316.007L291.781 317.884L313.768 332.084L310.507 327.764L299.3 319.858L292.995 316.148L292.464 315.471V314.666L290.037 316.007Z" fill="#A155E6"/>
<path d="M352.658 359.411C352.658 359.411 432.355 411.43 433.948 412.219C435.54 413.008 434.403 409.871 430.535 406.92C426.667 403.968 375.413 372.288 365.345 365.953C355.275 359.617 352.658 359.411 352.658 359.411Z" fill="#A155E6"/>
<path d="M486.869 434.256L478.261 425.507L471.794 420.787L481.92 428.135L486.869 434.256Z" fill="#A155E6"/>
<path d="M465.231 442.654C470.745 439.43 470.688 429.074 465.104 419.523C459.52 409.972 450.524 404.842 445.01 408.066C439.496 411.289 439.552 421.645 445.136 431.196C450.72 440.748 459.717 445.877 465.231 442.654Z" fill="#292929"/>
<path d="M347.457 363.211C347.457 372.216 341.095 375.843 333.248 371.313C325.4 366.782 319.039 355.809 319.039 346.804C319.039 337.799 325.4 334.173 333.248 338.703C341.095 343.234 347.457 354.206 347.457 363.211Z" fill="#292929"/>
<path d="M473.881 436.2V443.89L473.331 443.617L471.738 442.698V434.963C471.738 424.43 464.298 411.594 455.116 406.293C445.934 400.993 438.492 405.236 438.492 415.769V423.503L436.352 422.267V414.533C436.352 402.642 444.752 397.85 455.117 403.834C465.48 409.818 473.881 424.311 473.881 436.2Z" fill="#A155E6"/>
<path d="M352.015 365.841V373.575L350.231 372.546L349.871 372.31V364.604C349.871 354.071 342.428 341.233 333.249 335.934C324.068 330.633 316.625 334.876 316.625 345.41V350.55L316.404 350.404C316.404 350.404 315.678 349.941 314.481 349.166V344.171C314.481 332.281 322.884 327.49 333.249 333.474C343.612 339.456 352.015 353.951 352.015 365.841Z" fill="#A155E6"/>
<path d="M286.751 348.857L295.211 342.58L308.694 333.493L325.607 323.728L338.542 317.562L351.396 312.493L317.941 304.242L312.872 304.141L301.999 308.207L290.056 313.19L269.361 325.138L258.451 333.348L254.435 337.032V338.939L286.751 348.857Z" fill="#292929"/>
<path d="M348.47 312.691L347.997 312.878L338.186 316.743L335.315 318.113L325.192 322.938L308.22 332.735L294.712 341.84L286.583 347.874L276.165 344.677L255.328 338.277V337.426L259.024 334.037L269.855 325.885L290.453 313.992L302.342 309.029L313.022 305.038L315.448 305.087L317.825 305.132L331.845 308.588L340.295 310.675L348.47 312.691Z" fill="#37464E"/>
<path d="M487.947 438.213L487.029 445.463L487.093 446.784L487.111 447.173L487.135 447.649L487.222 449.44L482.429 456.156L473.509 464.144L452.553 476.243L435.472 483.268L422.109 485.848L417.608 482.709L418.443 480.665L425.835 462.59L471.739 436.09L489.203 426.006L487.947 438.213Z" fill="#A155E6"/>
<path d="M440.148 382.332C440.148 382.332 467.701 402.557 475.138 408.533C482.574 414.511 486.173 418.572 487.526 421.755C488.881 424.938 489.231 428.994 489.231 428.994L461.016 419.076L440.148 382.332Z" fill="#A155E6"/>
<path d="M489.202 426.006L481.585 434.572L475.993 439.281L454.076 451.937L441.786 457.551L425.835 462.591L384.493 432.646L370.53 422.532C370.526 422.528 370.521 422.528 370.521 422.528L440.15 382.332C440.15 382.332 456.546 394.1 468.373 403.415C474.959 408.601 480.667 415.018 484.44 419.688C487.436 423.402 489.202 426.006 489.202 426.006Z" fill="#A155E6"/>
<path d="M489.202 426.006L481.585 434.572L475.992 439.281L454.075 451.937L441.786 457.551L425.835 462.591L425.866 463.041L423.882 461.182L402.117 446.323C402.117 446.323 377.693 431.192 363.432 422.221C363.36 422.176 363.284 422.127 363.208 422.082L362.084 418.274L365.291 421.029C365.291 421.029 375.075 426.956 384.493 432.646C391.806 437.061 398.891 441.337 401.032 442.595C402.856 443.674 405.37 444.869 408.118 446.02C412.733 447.956 418.013 449.748 421.794 450.587C427.828 451.924 439.899 451.809 444.025 451.225C448.15 450.636 471.28 438.431 473.626 436.54C475.963 434.641 482.933 426.283 483.883 422.68C484.173 421.579 484.343 420.567 484.441 419.688C487.436 423.402 489.202 426.006 489.202 426.006Z" fill="#A155E6"/>
<path d="M446.445 453.774C445.781 450.762 381.909 419.945 381.946 419.796L382.737 419.582C382.737 419.582 434.974 443.998 442.43 449.743C445.438 451.64 446.724 452.534 446.445 453.774Z" fill="#A155E6"/>
<path d="M475.5 437.956L474.519 435.503L434.173 391.099L434.951 390.692L474.773 434.527L475.5 437.956Z" fill="#A155E6"/>
<path d="M482.909 429.357C482.909 429.357 477.231 436.974 475.335 438.475C471.795 441.279 458.685 448.898 453.406 451.223C448.126 453.548 442.657 455.927 433.131 455.584C434.61 457.829 441.968 459.405 441.968 459.405L463.162 448.457L478.796 439.043L482.909 429.357Z" fill="#A155E6"/>
<path d="M440.149 382.332L432.036 391.868L426.704 396.929L397.353 413.875L386.361 418.238L370.521 422.53L333.812 379.43L400.546 340.902L440.149 382.332Z" fill="#37464E"/>
<path d="M438.32 380.419L435.307 377.266L434.466 379.064C435.173 380.267 432.503 386.067 427.004 390.11C421.504 394.154 396.383 408.724 390.438 411.287C384.492 413.849 377.685 416.667 371.464 416.446C369.971 416.394 368.762 417.896 368.198 419.8L370.522 422.529L386.361 418.237L397.353 413.874L426.705 396.928L432.037 391.868L440.15 382.331L438.32 380.419Z" fill="#292929"/>
<path d="M347.997 312.878L338.187 316.745L335.315 318.114C334.414 316.998 330.588 312.237 330.588 312.08C330.61 311.955 331.555 309.373 331.845 308.588C331.894 308.445 331.925 308.361 331.925 308.361C331.925 308.361 335.831 309.422 340.296 310.675C342.896 311.402 345.683 312.195 347.997 312.878Z" fill="#566770"/>
<path d="M434.645 381.517L434.914 380.833L388.755 351.821C394.128 347.884 398.77 343.595 398.77 343.595C402.417 346.543 406.074 349.784 409.418 353.218C419.884 363.961 434.645 381.517 434.645 381.517Z" fill="#566770"/>
<path d="M432.547 376.752L432.297 376.719L421.312 373.931L397.126 389.226L393.27 399.142L368.735 412.402C368.739 412.406 368.742 412.411 368.745 412.415C368.868 412.57 368.988 412.723 369.108 412.871C369.11 412.874 369.113 412.877 369.116 412.88C369.599 413.485 370.046 414.03 370.462 414.513C370.467 414.518 370.472 414.524 370.476 414.529C370.553 414.619 370.628 414.704 370.703 414.789C370.735 414.826 370.768 414.863 370.8 414.899C370.864 414.972 370.927 415.041 370.99 415.111C371.031 415.155 371.072 415.201 371.112 415.244C371.17 415.308 371.227 415.367 371.283 415.427C371.326 415.472 371.367 415.516 371.408 415.56C371.462 415.616 371.514 415.669 371.567 415.722C371.61 415.765 371.653 415.807 371.695 415.849C371.744 415.896 371.792 415.943 371.84 415.988C371.883 416.029 371.927 416.07 371.97 416.109C372.015 416.15 372.059 416.19 372.104 416.228C372.147 416.267 372.19 416.304 372.234 416.34C372.275 416.374 372.316 416.408 372.356 416.441C372.401 416.477 372.444 416.51 372.488 416.542C372.525 416.569 372.562 416.598 372.599 416.624C372.644 416.656 372.688 416.685 372.732 416.714C372.765 416.735 372.798 416.759 372.829 416.778C372.878 416.807 372.925 416.833 372.972 416.858C372.998 416.872 373.024 416.888 373.05 416.9C373.122 416.936 373.929 417.188 373.997 417.214C377.385 416.505 380.385 415.96 382.263 415.24C382.263 415.24 386.141 414.13 391.053 411.975C396.782 409.459 404.072 405.603 410.632 401.694C424.057 393.696 427.61 390.441 427.61 390.441L433.698 383.958C434.303 382.778 434.607 381.5 434.647 380.217C434.149 379.361 433.435 378.184 432.547 376.752Z" fill="#63747D"/>
<path d="M368.198 364.163L350.333 369.892L334.64 378.952C337.08 382.132 341.51 387.565 348.47 394.937C360.114 407.273 366.369 418.387 372.611 421.285C372.868 421.404 373.199 421.543 373.596 421.696L386.363 418.237L397.354 413.874L407.182 408.199C385.006 377.834 368.198 364.163 368.198 364.163Z" fill="#1C2121"/>
<path d="M351.396 312.493L338.542 317.562L325.607 323.728L308.694 333.493L295.211 342.58L284.663 351.021L333.812 379.43L347.64 373.969L363.209 366.028L384.066 353.986L391.155 348.846L400.546 340.902L379.653 327.116L351.396 312.493Z" fill="#A155E6"/>
<path d="M295.62 296.776L283.784 300.754L272.209 305.685L245.487 321.114L235.762 328.481L229.22 335.111L249.465 341.59L258.451 333.348L269.361 325.138L290.056 313.19L301.999 308.207L317.005 302.596L295.62 296.776Z" fill="#A155E6"/>
<path d="M425.866 463.04L424.49 479.301L424.091 480.873L423.92 481.546L421.332 484.058H422.622L422.11 485.849L419.493 486.167L405.471 483.773L404.92 483.5L403.8 482.854L403.327 482.581L402.113 475.164C402.113 464.631 394.672 451.793 385.492 446.493C376.31 441.191 368.866 445.437 368.866 455.968L370.08 463.385L281.819 412.428L281.459 412.192L280.246 404.804C280.246 394.271 272.805 381.433 263.625 376.134C254.444 370.831 247.001 375.078 247.001 385.609L248.215 390.433L247.993 390.288C247.993 390.288 247.265 389.823 246.07 389.051C240.901 385.709 230.829 380.24 228.795 377.796C226.293 374.783 223.625 365.149 223.625 365.149L223.688 364.665L223.691 364.668L224.687 357.013L227.114 355.673L228.252 347.188L227.114 344.963L228.202 340.063L229.221 335.116L231.232 334.577L244.163 339.554C244.163 339.554 257.741 342.422 272.681 346.348C287.623 350.276 300.214 357.943 306.622 361.469C313.033 364.998 322.247 369.968 333.813 379.432C345.379 388.897 353.458 402.191 358.958 408.76C364.454 415.328 370.523 422.533 370.523 422.533C370.523 422.533 380.61 430.27 390.928 437.402C401.241 444.533 412.772 448.371 417.662 453.025C422.554 457.677 425.836 462.594 425.836 462.594L425.866 463.04Z" fill="#A155E6"/>
<path d="M282.359 404.824C280.577 383.014 279.92 378.226 269.87 371.096C259.821 363.965 252.398 366.856 249.114 369.68C245.83 372.504 244.855 378.765 244.855 384.371C248.062 376.314 247.255 374.409 253.275 372.636C259.295 370.862 265.404 376.248 265.404 376.248L272.104 382.109L277.83 390.955L282.359 404.824Z" fill="#A155E6"/>
<path d="M284.879 399.994C284.879 399.994 362.728 451.629 364.321 452.418C365.914 453.208 364.56 445.674 360.692 442.723C356.824 439.772 310.242 412.099 300.173 405.764C290.105 399.429 284.879 399.994 284.879 399.994Z" fill="#A155E6"/>
<path d="M425.865 463.041L423.881 461.182L402.115 446.323C402.115 446.323 377.692 431.192 363.43 422.221C363.359 422.176 363.283 422.127 363.207 422.082C348.505 412.848 283.528 373.699 269.418 365.418C255.233 357.101 241.923 350.327 241.923 350.327L228.201 340.062L229.218 335.111L231.23 334.576L244.162 339.548C244.162 339.548 257.74 342.42 272.679 346.344C287.622 350.273 300.21 357.943 306.623 361.465C313.031 364.992 322.248 369.965 333.812 379.428C345.379 388.896 355.543 400.984 361.041 407.553C366.539 414.122 370.521 422.528 370.521 422.528C370.521 422.528 370.526 422.528 370.53 422.532C370.9 422.733 382.855 429.172 393.014 436.195C398.476 439.972 403.694 443.161 408.117 446.019C412.051 448.557 415.36 450.831 417.66 453.02C422.552 457.671 425.834 462.591 425.834 462.591L425.865 463.041Z" fill="#A155E6"/>
<path d="M314.568 385.233L312.883 390.363C312.883 390.363 310.411 399.248 310.411 403.752C310.411 408.256 311.369 412.035 311.369 412.035L310.331 416.433L310.891 425.371L314.568 385.233Z" fill="#A155E6"/>
<path d="M315.054 394.897C314.435 395.649 314.077 396.909 314.35 397.628C314.647 398.412 320.09 401.728 320.635 401.861C321.18 401.995 321.585 400.49 321.506 400.027C321.427 399.563 315.054 394.897 315.054 394.897Z" fill="#A155E6"/>
<path d="M319.538 397.215L315.826 394.854C315.346 394.548 314.936 394.759 314.912 395.325L314.903 395.522C314.879 396.087 315.25 396.794 315.73 397.099L320.836 400.346C321.41 400.711 321.74 400.091 321.367 399.349C320.907 398.436 320.245 397.665 319.538 397.215Z" fill="#A155E6"/>
<path d="M316.391 396.367C316.379 396.672 316.158 396.785 315.899 396.62C315.64 396.456 315.441 396.075 315.455 395.771C315.467 395.466 315.689 395.353 315.947 395.518C316.205 395.683 316.404 396.063 316.391 396.367Z" fill="#383838"/>
<path d="M275.811 370.317C275.192 371.069 274.834 372.33 275.107 373.048C275.404 373.831 280.847 377.149 281.392 377.282C281.936 377.415 282.342 375.911 282.262 375.447C282.183 374.984 275.811 370.317 275.811 370.317Z" fill="#A155E6"/>
<path d="M280.295 372.637L276.583 370.276C276.103 369.97 275.693 370.181 275.669 370.747L275.66 370.944C275.636 371.509 276.006 372.215 276.487 372.521L281.592 375.769C282.167 376.134 282.497 375.514 282.123 374.772C281.662 373.858 281.001 373.085 280.295 372.637Z" fill="#A155E6"/>
<path d="M277.148 371.788C277.135 372.093 276.914 372.206 276.656 372.041C276.398 371.877 276.198 371.496 276.212 371.191C276.224 370.886 276.445 370.773 276.704 370.938C276.962 371.103 277.161 371.483 277.148 371.788Z" fill="#383838"/>
<path d="M417.66 453.021C415.36 450.832 412.051 448.558 408.118 446.02C405.37 444.87 402.855 443.674 401.032 442.595C398.891 441.338 391.806 437.061 384.493 432.646C375.075 426.956 365.291 421.029 365.291 421.029L362.084 418.274L363.208 422.082C363.284 422.127 363.36 422.176 363.432 422.221C377.693 431.193 402.117 446.323 402.117 446.323L423.882 461.182L425.866 463.041L425.835 462.591C425.835 462.591 422.552 457.672 417.66 453.021Z" fill="#A155E6"/>
<path d="M362.206 456.951L289.777 413.551L274.697 378.451L271.079 366.726L271.778 362.476L272.74 362.635L272.078 366.658L275.61 378.115L290.547 412.876L361.468 455.373L362.184 450.861L362.188 447.09C362.2 447.001 363.393 438.096 363.17 431.641C362.968 425.799 362.945 422.875 362.943 422.319L360.628 416.786L361.528 416.41L363.917 422.122V422.22C363.917 422.248 363.92 425.121 364.145 431.606C364.364 437.944 363.239 446.581 363.159 447.187L363.153 450.973L362.206 456.951Z" fill="#A155E6"/>
<path d="M262.297 348.56C262.297 348.56 260.989 352.132 260.961 352.279C260.932 352.426 265.881 358.547 265.881 358.547L365.289 421.032L366.35 420.513C366.35 420.513 354.481 401.286 344.014 390.542C333.548 379.799 320.008 370.895 313.258 367.084C306.508 363.274 288.721 353.649 282.578 351.799C276.434 349.949 262.297 348.56 262.297 348.56Z" fill="#292929"/>
<path d="M266.765 357.551C265.022 355.392 263.161 353.056 262.419 352.077C262.607 351.552 262.899 350.746 263.18 349.972C266.509 350.328 277.188 351.549 282.199 353.057C288.386 354.919 306.688 364.884 312.612 368.228C320.635 372.757 333.427 381.558 343.073 391.458C350.899 399.491 359.627 412.491 363.367 418.272L266.765 357.551Z" fill="#37464E"/>
<path d="M282.578 351.799L272.414 362.653L278.179 366.277L288.011 353.839L282.578 351.799Z" fill="#292929"/>
<path d="M317.459 370.748L312.893 387.033L316.725 389.462L320.647 372.347L317.459 370.748Z" fill="#292929"/>
<path d="M402.113 446.323L399.648 446.989L406.247 454.801L413.49 460.464L415.273 460.404L422.252 463.112L423.882 461.181L411.556 453.036L402.113 446.323Z" fill="#A155E6"/>
<path d="M425.91 463.743L424.129 466.698L421.795 474.355L424.487 479.3L425.91 463.743Z" fill="#A155E6"/>
<path d="M240.005 349.97L239.875 350.692L239.701 351.669L236.821 352.049L228.312 346.684L227.113 344.962L228.312 338.283L229.275 338.853L229.994 339.464L231.88 341.074L240.005 349.97Z" fill="#C3C2CE"/>
<path d="M247.991 390.286C247.991 390.286 247.265 389.823 246.069 389.048C240.901 385.707 230.828 380.238 228.795 377.792C226.292 374.78 223.625 365.145 223.625 365.145L223.686 364.663L223.688 364.664L226.754 369.381L231.683 377.823L247.991 390.286Z" fill="#292929"/>
<path d="M224.686 357.01C223.335 351.841 228.049 348.695 228.049 348.695C228.049 348.695 227.114 354.866 227.114 355.67C227.999 356.768 232.496 363.176 240.773 368.497C242.418 371.008 244.142 372.282 244.142 372.282C244.142 372.282 229.212 362.305 225.862 359.62C222.511 356.936 224.686 357.01 224.686 357.01Z" fill="#A155E6"/>
<path d="M399.697 473.77C399.697 482.775 393.336 486.402 385.488 481.872C377.641 477.342 371.279 466.368 371.279 457.364C371.279 448.359 377.641 444.733 385.488 449.263C393.337 453.793 399.697 464.766 399.697 473.77Z" fill="#292929"/>
<path d="M273.735 412.498C279.249 409.275 279.193 398.919 273.609 389.367C268.025 379.816 259.029 374.687 253.515 377.91C248.001 381.134 248.057 391.49 253.641 401.041C259.225 410.592 268.221 415.722 273.735 412.498Z" fill="#292929"/>
<path d="M282.389 406.04L283.602 413.457L281.818 412.427L281.459 412.191L280.245 404.803C280.245 394.27 272.802 381.432 263.623 376.133C254.442 370.832 246.999 375.076 246.999 385.609L248.213 390.433L247.991 390.287C247.991 390.287 247.266 389.824 246.069 389.049L244.855 384.371C244.855 372.48 253.258 367.69 263.623 373.674C273.985 379.655 282.389 394.149 282.389 406.04Z" fill="#A155E6"/>
<path d="M398.155 341.073C398.155 341.073 413.275 354.239 421.78 363.899C427.822 370.762 431.842 375.68 434.467 379.065C438.01 383.634 432.869 391.685 432.869 391.685L440.259 382.511L423.633 362.934L400.545 340.902L398.155 341.073Z" fill="#A155E6"/>
<path d="M254.434 337.032V338.939L286.751 348.857L295.21 342.58L284.978 350.894L249.114 341.238L254.434 337.032Z" fill="#A155E6"/>
<path d="M350.358 312.902L350.515 312.493L317.941 304.242L312.467 304.133L317.098 302.33L351.747 312.427L350.358 312.902Z" fill="#A155E6"/>
<path d="M399.698 473.77C399.698 482.775 393.336 486.402 385.489 481.872C377.642 477.341 371.281 466.368 371.281 457.363C371.281 448.358 377.643 444.732 385.489 449.263C393.337 453.793 399.698 464.766 399.698 473.77Z" fill="#393843"/>
<path d="M398.812 473.607C398.812 482.27 392.693 485.758 385.144 481.4C377.595 477.041 371.475 466.486 371.475 457.825C371.475 449.162 377.595 445.673 385.144 450.031C392.693 454.39 398.812 464.945 398.812 473.607Z" fill="#2D2C37"/>
<path d="M396.882 472.534C396.882 479.911 391.671 482.882 385.242 479.171C378.814 475.459 373.602 466.471 373.602 459.094C373.602 451.718 378.814 448.746 385.242 452.458C391.671 456.169 396.882 465.158 396.882 472.534Z" fill="#504F58"/>
<path d="M396.518 471.766C396.518 478.757 391.579 481.573 385.487 478.056C379.394 474.538 374.455 466.019 374.455 459.028C374.455 452.036 379.394 449.22 385.487 452.738C391.58 456.255 396.518 464.775 396.518 471.766Z" fill="#BABABE"/>
<path d="M375.246 461.139C375.709 465.152 377.72 469.732 380.894 473.378C384.067 477.014 387.656 478.845 390.536 478.666C391.811 478.582 392.945 478.11 393.832 477.213C394.125 476.938 394.39 476.608 394.616 476.231C394.664 476.155 394.711 476.089 394.749 476.014C394.91 475.74 395.05 475.456 395.165 475.154C395.325 474.758 395.458 474.343 395.561 473.898C395.74 473.114 395.826 472.264 395.826 471.377C395.826 470.97 395.807 470.556 395.77 470.14C395.76 469.923 395.732 469.714 395.703 469.507C395.684 469.365 395.665 469.223 395.646 469.081C395.627 468.949 395.608 468.817 395.58 468.685C395.515 468.288 395.439 467.881 395.335 467.476C395.287 467.278 395.241 467.089 395.184 466.891C395.146 466.721 395.099 466.561 395.042 466.4C394.976 466.164 394.9 465.919 394.815 465.683C394.759 465.503 394.702 465.324 394.637 465.153C394.362 464.388 394.042 463.633 393.674 462.877C393.599 462.716 393.522 462.566 393.447 462.415C393.183 461.905 392.909 461.404 392.607 460.904C392.532 460.781 392.456 460.658 392.381 460.536C392.239 460.309 392.087 460.083 391.947 459.865C391.379 459.015 390.756 458.193 390.086 457.419C389.747 457.032 389.406 456.664 389.057 456.324C388.896 456.154 388.727 455.994 388.566 455.843C388.518 455.795 388.462 455.748 388.414 455.701C388.282 455.578 388.14 455.455 388.008 455.342C386.365 453.916 384.684 452.953 383.097 452.471C380.301 451.631 377.799 452.283 376.364 454.567C376.316 454.633 376.27 454.709 376.232 454.775C375.958 455.237 375.75 455.747 375.58 456.286C375.143 457.702 375.039 459.364 375.246 461.139Z" fill="url(#paint0_linear_98_495)"/>
<path d="M388.883 457.786L388.987 460.884C390.149 460.79 391.301 460.676 392.377 460.535C392.236 460.308 392.084 460.082 391.944 459.864C391.376 459.014 390.753 458.192 390.083 457.418C389.744 457.031 389.403 456.663 389.054 456.323C388.893 456.153 388.724 455.993 388.563 455.841C388.515 455.794 388.459 455.747 388.411 455.7C388.279 455.577 388.137 455.454 388.005 455.341C386.362 453.915 384.681 452.952 383.094 452.47C380.298 451.63 377.796 452.282 376.361 454.566C384.379 451.818 388.883 457.786 388.883 457.786Z" fill="#393843"/>
<path d="M375.908 461.092C375.908 461.092 378.581 464.634 381.329 465.568C384.077 466.503 389.394 472.934 389.394 472.934L388.987 460.884C382.707 461.357 375.908 461.092 375.908 461.092Z" fill="#393843"/>
<path d="M381.413 459.014C381.81 462.46 383.538 466.399 386.267 469.525C387.768 471.253 389.392 472.509 390.951 473.245V473.255C392.217 473.859 393.435 474.133 394.539 474.068C394.624 474.068 394.709 474.058 394.795 474.039C395.059 474.02 395.314 473.972 395.56 473.897C395.738 473.113 395.824 472.263 395.824 471.376C395.824 470.969 395.805 470.554 395.768 470.139C395.758 469.922 395.73 469.713 395.701 469.506C395.682 469.364 395.663 469.222 395.644 469.08C395.625 468.948 395.606 468.816 395.579 468.684C395.513 468.287 395.437 467.88 395.333 467.475C395.286 467.277 395.239 467.088 395.182 466.89C395.144 466.72 395.097 466.56 395.04 466.399C394.974 466.163 394.898 465.917 394.814 465.681C394.757 465.502 394.7 465.323 394.635 465.152C394.361 464.387 394.04 463.632 393.672 462.876C393.597 462.715 393.52 462.565 393.445 462.414C393.181 461.904 392.907 461.403 392.605 460.903C392.398 460.554 392.17 460.204 391.944 459.864C391.377 459.014 390.753 458.192 390.083 457.418C389.744 457.031 389.403 456.663 389.054 456.323C388.893 456.153 388.724 455.993 388.563 455.841C388.515 455.794 388.459 455.747 388.412 455.7C388.279 455.577 388.137 455.454 388.005 455.341C386.362 453.914 384.681 452.952 383.094 452.47C382.783 452.773 382.499 453.131 382.254 453.556C382.028 453.953 381.838 454.377 381.697 454.85C381.499 455.521 381.377 456.257 381.339 457.04C381.309 457.673 381.338 458.335 381.413 459.014Z" fill="url(#paint1_linear_98_495)"/>
<path d="M389.35 464.801L389.091 467.221V467.231L389.35 464.801L391.235 463.708L392.604 460.903C392.397 460.554 392.169 460.204 391.943 459.864C391.376 459.014 390.752 458.192 390.082 457.418C389.743 457.031 389.402 456.663 389.053 456.323C388.892 456.153 388.723 455.993 388.562 455.841C388.514 455.794 388.458 455.747 388.411 455.7C388.042 455.917 387.74 456.106 387.722 456.125L390.08 458.838L389.35 464.801Z" fill="url(#paint2_linear_98_495)"/>
<path d="M389.35 464.801L389.091 467.221V467.231L390.951 473.246L391.782 475.956C392.065 476.551 391.225 477.901 391.611 477.826C392.235 477.703 393.784 476.787 394.615 476.23C394.662 476.155 394.709 476.089 394.747 476.014C394.908 475.74 395.048 475.456 395.163 475.154C395.144 475.013 395.096 474.871 395.021 474.72L394.794 474.04L391.394 464.03L391.234 463.709L389.35 464.801Z" fill="url(#paint3_linear_98_495)"/>
<path d="M377.982 455.81C378.141 455.726 378.355 455.745 378.588 455.878L387.615 459.7L387.867 459.845L387.877 464.69L385.872 463.537L378.391 460.604C377.925 460.336 377.543 459.694 377.516 459.144C377.466 458.086 375.834 457.855 376.036 456.94C376.073 456.766 377.862 455.873 377.982 455.81Z" fill="url(#paint4_linear_98_495)"/>
<path d="M387.479 468.637L391.401 460.577C391.593 460.242 391.475 459.63 391.117 459.144C390.745 458.639 390.352 458.147 389.937 457.672C389.523 457.198 389.101 456.755 388.675 456.344C388.264 455.949 387.814 455.911 387.623 456.246L383.701 464.306L387.479 468.637Z" fill="#DFDFE3"/>
<path d="M385.987 465.781L385.977 460.936L385.724 460.791L376.698 456.969C376.291 456.736 375.935 456.854 375.846 457.259C375.645 458.175 375.574 459.178 375.625 460.236C375.652 460.786 376.034 461.428 376.5 461.696L383.981 464.629L385.987 465.781Z" fill="#DFDFE3"/>
<path d="M393.105 477.044C393.369 476.839 393.378 476.324 393.132 475.808L389.503 465.122L389.35 464.8L385.988 465.781L387.198 468.313L389.895 477.047C390.176 477.638 390.699 478.034 391.086 477.958C391.83 477.811 392.511 477.509 393.105 477.044Z" fill="#DFDFE3"/>
<path d="M391.089 476.763C391.046 476.715 390.992 476.643 390.945 476.546L388.18 467.668L384.733 463.714L377.084 460.685C376.973 460.621 376.799 460.344 376.791 460.179C376.761 459.551 376.778 458.955 376.842 458.394L386.155 462.38L388.225 457.535C388.508 457.823 388.789 458.125 389.06 458.436C389.448 458.881 389.824 459.35 390.18 459.833C390.261 459.942 390.303 460.051 390.32 460.121L388.19 465.071C388.19 465.071 392.09 476.326 392.093 476.333C391.785 476.526 391.45 476.67 391.089 476.763Z" fill="#4B4A4B"/>
<path d="M277.831 403.41C277.831 412.415 271.469 416.041 263.622 411.511C255.774 406.98 249.414 396.008 249.414 387.002C249.414 377.997 255.775 374.371 263.622 378.902C271.469 383.433 277.831 394.406 277.831 403.41Z" fill="#2D2C37"/>
<path d="M277.83 403.41C277.83 412.415 271.468 416.041 263.621 411.511C255.773 406.98 249.413 396.008 249.413 387.002C249.413 377.997 255.774 374.371 263.621 378.902C271.469 383.433 277.83 394.406 277.83 403.41Z" fill="#393843"/>
<path d="M276.945 403.247C276.945 411.909 270.825 415.398 263.276 411.039C255.727 406.68 249.607 396.125 249.607 387.464C249.607 378.802 255.727 375.313 263.276 379.67C270.825 384.029 276.945 394.584 276.945 403.247Z" fill="#2D2C37"/>
<path d="M275.014 402.174C275.014 409.55 269.803 412.522 263.374 408.811C256.946 405.098 251.734 396.11 251.734 388.734C251.734 381.357 256.946 378.386 263.374 382.098C269.803 385.809 275.014 394.797 275.014 402.174Z" fill="#504F58"/>
<path d="M274.65 401.405C274.65 408.397 269.71 411.213 263.618 407.695C257.525 404.178 252.587 395.658 252.587 388.667C252.587 381.676 257.525 378.86 263.618 382.377C269.711 385.895 274.65 394.414 274.65 401.405Z" fill="#BABABE"/>
<path d="M253.378 390.779C253.841 394.793 255.852 399.373 259.026 403.018C262.199 406.654 265.788 408.486 268.668 408.307C269.943 408.222 271.076 407.749 271.964 406.853C272.257 406.579 272.522 406.249 272.748 405.871C272.796 405.796 272.843 405.729 272.881 405.654C273.042 405.38 273.182 405.096 273.297 404.795C273.457 404.398 273.59 403.983 273.693 403.539C273.873 402.755 273.958 401.905 273.958 401.017C273.958 400.611 273.939 400.196 273.902 399.78C273.892 399.563 273.864 399.355 273.835 399.147C273.816 399.005 273.797 398.864 273.778 398.722C273.759 398.59 273.74 398.457 273.712 398.325C273.647 397.928 273.571 397.522 273.467 397.117C273.419 396.919 273.373 396.729 273.316 396.531C273.277 396.361 273.231 396.201 273.174 396.04C273.108 395.804 273.032 395.559 272.947 395.323C272.891 395.143 272.834 394.964 272.767 394.794C272.493 394.029 272.173 393.273 271.804 392.518C271.729 392.357 271.653 392.207 271.578 392.055C271.313 391.545 271.039 391.045 270.738 390.544C270.663 390.421 270.587 390.299 270.511 390.176C270.37 389.949 270.218 389.723 270.076 389.505C269.51 388.655 268.887 387.833 268.216 387.06C267.876 386.672 267.536 386.304 267.187 385.964C267.026 385.794 266.856 385.634 266.696 385.483C266.648 385.435 266.592 385.389 266.544 385.341C266.412 385.218 266.27 385.096 266.138 384.982C264.495 383.556 262.814 382.593 261.227 382.112C258.431 381.271 255.929 381.923 254.494 384.208C254.446 384.273 254.4 384.35 254.361 384.415C254.087 384.878 253.88 385.388 253.71 385.926C253.275 387.341 253.171 389.003 253.378 390.779Z" fill="url(#paint5_linear_98_495)"/>
<path d="M267.015 387.426L267.119 390.523C268.281 390.429 269.433 390.316 270.509 390.174C270.368 389.947 270.216 389.721 270.074 389.503C269.508 388.653 268.885 387.831 268.214 387.058C267.875 386.67 267.534 386.302 267.185 385.962C267.024 385.792 266.854 385.632 266.694 385.481C266.646 385.433 266.59 385.387 266.542 385.339C266.41 385.216 266.268 385.094 266.136 384.98C264.493 383.554 262.812 382.591 261.225 382.109C258.429 381.269 255.927 381.921 254.492 384.206C262.511 381.458 267.015 387.426 267.015 387.426Z" fill="#393843"/>
<path d="M254.04 390.731C254.04 390.731 256.713 394.273 259.461 395.208C262.209 396.143 267.525 402.574 267.525 402.574L267.119 390.524C260.839 390.996 254.04 390.731 254.04 390.731Z" fill="#393843"/>
<path d="M259.544 388.654C259.941 392.101 261.669 396.039 264.398 399.165C265.9 400.893 267.524 402.149 269.082 402.886V402.895C270.347 403.5 271.565 403.774 272.67 403.708C272.755 403.708 272.841 403.698 272.925 403.679C273.19 403.66 273.445 403.613 273.69 403.538C273.87 402.754 273.955 401.904 273.955 401.016C273.955 400.61 273.936 400.195 273.899 399.779C273.889 399.562 273.861 399.354 273.832 399.146C273.813 399.004 273.794 398.863 273.775 398.721C273.756 398.589 273.737 398.456 273.709 398.324C273.644 397.927 273.568 397.521 273.464 397.116C273.416 396.918 273.37 396.728 273.312 396.53C273.274 396.36 273.228 396.2 273.171 396.039C273.105 395.803 273.029 395.558 272.944 395.322C272.888 395.142 272.831 394.963 272.764 394.793C272.49 394.028 272.17 393.272 271.801 392.517C271.726 392.356 271.65 392.206 271.575 392.054C271.31 391.544 271.036 391.044 270.735 390.543C270.527 390.194 270.301 389.845 270.073 389.504C269.507 388.654 268.884 387.832 268.213 387.059C267.873 386.671 267.533 386.303 267.183 385.963C267.023 385.793 266.853 385.633 266.692 385.482C266.645 385.434 266.589 385.388 266.541 385.34C266.409 385.217 266.267 385.095 266.135 384.981C264.491 383.555 262.811 382.592 261.224 382.111C260.912 382.412 260.629 382.772 260.384 383.196C260.157 383.593 259.968 384.017 259.827 384.49C259.629 385.161 259.506 385.898 259.468 386.681C259.441 387.313 259.469 387.974 259.544 388.654Z" fill="url(#paint6_linear_98_495)"/>
<path d="M267.482 394.44L267.223 396.86V396.87L267.482 394.44L269.367 393.347L270.736 390.542C270.529 390.193 270.302 389.844 270.075 389.503C269.508 388.653 268.885 387.831 268.214 387.057C267.875 386.67 267.534 386.302 267.185 385.962C267.024 385.792 266.855 385.632 266.694 385.481C266.646 385.433 266.59 385.387 266.542 385.339C266.174 385.556 265.872 385.745 265.854 385.764L268.212 388.478L267.482 394.44Z" fill="url(#paint7_linear_98_495)"/>
<path d="M267.482 394.44L267.223 396.86V396.87L269.083 402.886L269.914 405.596C270.197 406.19 269.357 407.541 269.743 407.466C270.367 407.343 271.916 406.426 272.746 405.87C272.794 405.795 272.841 405.728 272.879 405.653C273.039 405.379 273.18 405.095 273.295 404.794C273.275 404.652 273.228 404.51 273.153 404.36L272.926 403.679L269.526 393.669L269.365 393.348L267.482 394.44Z" fill="url(#paint8_linear_98_495)"/>
<path d="M256.113 385.449C256.271 385.365 256.487 385.383 256.719 385.518L265.745 389.339L265.998 389.484L266.008 394.329L264.003 393.176L256.522 390.244C256.056 389.975 255.674 389.334 255.647 388.783C255.596 387.725 253.965 387.495 254.167 386.579C254.205 386.406 255.994 385.513 256.113 385.449Z" fill="url(#paint9_linear_98_495)"/>
<path d="M265.611 398.276L269.532 390.216C269.725 389.882 269.606 389.269 269.249 388.782C268.877 388.278 268.484 387.786 268.069 387.31C267.655 386.836 267.233 386.393 266.806 385.982C266.396 385.588 265.946 385.55 265.755 385.884L261.833 393.944L265.611 398.276Z" fill="#DFDFE3"/>
<path d="M264.119 395.421L264.109 390.576L263.856 390.431L254.83 386.61C254.422 386.376 254.067 386.495 253.978 386.9C253.777 387.815 253.706 388.818 253.757 389.876C253.783 390.427 254.166 391.068 254.632 391.337L262.112 394.269L264.119 395.421Z" fill="#DFDFE3"/>
<path d="M271.237 406.684C271.5 406.478 271.51 405.963 271.263 405.448L267.635 394.761L267.481 394.439L264.12 395.42L265.33 397.953L268.026 406.687C268.308 407.277 268.831 407.673 269.218 407.597C269.962 407.452 270.643 407.148 271.237 406.684Z" fill="#DFDFE3"/>
<path d="M269.222 406.402C269.178 406.353 269.124 406.283 269.078 406.185L266.313 397.307L262.865 393.354L255.215 390.324C255.104 390.261 254.931 389.983 254.922 389.818C254.893 389.191 254.91 388.594 254.973 388.033L264.286 392.019L266.356 387.174C266.64 387.463 266.92 387.764 267.191 388.075C267.579 388.52 267.955 388.99 268.312 389.472C268.392 389.581 268.434 389.69 268.451 389.76L266.321 394.709C266.321 394.709 270.222 405.964 270.225 405.971C269.918 406.165 269.582 406.309 269.222 406.402Z" fill="#4B4A4B"/>
<path d="M424.487 479.3L444.594 476.763L480.765 456.018L487.946 438.213L488.353 434.256L473.881 444.561L459.482 454.108L440.907 463.428L425.909 463.743L424.487 479.3Z" fill="#A155E6"/>
<path d="M437.191 470.182L449.813 458.741C449.813 458.741 458.196 454.836 464.896 451.071C471.597 447.305 476.303 443.749 476.303 443.749L484.142 442.598C484.142 442.598 476.546 450.407 473.943 453.373C471.721 455.903 448.325 468.281 444.735 468.476C442.604 468.591 437.191 470.182 437.191 470.182Z" fill="#A155E6"/>
<path d="M422.252 463.112H429.862H440.149L445.733 458.183L446.982 455.176L435.311 457.536L421.046 455.728L402.113 446.323L412.802 456.85L422.252 463.112Z" fill="#A155E6"/>
<path d="M441.971 457.172C441.422 457.742 437.627 460.615 434.381 461.915C434.152 462.006 433.928 462.086 433.71 462.161C433.187 462.337 432.686 462.465 432.228 462.518C432.105 462.533 431.983 462.544 431.865 462.549C428.769 462.683 424.905 462.677 421.791 462.326C419.601 462.081 411.915 458.984 409.682 456.783C407.304 454.438 405.796 451.874 405.796 451.874L407.261 449.988C407.261 449.988 407.32 449.988 407.421 449.988C407.469 449.993 407.533 449.993 407.608 449.998C407.655 449.998 407.704 450.003 407.762 450.009C407.821 450.014 407.879 450.014 407.948 450.019C407.975 450.025 408.012 450.03 408.045 450.03C408.082 450.035 408.119 450.041 408.162 450.041C408.759 450.1 409.585 450.221 410.374 450.478C410.874 450.643 411.844 451.021 413.103 451.49C413.241 451.544 413.38 451.597 413.529 451.65C415.928 452.54 419.254 453.686 422.557 454.353C426.699 455.179 432.621 455.44 436.986 455.989C437.135 456.01 437.284 456.026 437.433 456.047H437.439C438.046 456.132 438.622 456.217 439.155 456.319C439.539 456.383 439.891 456.457 440.226 456.537L441.971 457.172Z" fill="#C3C2CE"/>
<path d="M422.559 454.352C426.701 455.178 432.623 455.439 436.988 455.987C435.549 457.059 433.646 458.29 431.956 458.775C428.716 459.708 421.429 458.983 421.429 458.983C421.429 458.983 413.035 456.019 412.991 455.263C412.959 454.735 413.316 452.768 413.53 451.649C415.929 452.539 419.255 453.686 422.559 454.352Z" fill="white"/>
<path d="M441.969 457.173C441.421 457.739 437.63 460.615 434.384 461.913C434.152 462.007 433.929 462.087 433.711 462.159C433.175 462.338 432.676 462.462 432.23 462.52C432.106 462.533 431.985 462.546 431.87 462.55C428.77 462.684 424.905 462.675 421.796 462.327C419.602 462.082 411.919 458.982 409.684 456.78C407.307 454.434 405.795 451.875 405.795 451.875L407.263 449.984C407.263 449.984 407.321 449.984 407.423 449.989C407.472 449.993 407.535 449.993 407.611 449.997C407.659 449.997 407.709 450.001 407.766 450.006C407.825 450.01 407.883 450.014 407.949 450.019C407.98 450.024 408.016 450.028 408.048 450.028C408.088 450.028 408.128 450.032 408.168 450.036L408.164 450.04L406.791 451.641C406.791 451.641 409.167 455.321 410.996 456.497C412.824 457.679 421.797 460.698 421.797 460.698C421.797 460.698 429.311 461.194 431.817 460.698C433.863 460.297 437.784 457.381 439.157 456.315C439.54 456.382 439.897 456.458 440.231 456.539L441.969 457.173Z" fill="#A155E6"/>
<path d="M488.964 427.91C488.884 427.91 488.517 430.314 487.781 432.947C487.659 433.389 487.313 433.794 486.971 434.189C486.39 434.866 480.665 438.587 477.579 438.459L477.499 438.453L478.991 436.3L479.087 436.167C479.093 436.156 479.103 436.151 479.109 436.14C481.801 433.049 484.577 428.374 486.101 426.221C486.485 425.677 486.724 424.739 486.858 423.855C487.001 422.928 487.028 422.054 486.986 421.739C486.926 421.324 486.549 420.556 486.096 419.762C485.387 418.526 484.513 417.229 484.423 417.102C484.577 417.283 486.56 419.64 487.685 422.331C488.853 425.128 488.964 427.91 488.964 427.91Z" fill="#C3C2CE"/>
<path d="M436.929 468.802L449.551 457.361C449.551 457.361 457.915 453.083 464.615 449.317C471.315 445.551 476.022 441.994 476.022 441.994L483.88 441.217C483.88 441.217 476.285 449.026 473.68 451.992C471.459 454.522 448.064 466.901 444.472 467.095C442.341 467.212 436.929 468.802 436.929 468.802Z" fill="#292929"/>
<path d="M479.028 441.697C476.571 444.246 472.939 448.048 471.294 449.921C469.073 452.451 445.678 464.83 442.086 465.024C441.768 465.041 441.375 465.092 440.939 465.165L436.928 468.801C436.928 468.801 442.341 467.211 444.47 467.095C448.062 466.901 471.457 454.522 473.678 451.992C476.283 449.026 483.878 441.217 483.878 441.217L479.028 441.697Z" fill="#A155E6"/>
<path d="M483.88 433.394C483.875 433.4 483.875 433.405 483.869 433.41C482.467 434.961 480.815 436.08 479.094 436.166C479.099 436.155 479.104 436.15 479.11 436.139C479.168 436.043 479.238 435.942 479.317 435.825C480.751 433.608 484.37 427.383 485.361 425.837C485.596 425.468 485.809 425.075 485.99 424.654C486.272 423.992 486.475 423.284 486.55 422.581C486.657 421.723 486.576 420.87 486.241 420.124C486.172 419.969 486.123 419.846 486.097 419.761C485.82 418.902 487.573 421.568 487.813 424.547C487.985 426.636 486.332 430.67 483.88 433.394Z" fill="#C3C2CE"/>
<path d="M487.078 426.455C487.078 428.512 484.903 431.593 483.88 433.394C483.875 433.4 483.875 433.405 483.869 433.41C483.011 434.918 481.375 436.272 478.992 436.299L479.088 436.166C479.094 436.155 479.104 436.15 479.11 436.139C479.168 436.043 479.238 435.942 479.317 435.825C480.751 433.608 484.37 427.383 485.361 425.837C485.596 425.468 485.809 425.075 485.99 424.654C486.272 423.992 486.475 423.284 486.55 422.581C486.678 422.965 486.779 423.402 486.859 423.855C487.014 424.722 487.078 425.665 487.078 426.455Z" fill="white"/>
<path d="M412.196 451.281C412.196 451.281 410.514 450.649 410.205 450.583C409.36 450.404 408.71 450.277 408.71 450.277L407.578 451.656C407.578 451.656 408.875 453.823 409.893 454.842C411.21 454.842 411.638 454.179 411.638 454.179L412.196 451.281Z" fill="#FFCE49"/>
<path d="M389.09 441.233C381.405 437.424 380.4 440.265 374.826 441.69C390.272 446.007 396.053 454.069 398.812 459.455C401.571 464.841 403.612 470.42 403.612 470.42C404.453 472.077 406.616 454.767 389.09 441.233Z" fill="#A155E6"/>
<path d="M389.09 441.233C379.708 435.245 376.945 436.939 374.081 438.19C368.367 440.686 365.64 449.093 366.297 454.184C366.954 459.341 368.235 461.606 368.235 461.606C368.235 461.606 367.184 453.429 368.563 450.637C369.942 447.846 370.238 445.777 373.916 443.15C377.594 440.522 385.142 444.233 385.142 444.233L393.308 448.372L389.09 441.233Z" fill="#A155E6"/>
<path d="M404.255 476.4L405.469 483.772L404.919 483.499L403.326 482.58L402.112 475.163C402.112 464.63 394.672 451.794 385.49 446.492C376.31 441.192 368.866 445.435 368.866 455.968L370.08 463.385L367.939 462.149L366.726 454.733C366.726 442.842 375.126 438.049 385.491 444.033C395.854 450.017 404.255 464.51 404.255 476.4Z" fill="#A155E6"/>
<path d="M489.942 441.51C485.747 446.564 482.737 448.709 477.395 453C472.052 457.292 452.083 469.171 445.514 470.923C438.946 472.674 432.493 475.033 423.239 472.933C413.985 470.835 409.081 469.258 409.081 469.258L410.614 472.934C410.614 472.934 411.358 482.176 416.48 482.834C421.604 483.491 430.75 482.108 440.681 479.573C450.613 477.039 473.014 462.591 473.014 462.591L481.553 455.926L487.12 447.36L489.373 443.754L489.942 441.51Z" fill="#A155E6"/>
<path d="M487.734 447.649L487.222 449.441L482.429 456.156L473.509 464.143L452.552 476.242L435.471 483.267L422.109 485.847L419.492 486.165L405.47 483.771L404.918 483.498L403.799 482.852C403.917 481.335 405.189 480.059 405.47 479.299C405.977 477.917 410.615 472.933 410.615 472.933C410.615 472.933 413.883 479.473 418.444 480.663C418.604 480.706 418.767 480.739 418.933 480.768C420.381 481.015 422.223 481.007 424.091 480.871C428.444 480.561 432.948 479.572 432.948 479.572L451.163 472.234L474.897 458.398L482.08 452.11L484.458 449.674L486.444 447.644L487.112 447.171L487.135 447.646H487.734V447.649Z" fill="#A155E6"/>
<path d="M432.947 479.574C435.902 475.96 438.662 474.777 442.537 474.055C446.412 473.332 456.412 468.248 462.568 464.716C468.724 461.185 475.889 456.956 477.088 455.476C478.287 453.998 481.489 451.651 482.08 452.113C481.249 454.174 476.177 458.514 476.177 458.514C476.177 458.514 470.653 462.707 459.215 469.043C447.776 475.379 441.947 476.883 432.947 479.574Z" fill="#292929"/>
<path d="M240.005 349.97L230.926 345.779L229.276 345.016L228.313 338.283L229.218 335.112L235.764 328.482L235.064 329.557C235.064 329.557 229.793 334.592 229.793 335.051C229.793 335.225 230.181 335.894 230.658 336.661C231.438 337.901 232.465 339.394 232.465 339.394L237.312 345.611L240.005 349.97Z" fill="#C3C2CE"/>
<path d="M227.113 344.962L230.979 340.689V337.162L229.793 335.049L235.063 329.555L235.764 328.481L229.218 335.111L228.312 338.283L227.113 344.962Z" fill="#E9D7A7"/>
<path d="M239.722 349.534L239.592 350.257L237.198 350.458L230.642 345.343L229.303 343.236L229.711 339.029C229.711 339.029 230.233 336.808 230.376 336.224C231.157 337.464 232.182 338.957 232.182 338.957L237.03 345.174L239.722 349.534Z" fill="#FF5030"/>
<path d="M231.612 344.748L237.438 349.25L239.442 349.081L237.029 345.174L232.181 338.957C232.181 338.957 231.599 338.109 230.979 337.162C230.822 337.826 230.679 338.434 230.679 338.434L230.271 342.641L231.612 344.748Z" fill="#FF4123"/>
<path d="M463.295 442.364L462.154 444.651L459.123 444.884L460.265 442.597L463.295 442.364Z" fill="#C3C2CE"/>
<path d="M386.29 353.537C392.102 349.747 400.1 342.39 400.1 342.39L400.608 340.966L400.546 340.902L333.813 379.43L370.549 422.736L380.64 419.789C380.64 419.789 375.524 417.824 373.256 416.992C370.988 416.162 366.803 409.392 358.851 399.981C350.898 390.571 338.416 379.103 338.416 379.103C338.416 379.103 346.811 375.5 352.015 372.999C357.219 370.496 380.479 357.328 386.29 353.537Z" fill="#A155E6"/>
<path d="M361.743 419.476C361.743 419.476 362.907 419.308 363.387 418.913C363.867 418.519 363.508 417.071 362.69 416.552C361.871 416.034 359.575 417.185 359.195 416.989C358.815 416.793 356.484 417.779 356.484 417.779L357.24 419.444L361.743 419.476Z" fill="#A155E6"/>
<path d="M357.118 413.432C359.281 412.891 361.485 413.598 361.778 416.052C362.131 419.03 360.821 419.505 360.03 419.878C359.24 420.253 356.287 421.543 352.543 421.584C348.799 421.625 348.343 419.625 348.342 418.293C348.342 418.102 348.346 418.115 348.357 417.94C348.462 416.04 349.148 415.475 350.422 415.095C353.172 414.275 357.118 413.432 357.118 413.432Z" fill="#A155E6"/>
<path d="M360.929 414.668C359.687 414.281 357.115 414.783 354.588 415.332C352.06 415.88 350.162 415.838 349.962 418.294C349.762 420.749 350.558 421.347 351.608 421.508C352.657 421.669 354.649 421.654 357.647 420.782C360.644 419.91 361.067 419.418 361.534 418.59C362.002 417.764 362.167 415.053 360.929 414.668Z" fill="#A155E6"/>
<path d="M290.752 198.063L394.651 138.077L394.673 145.932C394.921 233.555 345.637 285.994 343.043 288.754C340.442 288.993 291.023 293.541 290.774 205.918L290.752 198.063ZM381.317 205.433C385.656 189.554 388.109 173.221 388.639 156.761L296.849 209.756C297.471 225.55 300.009 239.002 304.423 249.828C308.452 259.722 314.049 267.464 321.061 272.845C329.928 279.649 338.903 280.935 343.021 281.143C347.123 276.19 356.063 264.56 364.862 247.557C371.822 234.109 377.365 219.935 381.317 205.433Z" fill="#D9E0EA"/>
<path d="M388.639 156.761C388.108 173.221 385.655 189.554 381.317 205.433C377.366 219.935 371.822 234.109 364.862 247.557C356.063 264.561 347.124 276.19 343.021 281.143C338.904 280.936 329.928 279.65 321.062 272.845C314.048 267.464 308.451 259.721 304.423 249.828C300.008 239.002 297.472 225.55 296.85 209.756L388.639 156.761Z" fill="#A155E6"/>
<path d="M290.752 198.063L279.887 191.749L383.785 131.763L394.651 138.077L290.752 198.063Z" fill="#F6F7F8"/>
<path d="M290.774 205.918L290.752 198.063L279.887 191.749L279.909 199.604C280.049 248.663 295.602 268.829 309.721 277.034L320.587 283.348C306.467 275.143 290.913 254.977 290.774 205.918Z" fill="#C1C7CE"/>
<path d="M364.498 192.694L357.749 188.772L369.096 190.594L375.845 194.516L364.498 192.694Z" fill="#F6F7F8"/>
<path d="M346.356 235.83L339.607 231.908L357.749 188.772L364.498 192.694L346.356 235.83Z" fill="#CBD5E2"/>
<path d="M326.454 246.325L319.705 242.403L329.192 225.972L335.941 229.894L326.454 246.325Z" fill="#CBD5E2"/>
<path d="M346.357 235.83L339.608 231.908L329.192 225.972L335.941 229.894L346.357 235.83Z" fill="#A9A9A9"/>
<path d="M364.498 192.694L375.845 194.516L348.719 259.013L326.454 246.325L335.941 229.894L346.356 235.83L364.498 192.694Z" fill="#F6F6F6"/>
<path d="M328.241 245.841L336.422 231.671L346.989 237.693L365.303 194.147L373.996 195.541L348.086 257.15L328.241 245.841Z" fill="#5E189D"/>
<path d="M365.647 365.654C367.16 368.756 371.291 367.886 372.464 367.148C373.638 366.409 383.421 360.888 384.899 359.756C386.377 358.626 384.525 355.028 384.525 355.028C384.525 355.028 373.638 361.44 365.647 365.654Z" fill="#131313"/>
<path d="M379.766 363.542L375.989 365.721C373.874 366.943 371.792 368.309 369.753 369.812C369.089 370.303 368.72 371.301 368.897 372.132L369.366 374.33C369.544 375.161 370.21 375.561 370.915 375.261C373.078 374.338 375.222 373.264 377.337 372.043L381.114 369.863C383.229 368.642 385.311 367.276 387.35 365.772C388.014 365.281 388.382 364.284 388.206 363.453L387.737 361.255C387.56 360.423 386.894 360.023 386.188 360.324C384.025 361.246 381.881 362.32 379.766 363.542Z" fill="#63747D"/>
<path d="M380.596 366.344C380.553 365.265 380.32 362.286 380.32 362.286L376.565 362.365C376.565 362.365 376.983 366.587 377.03 366.741C377.241 367.428 378.158 368.188 378.552 368.148C379.474 368.051 380.642 367.508 380.596 366.344Z" fill="#63747D"/>
<path d="M380.006 361.379C380.58 362.169 380.346 363.216 379.483 363.717C378.62 364.219 377.453 363.984 376.879 363.194C376.304 362.404 376.538 361.357 377.402 360.856C378.265 360.354 379.431 360.589 380.006 361.379Z" fill="#63747D"/>
<defs>
<linearGradient id="paint0_linear_98_495" x1="392.774" y1="478.022" x2="378.198" y2="452.777" gradientUnits="userSpaceOnUse">
<stop offset="0.273" stop-color="#ECEEF7"/>
<stop offset="0.7703" stop-color="#9C9AA8"/>
</linearGradient>
<linearGradient id="paint1_linear_98_495" x1="385.278" y1="470.011" x2="392.468" y2="457.558" gradientUnits="userSpaceOnUse">
<stop offset="0.2622" stop-color="#393843"/>
<stop offset="0.7811" stop-color="#23222E"/>
</linearGradient>
<linearGradient id="paint2_linear_98_495" x1="386.385" y1="460.786" x2="392.162" y2="462.443" gradientUnits="userSpaceOnUse">
<stop stop-color="#ADAEB8"/>
<stop offset="0.0762" stop-color="#BABCC5"/>
<stop offset="0.1993" stop-color="#C9CBD4"/>
<stop offset="0.3421" stop-color="#D2D4DC"/>
<stop offset="0.5486" stop-color="#D5D7DF"/>
<stop offset="0.6619" stop-color="#C0C1CA"/>
<stop offset="1" stop-color="#868490"/>
</linearGradient>
<linearGradient id="paint3_linear_98_495" x1="389.072" y1="471.733" x2="393.745" y2="469.845" gradientUnits="userSpaceOnUse">
<stop stop-color="#ADAEB8"/>
<stop offset="0.0762" stop-color="#BABCC5"/>
<stop offset="0.1993" stop-color="#C9CBD4"/>
<stop offset="0.3421" stop-color="#D2D4DC"/>
<stop offset="0.5486" stop-color="#D5D7DF"/>
<stop offset="0.6619" stop-color="#C0C1CA"/>
<stop offset="1" stop-color="#868490"/>
</linearGradient>
<linearGradient id="paint4_linear_98_495" x1="381.154" y1="462.201" x2="383.852" y2="457.527" gradientUnits="userSpaceOnUse">
<stop stop-color="#ADAEB8"/>
<stop offset="0.0762" stop-color="#BABCC5"/>
<stop offset="0.1993" stop-color="#C9CBD4"/>
<stop offset="0.3421" stop-color="#D2D4DC"/>
<stop offset="0.5486" stop-color="#D5D7DF"/>
<stop offset="0.6619" stop-color="#C0C1CA"/>
<stop offset="1" stop-color="#868490"/>
</linearGradient>
<linearGradient id="paint5_linear_98_495" x1="270.906" y1="407.662" x2="256.33" y2="382.416" gradientUnits="userSpaceOnUse">
<stop offset="0.273" stop-color="#ECEEF7"/>
<stop offset="0.7703" stop-color="#9C9AA8"/>
</linearGradient>
<linearGradient id="paint6_linear_98_495" x1="263.41" y1="399.651" x2="270.6" y2="387.197" gradientUnits="userSpaceOnUse">
<stop offset="0.2622" stop-color="#393843"/>
<stop offset="0.7811" stop-color="#23222E"/>
</linearGradient>
<linearGradient id="paint7_linear_98_495" x1="264.517" y1="390.426" x2="270.294" y2="392.083" gradientUnits="userSpaceOnUse">
<stop stop-color="#ADAEB8"/>
<stop offset="0.0762" stop-color="#BABCC5"/>
<stop offset="0.1993" stop-color="#C9CBD4"/>
<stop offset="0.3421" stop-color="#D2D4DC"/>
<stop offset="0.5486" stop-color="#D5D7DF"/>
<stop offset="0.6619" stop-color="#C0C1CA"/>
<stop offset="1" stop-color="#868490"/>
</linearGradient>
<linearGradient id="paint8_linear_98_495" x1="267.204" y1="401.372" x2="271.877" y2="399.484" gradientUnits="userSpaceOnUse">
<stop stop-color="#ADAEB8"/>
<stop offset="0.0762" stop-color="#BABCC5"/>
<stop offset="0.1993" stop-color="#C9CBD4"/>
<stop offset="0.3421" stop-color="#D2D4DC"/>
<stop offset="0.5486" stop-color="#D5D7DF"/>
<stop offset="0.6619" stop-color="#C0C1CA"/>
<stop offset="1" stop-color="#868490"/>
</linearGradient>
<linearGradient id="paint9_linear_98_495" x1="259.286" y1="391.84" x2="261.984" y2="387.167" gradientUnits="userSpaceOnUse">
<stop stop-color="#ADAEB8"/>
<stop offset="0.0762" stop-color="#BABCC5"/>
<stop offset="0.1993" stop-color="#C9CBD4"/>
<stop offset="0.3421" stop-color="#D2D4DC"/>
<stop offset="0.5486" stop-color="#D5D7DF"/>
<stop offset="0.6619" stop-color="#C0C1CA"/>
<stop offset="1" stop-color="#868490"/>
</linearGradient>
</defs>
</svg>
