<svg width="513" height="460" viewBox="0 0 513 460" fill="none" xmlns="http://www.w3.org/2000/svg">
<g opacity="0.35">
<path d="M402.927 202.094C369.843 202.094 342.927 175.178 342.927 142.094C342.927 109.01 369.843 82.0935 402.927 82.0935C436.011 82.0935 462.927 109.01 462.927 142.094C462.927 175.178 436.011 202.094 402.927 202.094ZM402.927 83.0935C370.394 83.0935 343.927 109.561 343.927 142.094C343.927 174.627 370.394 201.094 402.927 201.094C435.46 201.094 461.927 174.627 461.927 142.094C461.927 109.561 435.46 83.0935 402.927 83.0935Z" fill="#C8A0EB"/>
<path d="M402.927 188.094C369.843 188.094 342.927 167.458 342.927 142.094C342.927 116.73 369.843 96.0935 402.927 96.0935C436.011 96.0935 462.927 116.73 462.927 142.094C462.927 167.458 436.011 188.094 402.927 188.094ZM402.927 97.0935C370.394 97.0935 343.927 117.281 343.927 142.094C343.927 166.907 370.394 187.094 402.927 187.094C435.46 187.094 461.927 166.907 461.927 142.094C461.927 117.281 435.46 97.0935 402.927 97.0935Z" fill="#C8A0EB"/>
<path d="M402.927 176.594C369.843 176.594 342.927 161.117 342.927 142.094C342.927 123.071 369.843 107.594 402.927 107.594C436.011 107.594 462.927 123.071 462.927 142.094C462.927 161.117 436.011 176.594 402.927 176.594ZM402.927 108.594C370.394 108.594 343.927 123.622 343.927 142.094C343.927 160.566 370.394 175.594 402.927 175.594C435.46 175.594 461.927 160.566 461.927 142.094C461.927 123.622 435.46 108.594 402.927 108.594Z" fill="#C8A0EB"/>
<path d="M402.927 168.094C369.843 168.094 342.927 156.43 342.927 142.094C342.927 127.758 369.843 116.094 402.927 116.094C436.011 116.094 462.927 127.758 462.927 142.094C462.927 156.43 436.011 168.094 402.927 168.094ZM402.927 117.094C370.394 117.094 343.927 128.309 343.927 142.094C343.927 155.879 370.394 167.094 402.927 167.094C435.46 167.094 461.927 155.879 461.927 142.094C461.927 128.309 435.46 117.094 402.927 117.094Z" fill="#C8A0EB"/>
<path d="M402.927 152.094C373.434 152.094 342.927 148.353 342.927 142.094C342.927 135.835 373.434 132.094 402.927 132.094C432.42 132.094 462.927 135.835 462.927 142.094C462.927 148.353 432.42 152.094 402.927 152.094ZM402.927 133.094C367.635 133.094 343.927 137.748 343.927 142.094C343.927 146.44 367.635 151.094 402.927 151.094C438.219 151.094 461.927 146.44 461.927 142.094C461.927 137.748 438.219 133.094 402.927 133.094Z" fill="#C8A0EB"/>
<path d="M402.927 202.094C377.563 202.094 356.927 175.178 356.927 142.094C356.927 109.01 377.563 82.0935 402.927 82.0935C428.291 82.0935 448.927 109.01 448.927 142.094C448.927 175.178 428.291 202.094 402.927 202.094ZM402.927 83.0935C378.113 83.0935 357.927 109.561 357.927 142.094C357.927 174.627 378.113 201.094 402.927 201.094C427.74 201.094 447.927 174.627 447.927 142.094C447.927 109.561 427.74 83.0935 402.927 83.0935Z" fill="#C8A0EB"/>
<path d="M402.927 202.094C383.904 202.094 368.427 175.178 368.427 142.094C368.427 109.01 383.904 82.0935 402.927 82.0935C421.95 82.0935 437.427 109.01 437.427 142.094C437.427 175.178 421.95 202.094 402.927 202.094ZM402.927 83.0935C384.455 83.0935 369.427 109.561 369.427 142.094C369.427 174.627 384.455 201.094 402.927 201.094C421.399 201.094 436.427 174.627 436.427 142.094C436.427 109.561 421.399 83.0935 402.927 83.0935Z" fill="#C8A0EB"/>
<path d="M402.927 202.094C388.59 202.094 376.927 175.178 376.927 142.094C376.927 109.01 388.59 82.0935 402.927 82.0935C417.264 82.0935 428.927 109.01 428.927 142.094C428.927 175.178 417.264 202.094 402.927 202.094ZM402.927 83.0935C389.142 83.0935 377.927 109.561 377.927 142.094C377.927 174.627 389.142 201.094 402.927 201.094C416.712 201.094 427.927 174.627 427.927 142.094C427.927 109.561 416.712 83.0935 402.927 83.0935Z" fill="#C8A0EB"/>
<path d="M402.927 202.094C396.667 202.094 392.927 171.587 392.927 142.094C392.927 112.601 396.667 82.0935 402.927 82.0935C409.187 82.0935 412.927 112.601 412.927 142.094C412.927 171.587 409.187 202.094 402.927 202.094ZM402.927 83.0935C398.58 83.0935 393.927 106.802 393.927 142.094C393.927 177.386 398.58 201.094 402.927 201.094C407.274 201.094 411.927 177.386 411.927 142.094C411.927 106.802 407.274 83.0935 402.927 83.0935Z" fill="#C8A0EB"/>
</g>
<g opacity="0.35">
<path d="M63.9275 349.094C30.8435 349.094 3.92749 322.178 3.92749 289.094C3.92749 256.01 30.8435 229.094 63.9275 229.094C97.0115 229.094 123.927 256.01 123.927 289.094C123.927 322.178 97.0115 349.094 63.9275 349.094ZM63.9275 230.094C31.3945 230.094 4.92749 256.561 4.92749 289.094C4.92749 321.627 31.3945 348.094 63.9275 348.094C96.4605 348.094 122.927 321.627 122.927 289.094C122.927 256.561 96.4605 230.094 63.9275 230.094Z" fill="#F1D8FE"/>
<path d="M63.9275 335.094C30.8435 335.094 3.92749 314.458 3.92749 289.094C3.92749 263.73 30.8435 243.094 63.9275 243.094C97.0115 243.094 123.927 263.73 123.927 289.094C123.927 314.458 97.0115 335.094 63.9275 335.094ZM63.9275 244.094C31.3945 244.094 4.92749 264.28 4.92749 289.094C4.92749 313.908 31.3945 334.094 63.9275 334.094C96.4605 334.094 122.927 313.908 122.927 289.094C122.927 264.28 96.4605 244.094 63.9275 244.094Z" fill="#F1D8FE"/>
<path d="M63.9275 323.594C30.8435 323.594 3.92749 308.117 3.92749 289.094C3.92749 270.071 30.8435 254.594 63.9275 254.594C97.0115 254.594 123.927 270.071 123.927 289.094C123.927 308.117 97.0115 323.594 63.9275 323.594ZM63.9275 255.594C31.3945 255.594 4.92749 270.622 4.92749 289.094C4.92749 307.566 31.3945 322.594 63.9275 322.594C96.4605 322.594 122.927 307.566 122.927 289.094C122.927 270.622 96.4605 255.594 63.9275 255.594Z" fill="#F1D8FE"/>
<path d="M63.9275 315.094C30.8435 315.094 3.92749 303.431 3.92749 289.094C3.92749 274.757 30.8435 263.094 63.9275 263.094C97.0115 263.094 123.927 274.757 123.927 289.094C123.927 303.431 97.0115 315.094 63.9275 315.094ZM63.9275 264.094C31.3945 264.094 4.92749 275.309 4.92749 289.094C4.92749 302.879 31.3945 314.094 63.9275 314.094C96.4605 314.094 122.927 302.879 122.927 289.094C122.927 275.309 96.4605 264.094 63.9275 264.094Z" fill="#F1D8FE"/>
<path d="M63.9275 299.094C34.4345 299.094 3.92749 295.354 3.92749 289.094C3.92749 282.834 34.4345 279.094 63.9275 279.094C93.4205 279.094 123.927 282.834 123.927 289.094C123.927 295.354 93.4205 299.094 63.9275 299.094ZM63.9275 280.094C28.6345 280.094 4.92749 284.747 4.92749 289.094C4.92749 293.441 28.6345 298.094 63.9275 298.094C99.2205 298.094 122.927 293.441 122.927 289.094C122.927 284.747 99.2195 280.094 63.9275 280.094Z" fill="#F1D8FE"/>
<path d="M63.9275 349.094C38.5635 349.094 17.9275 322.178 17.9275 289.094C17.9275 256.01 38.5635 229.094 63.9275 229.094C89.2915 229.094 109.927 256.01 109.927 289.094C109.927 322.178 89.2915 349.094 63.9275 349.094ZM63.9275 230.094C39.1145 230.094 18.9275 256.561 18.9275 289.094C18.9275 321.627 39.1145 348.094 63.9275 348.094C88.7405 348.094 108.927 321.627 108.927 289.094C108.927 256.561 88.7405 230.094 63.9275 230.094Z" fill="#F1D8FE"/>
<path d="M63.9275 349.094C44.9045 349.094 29.4275 322.178 29.4275 289.094C29.4275 256.01 44.9045 229.094 63.9275 229.094C82.9505 229.094 98.4275 256.01 98.4275 289.094C98.4275 322.178 82.9505 349.094 63.9275 349.094ZM63.9275 230.094C45.4555 230.094 30.4275 256.561 30.4275 289.094C30.4275 321.627 45.4555 348.094 63.9275 348.094C82.3995 348.094 97.4275 321.627 97.4275 289.094C97.4275 256.561 82.3995 230.094 63.9275 230.094Z" fill="#F1D8FE"/>
<path d="M63.9275 349.094C49.5915 349.094 37.9275 322.178 37.9275 289.094C37.9275 256.01 49.5915 229.094 63.9275 229.094C78.2635 229.094 89.9275 256.01 89.9275 289.094C89.9275 322.178 78.2635 349.094 63.9275 349.094ZM63.9275 230.094C50.1425 230.094 38.9275 256.561 38.9275 289.094C38.9275 321.627 50.1425 348.094 63.9275 348.094C77.7125 348.094 88.9275 321.627 88.9275 289.094C88.9275 256.561 77.7125 230.094 63.9275 230.094Z" fill="#F1D8FE"/>
<path d="M63.9275 349.094C57.6685 349.094 53.9275 318.587 53.9275 289.094C53.9275 259.601 57.6685 229.094 63.9275 229.094C70.1865 229.094 73.9275 259.601 73.9275 289.094C73.9275 318.587 70.1865 349.094 63.9275 349.094ZM63.9275 230.094C59.5815 230.094 54.9275 253.802 54.9275 289.094C54.9275 324.386 59.5815 348.094 63.9275 348.094C68.2735 348.094 72.9275 324.386 72.9275 289.094C72.9275 253.802 68.2735 230.094 63.9275 230.094Z" fill="#F1D8FE"/>
</g>
<path d="M112.101 84.6654C39.3011 107.67 8.01211 186.693 1.46756 223.329C-5.19107 260.602 69.2708 351.333 71.8992 403.953C74.5276 456.572 136.622 473.595 237.208 440.101C317.677 413.305 395.027 440.824 434.833 416.615C530.229 367.793 516.199 298.382 495.806 260.985C486.333 240.855 428.416 230.738 419.017 110.941C409.618 -8.85616 280.405 -11.1698 251.115 14.5213C193.505 62.5606 203.1 55.9091 112.101 84.6654Z" fill="#F8F0FF"/>
<path d="M318.674 377.841L69.5045 377.54C68.6255 377.539 67.9146 376.826 67.9146 375.947L68.2715 80.6835C68.2725 79.8045 68.9865 79.0935 69.8645 79.0945L319.034 79.3955C319.913 79.3965 320.625 80.1095 320.623 80.9885L320.266 376.252C320.266 377.13 319.553 377.842 318.674 377.841Z" fill="#F1D8FE"/>
<path opacity="0.44" d="M318.674 377.841L69.5045 377.54C68.6255 377.539 67.9146 376.826 67.9146 375.947L68.2715 80.6835C68.2725 79.8045 68.9865 79.0935 69.8645 79.0945L319.034 79.3955C319.913 79.3965 320.625 80.1095 320.623 80.9885L320.266 376.252C320.266 377.13 319.553 377.842 318.674 377.841Z" fill="#CFA4E6"/>
<path d="M314.674 381.841L65.5045 381.54C64.6255 381.539 63.9146 380.826 63.9146 379.947L64.2715 84.6835C64.2725 83.8045 64.9865 83.0935 65.8645 83.0945L315.034 83.3955C315.913 83.3965 316.625 84.1095 316.623 84.9885L316.266 380.252C316.266 381.13 315.553 381.842 314.674 381.841Z" fill="#F1D8FE"/>
<path opacity="0.29" d="M314.674 381.841L65.5045 381.54C64.6255 381.539 63.9146 380.826 63.9146 379.947L64.2715 84.6835C64.2725 83.8045 64.9865 83.0935 65.8645 83.0945L315.034 83.3955C315.913 83.3965 316.625 84.1095 316.623 84.9885L316.266 380.252C316.266 381.13 315.553 381.842 314.674 381.841Z" fill="#CFA4E6"/>
<path d="M309.393 382.627L62.8676 382.329C61.9886 382.328 61.2766 381.615 61.2786 380.736L61.6306 89.1865C61.6316 88.3075 62.3446 87.5965 63.2236 87.5975L309.749 87.8955C310.628 87.8965 311.339 88.6095 311.338 89.4885L310.985 381.038C310.985 381.916 310.272 382.628 309.393 382.627Z" fill="#F1D8FE"/>
<path opacity="0.18" d="M309.393 382.627L62.8676 382.329C61.9886 382.328 61.2766 381.615 61.2786 380.736L61.6306 89.1865C61.6316 88.3075 62.3446 87.5965 63.2236 87.5975L309.749 87.8955C310.628 87.8965 311.339 88.6095 311.338 89.4885L310.985 381.038C310.985 381.916 310.272 382.628 309.393 382.627Z" fill="#CFA4E6"/>
<path d="M304.092 383.947L60.2115 383.652C59.3325 383.651 58.6216 382.938 58.6226 382.059L58.9706 94.4775C58.9716 93.5985 59.6846 92.8875 60.5636 92.8885L304.444 93.1835C305.323 93.1845 306.035 93.8975 306.033 94.7765L305.685 382.358C305.685 383.237 304.971 383.949 304.092 383.947Z" fill="#F1D8FE"/>
<path opacity="0.6" d="M216.482 216.022L69.7765 215.845C69.2245 215.844 68.7775 215.396 68.7775 214.844L68.8375 165.324C68.8385 164.772 69.2865 164.325 69.8385 164.325L216.544 164.502C217.096 164.503 217.544 164.951 217.543 165.503L217.483 215.023C217.483 215.576 217.034 216.023 216.482 216.022Z" fill="#A155E6"/>
<path opacity="0.6" d="M294.552 275.681L71.3985 275.411C70.6165 275.41 69.9825 274.775 69.9835 273.993L70.0425 225.306C70.0435 224.524 70.6785 223.89 71.4605 223.891L294.614 224.161C295.396 224.162 296.03 224.797 296.029 225.579L295.97 274.266C295.969 275.049 295.334 275.682 294.552 275.681Z" fill="#CFA4E6"/>
<path opacity="0.6" d="M295.308 292.639H70.7056V296.603H295.308V292.639Z" fill="#CFA4E6"/>
<path opacity="0.6" d="M295.308 282.068H70.7056V286.032H295.308V282.068Z" fill="#CFA4E6"/>
<path opacity="0.6" d="M261.764 303.208H70.7056V307.173H261.764V303.208Z" fill="#CFA4E6"/>
<path opacity="0.6" d="M137.878 367.488L69.6235 367.406C69.0715 367.405 68.6245 366.957 68.6245 366.405L68.6845 316.885C68.6855 316.333 69.1335 315.886 69.6855 315.886L137.941 315.969C138.493 315.97 138.939 316.418 138.939 316.97L138.88 366.49C138.88 367.042 138.43 367.489 137.878 367.488Z" fill="#5E189D"/>
<path opacity="0.6" d="M217.05 367.59L148.795 367.507C148.243 367.506 147.796 367.058 147.796 366.506L147.856 316.986C147.857 316.434 148.305 315.987 148.857 315.987L217.112 316.07C217.664 316.071 218.111 316.519 218.111 317.071L218.051 366.591C218.051 367.143 217.603 367.59 217.05 367.59Z" fill="#CFA4E6"/>
<path opacity="0.6" d="M295.65 367.682L227.395 367.599C226.843 367.598 226.396 367.15 226.396 366.598L226.456 317.078C226.457 316.526 226.905 316.079 227.457 316.079L295.712 316.161C296.264 316.162 296.711 316.61 296.711 317.162L296.651 366.682C296.651 367.236 296.203 367.683 295.65 367.682Z" fill="#A155E6"/>
<path opacity="0.6" d="M293.646 170.45L225.733 170.368C225.086 170.367 224.563 169.842 224.563 169.196C224.564 168.549 225.09 168.026 225.736 168.026L293.648 168.108C294.296 168.109 294.819 168.634 294.818 169.28C294.819 169.927 294.293 170.45 293.646 170.45Z" fill="#5E189D"/>
<path opacity="0.6" d="M293.639 177.476L225.726 177.394C225.079 177.393 224.556 176.868 224.557 176.222C224.558 175.575 225.083 175.052 225.729 175.052L293.642 175.134C294.289 175.135 294.812 175.66 294.811 176.306C294.811 176.953 294.286 177.477 293.639 177.476Z" fill="#5E189D"/>
<path opacity="0.6" d="M293.63 184.502L225.717 184.42C225.07 184.419 224.547 183.894 224.547 183.248C224.548 182.601 225.073 182.078 225.719 182.078L293.632 182.16C294.279 182.161 294.802 182.686 294.801 183.332C294.802 183.979 294.277 184.502 293.63 184.502Z" fill="#5E189D"/>
<path opacity="0.6" d="M293.622 191.527L225.709 191.445C225.062 191.444 224.539 190.919 224.54 190.273C224.541 189.626 225.066 189.103 225.712 189.103L293.625 189.185C294.272 189.186 294.795 189.711 294.794 190.357C294.794 191.004 294.269 191.528 293.622 191.527Z" fill="#5E189D"/>
<path opacity="0.6" d="M293.613 198.553L225.7 198.471C225.053 198.47 224.53 197.945 224.53 197.299C224.531 196.652 225.056 196.129 225.702 196.129L293.615 196.211C294.262 196.212 294.785 196.737 294.784 197.383C294.785 198.03 294.26 198.553 293.613 198.553Z" fill="#5E189D"/>
<path opacity="0.6" d="M293.604 205.578L225.691 205.496C225.044 205.495 224.521 204.97 224.522 204.324C224.523 203.677 225.048 203.154 225.694 203.155L293.607 203.237C294.254 203.238 294.777 203.763 294.776 204.409C294.776 205.055 294.251 205.579 293.604 205.578Z" fill="#5E189D"/>
<path opacity="0.6" d="M293.596 212.604L225.683 212.522C225.036 212.521 224.513 211.996 224.514 211.35C224.515 210.703 225.04 210.18 225.686 210.181L293.599 210.263C294.246 210.264 294.769 210.789 294.768 211.435C294.768 212.081 294.243 212.604 293.596 212.604Z" fill="#5E189D"/>
<path d="M242.489 155.166L69.6765 154.957C69.2205 154.956 68.8505 154.586 68.8505 154.129L68.8545 151.099C68.8555 150.643 69.2255 150.273 69.6825 150.273L242.495 150.482C242.952 150.482 243.321 150.853 243.321 151.31L243.317 154.34C243.316 154.797 242.946 155.167 242.489 155.166Z" fill="#5E189D"/>
<path d="M101.789 117.112L99.1463 136.358C99.0644 136.886 98.8101 137.312 98.3833 137.636C97.9565 137.961 97.4588 138.123 96.8903 138.122L91.2861 138.115C90.7176 138.115 90.2101 137.952 89.7638 137.626C89.3378 137.301 89.0947 136.874 89.0344 136.346L87.6168 124.74C87.5565 124.232 87.5063 123.725 87.4663 123.217C87.4467 122.689 87.4168 122.171 87.3768 121.664L86.859 121.663C86.8381 122.17 86.8071 122.688 86.7658 123.216C86.7246 123.744 86.6732 124.262 86.6117 124.769L85.1967 136.341C85.1352 136.869 84.8809 137.295 84.4338 137.62C84.007 137.944 83.5093 138.106 82.9407 138.105L77.3061 138.098C76.7376 138.098 76.2403 137.935 75.8143 137.609C75.3883 137.284 75.135 136.857 75.0544 136.329L72.4581 117.077L78.976 117.085L80.0266 129.97C80.0666 130.477 80.0964 131.026 80.116 131.614C80.1356 132.183 80.145 132.802 80.1442 133.472L80.6315 133.473C80.7134 132.945 80.7953 132.367 80.8773 131.737C80.9796 131.088 81.0615 130.489 81.1231 129.94L82.5372 119.038C82.5988 118.45 82.8329 117.983 83.2394 117.638C83.6663 117.273 84.1741 117.091 84.763 117.092L89.4839 117.097C90.0727 117.098 90.57 117.281 90.9756 117.647C91.3813 117.993 91.6244 118.46 91.7049 119.049L93.1233 130.016C93.1835 130.564 93.2539 131.143 93.3344 131.752C93.4149 132.361 93.4954 132.94 93.576 133.488L94.0633 133.489C94.064 132.921 94.085 132.332 94.1263 131.723C94.1677 131.113 94.1988 130.555 94.2197 130.048L95.2708 117.104L101.789 117.112ZM112.999 116.699C114.806 116.701 116.329 116.876 117.567 117.222C118.826 117.549 119.84 118.119 120.611 118.932C121.381 119.745 121.938 120.862 122.282 122.284C122.625 123.686 122.796 125.473 122.793 127.645C122.791 129.798 122.616 131.584 122.269 133.005C121.922 134.426 121.362 135.542 120.59 136.353C119.817 137.165 118.801 137.742 117.542 138.086C116.303 138.409 114.78 138.57 112.973 138.568C111.186 138.566 109.663 138.401 108.405 138.075C107.167 137.728 106.162 137.148 105.392 136.335C104.621 135.522 104.064 134.405 103.72 132.983C103.377 131.561 103.206 129.774 103.209 127.622C103.212 125.449 103.386 123.662 103.733 122.262C104.08 120.841 104.64 119.725 105.412 118.914C106.185 118.102 107.191 117.535 108.43 117.212C109.689 116.868 111.212 116.697 112.999 116.699ZM112.993 121.603C112.242 121.602 111.663 121.764 111.256 122.088C110.85 122.413 110.565 123.011 110.401 123.884C110.238 124.757 110.155 126.006 110.153 127.63C110.151 129.254 110.231 130.503 110.393 131.377C110.554 132.25 110.837 132.849 111.243 133.175C111.649 133.5 112.227 133.663 112.979 133.664C113.73 133.665 114.309 133.503 114.715 133.179C115.122 132.854 115.407 132.256 115.57 131.383C115.734 130.51 115.816 129.261 115.818 127.637C115.82 126.012 115.741 124.764 115.579 123.89C115.418 123.017 115.134 122.418 114.729 122.092C114.323 121.767 113.744 121.604 112.993 121.603ZM134.29 116.847C136.361 116.849 138.046 117.044 139.345 117.431C140.644 117.819 141.597 118.48 142.205 119.415C142.834 120.329 143.147 121.609 143.145 123.253C143.144 124.086 143.011 124.867 142.746 125.598C142.502 126.308 142.065 126.897 141.435 127.363C140.825 127.829 139.972 128.123 138.875 128.243L138.875 128.426C139.261 128.467 139.687 128.589 140.154 128.793C140.62 128.976 141.057 129.302 141.462 129.769C141.868 130.216 142.151 130.867 142.313 131.72L143.95 138.178L137.036 138.17L135.673 131.925C135.551 131.336 135.359 130.95 135.095 130.767C134.852 130.584 134.446 130.492 133.877 130.491C132.354 130.469 131.106 130.457 130.131 130.456C129.177 130.455 128.365 130.444 127.694 130.423C127.024 130.402 126.354 130.37 125.684 130.329L125.781 125.821L134.127 125.831C134.756 125.832 135.243 125.772 135.589 125.65C135.934 125.529 136.168 125.316 136.29 125.012C136.433 124.687 136.504 124.24 136.505 123.672C136.506 123.083 136.435 122.636 136.293 122.331C136.172 122.027 135.939 121.813 135.593 121.691C135.248 121.569 134.761 121.507 134.132 121.506C132.02 121.504 130.243 121.512 128.802 121.53C127.36 121.549 126.375 121.588 125.847 121.649L125.365 117.14C126.299 117.04 127.173 116.97 127.985 116.93C128.817 116.891 129.721 116.872 130.696 116.873C131.691 116.854 132.889 116.845 134.29 116.847ZM131.853 117.148L131.827 138.164L125.34 138.156L125.365 117.14L131.853 117.148ZM152.496 117.173L152.479 131.854C152.478 132.178 152.59 132.443 152.813 132.646C153.056 132.849 153.371 132.951 153.756 132.952L160.823 132.96L161.121 137.895C159.558 138.096 157.882 138.215 156.095 138.254C154.329 138.292 152.582 138.311 150.857 138.309C149.334 138.307 148.116 137.869 147.203 136.995C146.311 136.1 145.866 134.942 145.867 133.521L145.887 117.165L152.496 117.173ZM171.887 116.892C173.694 116.894 175.217 117.068 176.455 117.415C177.714 117.741 178.728 118.311 179.499 119.124C180.269 119.917 180.826 121.014 181.17 122.416C181.513 123.817 181.684 125.584 181.681 127.716C181.679 129.848 181.504 131.614 181.157 133.015C180.81 134.416 180.251 135.521 179.478 136.333C178.706 137.124 177.69 137.691 176.43 138.035C175.191 138.358 173.668 138.519 171.861 138.517C170.115 138.514 168.511 138.482 167.049 138.419C165.587 138.357 164.196 138.284 162.876 138.201L165.562 133.514C166.273 133.596 167.166 133.658 168.242 133.7C169.339 133.722 170.547 133.733 171.867 133.735C172.618 133.736 173.197 133.574 173.603 133.249C174.01 132.925 174.295 132.326 174.458 131.454C174.622 130.581 174.705 129.332 174.707 127.708C174.709 126.083 174.629 124.834 174.467 123.961C174.306 123.088 174.022 122.488 173.617 122.163C173.211 121.838 172.633 121.674 171.881 121.674C170.643 121.672 169.546 121.671 168.592 121.67C167.658 121.668 166.744 121.657 165.851 121.636L162.902 117.186C164.242 117.106 165.623 117.036 167.044 116.977C168.486 116.918 170.1 116.89 171.887 116.892ZM169.511 117.193L169.486 138.209L162.876 138.201L162.902 117.186L169.511 117.193Z" fill="#5E189D"/>
<path d="M209.993 117.242L209.971 135.973C209.969 137.496 209.206 138.257 207.683 138.255L205.156 138.252C204.465 138.251 203.948 138.088 203.603 137.763C203.278 137.437 202.944 136.96 202.599 136.33L198.039 129.106C197.756 128.578 197.493 128.009 197.25 127.4C197.027 126.77 196.825 126.14 196.643 125.51L196.429 125.51C196.53 126.14 196.601 126.79 196.64 127.46C196.7 128.11 196.73 128.739 196.729 129.348L196.719 138.242L190.627 138.234L190.65 119.503C190.652 117.98 191.414 117.22 192.937 117.222L195.465 117.225C196.155 117.225 196.663 117.388 196.987 117.714C197.312 118.039 197.656 118.517 198.021 119.146L202.399 126.035C202.682 126.543 202.956 127.102 203.219 127.711C203.502 128.321 203.766 128.961 204.008 129.631L204.222 129.631C204.141 128.981 204.071 128.342 204.011 127.712C203.971 127.083 203.951 126.453 203.952 125.824L203.932 117.235L209.993 117.242ZM217.921 117.13C219.139 117.131 220.388 117.143 221.667 117.165C222.966 117.166 224.235 117.198 225.474 117.261C226.713 117.303 227.839 117.395 228.854 117.539L228.544 122.198L220.839 122.189C220.453 122.189 220.148 122.29 219.924 122.493C219.701 122.695 219.589 122.959 219.588 123.284L219.578 132.239C219.577 132.564 219.689 132.828 219.912 133.031C220.135 133.234 220.439 133.336 220.825 133.337L228.531 133.346L228.83 138.006C227.814 138.127 226.687 138.217 225.449 138.276C224.21 138.336 222.941 138.365 221.641 138.363C220.362 138.382 219.113 138.39 217.895 138.389C216.454 138.387 215.266 137.949 214.333 137.075C213.421 136.181 212.965 135.023 212.967 133.601L212.981 121.906C212.983 120.484 213.441 119.338 214.356 118.466C215.291 117.573 216.479 117.128 217.921 117.13ZM213.525 125.318L227.444 125.334L227.439 129.72L213.52 129.703L213.525 125.318ZM259.638 117.302L256.996 136.548C256.914 137.075 256.66 137.502 256.233 137.826C255.806 138.15 255.308 138.312 254.74 138.311L249.136 138.305C248.567 138.304 248.06 138.141 247.613 137.816C247.187 137.49 246.944 137.063 246.884 136.535L245.466 124.929C245.406 124.422 245.356 123.914 245.316 123.406C245.296 122.878 245.266 122.361 245.226 121.853L244.709 121.852C244.688 122.36 244.657 122.878 244.615 123.406C244.574 123.933 244.523 124.451 244.461 124.959L243.046 136.531C242.985 137.059 242.73 137.485 242.283 137.809C241.857 138.134 241.359 138.295 240.79 138.295L235.156 138.288C234.587 138.287 234.09 138.124 233.664 137.799C233.238 137.473 232.985 137.047 232.904 136.519L230.308 117.266L236.826 117.274L237.876 130.159C237.916 130.667 237.946 131.215 237.966 131.804C237.985 132.372 237.995 132.992 237.994 133.662L238.481 133.662C238.563 133.135 238.645 132.556 238.727 131.927C238.829 131.277 238.911 130.678 238.973 130.13L240.387 119.228C240.448 118.639 240.682 118.172 241.089 117.828C241.516 117.463 242.024 117.28 242.613 117.281L247.333 117.287C247.922 117.288 248.42 117.471 248.825 117.837C249.231 118.183 249.474 118.65 249.554 119.239L250.973 130.205C251.033 130.753 251.103 131.332 251.184 131.942C251.264 132.551 251.345 133.13 251.426 133.678L251.913 133.678C251.914 133.11 251.935 132.521 251.976 131.912C252.017 131.303 252.048 130.745 252.069 130.237L253.12 117.294L259.638 117.302ZM269.809 116.887C270.906 116.889 272.134 116.961 273.495 117.105C274.875 117.229 276.195 117.514 277.453 117.963L277.052 122.196C276.138 122.174 275.001 122.163 273.641 122.161C272.301 122.139 270.971 122.127 269.651 122.126C269.265 122.125 268.94 122.135 268.676 122.155C268.433 122.175 268.24 122.216 268.097 122.276C267.955 122.337 267.854 122.418 267.792 122.52C267.731 122.621 267.701 122.753 267.701 122.915C267.7 123.2 267.822 123.444 268.065 123.647C268.329 123.83 268.816 124.064 269.526 124.349L273.332 125.938C275.077 126.691 276.294 127.565 276.983 128.561C277.693 129.537 278.047 130.796 278.045 132.339C278.043 133.517 277.9 134.522 277.615 135.354C277.33 136.166 276.852 136.825 276.181 137.332C275.531 137.819 274.657 138.173 273.56 138.395C272.464 138.637 271.093 138.757 269.448 138.755C268.737 138.755 267.661 138.692 266.22 138.569C264.778 138.466 263.144 138.179 261.317 137.71L261.719 133.081C262.937 133.103 264.054 133.135 265.069 133.176C266.084 133.198 266.957 133.219 267.688 133.241C268.44 133.241 268.998 133.242 269.363 133.243C269.932 133.243 270.358 133.223 270.643 133.183C270.947 133.143 271.15 133.072 271.252 132.971C271.374 132.849 271.435 132.697 271.435 132.514C271.436 132.311 271.395 132.149 271.314 132.027C271.233 131.884 271.091 131.752 270.888 131.63C270.685 131.508 270.391 131.376 270.005 131.233L265.835 129.401C264.13 128.627 262.923 127.763 262.214 126.807C261.504 125.852 261.15 124.603 261.152 123.06C261.154 121.862 261.307 120.867 261.613 120.076C261.938 119.284 262.437 118.655 263.107 118.189C263.778 117.723 264.662 117.389 265.758 117.187C266.875 116.985 268.226 116.885 269.809 116.887Z" fill="#A155E6"/>
<path d="M265.039 100.744L265.032 106.599L295.476 106.635L295.483 100.78L265.039 100.744Z" fill="#5E189D"/>
<path d="M412.958 387.501H316.199C307.932 387.501 301.23 380.798 301.23 372.531V171.719C301.23 163.452 307.932 156.75 316.199 156.75H412.958C421.225 156.75 427.927 163.452 427.927 171.719V372.531C427.927 380.798 421.225 387.501 412.958 387.501Z" fill="#5E189D"/>
<path d="M412.958 387.501H316.199C307.932 387.501 301.23 380.798 301.23 372.531V171.719C301.23 163.452 307.932 156.75 316.199 156.75H412.958C421.225 156.75 427.927 163.452 427.927 171.719V372.531C427.927 380.798 421.225 387.501 412.958 387.501Z" fill="#373449"/>
<path opacity="0.03" d="M409.749 384.094H318.104C310.274 384.094 303.926 377.587 303.926 369.562V174.625C303.926 166.6 310.273 160.094 318.104 160.094H409.749C417.579 160.094 423.927 166.6 423.927 174.625V369.562C423.927 377.587 417.579 384.094 409.749 384.094Z" fill="#7994B4"/>
<path d="M411.071 382.109H318.086C312.499 382.109 307.969 377.58 307.969 371.992V173.336C307.969 167.749 312.498 163.219 318.086 163.219H411.071C416.658 163.219 421.188 167.748 421.188 173.336V371.992C421.188 377.58 416.658 382.109 411.071 382.109Z" fill="#F1D8FE"/>
<path d="M420.109 169.689C420.109 168.383 419.57 166.993 418.115 166.083C416.293 164.313 413.811 163.219 411.071 163.219H318.086C314.194 163.219 310.821 165.42 309.129 168.642C309.081 168.985 309.048 169.333 309.048 169.689H420.109Z" fill="#A155E6"/>
<path d="M404.5 166.994C404.5 167.59 404.017 168.072 403.422 168.072C402.826 168.072 402.344 167.589 402.344 166.994C402.344 166.398 402.827 165.916 403.422 165.916C404.017 165.916 404.5 166.399 404.5 166.994Z" fill="#F1D8FE"/>
<path d="M408.813 166.994C408.813 167.59 408.33 168.072 407.735 168.072C407.139 168.072 406.657 167.589 406.657 166.994C406.657 166.398 407.14 165.916 407.735 165.916C408.33 165.916 408.813 166.399 408.813 166.994Z" fill="#F1D8FE"/>
<path d="M413.126 166.994C413.126 167.59 412.643 168.072 412.048 168.072C411.452 168.072 410.971 167.589 410.971 166.994C410.971 166.398 411.453 165.916 412.048 165.916C412.643 165.916 413.126 166.399 413.126 166.994Z" fill="#F1D8FE"/>
<path d="M343.552 163.141L350.055 168.643C350.725 169.313 351.632 169.689 352.579 169.689H377.299C378.465 169.689 379.571 169.18 380.329 168.295L385.604 163.141H343.552Z" fill="#373449"/>
<path d="M343.552 163.141L350.055 168.643C350.725 169.313 351.632 169.689 352.579 169.689H377.299C378.465 169.689 379.571 169.18 380.329 168.295L385.604 163.141H343.552Z" fill="#373449"/>
<path opacity="0.36" d="M367.498 289.567H321.421C320.428 289.567 319.623 289.108 319.623 288.541V242.653C319.623 242.087 320.428 241.627 321.421 241.627H367.498C368.491 241.627 369.296 242.086 369.296 242.653V288.541C369.296 289.108 368.491 289.567 367.498 289.567Z" fill="#A155E6"/>
<path opacity="0.89" d="M410.138 316.698H319.018C318.621 316.698 318.3 316.428 318.3 316.095V300.048C318.3 299.715 318.622 299.445 319.018 299.445H410.138C410.535 299.445 410.856 299.715 410.856 300.048V316.095C410.857 316.429 410.535 316.698 410.138 316.698Z" fill="#5E189D"/>
<path d="M347.241 184.383L347.226 196.201C347.225 197.162 346.744 197.642 345.783 197.641L344.188 197.639C343.753 197.639 343.426 197.536 343.209 197.33C343.004 197.125 342.793 196.824 342.575 196.426L339.698 191.868C339.519 191.535 339.353 191.176 339.2 190.792C339.059 190.394 338.932 189.997 338.817 189.6L338.682 189.599C338.746 189.997 338.79 190.407 338.815 190.83C338.853 191.24 338.872 191.637 338.872 192.021L338.865 197.633L335.021 197.628L335.036 185.809C335.037 184.848 335.518 184.368 336.479 184.37L338.074 184.372C338.509 184.372 338.829 184.475 339.034 184.68C339.239 184.885 339.456 185.187 339.687 185.584L342.449 189.931C342.628 190.251 342.8 190.604 342.966 190.988C343.145 191.373 343.311 191.777 343.465 192.2L343.599 192.2C343.548 191.79 343.504 191.386 343.466 190.989C343.441 190.592 343.428 190.195 343.429 189.797L343.416 184.378L347.241 184.383ZM352.243 184.312C353.011 184.313 353.799 184.32 354.606 184.334C355.426 184.335 356.227 184.355 357.009 184.394C357.79 184.421 358.501 184.479 359.142 184.57L358.946 187.51L354.084 187.504C353.84 187.504 353.648 187.568 353.507 187.696C353.366 187.823 353.295 187.99 353.295 188.195L353.288 193.845C353.288 194.05 353.358 194.217 353.499 194.345C353.64 194.473 353.832 194.537 354.075 194.538L358.937 194.544L359.126 197.484C358.485 197.56 357.774 197.617 356.993 197.655C356.211 197.692 355.41 197.71 354.59 197.709C353.783 197.721 352.995 197.727 352.227 197.726C351.317 197.725 350.568 197.448 349.979 196.897C349.403 196.332 349.116 195.602 349.117 194.705L349.126 187.325C349.127 186.428 349.416 185.705 349.993 185.155C350.583 184.592 351.333 184.311 352.243 184.312ZM349.469 189.478L358.252 189.488L358.248 192.256L349.466 192.245L349.469 189.478ZM378.565 184.42L376.898 196.564C376.846 196.897 376.686 197.166 376.417 197.37C376.147 197.575 375.833 197.677 375.475 197.677L371.938 197.672C371.58 197.672 371.26 197.569 370.978 197.364C370.709 197.159 370.556 196.889 370.518 196.556L369.623 189.233C369.585 188.913 369.554 188.592 369.528 188.272C369.516 187.939 369.497 187.612 369.472 187.292L369.145 187.291C369.132 187.612 369.112 187.938 369.086 188.272C369.06 188.605 369.028 188.931 368.989 189.252L368.096 196.553C368.057 196.886 367.897 197.155 367.615 197.36C367.346 197.564 367.032 197.667 366.673 197.666L363.118 197.662C362.759 197.661 362.445 197.559 362.176 197.353C361.907 197.148 361.748 196.879 361.697 196.546L360.059 184.398L364.171 184.403L364.834 192.533C364.859 192.853 364.878 193.199 364.89 193.571C364.903 193.929 364.909 194.32 364.908 194.743L365.216 194.743C365.267 194.41 365.319 194.045 365.371 193.648C365.435 193.238 365.487 192.86 365.526 192.514L366.418 185.635C366.457 185.264 366.605 184.969 366.861 184.752C367.131 184.522 367.451 184.407 367.823 184.407L370.801 184.411C371.173 184.411 371.487 184.527 371.743 184.758C371.999 184.976 372.152 185.271 372.203 185.642L373.098 192.562C373.136 192.908 373.18 193.273 373.231 193.657C373.282 194.042 373.332 194.407 373.383 194.753L373.691 194.753C373.691 194.395 373.704 194.023 373.731 193.639C373.757 193.255 373.776 192.902 373.79 192.582L374.453 184.415L378.565 184.42ZM384.983 184.159C385.675 184.16 386.45 184.205 387.308 184.296C388.179 184.374 389.012 184.554 389.806 184.837L389.553 187.508C388.976 187.495 388.259 187.487 387.4 187.486C386.555 187.473 385.716 187.465 384.883 187.464C384.64 187.464 384.435 187.47 384.268 187.483C384.114 187.495 383.992 187.521 383.903 187.559C383.813 187.597 383.749 187.649 383.71 187.713C383.672 187.777 383.653 187.86 383.652 187.962C383.652 188.142 383.729 188.295 383.882 188.424C384.049 188.539 384.356 188.687 384.804 188.867L387.205 189.869C388.307 190.344 389.075 190.896 389.51 191.525C389.957 192.14 390.181 192.935 390.179 193.908C390.178 194.652 390.088 195.286 389.908 195.811C389.728 196.323 389.426 196.739 389.003 197.059C388.593 197.366 388.042 197.589 387.35 197.729C386.658 197.882 385.793 197.958 384.755 197.957C384.307 197.956 383.628 197.917 382.718 197.839C381.809 197.774 380.777 197.593 379.625 197.297L379.878 194.377C380.647 194.39 381.351 194.41 381.992 194.437C382.633 194.45 383.183 194.464 383.645 194.477C384.119 194.478 384.471 194.478 384.702 194.478C385.06 194.479 385.329 194.466 385.509 194.441C385.701 194.416 385.829 194.371 385.893 194.307C385.97 194.23 386.009 194.134 386.009 194.019C386.009 193.891 385.984 193.788 385.932 193.711C385.881 193.621 385.792 193.538 385.664 193.461C385.536 193.384 385.35 193.3 385.107 193.211L382.475 192.054C381.4 191.566 380.638 191.021 380.19 190.418C379.743 189.815 379.519 189.027 379.52 188.053C379.521 187.298 379.618 186.67 379.811 186.17C380.017 185.671 380.331 185.274 380.754 184.98C381.177 184.686 381.735 184.475 382.427 184.348C383.132 184.221 383.984 184.158 384.983 184.159Z" fill="#5E189D"/>
<path d="M340.477 207.436L340.461 220.697L337.521 220.693L337.537 207.433L340.477 207.436ZM344.475 207.441L344.472 209.747L333.556 209.734L333.559 207.428L344.475 207.441ZM351.235 207.18C352.286 207.182 353.176 207.298 353.906 207.529C354.636 207.748 355.219 208.12 355.654 208.646C356.101 209.159 356.427 209.864 356.631 210.761C356.835 211.646 356.936 212.754 356.935 214.086C356.933 215.419 356.829 216.533 356.623 217.43C356.417 218.314 356.09 219.018 355.641 219.543C355.204 220.055 354.621 220.425 353.89 220.655C353.16 220.872 352.269 220.98 351.219 220.979C350.168 220.977 349.278 220.867 348.548 220.649C347.818 220.417 347.229 220.045 346.781 219.532C346.333 219.006 346.008 218.301 345.804 217.417C345.6 216.52 345.499 215.405 345.5 214.073C345.502 212.74 345.606 211.632 345.812 210.748C346.018 209.852 346.345 209.147 346.794 208.635C347.243 208.111 347.833 207.74 348.564 207.523C349.294 207.293 350.185 207.179 351.235 207.18ZM351.233 209.506C350.553 209.505 350.022 209.639 349.637 209.907C349.265 210.176 348.995 210.643 348.828 211.309C348.674 211.962 348.596 212.885 348.594 214.076C348.593 215.255 348.669 216.178 348.821 216.844C348.987 217.51 349.256 217.978 349.627 218.248C350.011 218.517 350.542 218.652 351.222 218.653C351.888 218.654 352.407 218.52 352.779 218.252C353.163 217.983 353.433 217.516 353.587 216.85C353.755 216.184 353.839 215.261 353.841 214.083C353.842 212.891 353.76 211.969 353.594 211.315C353.441 210.649 353.173 210.181 352.789 209.911C352.417 209.642 351.899 209.506 351.233 209.506ZM364.389 207.273C365.44 207.274 366.324 207.391 367.041 207.622C367.771 207.841 368.353 208.207 368.788 208.72C369.236 209.233 369.562 209.931 369.766 210.815C369.97 211.687 370.071 212.782 370.07 214.102C370.068 215.422 369.964 216.523 369.758 217.407C369.552 218.278 369.225 218.97 368.776 219.482C368.339 219.993 367.756 220.364 367.025 220.594C366.308 220.811 365.424 220.919 364.373 220.918C363.361 220.916 362.432 220.896 361.586 220.857C360.741 220.817 359.934 220.771 359.165 220.719L360.398 218.549C360.885 218.575 361.461 218.602 362.127 218.628C362.806 218.642 363.556 218.649 364.376 218.65C365.029 218.651 365.542 218.523 365.914 218.267C366.298 217.999 366.568 217.531 366.722 216.865C366.89 216.199 366.974 215.277 366.976 214.098C366.977 212.92 366.895 211.997 366.729 211.331C366.576 210.664 366.308 210.196 365.924 209.927C365.552 209.657 365.04 209.522 364.387 209.521C363.605 209.52 362.907 209.526 362.292 209.538C361.677 209.537 361.075 209.537 360.485 209.536L359.181 207.459C359.95 207.409 360.751 207.365 361.583 207.327C362.429 207.29 363.364 207.272 364.389 207.273ZM362.121 207.462L362.105 220.723L359.165 220.719L359.181 207.459L362.121 207.462ZM378.529 207.482C378.772 207.482 378.983 207.553 379.163 207.694C379.355 207.835 379.483 208.021 379.546 208.252L383.375 220.748L380.377 220.745L377.679 210.998C377.628 210.78 377.577 210.562 377.526 210.344C377.475 210.114 377.43 209.896 377.392 209.691L376.873 209.69C376.835 209.895 376.79 210.113 376.738 210.343C376.699 210.561 376.648 210.779 376.584 210.997L373.862 220.737L370.845 220.733L374.723 208.246C374.787 208.016 374.909 207.83 375.089 207.689C375.281 207.549 375.499 207.478 375.742 207.479L378.529 207.482ZM380.557 215.037L380.554 217.247L373.674 217.239L373.677 215.029L380.557 215.037ZM394.032 207.501L389.544 216.547L386.776 216.544L382.29 207.487L385.346 207.49L387.569 212.374C387.684 212.631 387.78 212.906 387.856 213.201C387.933 213.496 388.003 213.778 388.067 214.047L388.259 214.047C388.336 213.778 388.413 213.496 388.491 213.202C388.568 212.907 388.658 212.632 388.761 212.376L390.977 207.497L394.032 207.501ZM389.623 214.76L389.615 220.756L386.675 220.752L386.682 214.756L389.623 214.76Z" fill="#A155E6"/>
<path d="M411.833 227.93H317.324V230.669H411.833V227.93Z" fill="#A155E6"/>
<path d="M324.096 182.73H318.617V221.082H324.096V182.73Z" fill="#A155E6"/>
<path d="M329.575 182.73H324.096V221.082H329.575V182.73Z" fill="#5E189D"/>
<path opacity="0.36" d="M411.756 244.367H372.035V248.227H411.756V244.367Z" fill="#5E189D"/>
<path opacity="0.36" d="M411.756 252.087H372.035V255.947H411.756V252.087Z" fill="#5E189D"/>
<path opacity="0.36" d="M411.756 259.807H372.035V263.667H411.756V259.807Z" fill="#5E189D"/>
<path opacity="0.36" d="M377.514 325.179H318.617V329.039H377.514V325.179Z" fill="#5E189D"/>
<path opacity="0.36" d="M377.514 332.899H318.617V336.759H377.514V332.899Z" fill="#5E189D"/>
<path opacity="0.36" d="M377.514 340.619H318.617V344.479H377.514V340.619Z" fill="#5E189D"/>
<path opacity="0.36" d="M411.756 267.527H372.035V271.387H411.756V267.527Z" fill="#5E189D"/>
<path opacity="0.36" d="M411.756 275.247H372.035V279.107H411.756V275.247Z" fill="#5E189D"/>
<path opacity="0.36" d="M411.756 282.967H372.035V286.827H411.756V282.967Z" fill="#5E189D"/>
<path opacity="0.89" d="M318.516 352.512L318.497 368.231L347.225 368.265L347.244 352.546L318.516 352.512Z" fill="#5E189D"/>
<path opacity="0.89" d="M350.893 352.555L350.874 368.274L379.602 368.308L379.621 352.589L350.893 352.555Z" fill="#5E189D"/>
<path opacity="0.89" d="M383.03 352.59L383.011 368.309L411.739 368.344L411.758 352.625L383.03 352.59Z" fill="#A155E6"/>
<path opacity="0.36" d="M410.386 325.179H380.253V344.355H410.386V325.179Z" fill="#A155E6"/>
<path opacity="0.89" d="M344.218 282.387C334.729 282.387 327.009 274.667 327.009 265.178C327.009 264.582 327.04 263.976 327.103 263.376L327.149 262.928H342.965C344.304 262.928 345.406 261.868 345.421 260.566L345.418 260.405C345.352 259.182 344.302 258.221 343.027 258.221H339.515C338.668 258.221 337.959 257.552 337.935 256.73C337.922 256.31 338.077 255.914 338.369 255.613C338.661 255.312 339.054 255.146 339.473 255.146H346.144C346.28 255.146 350.156 255.22 350.156 255.22C350.802 255.22 351.412 254.96 351.867 254.49C352.321 254.019 352.558 253.398 352.535 252.742C352.49 251.472 351.388 250.439 350.077 250.439H335.032L337.15 249.483C339.378 248.479 341.755 247.969 344.218 247.969C353.707 247.969 361.427 255.689 361.427 265.178C361.427 266.411 361.295 267.644 361.034 268.842L360.949 269.237H343.444C342.056 269.237 340.927 270.366 340.927 271.754C340.927 273.143 342.056 274.272 343.444 274.272H347.335L347.187 274.889C347.14 275.082 347.117 275.277 347.117 275.467C347.117 276.855 348.246 277.984 349.634 277.984H355.81L354.629 278.883C351.613 281.175 348.013 282.387 344.218 282.387ZM328.057 263.928C328.025 264.345 328.009 264.765 328.009 265.178C328.009 274.116 335.28 281.387 344.218 281.387C347.26 281.387 350.168 280.561 352.717 278.984H349.633C347.694 278.984 346.116 277.406 346.116 275.466C346.116 275.401 346.118 275.336 346.122 275.271H343.444C341.505 275.271 339.927 273.693 339.927 271.753C339.927 269.813 341.504 268.236 343.444 268.236H360.137C360.329 267.232 360.426 266.205 360.426 265.177C360.426 259.634 357.63 254.732 353.373 251.807C353.467 252.092 353.521 252.393 353.533 252.704C353.566 253.634 353.229 254.514 352.585 255.182C351.94 255.85 351.073 256.219 350.145 256.219C350.135 256.219 346.291 256.145 346.143 256.145H339.472C339.325 256.145 339.189 256.202 339.086 256.307C338.983 256.412 338.93 256.553 338.935 256.701C338.943 256.988 339.203 257.221 339.515 257.221H343.027C344.833 257.221 346.321 258.598 346.416 260.354C346.42 260.432 346.422 260.505 346.421 260.581C346.4 262.427 344.849 263.93 342.965 263.93H328.057V263.928ZM340.322 249.439H348.1C345.62 248.827 342.86 248.812 340.322 249.439Z" fill="#F1D8FE"/>
<path opacity="0.89" d="M354.494 278.983H349.633C347.694 278.983 346.116 277.406 346.116 275.466C346.116 275.401 346.118 275.335 346.122 275.27H343.444C341.505 275.27 339.927 273.692 339.927 271.752C339.927 269.812 341.504 268.235 343.444 268.235H361.167L361.034 268.841C360.169 272.829 357.893 276.395 354.628 278.879L354.494 278.983ZM343.445 269.236C342.057 269.236 340.928 270.365 340.928 271.753C340.928 273.142 342.057 274.271 343.445 274.271H347.336L347.188 274.888C347.141 275.081 347.118 275.277 347.118 275.467C347.118 276.855 348.247 277.984 349.635 277.984H354.158C356.998 275.776 359.023 272.694 359.915 269.237H343.445V269.236Z" fill="#F1D8FE"/>
<path opacity="0.89" d="M342.965 263.928H327.045L327.103 263.376C327.733 257.317 331.583 251.994 337.15 249.482L337.356 249.438H350.077C351.92 249.438 353.471 250.904 353.535 252.706C353.568 253.636 353.231 254.516 352.587 255.184C351.942 255.852 351.075 256.22 350.147 256.22C350.137 256.22 346.293 256.146 346.145 256.146H339.474C339.327 256.146 339.191 256.204 339.088 256.309C338.985 256.414 338.932 256.554 338.937 256.702C338.945 256.989 339.205 257.223 339.517 257.223H343.029C344.835 257.223 346.323 258.598 346.418 260.354C346.422 260.432 346.424 260.506 346.423 260.582C346.399 262.427 344.849 263.928 342.965 263.928ZM328.164 262.928H342.965C344.304 262.928 345.406 261.868 345.421 260.566L345.418 260.405C345.352 259.182 344.302 258.221 343.027 258.221H339.515C338.668 258.221 337.959 257.552 337.935 256.73C337.922 256.31 338.077 255.914 338.369 255.613C338.661 255.312 339.054 255.146 339.473 255.146H346.144C346.28 255.146 350.156 255.22 350.156 255.22C350.802 255.22 351.412 254.96 351.867 254.49C352.321 254.019 352.558 253.398 352.535 252.742C352.49 251.472 351.388 250.439 350.077 250.439H337.465C332.442 252.744 328.922 257.487 328.164 262.928Z" fill="#F1D8FE"/>
<path d="M341.417 48.0935H404.32C408.56 48.0935 411.996 51.5305 411.996 55.7715V118.674C411.996 122.914 408.56 126.352 404.32 126.352H353.745C352.697 126.352 351.687 126.743 350.912 127.447L340.783 136.655C338.078 139.114 333.739 137.195 333.739 133.539V108.145V92.9375V55.7715C333.74 51.5305 337.177 48.0935 341.417 48.0935Z" fill="#5E189D"/>
<path opacity="0.11" d="M341.417 48.0935H404.32C408.56 48.0935 411.996 51.5305 411.996 55.7715V118.674C411.996 122.914 408.56 126.352 404.32 126.352H353.745C352.697 126.352 351.687 126.743 350.912 127.447L340.783 136.655C338.078 139.114 333.739 137.195 333.739 133.539V108.145V92.9375V55.7715C333.74 51.5305 337.177 48.0935 341.417 48.0935Z" fill="#373449"/>
<path d="M344.456 48.0935H401.281C405.111 48.0935 408.216 51.1985 408.216 55.0295V111.854C408.216 115.684 405.111 118.79 401.281 118.79H355.593C354.646 118.79 353.734 119.143 353.034 119.779L343.884 128.097C341.44 130.318 337.521 128.585 337.521 125.282V102.342V88.6045V55.0295C337.52 51.1985 340.625 48.0935 344.456 48.0935Z" fill="#5E189D"/>
<path d="M360.62 95.3835L360.594 95.3665L360.622 95.3985C360.621 95.3935 360.621 95.3885 360.62 95.3835Z" fill="#A8D0FE"/>
<path d="M354.169 91.3505L356.273 101.874L360.594 95.3665L354.169 91.3505Z" fill="#F1D8FE"/>
<path d="M399.101 68.3655L355.098 91.3805C354.812 91.5315 354.472 91.5065 354.204 91.3315L354.168 91.3495L360.593 95.3655L360.619 95.3825C360.579 95.0655 360.692 94.7365 360.98 94.5405L399.418 68.1995L399.172 68.3255C399.144 68.3425 399.115 68.3585 399.101 68.3655Z" fill="#F1D8FE"/>
<path opacity="0.18" d="M399.173 68.3255C399.144 68.3435 399.115 68.3585 399.101 68.3665L355.098 91.3815C354.812 91.5325 354.472 91.5075 354.204 91.3325L354.168 91.3505L356.273 101.873L360.593 95.3655L360.619 95.3825C360.579 95.0655 360.692 94.7365 360.98 94.5395L399.418 68.1985L399.173 68.3255Z" fill="#4C65BA"/>
<path d="M360.62 95.3835C360.621 95.3885 360.621 95.3935 360.622 95.3985L363.496 98.6775L370.397 105.931C373.294 108.976 378.31 108.356 380.378 104.696L399.419 68.1995L360.981 94.5405C360.693 94.7365 360.58 95.0665 360.62 95.3835Z" fill="#F1D8FE"/>
<path d="M355.098 91.3815L399.101 68.3665C399.115 68.3595 399.144 68.3435 399.173 68.3255C399.251 68.2785 399.324 68.2195 399.067 68.2705L346.288 78.9135C343.807 79.4605 343.083 82.6495 345.084 84.2145L354.139 91.2955C354.159 91.3115 354.183 91.3185 354.204 91.3325C354.472 91.5075 354.812 91.5315 355.098 91.3815Z" fill="#F1D8FE"/>
<path d="M360.622 95.3985L360.594 95.3665L356.273 101.874L363.497 98.6785L363.496 98.6775L360.622 95.3985Z" fill="#F1D8FE"/>
<path opacity="0.29" d="M360.622 95.3985L360.594 95.3665L356.273 101.874L363.497 98.6785L363.496 98.6775L360.622 95.3985Z" fill="#4C65BA"/>
<path d="M130.491 70.5155H63.6075C62.8525 70.5155 62.2405 69.9035 62.2405 69.1485V47.1795C62.2405 46.4245 62.8525 45.8125 63.6075 45.8125H130.491C131.246 45.8125 131.858 46.4245 131.858 47.1795V69.1485C131.858 69.9035 131.246 70.5155 130.491 70.5155Z" fill="#5E189D"/>
<path d="M74.2905 49.6101V62.4349C74.2905 62.7187 74.3881 62.9493 74.5832 63.1267C74.7961 63.3041 75.071 63.3928 75.408 63.3928H81.581L81.8471 67.7032C80.4812 67.8806 79.0178 67.987 77.4568 68.0225C75.9136 68.058 74.3881 68.0757 72.8803 68.0757C71.5499 68.0757 70.4856 67.6944 69.6874 66.9316C68.9069 66.1511 68.5167 65.14 68.5167 63.8983V49.6101H74.2905ZM89.128 49.6101V67.9693H83.4074V49.6101H89.128ZM108.426 49.6101L103.956 66.4261C103.85 66.8873 103.619 67.2598 103.264 67.5436C102.91 67.8274 102.484 67.9693 101.987 67.9693H96.9317C96.435 67.9693 96.0093 67.8274 95.6545 67.5436C95.2998 67.2598 95.0692 66.8873 94.9627 66.4261L90.4927 49.6101H96.4262L98.7942 61.5569C98.8652 61.8939 98.9273 62.2487 98.9805 62.6212C99.0337 62.9759 99.0869 63.3218 99.1401 63.6589H99.7787C99.8142 63.3218 99.8585 62.9759 99.9118 62.6212C99.9827 62.2487 100.054 61.8939 100.125 61.5569L102.493 49.6101H108.426ZM113.932 49.5036C114.996 49.5036 116.087 49.5125 117.205 49.5302C118.34 49.5302 119.449 49.5568 120.531 49.6101C121.613 49.6455 122.597 49.7254 123.484 49.8495L123.218 53.9205H116.486C116.149 53.9205 115.883 54.0092 115.688 54.1866C115.493 54.3639 115.395 54.5945 115.395 54.8784V62.701C115.395 62.9848 115.493 63.2154 115.688 63.3928C115.883 63.5702 116.149 63.6589 116.486 63.6589H123.218L123.484 67.7298C122.597 67.8363 121.613 67.9161 120.531 67.9693C119.449 68.0225 118.34 68.0491 117.205 68.0491C116.087 68.0669 114.996 68.0757 113.932 68.0757C112.672 68.0757 111.635 67.6944 110.819 66.9316C110.021 66.1511 109.621 65.14 109.621 63.8983V53.681C109.621 52.4393 110.021 51.4371 110.819 50.6744C111.635 49.8939 112.672 49.5036 113.932 49.5036ZM110.1 56.6611H122.26V60.4926H110.1V56.6611Z" fill="#F1D8FE"/>
<path d="M5.99854 240.307V188.092C5.99854 184.572 8.85154 181.719 12.3715 181.719H64.5875C68.1075 181.719 70.9605 184.572 70.9605 188.092V230.074C70.9605 230.944 71.2845 231.782 71.8695 232.426L79.5135 240.833C81.5555 243.078 79.9615 246.681 76.9265 246.681H55.8475H43.2245H12.3725C8.85154 246.681 5.99854 243.827 5.99854 240.307Z" fill="#5E189D"/>
<path opacity="0.11" d="M5.99854 240.307V188.092C5.99854 184.572 8.85154 181.719 12.3715 181.719H64.5875C68.1075 181.719 70.9605 184.572 70.9605 188.092V230.074C70.9605 230.944 71.2845 231.782 71.8695 232.426L79.5135 240.833C81.5555 243.078 79.9615 246.681 76.9265 246.681H55.8475H43.2245H12.3725C8.85154 246.681 5.99854 243.827 5.99854 240.307Z" fill="#373449"/>
<path d="M5.99854 239.367V192.446C5.99854 189.283 8.67954 186.719 11.9865 186.719H61.0445C64.3515 186.719 67.0325 189.283 67.0325 192.446V230.171C67.0325 230.951 67.3375 231.706 67.8865 232.284L75.0675 239.839C76.9855 241.857 75.4885 245.092 72.6375 245.092H52.8325H40.9725H11.9865C8.67954 245.093 5.99854 242.53 5.99854 239.367Z" fill="#5E189D"/>
<path d="M31.7405 228.487C31.7405 226.952 32.2165 225.689 33.1715 224.696C34.1265 223.705 35.4445 223.21 37.1295 223.21C38.8135 223.21 40.1315 223.706 41.0865 224.696C42.0415 225.689 42.5175 226.952 42.5175 228.487C42.5175 230.022 42.0405 231.285 41.0865 232.275C40.1315 233.266 38.8135 233.761 37.1295 233.761C35.4445 233.761 34.1275 233.266 33.1715 232.275C32.2165 231.285 31.7405 230.022 31.7405 228.487ZM42.0685 200.196C42.0685 201.058 42.0495 202.3 42.0115 203.93C41.9735 205.557 41.8995 207.316 41.7875 209.205C41.6765 211.096 41.5245 212.985 41.3385 214.874C41.1505 216.765 40.9255 218.401 40.6635 219.786C40.5135 219.898 40.2905 220.01 39.9905 220.123C39.6915 220.235 39.3725 220.327 39.0355 220.403C38.6985 220.477 38.3625 220.534 38.0255 220.572C37.6885 220.608 37.3885 220.627 37.1275 220.627C36.0415 220.627 35.1345 220.458 34.4055 220.123C33.6765 219.786 33.2165 219.132 33.0285 218.158C32.8405 217.298 32.6825 215.989 32.5515 214.228C32.4215 212.47 32.2985 210.562 32.1865 208.502C32.0745 206.444 31.9905 204.406 31.9335 202.384C31.9065 201.407 31.8865 200.501 31.8725 199.664C31.8455 198.09 32.8515 196.64 34.3755 196.246C34.3855 196.243 34.3945 196.241 34.4045 196.239C35.3575 195.997 36.3015 195.874 37.2375 195.874C38.7725 195.874 39.9595 196.23 40.8025 196.941C41.6475 197.652 42.0685 198.737 42.0685 200.196Z" fill="#F1D8FE"/>
<g opacity="0.1">
<path d="M37.0035 223.21C38.6875 223.21 40.0055 223.706 40.9605 224.696C41.9155 225.689 42.3915 226.952 42.3915 228.487C42.3915 230.022 41.9155 231.285 40.9605 232.275C40.0055 233.266 38.6875 233.761 37.0035 233.761C36.1615 233.762 38.9275 233.094 38.9275 228.094C38.9275 223.094 36.1615 223.21 37.0035 223.21ZM41.9435 200.196C41.9435 201.058 41.9245 202.3 41.8865 203.93C41.8485 205.557 41.7745 207.316 41.6625 209.205C41.5515 211.096 41.3995 212.985 41.2135 214.874C41.0255 216.765 40.8005 218.401 40.5385 219.786C40.3885 219.898 40.1655 220.01 39.8655 220.123C39.5665 220.235 39.2475 220.327 38.9105 220.403C38.5735 220.477 38.2375 220.534 37.9005 220.572C37.5635 220.608 37.2635 220.627 37.0025 220.627C36.7545 220.627 38.6575 214.955 38.6775 209.042C38.6995 202.602 36.8595 195.874 37.1145 195.874C38.6495 195.874 39.8365 196.23 40.6795 196.941C41.5215 197.652 41.9435 198.737 41.9435 200.196Z" fill="#4C65BA"/>
</g>
</svg>
