<svg width="32" height="33" viewBox="0 0 32 33" fill="none" xmlns="http://www.w3.org/2000/svg">
<path d="M5.33496 3.9325H26.668C27.11 3.9325 27.5341 4.10821 27.8467 4.42078C28.1591 4.73332 28.335 5.15754 28.335 5.59949V21.5995C28.3349 22.0412 28.159 22.4648 27.8467 22.7772C27.5341 23.0898 27.11 23.2655 26.668 23.2655H18.1201L17.8262 23.5594L12.9121 28.4872C12.8211 28.5736 12.7312 28.5995 12.668 28.5995H12.001C11.9128 28.5994 11.828 28.5642 11.7656 28.5018C11.7031 28.4393 11.668 28.3539 11.668 28.2655V23.2655H5.33496C4.89293 23.2655 4.46881 23.0898 4.15625 22.7772C3.84387 22.4648 3.66805 22.0413 3.66797 21.5995V5.59949L3.67578 5.43445C3.71365 5.05289 3.88275 4.69428 4.15625 4.42078C4.42975 4.14727 4.78836 3.97818 5.16992 3.94031L5.33496 3.9325Z" stroke="#4D4D4D" stroke-width="2"/>
</svg>
