<svg width="25" height="26" viewBox="0 0 25 26" fill="none" xmlns="http://www.w3.org/2000/svg">
<path d="M9.37565 22.9694C9.09938 22.9694 8.83443 22.8596 8.63908 22.6643C8.44373 22.4689 8.33398 22.204 8.33398 21.9277V18.8027H4.16732C3.61478 18.8027 3.08488 18.5832 2.69418 18.1925C2.30348 17.8018 2.08398 17.2719 2.08398 16.7194V4.21938C2.08398 3.66685 2.30348 3.13694 2.69418 2.74624C3.08488 2.35554 3.61478 2.13605 4.16732 2.13605H20.834C21.3865 2.13605 21.9164 2.35554 22.3071 2.74624C22.6978 3.13694 22.9173 3.66685 22.9173 4.21938V16.7194C22.9173 17.2719 22.6978 17.8018 22.3071 18.1925C21.9164 18.5832 21.3865 18.8027 20.834 18.8027H14.4798L10.6257 22.6673C10.4173 22.8652 10.1569 22.9694 9.89648 22.9694H9.37565Z" fill="#5E189D"/>
</svg>
