<svg width="20" height="21" viewBox="0 0 20 21" fill="none" xmlns="http://www.w3.org/2000/svg">
<path d="M7.50033 19.2088C7.27931 19.2088 7.06735 19.121 6.91107 18.9647C6.75479 18.8084 6.66699 18.5965 6.66699 18.3754V15.8754H3.33366C2.89163 15.8754 2.46771 15.6999 2.15515 15.3873C1.84259 15.0747 1.66699 14.6508 1.66699 14.2088V4.20878C1.66699 3.76675 1.84259 3.34283 2.15515 3.03027C2.46771 2.71771 2.89163 2.54211 3.33366 2.54211H16.667C17.109 2.54211 17.5329 2.71771 17.8455 3.03027C18.1581 3.34283 18.3337 3.76675 18.3337 4.20878V14.2088C18.3337 14.6508 18.1581 15.0747 17.8455 15.3873C17.5329 15.6999 17.109 15.8754 16.667 15.8754H11.5837L8.50033 18.9671C8.33366 19.1254 8.12533 19.2088 7.91699 19.2088H7.50033Z" fill="#5E189D"/>
</svg>
