<svg width="25" height="24" viewBox="0 0 25 24" fill="none" xmlns="http://www.w3.org/2000/svg">
<path d="M8.99935 14.9324L9.98602 15.0964C10.0098 14.9531 10.0022 14.8064 9.96354 14.6664C9.92492 14.5264 9.85627 14.3965 9.76238 14.2858C9.66848 14.175 9.55158 14.086 9.41981 14.025C9.28804 13.9639 9.14456 13.9324 8.99935 13.9324V14.9324ZM23.666 14.9324V15.9324C23.9312 15.9324 24.1856 15.827 24.3731 15.6395C24.5607 15.452 24.666 15.1976 24.666 14.9324H23.666ZM20.9993 0.599047H5.85268V2.59905H20.9993V0.599047ZM4.25268 15.9324H8.99935V13.9324H4.25268V15.9324ZM8.01268 14.7684L6.93801 21.215L8.91135 21.5444L9.98602 15.0964L8.01268 14.7684ZM9.23935 23.9324H9.52468V21.9324H9.24068L9.23935 23.9324ZM13.686 21.7057L17.0393 16.675L15.3753 15.5657L12.022 20.5964L13.686 21.7057ZM18.426 15.9324H23.666V13.9324H18.426V15.9324ZM24.666 14.9324V4.26571H22.666V14.9324H24.666ZM2.25668 3.54571L0.656681 11.5457L2.61668 11.939L4.21668 3.93905L2.25668 3.54571ZM17.0393 16.675C17.1915 16.4467 17.3977 16.2607 17.6396 16.1312C17.8815 16.0016 18.1516 15.9338 18.426 15.9337V13.9337C17.1993 13.9337 16.0553 14.5457 15.3753 15.5657L17.0393 16.675ZM6.93801 21.215C6.88246 21.5492 6.90033 21.8928 6.9904 22.2194C7.08046 22.546 7.24055 22.849 7.45955 23.1075C7.67854 23.3659 7.95119 23.5736 8.25855 23.716C8.5659 23.8585 8.90059 23.9323 9.23935 23.9324L9.24068 21.9324C9.19235 21.9323 9.14329 21.9216 9.09948 21.9012C9.05566 21.8808 9.01681 21.8512 8.98561 21.8142C8.9544 21.7773 8.9316 21.7341 8.91878 21.6875C8.90596 21.6409 8.90342 21.5921 8.91135 21.5444L6.93801 21.215ZM4.25268 13.9337C3.19935 13.9337 2.41268 12.971 2.61802 11.9404L0.656681 11.547C0.550577 12.0789 0.563784 12.629 0.695353 13.1552C0.826921 13.6814 1.07358 14.1718 1.41754 14.5911C1.7615 15.0104 2.1942 15.3482 2.68446 15.5802C3.17472 15.8121 3.71033 15.9324 4.25268 15.9324V13.9337ZM5.85268 0.599047C5.00507 0.598881 4.18358 0.893711 3.52797 1.43094C2.87236 1.96817 2.42312 2.71594 2.25668 3.54705L4.21668 3.94038C4.29226 3.56225 4.49662 3.22202 4.79494 2.97768C5.09326 2.73334 5.46707 2.59866 5.85268 2.59905V0.599047ZM9.52468 23.9324C10.3478 23.9323 11.1582 23.7304 11.8839 23.342C12.6096 22.9535 13.2281 22.3919 13.6847 21.707L12.022 20.5964C11.748 21.0075 11.3766 21.3459 10.9409 21.579C10.5053 21.812 10.0188 21.9326 9.52468 21.9324V23.9324ZM20.9993 2.59905C21.9193 2.59905 22.666 3.34571 22.666 4.26571H24.666C24.666 3.29325 24.2797 2.36062 23.5921 1.67299C22.9044 0.985355 21.9718 0.599047 20.9993 0.599047V2.59905Z" fill="#4D4D4D"/>
<path d="M18.333 14.9325V1.59916" stroke="#4D4D4D" stroke-width="2"/>
</svg>
