<svg width="25" height="24" viewBox="0 0 25 24" fill="none" xmlns="http://www.w3.org/2000/svg">
<path d="M16.0007 9.59911L15.014 9.43511C14.9902 9.57836 14.9978 9.72508 15.0365 9.86507C15.0751 10.0051 15.1437 10.1349 15.2376 10.2457C15.3315 10.3565 15.4484 10.4455 15.5802 10.5065C15.712 10.5675 15.8554 10.5991 16.0007 10.5991V9.59911ZM1.33398 9.59911V8.59911C1.06877 8.59911 0.814414 8.70447 0.626877 8.89201C0.439341 9.07954 0.333984 9.3339 0.333984 9.59911H1.33398ZM4.00065 23.9324H19.1473V21.9324H4.00065V23.9324ZM20.7473 8.59911H16.0007V10.5991H20.7473V8.59911ZM16.9873 9.76311L18.062 3.31645L16.0887 2.98711L15.014 9.43511L16.9873 9.76311ZM15.7607 0.599112H15.4753V2.59911H15.7593L15.7607 0.599112ZM11.314 2.82578L7.96065 7.85645L9.62465 8.96578L12.978 3.93511L11.314 2.82578ZM6.57398 8.59911H1.33398V10.5991H6.57398V8.59911ZM0.333984 9.59911V20.2658H2.33398V9.59911H0.333984ZM22.7433 20.9858L24.3433 12.9858L22.3833 12.5924L20.7833 20.5924L22.7433 20.9858ZM7.96065 7.85645C7.80852 8.08482 7.60235 8.27077 7.36045 8.40033C7.11854 8.52989 6.8484 8.59771 6.57398 8.59778V10.5978C7.80065 10.5978 8.94465 9.98578 9.62465 8.96578L7.96065 7.85645ZM18.062 3.31645C18.1175 2.98227 18.0997 2.63867 18.0096 2.3121C17.9195 1.98553 17.7594 1.68249 17.5405 1.42403C17.3215 1.16558 17.0488 0.957904 16.7415 0.815448C16.4341 0.672993 16.0994 0.599171 15.7607 0.599112L15.7593 2.59911C15.8076 2.59923 15.8567 2.60986 15.9005 2.63026C15.9443 2.65066 15.9832 2.68034 16.0144 2.71725C16.0456 2.75416 16.0684 2.79741 16.0812 2.84401C16.094 2.89061 16.0966 2.93944 16.0887 2.98711L18.062 3.31645ZM20.7473 10.5978C21.8007 10.5978 22.5873 11.5604 22.382 12.5911L24.3433 12.9844C24.4494 12.4526 24.4362 11.9024 24.3046 11.3763C24.1731 10.8501 23.9264 10.3597 23.5825 9.94039C23.2385 9.52105 22.8058 9.18325 22.3155 8.95131C21.8253 8.71937 21.2897 8.59908 20.7473 8.59911V10.5978ZM19.1473 23.9324C19.9949 23.9326 20.8164 23.6378 21.472 23.1006C22.1276 22.5633 22.5769 21.8156 22.7433 20.9844L20.7833 20.5911C20.7077 20.9692 20.5034 21.3095 20.2051 21.5538C19.9067 21.7982 19.5329 21.9328 19.1473 21.9324V23.9324ZM15.4753 0.599112C14.6522 0.599171 13.8418 0.801105 13.1161 1.18954C12.3904 1.57797 11.7719 2.13956 11.3153 2.82445L12.978 3.93511C13.252 3.52399 13.6234 3.18559 14.0591 2.95252C14.4947 2.71945 14.9812 2.59893 15.4753 2.59911V0.599112ZM4.00065 21.9324C3.08065 21.9324 2.33398 21.1858 2.33398 20.2658H0.333984C0.333984 21.2382 0.720293 22.1709 1.40793 22.8585C2.09556 23.5461 3.02819 23.9324 4.00065 23.9324V21.9324Z" fill="#4D4D4D"/>
<path d="M6.66699 9.599V22.9323" stroke="#4D4D4D" stroke-width="2"/>
</svg>
