<svg width="20" height="20" viewBox="0 0 20 20" fill="none" xmlns="http://www.w3.org/2000/svg">
<path d="M9.12533 10.5833L7.91699 9.39583C7.76421 9.24306 7.57338 9.16667 7.34449 9.16667C7.1156 9.16667 6.91755 9.25 6.75033 9.41667C6.59755 9.56945 6.52116 9.76389 6.52116 10C6.52116 10.2361 6.59755 10.4306 6.75033 10.5833L8.54199 12.375C8.70866 12.5417 8.9031 12.625 9.12533 12.625C9.34755 12.625 9.54199 12.5417 9.70866 12.375L13.2503 8.83334C13.417 8.66667 13.4967 8.47222 13.4895 8.25C13.4823 8.02778 13.4025 7.83333 13.2503 7.66667C13.0837 7.5 12.8859 7.41333 12.657 7.40667C12.4281 7.4 12.23 7.47972 12.0628 7.64584L9.12533 10.5833ZM6.79199 18.125L5.58366 16.0833L3.29199 15.5833C3.08366 15.5417 2.91699 15.4342 2.79199 15.2608C2.66699 15.0875 2.61838 14.8964 2.64616 14.6875L2.87533 12.3333L1.31283 10.5417C1.17394 10.3889 1.10449 10.2083 1.10449 10C1.10449 9.79167 1.17394 9.61111 1.31283 9.45834L2.87533 7.66667L2.64616 5.3125C2.61838 5.10417 2.66699 4.91306 2.79199 4.73917C2.91699 4.56528 3.08366 4.45778 3.29199 4.41667L5.58366 3.91667L6.79199 1.875C6.9031 1.69445 7.05588 1.57278 7.25033 1.51C7.44477 1.44722 7.63921 1.45778 7.83366 1.54167L10.0003 2.45834L12.167 1.54167C12.3614 1.45834 12.5559 1.44778 12.7503 1.51C12.9448 1.57222 13.0975 1.69389 13.2087 1.875L14.417 3.91667L16.7087 4.41667C16.917 4.45834 17.0837 4.56611 17.2087 4.74C17.3337 4.91389 17.3823 5.10472 17.3545 5.3125L17.1253 7.66667L18.6878 9.45834C18.8267 9.61111 18.8962 9.79167 18.8962 10C18.8962 10.2083 18.8267 10.3889 18.6878 10.5417L17.1253 12.3333L17.3545 14.6875C17.3823 14.8958 17.3337 15.0869 17.2087 15.2608C17.0837 15.4347 16.917 15.5422 16.7087 15.5833L14.417 16.0833L13.2087 18.125C13.0975 18.3056 12.9448 18.4272 12.7503 18.49C12.5559 18.5528 12.3614 18.5422 12.167 18.4583L10.0003 17.5417L7.83366 18.4583C7.63921 18.5417 7.44477 18.5522 7.25033 18.49C7.05588 18.4278 6.9031 18.3061 6.79199 18.125Z" fill="#1FBC1F"/>
</svg>
